<svg id="Layer_1" data-name="Layer 1" xmlns="http://www.w3.org/2000/svg" viewBox="0 0 2480 3508"><defs><style>.cls-1{fill:#5dc2a7;}.cls-2{fill:none;stroke:#010101;stroke-linecap:round;stroke-linejoin:round;stroke-width:3.21px;}</style></defs><title>kælder</title><g id="Layer_2" data-name="Layer 2"><polyline class="cls-1" points="680.86 2323.85 729.01 2323.66 738.79 2360.54 676.18 2359.18"/><polyline class="cls-1" points="674.58 2359.19 759.65 2358.86 759.99 2447.95 760.1 2476.04 675.03 2476.36"/><polyline class="cls-1" points="634.83 2375.39 647.03 2375.34 649.05 2399.41 633 2399.48"/><polyline class="cls-1" points="630.1 2397.88 646.31 2397.82 657.09 2405 632.06 2407.51 626.59 2402.71"/><polyline class="cls-1" points="658.52 2401.14 671.69 2401.09 673.59 2396.11 681.17 2404.43 681.3 2439.42 639.89 2439.58 626.65 2417.96 632.22 2406.22"/><polyline class="cls-1" points="667.97 2394.53 674.72 2397.23 672.5 2402.53 663.51 2402.57"/><polyline class="cls-1" points="605.76 2412.58 605.86 2439.71 641.18 2439.57 628.73 2418.43 605.75 2410.82"/><polyline class="cls-1" points="605.86 2439.71 670.07 2439.46 669.41 2477.99 658.01 2476.43 640.19 2476.5 625.56 2469.81 605.95 2463.15"/><polyline class="cls-1" points="633.32 2482.95 705.55 2482.67 707.2 2493.9 707.31 2522.79 707.38 2540.45 635.14 2540.72"/><polyline class="cls-1" points="705.6 2495.03 712.66 2494.2 712.61 2481.03 723.2 2480.99 723.25 2494.16 723.42 2538.78 713.8 2540.42 714.58 2533.84 714.54 2525.65 705.7 2522.32"/><polyline class="cls-1" points="635.17 2548.75 665.67 2547.03 726.66 2545.19 768.49 2569.11 765.64 2665.43 757.64 2671.88 752.87 2683.13 746.51 2699.21 696.75 2699.4 687 2668.94 635.63 2667.53 633.92 2640.25 627.43 2622.62 601.73 2616.3 601.53 2564.93"/><polyline class="cls-1" points="723.17 2474.57 760.09 2472.83 765.14 2535.41 749.46 2546.55 737.93 2554.78 723.47 2550.02 721.83 2542"/><polyline class="cls-1" points="753.18 2554.88 754.79 2554.87 768.49 2569.11 740.01 2553.32"/><path class="cls-1" d="M737.93,2554.78c.47-1.77,9.76-9.51,11.2-9.67,2.09-.33,3.08,6.57,3.25,9.62"/><path class="cls-1" d="M752.38,2554.72c.8-.32,5.13-2.43,6.41-3.24,2.08-1.13,7.21-3.4,8-3.24,1.77.15,3,19.09,3.29,20.85.33,1.44-3.07-5.93-3.22-3.2v1.61"/><polyline class="cls-1" points="753.98 2554.71 753.96 2549.9 765.19 2546.64 766.8 2549.85"/><polyline class="cls-1" points="770.88 2358.82 817.43 2358.64 843.11 2356.93 894.48 2358.34 947.45 2358.14 946.13 2430.38 948.14 2537.27 950.23 2663.11 857.15 2666.68 770.46 2665.41 774.61 2492.67"/><polyline class="cls-1" points="753.59 2453.59 776.05 2448.69 777.94 2524.12 760.29 2525.8"/><polyline class="cls-1" points="770.9 2363.63 771.25 2370.69 774.44 2448.69 771.24 2450.31"/><polyline class="cls-1" points="771.05 2402.96 771.23 2447.1 767.85 2402.97 770.89 2360.42"/><polyline class="cls-1" points="807.66 2321.75 846.19 2321.61 855.94 2353.67 860.78 2360.07 836.7 2360.17 817.44 2360.24 819.03 2357.03"/><polyline class="cls-1" points="855.53 2665.08 927.75 2661.59 908.68 2709.82 871.77 2711.57"/><polyline class="cls-1" points="941.17 2393.47 997.34 2391.65 1000.7 2430.16 944.53 2431.99"/><polyline class="cls-1" points="941.52 2484.97 997.7 2484.75 997.88 2531.3 946.52 2531.5"/><polyline class="cls-1" points="993.98 2351.54 1109.54 2347.88 1232.49 2345.96 1364.74 2342.08 1474.68 2338.61 1477.42 2424.64 1483.77 2614.67 1483.1 2648.22 1422.12 2653.27 1304.95 2655.33 1194.19 2655.75 1052 2663.36 998.06 2661.64"/><polygon class="cls-1" points="1022.47 2662.83 1048.14 2659.53 1067.4 2661.06 1093.08 2659.35 1091.53 2673.8 1085.18 2691.49 1078.81 2705.96 1075.61 2707.57 1070.79 2707.59 1046.72 2707.69 1033.89 2712.55 1022.47 2662.83"/><polyline class="cls-1" points="1190.97 2652.55 1264.81 2652.27 1261.67 2669.94 1260.13 2687.6 1255.39 2706.88 1239.34 2708.55 1205.63 2707.07"/><path class="cls-1" d="M1365.94,2653.49l24.07-1.7,17.66-.07,19.26-.07,6.42,0s-6.36,16.08-6.35,17.68-3.17,9.64-3.17,9.64l-32.09,3.33-11.87,1.17-6.43-1.58"/><polyline class="cls-1" points="1477.43 2425.12 1479.08 2437.95 1479.15 2457.22 1479.21 2471.66 1478.55 2467.01"/><polygon class="cls-1" points="1534.35 2617.52 1593.73 2615.69 1593.85 2646.19 1597.14 2665.44 1597.18 2676.67 1571.5 2676.77 1552.23 2676.85 1545.78 2667.24 1540.89 2649.6 1534.46 2646.42 1534.35 2617.52"/><polyline class="cls-1" points="1607.87 2533.77 1652.8 2531.99 1656.14 2564.08 1667.4 2572.07 1641.73 2575.37 1628.91 2578.63 1606.43 2578.72"/><polyline class="cls-1" points="1534.21 2580.6 1548.65 2578.94 1606.43 2578.72 1607.87 2533.77 1575.77 2535.5 1540.46 2537.24"/><polyline class="cls-1" points="1656.13 2562.48 1688.26 2568.78 1690.04 2615.32 1678.82 2618.57 1659.58 2623.46 1656.35 2618.66 1653.1 2609.04"/><polyline class="cls-1" points="1535.8 2577.39 1591.98 2577.17 1657.77 2572.1 1657.94 2615.44 1593.73 2615.69 1579.3 2618.95 1537.57 2619.12 1524.72 2619.16 1492.62 2619.29 1492.53 2595.21 1492.47 2579.16"/><polyline class="cls-1" points="1492.38 2556.69 1535.72 2556.52 1537.37 2569.36 1537.41 2578.99 1492.47 2579.16"/><path class="cls-1" d="M1540.09,2440.93l20.85-3.29,12.85,1.56,28.89-.11s16-1.67,17.65-1.67l30.5-.12.06,16.05,1.65,11.23,3.41,51.35,2.94,12.35-39.81.63-40.13.15-40.13.15"/><polyline class="cls-1" points="1649.3 2456.56 1686.24 2461.23 1686.44 2514.2 1681.64 2517.43 1659.21 2527.15 1655.93 2511.11 1660.74 2507.88 1654.34 2514.33 1654.93 2499.56"/><polyline class="cls-1" points="1490.65 2524.59 1540.41 2524.4 1538.84 2532.43 1538.87 2540.46 1537.31 2551.7 1535.72 2556.52 1532.51 2556.53 1522.88 2558.18 1513.25 2558.21 1502.01 2556.65 1501.99 2550.23 1492.35 2548.66"/><polygon class="cls-1" points="1490.32 2439.52 1533.66 2439.35 1533.92 2506.77 1538.74 2506.75 1540.36 2509.95 1540.39 2517.98 1538.81 2524.4 1490.65 2524.59 1490.32 2439.52"/><path class="cls-1" d="M1482.4,2340.67l15.57-.7,38-3.2,14.93-.22,22.47-.09,11.24,0,11.24,0,14.45-.06,17.65-1.67,17.65-1.67,3.24,6.41,1.65,11.23,11.25,3.17s17.66-.07,19.27,1.53,11.24,0,11.24,0l-1.53,19.27.09,24.08,3.24,6.41-4.81,1.62-33.68,6.55-3.14,17.67-14.45-1.55-30.5.12-33.7,1.73-12.84,0-14.45.06-12.84,0-1.59,4.82-1.58,6.43L1516,2441l-17.65,1.67-3.24-8-4.83-4.8-6.69-70.6Z"/><polyline class="cls-1" points="1472.38 2364.14 1493.21 2354.43 1493.34 2388.14 1495.02 2407.39 1485.38 2407.43 1474.17 2412.29 1472.54 2405.88"/><polyline class="cls-1" points="1475.77 2410.68 1478.97 2409.06 1479.03 2423.51 1479.08 2437.95 1477.45 2431.54"/><polyline class="cls-1" points="1479.09 2441.16 1479.09 2441.16 1482.35 2453.99 1479.2 2468.45 1477.58 2463.64"/><polygon class="cls-1" points="1491.35 2288.62 1533.08 2286.86 1533.29 2341.43 1491.55 2339.99 1493.05 2314.3 1491.35 2288.62"/><polyline class="cls-1" points="1402.74 2205.49 1431.63 2203.78 1442.83 2194.1 1458.84 2182.81 1516.63 2184.19 1614.55 2185.42 1648.27 2186.89 1649.93 2201.33 1653.15 2206.14 1661.19 2207.71 1680.46 2210.85 1680.56 2236.53 1682.25 2258.99 1664.62 2265.48 1650.18 2267.14 1650.22 2276.78 1648.64 2283.2 1619.75 2284.92 1550.73 2286.79 1533.08 2286.86 1502.58 2288.58 1473.69 2288.69 1448.01 2288.79 1419.12 2288.9 1404.67 2290.56 1404.46 2235.99"/><path class="cls-1" d="M1421.18,1991.93,1556,1988.2l27.28-1.71,35.31-1.74,25.69,1.51,1.65,11.23,4.83,3.19,25.7,4.72.07,19.26.06,14.45,1.68,19.26-19.24,4.89-12.8,9.68a130.09,130.09,0,0,1,.06,14.45c-.31,3.53-.62,5.78,0,6.42.81.8-.47,4,1.63,6.41,2.42,2.88,8,4.78,8,4.78s16.06,1.54,16.06,3.15,16.06,3.15,16.06,3.15l-1.48,32.11.06,14.45-12.83,3.26-24.07,3.3-1.52,22.48-41.72,5-64.21-1.36-56.19-3-27.29-1.5-9.69-14.41-33.83-32-8-4.78-19.19,17.73-6.4,6.45-8,6.45-4.75,16.07-14.45.06-25.68.1-3.27-16-14.45.06-9.67-9.59-16.07-4.75-12.81,8.08-9.64-1.57,0-6.42,3.07-35.33-.06-16.05-1.75-38.52-.06-16.05-.08-20.87,0-11.24-.07-17.66Z"/><polyline class="cls-1" points="1202.89 1995.98 1233.39 1995.87 1259.07 1995.77 1257.52 2008.62 1259.21 2031.08 1257.71 2058.38 1259.37 2072.82 1259.42 2087.26 1259.47 2100.1 1257.88 2103.32 1254.68 2106.54 1253.09 2109.76 1256.31 2111.35 1257.93 2116.16 1265.96 2117.74 1269.19 2122.54 1267.61 2127.36 1266.04 2138.6 1266.07 2146.63 1262.89 2153.06 1262.94 2167.51 1261.38 2177.14 1261.41 2185.17 1264.66 2196.39 1264.68 2202.82 1253.45 2204.46 1239.01 2204.52 1232.6 2207.76 1235.84 2215.77 1239.07 2220.57 1234.27 2225.41 1226.25 2227.04 1207 2228.72 1208.58 2222.29 1206.66 2142.04 1204.97 2119.57 1206.4 2114.43 1208.14 2108.33 1201.67 2095.51 1199.91 2055.39"/><polyline class="cls-1" points="993.58 2247.2 1044.94 2245.4 1046.77 2303.18 1045.28 2335.29 1045.35 2351.34 1020.46 2350.79 1002.02 2354.72 995.59 2351.53 994.71 2332.75"/><polyline class="cls-1" points="961.48 2248.93 993.58 2247.2 1001.59 2242.35 1025.66 2242.26 1059.37 2242.13 1131.6 2240.25 1139.61 2235.4 1158.86 2233.72 1179.72 2232.04 1197.37 2228.76 1203.79 2230.34 1210.21 2228.71 1216.63 2228.68 1224.65 2227.05 1226.33 2247.91 1228.02 2268.77 1228.06 2280.01 1228.11 2291.24 1228.12 2296.06 1197.63 2297.78 1173.56 2297.87 1149.48 2297.97 1078.86 2299.84 1043.55 2301.58 993.78 2300.17 985.76 2300.2 963.27 2297.08 963.26 2293.87"/><polygon class="cls-1" points="991.04 2004.83 995.84 2001.6 1063.25 1999.73 1079.31 2001.28 1129.05 1996.27 1148.18 1962.48 1148.11 1943.22 1165.78 1946.37 1173.8 1944.73 1207.44 1926.94 1205.89 1941.39 1194.71 1955.88 1193.17 1973.55 1192.44 1990.89 1198.09 2000.82 1196.66 2045.77 1193.67 2103.57 1196.91 2109.97 1208.15 2111.54 1216.26 2132.37 1216.3 2143.61 1208.31 2153.27 1221.3 2191.75 1224.63 2222.23 1207.04 2238.35 1168.56 2251.34 1122.04 2257.94 1077.08 2254.9 1044.97 2255.03 1022.46 2243.88 1037.22 2242.22 993.58 2247.2 993.55 2239.17 994.01 2151.69 993.02 2102.73 991.04 2004.83"/><path class="cls-1" d="M959.12,2051.5l6.41-3.24,9.62-1.64,3.22,1.59,1.6-1.61h3.21l4.8-3.23h1.61l3.17-11.25s11.66,26.6,11.34,27.24-9.43,51.4-9.43,51.4l-1.6,1.61-4.82-1.59-6.43-1.58-8-3.18-6.43-3.19h-1.61l-4.82,0"/><path class="cls-1" d="M1017,1654.79l40.12-3.36,11.24,0,20.87-.08,20.87-.08,30.5-.12,20.86-1.69s14.44-1.66,17.65-1.67l19.26-.07,24.08-.09,46.55-.18,28.89-.11,22.47-1.69,20.87,1.52s28.87-4.93,32.09-3.33,32.09-3.33,35.31-1.74,53,1.4,53,1.4l-1.38,57.79L1462,1759l1.67,16-1.46,36.93.07,17.66,1.72,30.49-1.48,33.71,3.28,17.64.11,28.89-22.47.09-11.24,0-30.49,1.72s-27.28,1.71-30.5.12-61,1.84-61,1.84-32.11-1.48-33.71.13-48.16-1.42-53,.2-56.17,1.82-56.17,1.82l-53.28,2.29-124.87,3.21-.06-14.45-.15-40.13-8.12-25.65,7.9-32.13-1.91-78.65-.08-20.87L985,1679l24-12.93Z"/><polyline class="cls-1" points="958.36 1855.67 988.8 1841.1 982.49 1870.02 993.88 1908.5 989.09 1916.55 971.41 1910.19 964.99 1908.61 958.55 1905.43"/><path class="cls-1" d="M956.18,1704.79l9.61-4.85,8-1.64,4.81-1.62,3.2-1.62,4.8-4.83.08,20.87.14,36.28.05,13.48v3.21l-10.12-1.89L972,1759l-9.16-2.85-3.22-1.59h-3.21"/><polyline class="cls-1" points="1180.51 1602.8 1222.23 1599.43 1220.7 1618.69 1224.03 1649.18 1203.64 1647.65 1190.31 1647.7 1180.68 1647.74 1178.96 1617.25 1178.29 1610.19 1177.3 1602.81"/><path class="cls-1" d="M984.22,1484.77l32.1-.12s33.7-1.73,35.31-.14c1.13,1.12,25.68-.1,25.68-.1l32.1-1.73,24.07-1.7,32.11,1.48,33.7-1.73,25.69,1.51,33.71-.13,19.26-1.68,16-3.27,3.23,4.8-3.15,16.06,1.72,28.89,1.69,20.86,0,11.24.09,22.47,0,12.84,0,4.82-48.15,1.79-8,0-11.23,1.65-9.63,0-20.86,1.69-16.22-1.54-17.5.23s-17.66-.09-19.26-.09l-49.76.19-33.71.13-11.22,3.25-4.82-1.59-38.52,1.75-1.62-4.81-22.58-27.2,0-8-12.86-4.77-12.85-1.56h-3.21L954,1550.7l0-12.84,1.57-8-1.62-3.2,1.56-11.24,3.16-12.85,24-9.72"/><path class="cls-1" d="M1473.57,1839.24l89.89-.35,40.13-.15,16.05-.06,16-1.67,3.22,3.2,4.85,9.61,6.43,3.19,14.46,3.15,17.68,6.35c1.62,3.2.18,46.55.18,46.55l-6.41,3.24-28.86,8.14-3.15,16.06-27.29.11-25.69-1.51-32.09,3.33-46.55.18-27.29.11-11.24,0-1.65-11.23-1.67-17.65-8,0-.06-16.05.74-17.34-4.06-13.15,12.84,0,2.36-13.17Z"/><path class="cls-1" d="M1469.6,1643.42l28.89-1.72,27.28-1.71,27.28-1.71,22.47-.09,22.47-.09,9.63,0,8,0,14.45-.06,6.42,0s-1.56,12.85,0,12.84,3.33,32.09,3.33,32.09l-1.56,12.85.06,14.45h-3.21L1591.65,1698l-1.45-.48-29.54-2.29-34.67.94-41.71,6.58-3.22-3.2-9.63,0-1.65-12.84Z"/><polyline class="cls-1" points="1513.14 1696.22 1516.37 1701.03 1521.19 1702.61 1521.24 1715.45 1521.47 1773.24 1523.09 1776.44 1524.73 1787.67 1524.91 1832.62 1505.64 1832.69 1473.54 1832.82 1471.69 1770.22 1471.66 1762.19 1471.63 1754.17 1471.6 1746.14 1471.57 1736.51 1469.93 1728.49 1469.9 1720.47 1469.86 1710.84 1471.43 1702.8 1481.07 1702.77 1482.66 1701.16"/><path class="cls-1" d="M1590.2,1697.53l19.27,1.53,9.65,4.78,4.82,0h3.21L1640,1707l0,4.82-1.54,16.06,3.26,12.83,16.08,6.36s8,0,9.64,1.57,4.82,1.59,4.82,1.59l.09,22.47.11,27.29-11.22,3.25-8,1.64-6.42,0-3.2,3.22-4.8,3.23,1.67,17.65v3.21l-19.26.07-23-.55-12.85-1.56.46-5.78-.07-17.66-.14-36.92,1.46-38.53,0-12.84,0-8Z"/><polyline class="cls-1" points="1529.22 1702.58 1538.85 1702.55 1551.69 1702.49 1558.11 1702.47 1567.74 1702.43 1572.56 1702.41 1578.98 1702.39 1588.63 1707.17 1590.24 1708.77 1587.11 1728.2 1588.77 1742.48 1587.31 1781.01 1584.28 1827.58 1576.27 1830.82 1558.62 1832.49 1537.75 1832.57 1531.33 1832.59 1531.32 1829.38 1529.68 1822.97 1523.26 1821.39 1523.18 1802.13 1527.88 1771.61"/><polyline class="cls-1" points="1521.47 1773.24 1529.49 1773.21 1526.36 1792.48 1519.93 1790.9"/><polyline class="cls-1" points="1556.08 1590.12 1596.21 1589.96 1596.39 1638.12 1568.78 1638.22 1553.05 1638.28"/><path class="cls-1" d="M1424.93,1296.87l85.06-3.54,35.3-3.35,16.06,3.15,27.28-1.71,24.08,1.51,17.65-1.67,1.66,14.44,40.17,9.48-2.64,23.77,1.21,21.18-19.24,4.89-19.24,6.49.12,30.5,3.26,12.83a5.6,5.6,0,0,0,3.22,1.59c1.61,0,19.28,4.74,19.28,4.74l6.43,1.58,0,9.63.15,40.13c0,1.61-4.81,1.62-4.81,1.62l-16,3.27-8,1.64.06,16.05.36,93.1-53,3.41V1590l-23.76.09-6.74,1.63-32.11-1.48s-3.69.5-4.81,1.62c-3.2,3.22-91.49,2-91.49,2l-1.61-1.6v-1.61l-3.66-115.56.59-12.52-.89-64.53-.19-48.16-1.77-41.73,0-9.63"/><polyline class="cls-1" points="1320.11 1296.47 1351.09 1297.15 1367.13 1293.88 1368.75 1297.09 1373.57 1298.67 1383.2 1298.63 1400.86 1298.57 1402.57 1325.85 1402.68 1354.74 1413.91 1354.7 1418.7 1348.26 1418.83 1381.65 1418.93 1406.05 1406.07 1402.88 1402.92 1418.95 1403 1438.21 1403.88 1459.4 1404.76 1478.33 1406.43 1495.98 1404.99 1539.33 1405.1 1568.22 1406.81 1593.9 1400.39 1595.53 1392.38 1598.77 1369.91 1598.86 1326.56 1597.42 1326.54 1591 1326.4 1554.88 1319.41 1408.03 1311.39 1408.07 1295.34 1409.73 1292.05 1388.88 1291.94 1361.59 1319.22 1358.27 1320.11 1296.47"/><path class="cls-1" d="M983.55,1309.8l67.4-3.47-.19-49.76,33.71,1.48-1.42,48.16s150.87-3.79,154.08-3.8,57.77-3.43,57.77-3.43h0c1.61,0-1.58,6.43,0,6.42s0-6.42,0-6.42l.2,53,.07,19.26,3.36,38.51-3,54.59a23.09,23.09,0,0,1-3.19,4.83c-1.6,1.61-16,3.27-16,3.27l-36.92.14-27.29.11-46.55.18-14.44,1.66-25.68.1-17.66.07-40.13.15-51.36,1.8s-32.1.12-32.1,1.73,1.54-17.66,1.54-17.66L984,1425.38l-1.63-6.41-29.57-8.23.55-23.76-1.72-28.89,19.24-6.49,12.82-4.86Z"/><polygon class="cls-1" points="1050.76 1256.57 983.34 1256.83 981.62 1224.74 955.91 1218.41 951.08 1215.22 950.89 1165.46 970.13 1158.97 979.73 1152.51 984.42 1120.39 998.87 1120.33 1019.74 1120.25 1045.41 1118.55 1051.82 1113.71 1050.2 1110.5 1027.73 1110.59 985.99 1109.15 982.75 1102.74 981.06 1080.27 950.52 1069.15 952.01 1040.25 948.73 1021 980.79 1009.64 982.36 1001.61 979.13 995.2 958.26 996.89 958.17 971.21 959.76 967.99 980.63 969.51 982.07 926.17 1015.79 929.25 1015.93 966.17 1057.67 967.61 1104.22 967.43 1121.88 967.37 1157.19 965.62 1157.27 986.49 1158.93 1000.93 1166.96 1002.51 1165.48 1034.62 1158.57 1031.91 1157.13 1075.26 1156.13 1108.49 1080.69 1108.78 1083.93 1115.19 1119.25 1116.66 1132.09 1116.61 1156.17 1118.12 1157.91 1151.82 1158.01 1177.51 1158.12 1208.01 1158.3 1254.56 1100.52 1254.78 1081.27 1259.67 1075.65 1257.6 1057.02 1256.87 1053.98 1258.17 1050.76 1256.57"/><polygon class="cls-1" points="1165.21 963.99 1234.23 963.72 1234.31 982.99 1247.16 986.15 1248.76 984.53 1253.54 976.49 1250.28 962.06 1258.31 963.63 1279.18 963.55 1292.01 961.89 1312.88 961.82 1336.96 961.72 1354.61 960.05 1348.28 984.15 1356.31 985.73 1365.93 982.48 1369.11 974.44 1365.85 961.61 1441.29 959.72 1497.46 957.89 1537.6 959.34 1542.41 959.33 1542.19 901.54 1582.31 899.78 1587.33 952.73 1624.26 955.8 1625.89 962.22 1659.63 970.11 1659.82 1018.27 1629.35 1026.41 1627.82 1045.68 1629.49 1061.72 1661.63 1072.84 1661.81 1119.39 1629.75 1130.74 1628.28 1166.07 1671.66 1175.53 1670.24 1223.69 1633.35 1230.25 1630.19 1244.71 1590.07 1246.47 1588.64 1291.42 1561.35 1293.13 1543.7 1293.2 1546.76 1254.66 1546.72 1245.03 1521.04 1245.13 1485.72 1245.27 1439.18 1247.05 1397.45 1248.82 1366.96 1250.54 1367.05 1273.01 1365.54 1297.1 1351.09 1297.15 1320.59 1297.27 1318.8 1249.12 1310.77 1249.15 1253 1252.59 1185.58 1252.85 1166.32 1252.92 1164.61 1224.03 1164.54 1207.98 1165.85 1129.32 1164.17 1110.07 1165.63 1073.14 1167.05 1024.98 1166.96 1002.51 1165.21 963.99"/><polyline class="cls-1" points="1165.36 1004.12 1171.78 1004.09 1167.09 1034.61 1160.64 1028.21"/><path class="cls-1" d="M1526.43,559.69l25.68-.1,33.71-.13,11.34,25.64,4.83,3.19,17.66,1.54,4.88,16,14.47,4.76,16.07,4.75s-1.51,25.69-1.5,27.29,1.65,11.23,0,11.24l0,12.84-28.87,6.53-3.17,11.25s-1.59,4.82,0,6.42,1.69,22.47,1.69,22.47l4.83,4.8,6.43,1.58,6.43,1.58,16.06,3.15.2,51.37L1638,780.78l-12.82,4.86-3.19,6.43s-38.53-1.46-38.52.15-6.42,0-6.42,0l-1.59,4.82,0,4.82L1553,800.37l-11.22,3.25,1.57-9.64-41.73.16-3.25-9.62,1.47-35.32,1.56-12.85-.15-38.52-.14-35.31-1.73-33.7L1497.72,608l3.15-16.06,19.26-.07L1528,562.9"/><path class="cls-1" d="M1066.58,778.17l25.68-.1,17.66,1.54,1.7,25.68,1.62,3.2,11.24,0,12.84,0,9.63,0,4.82,0,25.68-.1,22.47-1.69,28.9,1.49,11.23-1.65c1.45.15,20.87-.08,25.69,1.51,1.45.48,11.23-1.65,11.23-1.65l3.12-22.48,24.07-1.7,12.84,0h1.61c1.61,0-1.51,25.69-1.51,25.69l19.26-.07,19.26-.07,19.26-.07c1.61,0,43.33-3.38,43.33-3.38l-.09-24.08,38.54,4.67s-3.14,19.27-1.53,19.27,27.28-1.71,27.28-1.71,16.06,1.54,17.66-.07,27.29-.11,27.29-.11l11.54-3.74,38.53,1.46,17.34.41,28.89-1.72s-1.53,19.27-1.52,20.87,22.5,6.33,22.5,6.33l17.67,3.14,3.37,41.72,0,9.63-33.7,1.73-8,17.69-48.15,1.79-33.71.13-20.87.08-25.69-1.51-28.89,1.72-62.6,1.85-83.47.32L1242,907.51l-54.58.21-96.31.37-28.89.11-12.84,0,4.69-32.12-3.23-4.8-4.8,4.83,1.67,17.65s-4.77,12.86-6.37,14.47-8,14.48-8,14.48-20.82,12.92-22.44,9.72-27.31-4.71-27.31-4.71l-6.45-8L982,898.88,981.89,878l1.54-17.66,4.8-4.83,9.62-3.25,25.68-.1,1.59-4.82-3.47-67.4,11.23-1.65Z"/><path class="cls-1" d="M1412.48,564.95l8,0,32.1-1.73,6.46,11.21,4.88,16,25.7,3.11,1.8,51.36.25,65.81,6.42,0,3-53,5.14,83.45-12.81,8.08-1.43,45c1.29,1.28-9.79,1.32-14.45.06-2.25-.63-20.85,4.9-20.85,4.9l-49.76.19-33.71-1.48,1.4-53L1372.76,671l-3.68-39-.1-24.88.28-10L1383.7,594l8-17.69,1.57-9.64h3.21l6.41-1.63Z"/><path class="cls-1" d="M1215.17,597.81l28.89-.11,8-17.69,4.77-11.25,33.7-1.73,28.89-1.72s11.37,35.27,6.54,30.47h0l33.72,3.08s1.67,16,1.67,17.65-1.34,69,.28,73.84.41,107.55.41,107.55l-25.68,1.7-16.06-1.54-6.42,0-38.52,1.75-28.91-3.1-14.51-16-14.48-9.58,0-4.82-.32-83.47-1.75-37.23-.11-27.29Z"/><path class="cls-1" d="M983.92,573l22.47-.09,17.66-.07,14.45-.06,13,28.84,14.45-.06,20.86-1.69,32.1-.12h1.61l9.63,0h0l0-4.82,3.17-9.64,8-17.69,17.66,1.54,11.24,0,25.68-.1c1.61,0,1.64,8,1.64,8l6.52,25.66.13,33.71.2,53,2.32,18,1.07,27,.13,33.71-16,1.67-27.29.11-28.9-1.49-53,1.81-17.66.07,1.64,8-15.24,1.66-16.85.06-1.64-8-6.6-46.53-1.64-8-16.05.06-27.29.11L981,659.71l-.78-35.31,2.12-33.72.92-10.76Z"/><path class="cls-1" d="M981.29,722.31l17.66,1.54,6.41-1.63,6.43,1.58,6.42,0L1023.1,743l1.71,27.28-9.63,0,0,8,6.43,1.58.84,9s1.11,37.56,1.92,40c.65,2.41,2.32,18.45,2.32,18.45L1009,842.59l-11.39,1.33-15.88,3.59,0-11.24L962.47,838,940,839.65l-1.56,12.85-1.6,1.61-8,6.45L919.24,867l-1.58,6.43,6.49,19.24-1.55,14.45L921,918.38,933.92,928l-20.84,6.5-11.25-4.77-19.31-11.16-3.22-3.2L866.46,917l-3.17,9.64-4.77,11.25-3.19,4.83-3.2,3.22-12.84,0-38.52.15-2.94-11.87L791,920.48l-1.67-16-.08-20.87s-1.7-25.68-.11-27.29,1.54-16.06,1.54-16.06l-8-3.18-3.23-4.8,6.32-25.71L790.44,768l33.71,1.48,1.48-32.11L864.15,734l-1.48,32.11,69,2.94,3.24,8,28.91,3.1,17.66-.07,4.8-3.23-3.24-8-1.63-6.41Z"/><polygon class="cls-1" points="808.96 575.3 863.53 573.48 870.06 600.75 882.91 602.3 906.99 603.81 927.85 602.13 928.35 730.54 929.97 735.35 923.56 738.59 836.88 738.92 817.63 740.6 799.96 739.06 801.54 732.63 801.41 698.93 801.27 662.01 801.14 626.69 801.83 598.12 808.96 575.3"/><polygon class="cls-1" points="655.63 773.33 698.96 771.55 697.16 720.2 722.84 718.49 745.5 768.16 782.43 771.23 782.52 795.31 785.77 804.93 781.12 848.29 781.37 912.5 779.78 917.32 741.26 917.47 736.55 946.38 722.11 946.43 690 946.56 673.95 946.62 662.61 919.37 648.15 916.22 630.5 917.89 628.85 905.06 627.15 880.99 611.09 877.84 588.59 873.11 583.77 869.91 586.3 861.56 586.9 849.04 586.82 828.17 585.19 821.75 625.28 811.97 627.65 802.81 626.81 792.7 626.77 783.07 628.35 775.04 631.55 773.42 638.93 772.43 650.17 772.71 655.63 773.33"/><polyline class="cls-1" points="674.14 579.03 688.58 577.37 715.87 577.26 730.32 577.21 738.47 610.88 751.31 609.23 752.95 618.85 751.38 628.49 759.41 630.07 762.61 626.84 760.98 620.43 760.94 609.19 776.98 607.52 789.83 607.48 791.44 609.07 791.48 620.31 793.22 654.01 793.22 655.62 775.57 655.69 767.54 655.72 762.73 657.34 757.93 660.57 757.94 663.78 757.95 666.99 757.96 668.6 764.37 666.97 769.18 665.34 770.65 671.6 770.82 674.97 772.43 676.57 777.25 676.55 780.45 674.93 782.03 668.5 782.03 666.9 788.44 665.27 793.26 666.85 793.3 674.88 791.75 690.94 791.79 700.57 791.9 729.46 791.93 737.49 790.33 739.1 787.12 739.11 785.51 737.51 785.5 734.3 785.47 727.88 785.44 718.25 775.81 718.29 775.22 732.9 775.88 737.55 772.68 739.17 766.25 739.19 763.04 739.2 759.82 736.01 760.43 728.14 761.37 721.55 761.34 713.53 759.71 705.51 758.09 703.91 753.27 702.32 753.28 705.53 753.32 715.16 753.42 740.85 747.01 744.08 742.2 745.71 742.25 758.55 729.4 756.99 697.24 741.06 668.35 741.17 663.5 733.17 663.36 696.25 655.33 696.28 653.75 701.1 653.85 728.39 653.9 741.23 641.06 741.28 628.22 741.33 628.17 730.09 627.31 714.37 623.61 710.85 602.4 707.72 598.87 705.81 599.86 672.74 599.79 653.96 600.58 649.94 611 647.49 621.42 643.44 626.23 641.81 626.18 630.58 626.12 614.53 627.72 611.31 629.32 609.7 635.57 609.51 648.58 609.62 653.39 609.61 654.69 613.93 654.78 637.53 654.85 654.22 660.95 654.36 663.2 654.51 663.16 644.88 661.48 625.63 663.04 614.38 664.6 603.14 672.54 580.64"/></g><g id="Layer_1-2" data-name="Layer 1"><path class="cls-2" d="M1563.38,1818.67c4.5.46,16.37-.38,20.86-.72"/><path class="cls-2" d="M1023.27,2662.83c-9.78,2.77-13.33-2.84-23-1.36-2.75-4.81-2.93-9.62-2.95-14.6l-.42-108.35c0-2.89.46-5.94-.84-8.83-13.64.05-27.29.43-40.93,0-5.94-.14-7.38,2.28-7.19,7.41.38,14.12.91,28.41,1,42.53.26,24.88.06,57.63.16,82.51"/><path class="cls-2" d="M1787.91,1561c28.57-.11,60.52.09,89.09-.34,6.26,0,8.19,2.06,8.22,8.15-.07,23.76.18,47.67.11,71.43,0,4.49,2.44,9.3-1.23,13.65l-92.62.36c.38,16.05-1.64,32.11.19,48.8-5.78.34-12.68.37-17.65,2.64"/><path class="cls-2" d="M1956.16,1525.17c2.11,5.61-1.88,13-1.21,18.46.16,1,1.77,1.6,1.46,3.2-2.35,14.78.92,29.37.33,44.14-.74,15.25,0,30.5,0,45.75l.17,44.94c0,1.28.65,2.89-1.75,4.82l-52,.2"/><path class="cls-2" d="M1444.26,1940.48c-6.9.51-14,1.66-20.86,1.53-38-.82-75.92,1.58-114,2.36-30,.76-63.89.25-93.9,1"/><path class="cls-2" d="M1360.45,601.27c.34,4.81-.11,12.84.07,17.66.41,22.15,1.46,44.46.9,66.61-.56,20.71,2.25,41.24,1,61.8-.9,16.06-.19,34.51-.77,50.57"/><path class="cls-2" d="M1647.83,2283.21c-8,2.28-57.78,2.63-65.8,3.14-16.21,1-32.58.45-49.28.51l.19,50.56c17.17-2.15,34-1.58,51-1.8"/><path class="cls-2" d="M855.14,2353.68c3.87,3.68,8.53,4.78,13.66,4.76,24.08-.25,48.15-.67,72.23-.92,1.77,0,2.88-2.42,5.62.62l.13,35c16.37-1.51,31.79,2.12,47.35-.82l-.28-72.55c0-2.89.43-14.45.74-17.5"/><path class="cls-2" d="M1455.42,2338.52c-15.25.54-30.49,1.4-45.74,1.78-31.62.76-63.08,1.21-94.7,2.13-12,.37-24.07,1.06-36.11,1.74"/><path class="cls-2" d="M1404,1477.53c-.08-20.39,0-40.61-.23-61-.05-13.48-.53-13.16,12.31-12.89,3.87,5.12,2,10.75,2.15,16,.37,13.16,3,26.15,1.92,39.32-.91,12.68,2.18,25.19,1.59,37.72-1.64,32.43,1.53,64.68.38,97.43,4.5,1.11,8.84,3,13-.37"/><path class="cls-2" d="M1504.18,1244.39c-8,1.15-28.24,2.52-32.9,2.53-25.68.58-51.36,1.32-77,1.9-6.9.19-14-.27-20.87-.72-4.66-.3-6.58,1.47-6.56,6.45.37,13.16.26,26.16.15,39.33,0,2.89,2.58,3.52,8.52,3.5"/><path class="cls-2" d="M1459.53,902.66l-162.12,2.23"/><path class="cls-2" d="M581.91,2679.78l.17,43.34c14.93-.06,28.74,1.82,41.73-.64,17.48-3.28,34.83-.62,52.32-2,19.26-1.52,38.53.49,57.78-1,5.78-.5,11.72.76,17.66.57,29.21-1.24,58.27-.06,87.48-.34,3.85,0,9.31-.52,12.83-2.46"/><path class="cls-2" d="M1527.92,1989.11l-160.51,2.22"/><path class="cls-2" d="M1248.72,1600.93c-7.37,2.76-14.93.06-22.47,1.21-5.29.82-6.4,4.2-6.07,6.93,1.49,12.51-.7,25.36,2.39,37.71,19.26-.07,38.53.33,57.79-.38,18.78-.55,37.39-2.39,56.18-1a66.86,66.86,0,0,0,23.27-2.34"/><path class="cls-2" d="M933.74,964.72c-18,1.67-53.93,2.45-71.91,1.4-10.92-.6-22,.57-32.9.77-20.06.24-40.13.15-60.19.23l-180.58.7c-12,0-12,0-12.09-12,.06-26.16.06-108.67.28-134.84"/><path class="cls-2" d="M1108.62,1483.49l-123.76.48c.53,11.72-8.46,11.75-14.39,14.18-2.24,1-6.73,3.08-9.46,2.77"/><path class="cls-2" d="M1642,780c-7.54,2.28-16.69,1.67-20,11.31-.63,1.93-2.73.65-4,.82-11.72.37-23.6-1.19-35.31.3-1.93.17-3.69-.63-5.62.66s-1.6,2.41-1.59,4c-.15,2.41,1.61,2.4,3.22,2.4l44.14-.17,0,11.24c0,10.43,0,10.43,9.68,12"/><path class="cls-2" d="M1354.61,960.85c2.85-9.8-2.48-18-5.72-26.46-1.14-3.21-3.54-2.39-5.63-2.39l-77.85.3c-7.7,0-9.12,6.62-11.19,12.08-4,10.29-6.18,20.57-1.48,31.31,1.62,4-2.87,6.11-3.17,9.64"/><path class="cls-2" d="M1144.2,1969.72c5.91-6.6,3.8-14.14,3.12-22.48-40.13,0-81.85,3.53-122,2.88"/><path class="cls-2" d="M977.6,1223.15c5.14.3,5.64,5,5.65,8l.1,25.68,67.1-.26.19,49.6c-11.07,1.81-21,.72-30.82,1.08-10.11.36-20.38,1-30.5.76-4.5-.14-5.77,1-5.6,5,.19,7.54.1,27.13.94,34.51"/><path class="cls-2" d="M1280.32,2344c-46.54,1.62-99.35,4.07-145.9,3.93"/><path class="cls-2" d="M943.7,2301.17c-4,2.26-6.41,2.43-10.91,2.45l-126,1.29"/><path class="cls-2" d="M1258.27,1996.57l.38,98.72c0,3.37,2,7.86-4,8.84-.32,0-.8,1.13-.8,1.61.33,1.44-1.27,3.38,1.62,4.17,4.18.95,1.49,11.55,10.14,7-.52-9.47-1.2-19.1-1.39-28.73-.25-23.6-.18-47-.27-70.63,0-7.22,2.51-14.46-.08-21.67"/><path class="cls-2" d="M1501.64,793.35c-4.19-3.68-2.76-8.5-2.3-12.83a210.92,210.92,0,0,0,1-36.28c-7.21,2.76-9.12,8.54-8.44,18.65.68,10.43.24,20.87.29,32.91l-32.1.12c-2.25,0-5.62-1.58-5.61,3.23,0,5.78,5.16,5,7.24,4.47,14.92-2.79,30-1.08,44.94-1.46,11.88-.37,23.76.07,35.78-2.87l1.1-5.94c-13.65-.91-27.29.27-40.93,1.44"/><path class="cls-2" d="M1969.1,1509.07c1.65,10.75,2.25,42.37,3.25,53,1.67,17.33.78,34.83,2,52.16.68,10.43-.08,20.87.6,31.3.51,8,1,16.53,1.22,24.55"/><path class="cls-2" d="M992.25,2111.57c.42,25.68.2,51.37,1.26,77,.71,16.53.13,33.23.67,49.76.19,7.06-1.73,9.16-8.8,8.7-6.1-.46-36.42,4-42,4.66"/><path class="cls-2" d="M1293.2,1478c-9.46,3.57-65.8,2.34-75.43,2.54-25.2.58-50.24.19-75.44.61-10.75.2-22.95,1.85-33.7,2.54"/><path class="cls-2" d="M1158,1167.07a312.76,312.76,0,0,1,.38,56.18,242.05,242.05,0,0,0-.85,30.5l-51.37.2"/><path class="cls-2" d="M1297.41,904.89c-10.59.68-17.17,1.67-24.87,2.18-17.65,1.19-35.31,1.1-53,1.33-39,.31-78.17.3-117.18.45l-52.17.2"/><path class="cls-2" d="M1289.16,1471.56c-12,1.65-24.08.25-36.12.14-13.64-.11-27.29.59-40.93,1-46.06,1.14-92,2-138,2.46-12,0-32.58,2.37-44.62,2.26"/><path class="cls-2" d="M1716.25,1500.41c1.62,4.49,1,9.15.21,13.48-7.86,1.47-15.73,1-23.43,1.05-5.78,0-8.34,1.64-8.16,8.06.89,22,1.45,43.82,1.86,65.81,0,2.09,1.18,15.57.87,17.65"/><path class="cls-2" d="M935.5,1214c-3.34,49.13,2.3,97.91-.08,146.23,7.55,1.58,13-1.33,18.61-3.76"/><path class="cls-2" d="M1652.41,2428.46c-1.28.49-1.11,2.57-3.2,2.42-37.25-2.26-74.32,1.41-111.56,1.07-2.41,0-6.59-2.06-5.76,5"/><path class="cls-2" d="M1213.72,640.35c.53,12.36,1.22,24.55,1.75,36.91.71,16.53,1.41,33.22,1.8,49.75.21,12-.39,24.08-.5,36.12,0,2.73-.46,5.46.83,8"/><path class="cls-2" d="M1463.85,1775.07c-.36-11.23-1.73-32.9-1.78-44.14-.26-25.2-.19-50.24-.29-75.44,0-4-.51-8-.85-12.84-33.72-2.12-67.41,1.06-101.13.39"/><path class="cls-2" d="M1656.38,2000.66c-11.4-.28-13.49-2.68-11.13-15-9.16-2.21-18.63-1.53-27.29-.54-12.67,1.65-25.2.74-37.72,1.27-16.85.87-27.6,1.87-52.16,2.61"/><path class="cls-2" d="M1024,966.94c41.41-.48,91-1,132.58-1.15,2.89,0,1.56,29.21,1.74,35.63"/><path class="cls-2" d="M1157.59,1070.76c.53,11.88-2.47,25.21-1.14,36.92l-28.41.11c-13.64.05-27.29.27-40.93.16-5,0-6.9,1.63-4.79,6.44"/><path class="cls-2" d="M1254,1301.54c-38,.15-132.09,4.52-170.14,3.87"/><path class="cls-2" d="M1193.6,2708.73a54.08,54.08,0,0,1-16,1.67c-31-1.16-61.95,3.93-93.09,2.12-2.41-.15-3.86-2.71-5.64-6.08"/><path class="cls-2" d="M1322.9,1481.06c1,22.47,1.14,46.55,2,69,.54,14.77,3.18,33.7.35,48.64"/><path class="cls-2" d="M1457.81,540.7c-50.24.67-157.3,2.69-207.54,3.53"/><path class="cls-2" d="M1369.1,639.28c3.51,36.58,3.84,121.66,4,158.58"/><path class="cls-2" d="M858.49,556.65c4.67,5,3.43,15.08,6.18,21s3.74,12.51,4.73,19.08c.5,3.69,2.27,7.05,8.69,6.07a90.54,90.54,0,0,1,27.93-.11c7.71,1.09,15.08-2,22.47.23,2.58,44.45-1.26,88.93,1.8,132.9-13.46,6.31-27.12,3-40.6,3.69-8.18.51-16.53.06-24.88.1"/><path class="cls-2" d="M1987.49,1489.89c-5.15-2.55-11.88-1.24-16.86-1.06-16.53.55-33.22,1.25-49.76,1.15-10.11,0-20.38,1.52-29.87-4.54-4.51-2.87-7.22-.29-7,4.68.35,8-.58,16.05.73,24.08,1.48,9-2.8,22.8-.52,32.11"/><path class="cls-2" d="M1239.24,806.39a151,151,0,0,1-36.12.46c-7.23-.61-14,1-20.86.88-21.67-.4-43.35-1.28-65,.73-5.46.5-6.43-1.42-6.77-6.39a122.18,122.18,0,0,1,.24-21.67"/><path class="cls-2" d="M790.45,768.79c-3.65,11.41.9,25.68-4.35,37.1a24.27,24.27,0,0,1-3.91-16.2c2-20.71,4.09-20.72-16.77-20.8l-20.87.08"/><path class="cls-2" d="M1369.22,961c-34.83.13-83.14,1.76-117.33,1.9"/><path class="cls-2" d="M1696.9,2102.43l65.33-.25a442.36,442.36,0,0,1,1,54.57c-.15,3.05-1.1,5-2.71,4.51-5.62-1.42-10.43,2-16.21,1.51-13.81-1.07-27.77-.37-41.74-.16-4,0-4.32,3.39-4,6.44a162.82,162.82,0,0,1,.56,21.67c-.88,22.48-.63,45.11-.22,67.42.43,29.37,1.51,58.9,2.11,89.08l65-.25"/><path class="cls-2" d="M1191.31,2656.24c-13.31,2.78-35.95,2.71-49.27,2.92-14.12.21-28.41.27-42.54.16-3.21,0-5.45,1-5.44,4.19,0,5.94-4.6,13-5.87,18.48"/><path class="cls-2" d="M1490.33,2440.32c-2.05,8.35.06,16.53.1,24.88-.09,17.34-.51,34.83-.44,52.17,0,9.15.57,22.79.93,31.94"/><path class="cls-2" d="M938,1558c-1.71,13.65-.38,27.29-.48,40.93,0,1.28.49,3.21.5,4.81.4,21.67,1,43.34,1.05,65,.09,23.6-.3,47-.53,70.63"/><path class="cls-2" d="M1368.21,1991.33c-30.18.44-66.13,2.34-96.3,2.78-13.16.21-55.53,2-68.69,2.67"/><path class="cls-2" d="M1203.93,598.66c.33,2.89,1.63,7.54,1.65,10.43.1,25.2.51,50.24.13,75.44-.14,5.78,5.72,67.08,2,73"/><path class="cls-2" d="M1374,797.85c12.84.43,25.69,1.19,38.53,1.3,4,0,5.78.78,4.67,5-4.17,1.94-8.82,1.48-13.48,1.5-26.81.42-53.45.85-80.26,1-2.41,0-8.66,2.6-7.25-6.23"/><path class="cls-2" d="M1541.77,959c-5,1.3-27.93-.37-33.07-.35-28.09.11-56.18.54-84.27,1.77"/><path class="cls-2" d="M1166.32,1252.12c14.13,2.35,28.42.85,42.54.32,19.26-.72,38.52-.31,57.78-.7"/><path class="cls-2" d="M518.06,2565.25c.46-4.34-1.8-8.5-.21-13.64l-119.42.46"/><path class="cls-2" d="M1266.64,1251.73c11.23-1.81,24.07-1.22,35.31-1.74,5.3-.18,10.76.28,16.37-1.19,2.75,5.29,1.33,11.07,1,16.37-.3,6.42-.59,12.84-.41,19.26.57,22.79-.63,45.43.9,68.22.17,2.09,1,4.49-.78,6.42"/><path class="cls-2" d="M769.88,2305c-13,1.49-100,3.6-113.16,2.2-4.18-.47-8.51.51-12.84.69-18.94,1-37.89-1.94-57,.06-4.65.5-5.94,1-5.91,6.6.76,31,.56,62.12.52,93.1,0,8.83-.29,49.6-.58,58.43"/><path class="cls-2" d="M1490.5,608.79c1.64,8.82.55,17.66.42,26.48-.1,14.77-.21,29.54,0,44.14.19,8.51-.58,17,.26,25.68.5,5,1.31,6.74,6.45,6.4,2.69-9.48.57-19.26,1-28.9.58-15.57.68-31,.62-46.55,0-9.63-.56-19.26-.91-28.89-.18-4.49.12-10.43,2.35-14.46"/><path class="cls-2" d="M1768.4,1494.27c6.57-2.75,29.37-1.08,36.43-1.58a101.29,101.29,0,0,1,1.17,12.19c0,2.41,1.95,6.09-3,6.59-.64,0-1.6,1.93-1.59,3.06-.12,10.76.08,21.35.12,32.1,15.25-.06,45.26-1,59.55-.23"/><path class="cls-2" d="M1070,2706.79l-26.48.9c-1.12,0-2.89-.31-3,0-3.66,7.88-10.58,4.7-16.19,4.72-13.65-.27-27.28,2.51-40.93.32-2.25-.31-6.1,1.15-8,2.44"/><path class="cls-2" d="M1045.18,2308.8c0,10.75.24,21.35.12,32.1-.13,7.54,1.32,9.63,8.87,9.6,13.32-.21,26.81-.42,40.13-1,14-.54,27.77-1.23,41.73-1.77"/><path class="cls-2" d="M1684.12,1494.11c-2.61-10.42-.56-20.87-.92-31.3-.37-12.36-.74-24.56-.94-36.92-.24-19.58-.15-39-.23-59.39l22.47-.09-.17-44.94,0-7.22c.28-10,.28-9.79-9.67-10.56-2.73-.15-5,1.3-8,.35-7.87-.93-4.8,2.91-4.79,6.28"/><path class="cls-2" d="M1981.47,1595.7c-1.34-14-.59-27.77-1-41.73-.37-12.84-1.22-25.68-1.75-38.52-.18-5.3,0-10.75-.07-17-25.2,1.54-49.45-1.9-73.83,1.89-2.25.33-4.82-.46-7.23-.77"/><path class="cls-2" d="M976.61,549.77c-27,.1-54.1-.43-81.06.63-12.52.53-25.2.26-37.72,1.75-6.1.67-13.33-.91-20.07-.89-4.82,0-10-1.25-14.44,1.5-4.16,2.58-7.87-1.09-12-.92-14.44.54-30.49,1.08-44.94,1.14"/><path class="cls-2" d="M1767.76,2371.83c.14-5.78.28-11.88-1.35-17.65-16.85.06-33.39.29-50.08.19-14.77-.1-51.2.68-65.82-3"/><path class="cls-2" d="M1635.11,1479.37l.42,108.83c-6.9,0-14.77-.1-22.47.09-4.82,0-9.63.52-14.44.86a2.34,2.34,0,0,0-2.56,2.1,2.73,2.73,0,0,0,.16,1.12"/><path class="cls-2" d="M1228.12,2296.06c-10,.52-23.75,1.38-33.7,1.73-22.79.57-45.42.82-68.22,1.07-21.35.4-42.85,1-64.2.89-5.94,0-15.74-2.19-16.82,9.05"/><path class="cls-2" d="M1657,1915.42c-13.48,1-12.64,11.12-13.08,20.28-25.36.1-61.15,1.84-85.71,1.94"/><path class="cls-2" d="M1540.08,2647.2c-13.65-2-27.12,2.83-40.93,1.44-6.42-.62-7.23-2.7-7.25-7.68.38-26.17-2.61-52.48-.3-78.65.15-1.93,0-3.69,0-5.62,3.2-2.9,10,2.53,11.54-4.86-4.19-3.19-7.87-2.38-12.37-2.52"/><path class="cls-2" d="M1480.19,2517.89c.54,14,3.33,30.65,2.26,44.46-1.22,17.66,1.74,35.31-.28,53-1.08,10.12,2.65,22,1.25,32.26"/><path class="cls-2" d="M996.09,2484c0-2.73-1-50.24-1-52.81-15.26-3-30.49,2.36-45.27-.95-3,1.94-2.07,4.5-1.9,6.59,1,15.57-2.77,31.15,1.15,47.35l46.39-.18"/><path class="cls-2" d="M1320,1150.4c-7.75-12.81-19.16-14.05-27.3-3.11-3.19,4.35-3.16,12.53.07,17.66,2.75,4.48,6.45,7.36,12.06,6.37,7.7-1.47,12.34-6.15,13.59-12.89.47-2.41,1.11-4.82,1.58-7.23"/><path class="cls-2" d="M1424.12,1296.07c-1.92.49-5.29,1.95-7.21,2.44.06,14.93-.37,30,.33,44.94.52,11.07-2.83,15.1-14.56,11.29l-.19-49c0-7.7-.83-8.34-8.86-8-6.42.19-8.83,0-19.58-.41"/><path class="cls-2" d="M678.4,559.11c-4.51-3-11.73-3.81-16.39-3.79-16.37.06-32.58,1.41-49,1-13-.27-26.33-2-39.32,1.44"/><path class="cls-2" d="M1670.6,1317.59c0-9.63,18.92-5.69,26.46-6.84.06,16.37.28,31.78,0,46.87,0,3.21-2.07,3.22-5.44,3.55-11.71,1-23.6-.23-35.31,1.9-7.54,1.47-14.27,5-21.64,6.66-3,.81-2.4,2.9-2.39,4.82.21,12,.9,24.07.78,36.11,0,4,.81,2.73,5,6.4,7.23,1.26,7.07,2.54,10.44,2.21,8.34-1,14.95,5.4,23.29,4.24,5.45-.82,4.51,4.48,4.68,7,.68,9.95-1,19.75-.85,29.7a53.75,53.75,0,0,1-.6,11.4l-39.94,7.38"/><path class="cls-2" d="M1595.68,1244c-3.85.18-6.57,1.63-6.56,5.64.37,13.64.27,27.29.32,41.25,12.53,1.24,24.4.23,36.11-.78,5.3-.5,5.94,1.1,5.64,5.11v3.21c-.62,5.94,1.8,8.82,8.06,8,1.44-.17,30.84,6.3,32.13,8.06"/><path class="cls-2" d="M1963,1591.92c.88,18.94,1.41,31.78,1.62,46.38.21,13.64-.37,30.18,0,43.66"/><path class="cls-2" d="M854.73,2664.28c-13.8,2.46-27.76,1.87-41.73,1.77s-27.77-.86-41.74-1.44"/><path class="cls-2" d="M935.43,1360.23c.73,22.47,0,50.08.12,72.55.09,23.6,1.47,47,1.4,70.62"/><path class="cls-2" d="M1704.51,535.73c-27.61-.05-55.05,1.5-82.67-.48"/><path class="cls-2" d="M935.25,1065.2c-2,21.36,0,42.86-.56,64.21-.28,10.11.28,30.66,0,40.77"/><path class="cls-2" d="M1314.87,1061.33c-.35-8-5.19-13.95-12.9-15.2a12.57,12.57,0,0,0-14.42,8.08c-2.86,7.39-.41,17.66,5.7,20.69,5.31,2.71,10.6.6,15.08-2.47a18.71,18.71,0,0,0,7.18-10.3"/><path class="cls-2" d="M1901.86,1721.21c-3.69.34-16,5.2-13.34-4.76-.19-7.54,1.23-15.09.72-22.48-.68-9.15.89-18.3-2-28.08-20.23.08-41.09,0-62,1.84"/><path class="cls-2" d="M516.88,2467.34c-.15,1.93,2.31,16.69-.74,17.18-1.61,0-3.21-.15-4.82-.3-24.4-.87-55,2.94-79.45,1.91"/><path class="cls-2" d="M1180.45,544.17c-10.11,1.16-33.22,1.73-43.33,2.09-21.35.72-55.69,2.14-77,3.19"/><path class="cls-2" d="M1596.22,1592.37c0,11.56.27,27.77,0,39.33-.14,5,1.47,6.9,6.61,6.4,9.15-.68,18.14.73,27.28-.91,1.92-.33,4.34.95,6.27,1.42,1.31,6.9,1,14,1,20.86"/><path class="cls-2" d="M1982.36,1617.53c0,8,.88,20.54.58,26.32-1.37,19.59,1.59,39,.71,58.59-.45,9-1.25,8.67-10.4,9.19-19.58,1-39,.15-58.59,1-3.69.17-7.54.19-11.23.69"/><path class="cls-2" d="M1676.69,2691.62c-21,2-43.8,4.66-65,4.1-20.07-.56-44.93,4.67-65,2.82"/><path class="cls-2" d="M1403.95,1476.89a118.88,118.88,0,0,1,1.68,19.9c.26,25.68-.12,51.37.62,77,.19,6.9.37,14,.72,20.38-6.89,4.36-14.27,5-22,3.78"/><path class="cls-2" d="M1064.06,1999.73c-2.88,2.1-6.41,1.63-9.62,1.64l-52.17.2a32.61,32.61,0,0,0-8.82,1.32c-4.49,1.14-3.2,3.22-2.38,5.95"/><path class="cls-2" d="M1451.75,549.55c-3.71-4-7.54.19-11.24.2-14.29.22-32.43-1.32-46.88-1.75-1.27,4.18-1.25,7.71-1.23,13.49,0,2.57-1.59,4.5.82,4.17,18-1.83,40.61-1.44,58.58-2.47a7.2,7.2,0,0,0,2.08-1c.47-3.53.77-7.39-1.33-10.91"/><path class="cls-2" d="M1678.42,1222.21c1.83,16,1.9,35.95,2.61,52,.36,9.63-1,19.27.91,28.89"/><path class="cls-2" d="M1546.7,2698.54c-41.25.64-84.75,2.25-125.84,2.89"/><path class="cls-2" d="M1964.78,1678.91c-.15,4,.2,10.75.22,16.37l-62.6.24"/><path class="cls-2" d="M1621.84,535.25c-11.39,2-37.39,1.75-49,1.15a214,214,0,0,0-32.1.93c-7.7.83-15.57,1.34-23.27,1.53-19.26.23-38.52.63-57.78,1-2.09,0-8.49,5.81-7.83,10.46"/><path class="cls-2" d="M1624,673.29c-3.19,4.51-1.25,9.64-1.55,14.45-.3,5.78,0,11.72.07,17.66,0,11.56,1,12.2,12.9,14.56,10.6,2,24.58,5,35,7.73"/><path class="cls-2" d="M1421.51,2701.43c-14,.54-27.93.59-41.73,1.93-20.86,1.85-41.74-.48-62.6,1.69"/><path class="cls-2" d="M1509.19,1293.33c-24.56-.71-60.51,2.16-85.06,2.74"/><path class="cls-2" d="M980.62,716.86c11.72,0,24.4-.09,36-.3,5.78-.18,8.52,2.05,8.06,8,.82,5.45,8.82,39.61,7.4,44.92"/><path class="cls-2" d="M1443.63,2193.46c-5.6,5.16-12,11.6-19.22,11.15s-14.45-.1-21.67-.08c-.21,28.89-.42,57,1.46,86.35,19.57-2.64,38.52-.47,57.46-2.31"/><path class="cls-2" d="M792.24,608.27c-5.15-3.83-26.17-.22-31-1-2.06,6.75-.91,13.17-.09,19.42-2.56,3.22-5.45,1-9,2.44.29-7.87,3.64-14.46-.56-20.7-3.21,0-9.95.68-13.8.7"/><path class="cls-2" d="M488.37,2566.17c-10.11,0-35.63.46-46.55.5.05,13.64,1.24,30.17,1,43a175.25,175.25,0,0,1-1.21,18.3"/><path class="cls-2" d="M1056.3,1652.23c35.31-2.06,70.62-1.88,105.94-2"/><path class="cls-2" d="M1976.23,1692c.85,11.39,2.13,10.43-6.38,10.46-18.14-.09-36.44.14-54.58.21l-11.24,0"/><path class="cls-2" d="M1363.54,2654.3c-29.21.43-64.69.89-93.9,1-5.78,0-7.54,2.28-7.19,7.41"/><path class="cls-2" d="M1667.93,2457.77a68.76,68.76,0,0,1-16.22-1.7l-.07-19.1a33.78,33.78,0,0,1-14.44,1c-22.48-2.16-44.94,1-67.42-.38a19.61,19.61,0,0,0-6.1.51"/><path class="cls-2" d="M1963,1592.56c-.1-25.2-.19-50.24-1.57-75.44l-61.32.24"/><path class="cls-2" d="M1432.56,2654c-2.53,10.6-7.31,20.41-9.19,31.34-.47,2.73-.14,6.26-1.89,9.64-14.76,2.14-29.7-.21-44.3,2.1-2.94-12.83-6.2-25.34-8.81-38-.65-3.21-1.14-5.45-5-4.8"/><path class="cls-2" d="M722.32,2545.53c-25.83,3.47-57.31-.74-83.14,1.6"/><path class="cls-2" d="M1202.09,1996.79c2.41,1.76.39,17.66.24,20.87-.29,8.51-.09,17.18-.06,25.68,0,6.58-4,12.54-2.33,19.27.49,2.41.34,4.81.83,7.22,2.12,9.3,1.66,15.08.1,25.68"/><path class="cls-2" d="M1987.49,1489.89c.42,26.16,2.38,76.4,2.8,102.56"/><path class="cls-2" d="M986.93,1771.29c1.84,20.54.34,47.67,1.23,68.22"/><path class="cls-2" d="M1900.18,1535.82l43.82-.17c1.84,18.61,2.47,56.65,3,74.63"/><path class="cls-2" d="M730.32,576.72c.14-5.78-4.23-14.27-5.53-19.56-13,.05-25.84.26-38.68.15-6.58-.14-11.38,3.09-11.68,9-.6,10.44-5.22,19.44-8.24,28.93-6.19,19.29-5.47,38.87-3,58.6,0,.48-8.18,1.16-8.34,1.64"/><path class="cls-2" d="M1650.5,2351.42c.31-3.05-1-18.62-4.08-18.44-20.38.88-36.74,4.15-63.56,2.65"/><path class="cls-2" d="M1761.13,2107.8c-19.58.4-49.43,2.12-69,2.67"/><path class="cls-2" d="M780.58,914.91c1.86-18.47.58-57.79,1.47-76.57,2.24-1.29,4.65-.5,7.06.29l.22,57.79c0,3.53.51,6.9.84,10.43"/><path class="cls-2" d="M1051,1109.7c2.11,5.77-4.14,8.68-6.39,8.85-12.52.21-25.2.1-37.72.15l-23.92.09c-.76,11.4.57,22.31-.84,32.91"/><path class="cls-2" d="M981.86,1079.47c1.64,8,.86,16,.73,24.08,0,5,1.63,6.74,6.61,6.56,10.43-.36,20.87-.24,31.3-.28"/><path class="cls-2" d="M1990.28,1590.85l.49,128.09c-20.86.72-42.53,2.57-64.2,2.17"/><path class="cls-2" d="M938.65,1739.37c.67,6.42,1,12.36,1.18,15.24.42,24.88-3.18,49.77.77,74.64"/><path class="cls-2" d="M369,2373.2l72.23-.28"/><path class="cls-2" d="M742.08,921.47c-.77,8-8.86,32.78-11.08,39.37l-53,.2"/><path class="cls-2" d="M1638.89,1837l-164.53,1.44"/><path class="cls-2" d="M1669.51,617.73c1.5,14.92,1.72,29.85,1.78,44.94,0,9.15.39,18.14.59,27.29a247.41,247.41,0,0,1-1.62,37.73c-.47,3.69,2.27,5.13,2.12,8-.27,12,.75,27.29-.81,39.33"/><path class="cls-2" d="M604.35,2464.28l-.2-53a54.51,54.51,0,0,0-7.22,1.31c-9.3,2.28-10.42,3.73-10.38,12.88l.1,26"/><path class="cls-2" d="M1038.21,915.52c-2.55,5-6.55,8.37-11,11.6a5.18,5.18,0,0,1-3.37,1.3c-7.23-.61-6.73,2.92-6.87,8.86-.28,9.63.23,19.26-.37,28.89,1.77,1.6,3.85.47,5.78.78"/><path class="cls-2" d="M1321.19,2704.7c-20.86.72-47.34,3.55-68.21,3"/><path class="cls-2" d="M1687.77,1606.46c1.36,20.86,4,78.64,2.79,99.51"/><path class="cls-2" d="M1218.59,1945.36c-6.58.19-19.26-.25-23.24,8.12a11.71,11.71,0,0,0-1.42,5.62c-.44,10.44-.88,20.87-1.48,31.31-.15,2.41,3.24,8.17,5,9.61"/><path class="cls-2" d="M1541.77,959c1.88-11.24.37-27.77.17-38.85,0-6.42.11-12.84.09-19.1-3.54-1.91-18.78.23-21.35.72"/><path class="cls-2" d="M801,601.81c-2,13.33-1.5,28.42-1.44,41.74.09,22.15-.47,44.47.58,66.61.52,10-1,19.91.44,29.69,7.87,0,15.58,3.47,23.76.07l.11,28.89-33.23.13"/><path class="cls-2" d="M853.73,945.93c-12.35,2.29-24.56-.55-36.92.14-5.14.34-10.27,0-16.05.06l.08,20.87"/><path class="cls-2" d="M768.46,2563.49c1.81,10.43-.88,20.87-.68,31.3,0,10.92-1.5,27.94-1.46,38.85"/><path class="cls-2" d="M1520.52,901.62c-19.76-3.13-41.26-.64-61,1"/><path class="cls-2" d="M576.79,724.67c.08,19.74-.51,76.57-.43,96.31"/><path class="cls-2" d="M1637,880.15c-15.08,3.27-9.1,14-12.45,19.31-14.12,1.18-28.58-.69-43,1.29"/><path class="cls-2" d="M1179.78,1622.86c-1.63-5.61-1.17-12.84-2-19.25l-33.39.13c-11.56,0-23.12-.55-34.51.29-17.17,1.19-34.19.45-51.36.84a12.61,12.61,0,0,0-7.22,1.63"/><path class="cls-2" d="M1399.18,2155.11c-2.1-2.24-5.49-7.84-2.45-10.58,3.84-3.39,7.52-6.93,10.88-10.15,10.94,7.34,18.85,18.07,29,26.53,6.12,5.11,11.44,11.51,18,16.46,2.25,1.76,3.71,4.64-.61,7.23s-8.16,6.77-12.16,10.32"/><path class="cls-2" d="M1463.68,1774.27c1.32,8.34-1.86,16.54-1.67,24.89.54,16,1.61,42.53.39,58.59"/><path class="cls-2" d="M1110,600.62l-59.39.23"/><path class="cls-2" d="M1424.43,960.58l-50.56.19c-8.35-1.41-5.92,4-7.19,8.54"/><path class="cls-2" d="M1385.15,1598c-16.53.06-43.34.65-59.87.71"/><path class="cls-2" d="M1204.29,2150.88a19.36,19.36,0,0,1,2.6,8.82c.07,19.26-.49,38.53.86,57.78.17,2.89-1.26,7.23-.92,11.24"/><path class="cls-2" d="M746.51,2699.69c-14.13-1.87-31.3-.2-45.75-.47-4.82,0-5.12,4.35-3.83,5.47,5.15,4.15,2.44,9.3,3.1,14"/><path class="cls-2" d="M1682.52,1910.67c2.4-.81,6.41-2.43,9.63-.52,2.49,22-.47,44.63,1.86,67.09"/><path class="cls-2" d="M792.24,608.27c.88,18.94,4,44,1,62.92"/><path class="cls-2" d="M734.8,949c-4.35-3.35-11.4-1.56-15.9-1.7-11.56-.44-23-.55-34.51-.67a82,82,0,0,0-8.83.84"/><path class="cls-2" d="M1254,1301.54c12.83-3.1,27.28-1.87,40.92-2.73-.56,20.23,2.09,43,.08,62.28"/><path class="cls-2" d="M1381.29,594c-3.68,3.06-9.8-.93-12.83,4.06-2.39,4.18,0,8.51,0,12.84,0,10.11-1,20.39.76,30.5"/><path class="cls-2" d="M1585.82,559.47c-13.65-1.55-27.29-.22-40.93.16-5.14.18-13,.05-18,.07"/><path class="cls-2" d="M581.23,2503.69l.18,45.75-8.83,0c-2.87,5.31-.76,10.12-2,16.38,13.8-1,22.8,1.84,33.38-1.73"/><path class="cls-2" d="M1698.76,2211.58l-17.66.07c1,16.37-1.16,31.95,1.95,47.35"/><path class="cls-2" d="M1263.12,546.26l.65,2.89c17.34,1.38,34.52,1,51.53.93"/><path class="cls-2" d="M1585.6,1752.93c.84,8.5-2,16.86.26,25.84,1.14,4-.44,10-1.07,15.09-1.25,10-.41,19.75-.53,29.7-.13,7.87.67,7.7,8.86,8.15,15.25.9,30.5-.76,45.75-.34"/><path class="cls-2" d="M1676.3,922.69l2.28,176.56"/><path class="cls-2" d="M1321,1413.65c-.33-2.09,1.11-4.82-2.43-5.61-3.05-.79-20.06.88-23.27,2.18l.09,24.4c0,10-.08,19.74.11,29.7,0,2.89-4,6-6.39,7.25"/><path class="cls-2" d="M1206.14,754.35c-1,3.05,2,9.62,2.45,12.19-14.92,2.95-30,2.2-44.94,2.42"/><path class="cls-2" d="M1508.27,1640.06c-4.81.34-25,1.54-29.85,1.72-9.15.36-10.43,1.32-9.43,10.47,1.33,11.55.57,23,.77,34.51.24,20.38.16,40.61.4,61,0,4,.51,8,.85,12"/><path class="cls-2" d="M930.9,768.25l-54.58.21"/><path class="cls-2" d="M1595.46,2647c1.32,9.31,3.28,19.25,2.2,28.89l-46.23.18"/><path class="cls-2" d="M975.31,2715.18c-21.19-.88-42.2,3.53-63.4,1"/><path class="cls-2" d="M1927.51,1546.15c4.66,0,6.41-2.11,8.34-.67-1.06,15.41,1.88,30.81,1.46,46.38s1.56,31.13-.46,46.55c-.63,4.34.35,8.67.53,12.84a73.82,73.82,0,0,1-.9,16.86"/><path class="cls-2" d="M1678.59,1099.26c-.75,12.84-.68,31.62,0,43.34.53,11.39-.55,23-.35,34.51.05,13.32.42,26.81,1,40.13.18,5.46-1.58,7.71-7.19,8.21-11.07.85-22,2.65-32.89,4"/><path class="cls-2" d="M1705.3,2409.79c-1.92,1.45-1.59,2.73-1.59,4.82.59,28.57-.26,57.31.81,85.87.36,10.11.24,20.38.44,30.5"/><path class="cls-2" d="M1249.54,2229.36c-5.3-.14-10.76-.76-12,6.47-1.1,5.94,4.21,10.26,10.47,8.79,2.41-.49,4.81-.82,7.38-1.31a12,12,0,0,0-5.83-13.94"/><path class="cls-2" d="M984.64,550.06c-1.22,17.66-6.62,73.54-5.27,91.2"/><path class="cls-2" d="M1492.16,2291l.19,48.32c-11.24-.6-27.13-.86-38.85-.81"/><path class="cls-2" d="M1748.12,2690.54l-71.43,1.08"/><path class="cls-2" d="M1527.69,1721.85c9.3-2.76,22.8,2.16,32.1-.12.47-2.73,1.75-5.3.13-9-6.26.67-13.16-.11-20.22.72a62.29,62.29,0,0,0-12,1.81"/><path class="cls-2" d="M1583.48,1827.58c-6.07,6.6-14.27,4.55-21.65,4.74-10,0-34.18,2.54-44.14.65"/><path class="cls-2" d="M1702.3,2462c-5.14,0-4.48,3.71-4.79,7.24-1.23,14.29,2.2,28.4,2.57,42.53"/><path class="cls-2" d="M942.72,2170c.44,31.62.41,66,.7,97.59l.13,33.71"/><path class="cls-2" d="M1141.21,566.8c12.52.43,25.05,2.47,37.73.82,4.49-.66,11.72-.21,16.21-.22"/><path class="cls-2" d="M1050.64,600.85c-1.63-5.93-10.87-29.33-12.17-35.27-1.63-7.54-4.21-10.42-11.28-10.39-13.16.05-28.57.91-42.53,1"/><path class="cls-2" d="M1947,1610.28c.4,19.58.63,39,1,58.59.18,5.14-1.42,7.55-7.19,7.41-11.88-.28-26.64.42-38.52.79"/><path class="cls-2" d="M432.61,2384.2c-14.77-.26-35-.35-49.76-.77"/><path class="cls-2" d="M941.5,1855.09c5,5.28,9.78-4.05,15.25.42l.19,49.92"/><path class="cls-2" d="M1166,964.79l.15,37.88c-2.89-.47-5.13.66-7.87-1.25"/><path class="cls-2" d="M1140.39,563.59c-1.57,7.87-5.08,15.11-7.94,22.5-1.59,3.86-3.82,7.56-3,12.37-5.93,1.79-13.64.05-19.41,2.16"/><path class="cls-2" d="M1321,1413.65c.56,21.35,1.3,46.06,1.86,67.41"/><path class="cls-2" d="M956.17,1704l.16,40.93a82,82,0,0,1-.77,8.83"/><path class="cls-2" d="M933.74,965.2c2.46,13.63-.37,27.77.16,41.41.17,2.89,1.15,5.93.36,8.83"/><path class="cls-2" d="M582.27,2566.13c4.95,34.33-2.73,83.48-.51,117.66"/><path class="cls-2" d="M1693.84,1976c.63,39.65,2.26,86.83,3.06,126.48"/><path class="cls-2" d="M1654.25,615.38c-1.58,6.11-1.24,12.36-.57,18.46,1,10.27.08,20.39.76,30.5"/><path class="cls-2" d="M402.43,2552.05c-8.5.67-13.64.69-26.48.9-.58,16.38,1.09,34.19-.77,50.57"/><path class="cls-2" d="M979.37,641.26c.06,16.05,1.19,59.55,1.25,75.6"/><path class="cls-2" d="M431.69,2647.29c-16.37.38-29.2,2.84-45.58,2.1"/><path class="cls-2" d="M1657.08,725.17c0,2.41-1.58,47.68.19,49.92"/><path class="cls-2" d="M1897.85,1556.05c6.42.94,16.85-.06,23.28.55,2.57.31,6.09-2.59,6.12,4.63.06,16.85.29,33.71.52,50.56.22,14.93.12,30,.17,44.94-7.69,4-16,1.83-24.07,2.5"/><path class="cls-2" d="M1423.83,2680.55l-49.75,2.76"/><path class="cls-2" d="M1664.59,1423.08c.54,15.73-.83,33.71,1,49.44"/><path class="cls-2" d="M599,650.75c1.34,15.57.64,40.61-.59,56.18"/><path class="cls-2" d="M1658.83,970.11c.54,15.57-.84,31,1,46.55"/><path class="cls-2" d="M602,2564.61l.12,32.1c0,3.53-.41,17.34-.72,20.71"/><path class="cls-2" d="M1706.89,2612.85c.06,16.53-.49,38.85-.43,55.38"/><path class="cls-2" d="M985,1477.54l-.22-57c-5.64-4.47-14.62-4.6-20.9-7.14"/><path class="cls-2" d="M1629.75,1130.75c-1.88,11.73-.07,23.6-.83,35.16,3.38,3.2,8.19.29,11.41,3.33"/><path class="cls-2" d="M1661.64,1073.64c-.9,15.25-1.81,30.51.18,45.75"/><path class="cls-2" d="M441.07,2372.93c.21,12.52.13,34,.66,46.55.52,10.59-1,21.35-1.16,32.11-.14,5.62,1,12.84,1.52,18.45"/><path class="cls-2" d="M1293.2,1478c2.57-.49,1.3,2.88,3.22,3.2-2.66,17,1.9,34.18-.44,51.37-.62,4.66,2.31,16,2.33,20.86"/><path class="cls-2" d="M1250.12,962.86c-15.24,2-68.86,1.39-84.1,1.93"/><path class="cls-2" d="M573.74,557.74c-.22,26.81,3.84,122.3,3.78,149.11"/><path class="cls-2" d="M1298.3,1553.39l.14,36.92c0,2.73.82,5.78-1.57,8"/><path class="cls-2" d="M1110.56,779.6c8.49-3.56,19.58-1.68,28.24-2.2,16.21-.87,32.59.2,49,.29,3.21,0,6.58-.67,9.63-.52,7.87.45,16.36-2.15,22.18,7.46,3.55,5.77,11,9.27,16.59,13.74.81.64,2.25,1,2.25,1.6,1.32,9.79,8.86,7.19,14.63,7,8.35-.19,28.74,2.62,24.86-5.55"/><path class="cls-2" d="M1465.82,1911.18l.11,28.41c-7.22,0-15.25.86-21.67.89"/><path class="cls-2" d="M1128.07,1115.82l-44.94.17"/><path class="cls-2" d="M951.63,1358.89c1.82,14.92.62,36.76,1.16,51.68"/><path class="cls-2" d="M940.41,1362.14c-.26,14.93.92,30-.63,44.95"/><path class="cls-2" d="M1686.56,2460.91c-1.23,13.17-.51,33.71.5,46.87.17,2.57,2.11,5.93-1.41,8"/><path class="cls-2" d="M1672.72,825.59c-.34-4,1.26-6.43,5.59-6.44l19.26-.07c.07,18.94.3,37.24.05,55.38,0,5.3-5.27,7.89-12.65,7.27-8.19-.77-10.43,1.16-10.4,9.67,0,3.53-1.1,7.07.84,10.43"/><path class="cls-2" d="M1025.61,769.49c-3.88-7.53-2.95-15.4-1.69-23.27.16-1.28,1.92-2.58,0-4-6.76-4.79-2.78-12.51-5.53-19.24l-36.92.14c-.44,11.72.73,22.79-.83,33.71"/><path class="cls-2" d="M959.12,2051.5c1.51,16.53,1,51.36,1,51"/><path class="cls-2" d="M1109.12,779.61c-14.3-3.32-28.9-.53-43.35-1.44"/><path class="cls-2" d="M780.58,914.91c-.95,3.7-4.16,2.26-6.41,2.43-8.51.19-17.18.07-25.68.26-2.89,0-6.75-1.26-6.41,4"/><path class="cls-2" d="M1692.25,1728.44a205.56,205.56,0,0,0-2.29,31.31c.36,10.11,1.36,20.38.12,30.5-.47,3.37.51,6.9.68,10.43"/><path class="cls-2" d="M1670.6,1317.59l.16,42.54"/><path class="cls-2" d="M1377.7,2163.05c-5.46,0-7.21,3.08-7.19,8.05l.15,38.52a315,315,0,0,1-36.92.94c-2.41,0-7.38,1.31-6.43-2.86"/><path class="cls-2" d="M1164.18,1112.47c1.34,14.12,3.11,58.1,1.88,72.23"/><path class="cls-2" d="M981.77,847.68l0-11.88c-14.11,3.59-28.57.59-42.52,3.7"/><path class="cls-2" d="M633.45,2474.76c.07,18.14,1.34,55.05,1.41,73.19"/><path class="cls-2" d="M985,1477.54l44.94-.17"/><path class="cls-2" d="M1705.12,2569.51c-5.62-.3-4.8,3.87-4.79,7.24l.14,36.92"/><path class="cls-2" d="M1205.47,2707.72c12-.53,35.64,1.79,47.51,0"/><path class="cls-2" d="M1655.54,2618c1.29,1.92,3.39,6.25,2.28,7.7-4.15,5.63-1.88,11.89-2.18,17.83a76.31,76.31,0,0,1-24.87,3.31"/><path class="cls-2" d="M1677.26,2005.39c-3,3.54-.77,7.55-.76,11.24a349,349,0,0,0,1.76,40.93"/><path class="cls-2" d="M1261.41,2186c0,7.7,3.74,12.19,2.63,17-9,3.41-23.27.41-32.09,4.14"/><path class="cls-2" d="M1128.07,1115.82c4.34,2.23,23.76.07,27.62,2.14,4.07,14.27,3.51,35,2.28,49.11"/><path class="cls-2" d="M1190.91,552.16c-15.72,1.83-31.63-1.32-47.35,1"/><path class="cls-2" d="M1545.92,1244.23l-41.73.16"/><path class="cls-2" d="M855.54,2665.88c6.31,12.82,10.08,33.19,15.91,46.17"/><path class="cls-2" d="M1023.27,2662.83c4.38,12,3.95,25,9,36.88.49,1.12.21,12,.21,13.32"/><path class="cls-2" d="M698.16,771.56c-6.25,2.75-56.18.7-62.6.88-7.86.19-9,.68-8.8,8.22.36,9.31-1.85,18.63-.05,28.09.66,3.53-2.23,5-10.25,5.66"/><path class="cls-2" d="M431.56,2403.46,385,2405.25"/><path class="cls-2" d="M1559.82,1937.62l-78.65,1.91"/><path class="cls-2" d="M739.58,2358.94c23-.09,46.07-.34,69-.11,2.89,0,6.91,1.74,8.51-.35s-2.28-9.78-3.1-12.67"/><path class="cls-2" d="M1597.07,2439.1l.13,34.51c0,2.25,1.14,4.81-1.58,6.43"/><path class="cls-2" d="M743.84,2713.51c-13.65-1.23-29.38-1.17-43-1.28"/><path class="cls-2" d="M1056.3,1652.23c-6.73,3.24-15.56,2-22.46,2.49-6.1.34-12.36,0-18.62.07-1.42,6.27-3,11.73-10.23,12.08"/><path class="cls-2" d="M982.62,859.55c-8,4-10.4,9.83-9.24,19.3a130.76,130.76,0,0,1-.19,34.51"/><path class="cls-2" d="M431.88,2486.13l-57.79.22"/><path class="cls-2" d="M1368.94,2181.55l-40.13.15"/><path class="cls-2" d="M1249.63,585.64c-3.64,13-3.64,13-16.8,12.91l-18.14.07c-1.25,9,.93,32.74-1,41.74"/><path class="cls-2" d="M1165.48,1035.42a209.49,209.49,0,0,1,.15,40.13"/><path class="cls-2" d="M1311.57,2164.91c-6.93-8.32-15.78-13.9-27-12.1-8.34,1.32-12,4.7-12,13,0,6.74-.59,13.65,2.49,20.06"/><path class="cls-2" d="M930.9,768.25c.51,7.06,5.18,10.57,12.08,10.55a256.82,256.82,0,0,1,31.31,2.29,15.44,15.44,0,0,0,8-1.32c3.69-1.3,5.28-5,1.58-7.55-3.22-2.07-3.1-12.51-3.11-15.4"/><path class="cls-2" d="M1638.34,1694.94c1.82,13.32.29,33.39,3.39,46.54"/><path class="cls-2" d="M727.53,2313.56c-13.16.21-32.91-1-45.91.66"/><path class="cls-2" d="M1474.34,1832c12.52.43,25.21,1.19,37.73,1.14,2.25,0,5.62-.5,7.54.13"/><path class="cls-2" d="M1535.26,2646.41l-.1-27.13c-14.45-.59-28.08,2-41.74,0"/><path class="cls-2" d="M1663.92,832.85c1.8,10.11.4,20.38.92,30.5.17,2.89.86,15.41,1.68,18.77"/><path class="cls-2" d="M1748.83,2667.26h-.32c-14,1-28.09,1.23-41.89,1"/><path class="cls-2" d="M1683.52,1753.35c-8.52-2.38-17-5.23-25.71-7a142.61,142.61,0,0,1-16.07-4.91"/><path class="cls-2" d="M384.27,2627.57c-.45,7.39-.46,4.34.2,9.63,13.48-.05,35.63-.3,49.28-.19"/><path class="cls-2" d="M878.49,915.33l-13.79,2.78c-2.54,7.55-2.83,16.22-8.58,23-3.52,4,.2,9.63-3.64,14-1.76,1.93-2.56,3.06-5.12,3.07l-46.55.18"/><path class="cls-2" d="M1682.57,2259.31c-13.46,5.51-21.8,8.75-29.18,8-5-.46-2.87,4-3.34,6.92s2.27,6.89-2.21,8.84"/><path class="cls-2" d="M1689.09,2157.84c14.93-.38,30-.6,44.94-1,3.69-.17,5-1.62,14.76-1.66"/><path class="cls-2" d="M766.34,553c-10.11,1.8-20.38.4-30.5.92a29.42,29.42,0,0,0-11.06,3.25"/><path class="cls-2" d="M1202.09,1996.79c-2.25,0-4.65.82-4.8,3.23-.42,15.57-2.85,92.47-2.8,107.88"/><path class="cls-2" d="M949.12,914.26c-5.42,9.17-25.77,20.16-35.24,19.56-4.34-.3-8.19-.77-11.25-4.13"/><path class="cls-2" d="M959.36,1906.23c1.29.32,15.59,5.4,16.88,5.55,10.76,1.72,13.18,4.12,13.7,14.39.35,8.35.06,16.53.1,25.68l35.31-1.74"/><path class="cls-2" d="M1361.69,797.9c-11.39,2.45-29.85,1.56-41.41,1.76a17.79,17.79,0,0,0-4,.82"/><path class="cls-2" d="M865,738c-3.5,7.4-1.21,18.79-2.95,26.5-.63,2.73,1.13,2.08,4.66,2.55q5.06.94,10.12,1.41"/><path class="cls-2" d="M1705,2531c1.84,20.38,1.45,42.21,1.69,62.6a192.32,192.32,0,0,1,.24,21.51"/><path class="cls-2" d="M494.41,2469c-12.36-1.24-28.25-.37-40.45,1"/><path class="cls-2" d="M941.77,1508.21l.15,40.13c0,2.57,1.15,5.77-2.38,7.23"/><path class="cls-2" d="M419.74,2670c-14,.21-31.14.28-44.94,1.78"/><path class="cls-2" d="M582.16,660.44l.17,44.94"/><path class="cls-2" d="M1671.68,972.47l.15,40"/><path class="cls-2" d="M1318.9,565.31c-14.92,2.47-36.75,1.59-51.68,1.8-12.2.21-12.2,0-15.2,12.1-.48,1.61-1.91,4.82-2.38,6.43"/><path class="cls-2" d="M369,2373.2c.19,6.58-1.42,6.27,3.26,12,1.29,1.6.82,3.37.66,4.81-1.69,19.59,1.92,39,1,58.59a328.6,328.6,0,0,0,.31,37.72"/><path class="cls-2" d="M806.57,579.32c.14-4.17,2.55-5,6.4-5,13.32.11,26.81.06,40.13-.15a82,82,0,0,0,8.83-.84"/><path class="cls-2" d="M1671.46,1749.87c.51,6.42.49,42.86.19,49.44"/><path class="cls-2" d="M661.42,610.38c-10.29-3.49-20.87-.4-31.31-1.32-2.57-.15-4.17,2.1-4.15,5.47,0,9.31-.41,18.78-.53,28.09"/><path class="cls-2" d="M937.59,1506c1.8,9-1.17,29.38-.49,38.37.17,2.89-.92,11.56.7,14.44"/><path class="cls-2" d="M1019.51,853.79c-12.37-2.36-26.51-5.68-36.9,5.76"/><path class="cls-2" d="M1263.89,2203.62c1.78,4.33,1.16,10.11,1.66,14.28-7.85,3.24-15.41.7-22.46,2.65"/><path class="cls-2" d="M1165.64,1075.55c-.28,11.72-1.19,25.21-1.46,36.93"/><path class="cls-2" d="M1545.77,1290c-11.72,0-24.87,2-36.59,3.35"/><path class="cls-2" d="M1454.21,564c6.6,6.07,6,14.91,7.63,22.6,1.47,6.74,23.15,8.1,27.8,7.76"/><path class="cls-2" d="M1586.53,952.74a214.59,214.59,0,0,0,30.51,1.65c7.7-.35,9.31,1.25,8.86,8l26.5,4.55"/><path class="cls-2" d="M847.47,2321.6c-11.55,1-25.2-.22-36.76.62-7.38.51-5.64-5.28-5.68-17.31"/><path class="cls-2" d="M1470.69,1758.35c1.33,11.71.16,41.41.37,53.45"/><path class="cls-2" d="M1704.61,561.26c-11.72,0-22,3-33.7,3"/><path class="cls-2" d="M793.29,672.47c-1.73,9-.57,18.14-.7,27.29-.11,13.16.1,26.16.15,39.33-5.13.66-4.33,1.14-8.83-1.25"/><path class="cls-2" d="M585.19,822.4a178.93,178.93,0,0,1,.14,37.08"/><path class="cls-2" d="M663.36,696.25c-.12,11.08.24,20.55-.52,32.75,1.16,9.31,3.58,12.67,13.37,13,5.94.14,8.67-.68,14.6-.86a54.88,54.88,0,0,1,7.23.61l.11,29.86"/><path class="cls-2" d="M1555.28,1590.92c-.27,13.65-.67,33.71-2.23,47.36"/><path class="cls-2" d="M1166.06,1184.7a67.21,67.21,0,0,1-1,22.64c-2.05,9.48-.73,19.75-.21,29.54.17,2.41,1,12.84,1.34,15.24"/><path class="cls-2" d="M1483.42,2647.58c-9.62,2.93-22,.89-31.62,1.57"/><path class="cls-2" d="M1629.86,2617.16c.66,3.69-1.89,8.51,1.81,11.07,4.35,2.87,10,1.89,15.1,1.71,3.69-.17,3.16-11.89,3.16-14.3"/><path class="cls-2" d="M907.88,2710.63c-9.15.36-18.14.55-27.28.91-4.33.18-9.64-1.89-11.22,4.86-.47,1.93-2.24.65-3.21.81-4.81.18-9.63,0-14.45.06"/><path class="cls-2" d="M1286.2,2162.6c-4.49,2.43-7.36,6.13-7.18,10.46.18,5,1.16,10.43,6.47,11.69,4.82,1.11,10.61,3.81,15.08-1.5,1.44-1.77,5.91-6.93,4.78-10.45"/><path class="cls-2" d="M1637.4,1658.82c1.33,11.23,2.18,24.87.94,36.11"/><path class="cls-2" d="M1629.39,1243.91l-33.71.13"/><path class="cls-2" d="M934.26,1015.44c-.43,13.32,1,38.68,1,52.33"/><path class="cls-2" d="M662.19,2477.22c19.1.73,42.54-.65,59.87-.23"/><path class="cls-2" d="M1650.59,2164.41c-3.67,4.83-1.57,10.28-1.39,15.25.35,8.35-2.18,16.86,1.54,24.87"/><path class="cls-2" d="M941.11,1753c16.21-.06,30.37,8.07,45.79,11.06,1,2.89,0,5.94,0,8.83"/><path class="cls-2" d="M944.95,1706.44c-.27,12-.55,24.08-.66,36.12,0,3.53.51,6.9.84,10.43"/><path class="cls-2" d="M1524.89,576.55c-1.27,4.5-3.49,10.77-5.07,16.07l-18.14.07"/><path class="cls-2" d="M1164.67,1033.82c-.81-3.21-3.54-2.23-6.11-2.38-1.71,13.17,1.22,26.32-1.13,39.33"/><path class="cls-2" d="M1126.65,1997.08c-10.58,2.61-51.84,2.29-62.59,2.65"/><path class="cls-2" d="M1694.37,2405.66c-5.29,1.3-30.79,8.14-36.57,7.69-3.37-.31-3.52,1.94-4.16,4.67-.79,3.05-.14,5.94-.61,8.83"/><path class="cls-2" d="M1897.83,1508.54c12.35-2.29,27-3,39.17-.15"/><path class="cls-2" d="M759.7,703.1a117.47,117.47,0,0,1,.27,28.09c-.31,2.41-.45,6.9,2.28,8.82"/><path class="cls-2" d="M1022.69,845.75c-10.77-3.33-30.18-1.81-40.93,1.92"/><path class="cls-2" d="M1671.73,776.64c.36,9.31.71,18.78.91,28.09.18,5-.12,10,2.46,14.44"/><path class="cls-2" d="M1633.36,1025.59c-3.85-.63-4.81,1.3-4.8,4.83.2,9.63.4,19.26.11,28.89-.14,5.46,17.53,9.72,21.06,9.55"/><path class="cls-2" d="M665,920.17c-8.52-3.82-18.15-3.78-26.33-1.82-9.14,2.28-9.81-3.65-10.63-9.27"/><path class="cls-2" d="M992.81,1673c-4.49,1.62-8.81,5.65-8,10.79a20.92,20.92,0,0,1-.76,10.44c-2.89-1.11-15.23,5.36-20.84,6.5"/><path class="cls-2" d="M769.29,2360.43c-.11,13.32-.7,26-.65,40.13,0,.8.67,49.92,1,50.72"/><path class="cls-2" d="M961.48,2249.41c.53,12,1.74,35.63.18,47.67"/><path class="cls-2" d="M1325.28,1598.71c-12.36.37-64.2,1.85-76.56,2.22"/><path class="cls-2" d="M648.16,2376.95l.06,15.25c0,7.38,3.89,10.1,12.87,8.62,6.1-1,5.12-5.32,4-9.65-1.46-5.13,1.41-10.12.74-15.25"/><path class="cls-2" d="M1646.22,2073.73c2,7.22.38,14.45.89,21.67.17,3.21-.14,6.26,3.24,8"/><path class="cls-2" d="M1528.19,1767.92c-1.45-2.56.13-7.06.44-10,.62-4.82,1.89-9.32,1.07-14.45a6,6,0,0,1,4.95-7.08c.32,0,.8-.16,1.12-.16,12.84-.85,25.67-2.67,38.52-1.75,5.94.46,11.4.28,10.56-8.07l-56.18,1"/><path class="cls-2" d="M681.66,2322.24c15.73-.22,31.63,1.48,48.15-.35-.77,8.51,8.3,30,9.77,37"/><path class="cls-2" d="M844.22,2311l-39,1.27"/><path class="cls-2" d="M568.25,2468.75c11.55-3.09,34.33-6.23,45.74-3.39,5.78,1.42,18.18,9.88,24.12,11.14"/><path class="cls-2" d="M1770.88,1721.72c4.81-1.3,12.51-2.62,14-.54,6.13,9,14.3,3.8,21.37,5.21,2.25.47,4.17-.5,3.84-2.42-1-6.74,3.32-14.3-3.13-20.05-2.25-1.92-1.46-4.33-1.47-6.42-.34-5.62.9-16.22-.57-21.67"/><path class="cls-2" d="M1719.77,1706.5c-11.24-1.4-18-.41-29.22-.53"/><path class="cls-2" d="M1246.43,796.74c-9.66-6.54-18.7-19.83-29-25.57"/><path class="cls-2" d="M842.27,2304.61c2.94,12.19,12.82,36.07,12.87,49.07"/><path class="cls-2" d="M674.55,2353.41c-1.59,2.9-6.4,6.28-10.41,6.14-6.9-.29-21.65,5.22-28.05,10.22"/><path class="cls-2" d="M1277.75,801.43c-9.8-2-21.67-.72-31.32-4.7"/><path class="cls-2" d="M1662.11,1195.63c-1.25,9.8-6,15.11-4.72,24.9"/><path class="cls-2" d="M784.39,737.52c3-5.15.91-14.77.41-19.75l-9,0c.18,5-1.55,15.42.4,20.06"/><path class="cls-2" d="M1106.13,1254c-4,2.1-17-.26-20.85,4.09-.75,13.65.29,32.91-1.42,47.36"/><path class="cls-2" d="M942.44,2098.92l.3,78.49"/><path class="cls-2" d="M1466.3,1911.18c3.53-.33,7.54-1.31,6.92,4.31a139.52,139.52,0,0,0,.08,20.06c.17,3.37,2.1,4.33,8.68,4"/><path class="cls-2" d="M1583.82,1707.19c-3.56-7.53-10.61-4.94-16.07-4.43s-10.28-2.69-18.95-1.21"/><path class="cls-2" d="M1480.7,2442c2,9.3-1.44,43.67-.6,53"/><path class="cls-2" d="M636.09,2369.77c-3,7.88-2.35,16.06-2.32,24.09-.13,8.51-21,16.77-29.63,17.45"/><path class="cls-2" d="M573.12,2565.84c-12.36.37-72.39,0-84.75.33"/><path class="cls-2" d="M715.06,575.66c4.66,2.23,9.63-.2,15.25,1.06a161.19,161.19,0,0,0,7.67,32.4"/><path class="cls-2" d="M1590.67,569.88c.66,5.13,6.33,18.6,11.31,18.58,5.62-.18,11.55-1,16.86,2.18"/><path class="cls-2" d="M1690.92,1799.23c1.67,16.69-1.14,37.41,1.65,53.61.33,1.76-3,6-10.24,9"/><path class="cls-2" d="M1929.11,1546.14c-9.63.52-21.67-.72-31.3.92"/><path class="cls-2" d="M1555.28,1590.92c-1.76,1.13-3.53,1-5.61,1-10.43-.12-30.5-1.17-40.93.8"/><path class="cls-2" d="M1652.81,2534.4c5,6.24.85,13.32,1.52,20.06.33,2.89.18,5.94,2.12,8.34"/><path class="cls-2" d="M1688.33,1752.53c-4.18-.47-6.57,1.63-5.44,5.64,3.26,12.51.58,25.2,1.59,37.72"/><path class="cls-2" d="M1696.68,2462.8c-9.16-1.57-19.6-4.1-30.2-5"/><path class="cls-2" d="M1473.56,1836.83c1.62,4.81-1.2,20.87-.54,25.69-5.77,1.95-9.31.84-10.61-4.77"/><path class="cls-2" d="M1969.1,1509.07c-5-5.12-12.85-.91-18.47-1.37-4.5-.3-9,1.16-13.64.69"/><path class="cls-2" d="M940.7,1853.33l.74,192.62"/><path class="cls-2" d="M627.42,742.13l-.1-25.68c0-2.25-1-5.77-4.84-5.6"/><path class="cls-2" d="M1536.91,1697.74a358,358,0,0,1,52.49-.2"/><path class="cls-2" d="M374.63,2627.61l.17,44.14"/><path class="cls-2" d="M949.12,914.26c3.7,1.11,7.06-1,10.43-1.81,12.19-2.62,16.56,6.84,22.37,13.88,1,1.12.17,3.69.18,5.46-.27,14-.39,23.28-.5,37.24"/><path class="cls-2" d="M1032.19,768.51c-1.11,3.21,3.07,5.93,1.32,9.79l-19.1.07"/><path class="cls-2" d="M1626.93,607.46c13.18,3.64,28.61,8.72,42.57,7.54"/><path class="cls-2" d="M1655.54,2617.86c.31-2.57-2.26-2.24-3.22-2.23-18.94-.09-38,0-57.95.06,1,10.91-2.17,21.2,1.08,31.3"/><path class="cls-2" d="M1263.68,2150.65c-2.87,5.15-1.56,10.6-1.54,16.06-.14,6.42,1.17,12.84-.73,19.27"/><path class="cls-2" d="M715.06,575.66c-8.66,2.6-32.27-.36-40.93,1.76"/><path class="cls-2" d="M432.54,2659.49a203.42,203.42,0,0,0-29.7-.53c-6.1.34-12.36.37-18.46.71"/><path class="cls-2" d="M754.08,703.12c-.12,10.11.42,27-.82,37.08"/><path class="cls-2" d="M1196.61,573a90.16,90.16,0,0,0,7.32,25.65"/><path class="cls-2" d="M1690.78,2388.18c0,5.94-.76,11.08,2.47,16,3.54,2.39,3.85.63,12.84.27"/><path class="cls-2" d="M766.63,2629.31c-.92,12.36.1,26.65-.35,35.32"/><path class="cls-2" d="M526.51,2467.3a237.64,237.64,0,0,0-32.1,1.73"/><path class="cls-2" d="M1088.35,2681c-2.06,6.91-4.44,13.82-6.34,20.89-1.74,6.27-4.48,4.35-14.11,4.87"/><path class="cls-2" d="M1899,1527.32c6.1.94,11.72,0,17.33-1.19"/><path class="cls-2" d="M1227.2,2264.76c1.32,8.5,2.17,22.79.92,31.3"/><path class="cls-2" d="M1311.89,2164.91l15.25-.06.17,43.34"/><path class="cls-2" d="M1527.62,1703.39l.11,27.29c0,2.89-.62,6.42,4,6.41"/><path class="cls-2" d="M1305.5,2173c-2.29-10.91-8.08-14.58-19.3-10.36"/><path class="cls-2" d="M1768.46,1512.25c4.51,3.19,9.64,1.09,14.45,1.55s4.83,3.35,4.85,9.77"/><path class="cls-2" d="M1584.2,1808a163.19,163.19,0,0,1-21.67,1c-3.53,0-6.58-.14-6.4,4.84,0,5.62,4.51,4.32,7.4,4.63,4.5.46,16.37-.38,20.86-.72"/><path class="cls-2" d="M1315.28,543.65A252.06,252.06,0,0,0,1325.9,591"/><path class="cls-2" d="M1584,1759.36c-6.24,5-13.63,4.23-20.85,4.09a220.43,220.43,0,0,0-27.28,1.71c-7.38.83-9.31.36-6.55,8.05"/><path class="cls-2" d="M628,883.39l.1,25.68"/><path class="cls-2" d="M1163.66,769l-32.1.12"/><path class="cls-2" d="M1651.72,1916.4l30.8-5.74"/><path class="cls-2" d="M949.79,878.94c-5.29,2.75-10.57,5.5-16,8.09-3.69,1.78-6.9.83-10.76-2.53,5.93-3.23,17.3-8.9,22.74-13.25"/><path class="cls-2" d="M990.36,2036.13c-.3,4.5-3,9-7.19,9.82-6.1,1.15-14.12.38-20.05,3.13"/><path class="cls-2" d="M806.86,2321.44c1.32,8.5,5.21,18.6,8.13,26.78"/><path class="cls-2" d="M1537.45,1797.26l45.91-.18"/><path class="cls-2" d="M1672.07,1073.6l.18,45.75"/><path class="cls-2" d="M1642.79,1807.28c-3,1-2.39,3.54-2.39,5.63.2,10.75-.24,21.35.77,32.1.34,4,2.91,4.64,5.8,5.6,5.14,1.75,10.13,3.65,15.27,5.56"/><path class="cls-2" d="M1537.14,2549.13a65.83,65.83,0,0,0,2.34,24.39c1.3,3.85,2.91,4.16,6,3.83"/><path class="cls-2" d="M1547.52,1244.23c-4,7.24-1.55,15.09-1.84,22.48s.54,15.57.09,23.27"/><path class="cls-2" d="M982.62,859.55c2.6,8.34-2.17,19.11-1.5,27.29.34,5.94-.75,13.33-.73,19.27"/><path class="cls-2" d="M1618.3,2532.93a126.75,126.75,0,0,0-28.09,1.23c-11.07,1.33-22,1.21-32.9,1.41-5.3,0-12.35,3.26-17.66.07"/><path class="cls-2" d="M1051,1109.7l-30.5.12"/><path class="cls-2" d="M963.12,2049.08a18.87,18.87,0,0,1-4.81,1.62c-11.23.69-11.39.69-11.19,11.28.18,5.3-.92,10.76.86,16"/><path class="cls-2" d="M1578.18,2537.09l.15,37.72"/><path class="cls-2" d="M1976.13,1668l.09,24.08"/><path class="cls-2" d="M1956.16,1525.17c-8,0-31.94.93-40,1"/><path class="cls-2" d="M1480.1,2494.93l.09,24.08"/><path class="cls-2" d="M433,2394.47c-14.92,1.5-35,.3-49.92.83"/><path class="cls-2" d="M1538,1697.73c-7.38,0-15.41-.74-21.83-1-1.93-.15-.94,4.82-.62,6.74"/><path class="cls-2" d="M1492.15,2289.26c-9.15-.13-18.46.71-30.5-.52"/><path class="cls-2" d="M1668.45,1801.57c-7.69,2.92-18,2.32-25.66,5.72"/><path class="cls-2" d="M1038.49,571.2c-7.7,1.8-46.55.66-54.25,1.17"/><path class="cls-2" d="M1226.36,2254c14.77-.54,47.19-1.47,61.79-2"/><path class="cls-2" d="M940.28,1827.65c.67,7.22-1.37,18.47.42,25.68"/><path class="cls-2" d="M939.67,1169.52l.17,44.94"/><path class="cls-2" d="M985.37,1575.46c4.36,8,13.88,18.41,19.36,25.61"/><path class="cls-2" d="M1670.91,564.76c-.44,10.11-1,42.86-1.4,53"/><path class="cls-2" d="M567.44,2466.34c0,4,.84,10.43.86,14.44l12.85,1.56"/><path class="cls-2" d="M941.44,2045.95c-.76,10.44-.64,42.54,1,53"/><path class="cls-2" d="M1666.88,726.74c-1.74,7.39-1.13,40.78-1.58,48.32"/><path class="cls-2" d="M818.51,554.39c-5.92,5-10.23,10.79-8.75,19.3"/><path class="cls-2" d="M950.57,2251.38c-.78,4.82,1.38,24.39-.8,43"/><path class="cls-2" d="M988.16,1840.14c-7,3.72-24,11.49-31.41,14.09"/><path class="cls-2" d="M981.43,969c-5.31-3-18.78-.41-24.88.42l0,12.36"/><path class="cls-2" d="M634.73,2642.66l.09,22.47"/><path class="cls-2" d="M622.48,710.85,600,707.73"/><path class="cls-2" d="M1553.05,1638.28c-16.53.55-29.21.11-45.74,1.78"/><path class="cls-2" d="M1045.28,875.84c4,7.37,3.61,21.17.11,28.89"/><path class="cls-2" d="M1311.18,2189c-4.47,5.47-10.06,15-16.14,19"/><path class="cls-2" d="M1936.33,1668.11l-34,.13"/><path class="cls-2" d="M1678.07,882.24c-7.54,1.63-34.69-3.56-42.06-1.92"/><path class="cls-2" d="M980.73,993.91c.5,4.49.84,8.83,1.66,13.16,1,5-46.64,17.52-47.92,20.09"/><path class="cls-2" d="M714.44,2540.58c.3-5.62-1.47-7.86-.05-13,.15-3.21-4-4.32-7.88-3.18"/><path class="cls-2" d="M674.39,2353.73c2.89-.17,2.74,1.92,2.58,3.84-.46,5.94-1.4,12-2.18,17.83a92.82,92.82,0,0,0,.09,23.11,29.55,29.55,0,0,1,.5,5.3"/><path class="cls-2" d="M1060.08,549.45c-7.22.51-19.75-2-27-.06"/><path class="cls-2" d="M939.11,1025.05c.2,11.56.12,31.14.16,42.7"/><path class="cls-2" d="M1539.93,2440.45a220,220,0,0,0-.17,39.81c.34,5.46-.12,11.72-.09,17.66l0,6.9"/><path class="cls-2" d="M961.09,896.55c.3-4.5.61-9.15.75-13.65,0-3.21.46-6.1,4.79-7.56l.14,36.6"/><path class="cls-2" d="M917.41,2684.91c-2.38,6.91-5.56,15.59-7.94,22.5"/><path class="cls-2" d="M753.26,740.21c-.78,5.94-11.54,3.9-11.21,7.11,1,6.9-1.55,15.09,2.65,21.66"/><path class="cls-2" d="M442.2,2665.07c.5,3.69-.94,4.82-4.8,4.83-4.17,0-14.93.06-19.26-.09"/><path class="cls-2" d="M1089.82,770.05c-8,1.64-16,.7-24.07.9"/><path class="cls-2" d="M1508.73,1592.7l-20.87.08"/><path class="cls-2" d="M977.6,1223.15c-6.91-1.58-35.18-7.57-42.09-9.15"/><path class="cls-2" d="M1050.08,871.33c7.25,7.2,1.88,30.81.15,37.72"/><path class="cls-2" d="M1981.47,1595.7c0,6.9.86,15.57.89,22.47"/><path class="cls-2" d="M1051.31,1606.5l-41.73.16"/><path class="cls-2" d="M625.43,642.62c-7.22.35-15.07,5.84-22.45,4.9"/><path class="cls-2" d="M1767.92,2370.71c0,6.9.71,16.69.73,23.59"/><path class="cls-2" d="M806.57,579.32c-1.58,6.91-4,15.59-5.53,22.49"/><path class="cls-2" d="M1787.77,1522.61l.15,38.36"/><path class="cls-2" d="M954.6,878.12c1.31,6.74-.37,28.57-1.63,35.32"/><path class="cls-2" d="M1687.71,2008.56l.19,48.16"/><path class="cls-2" d="M1021.51,747.84c-12.69-1.72-13.17-1.39-11.2,8.87"/><path class="cls-2" d="M1132.36,769.89c-8,.67-34.5,1.9-42.54.16"/><path class="cls-2" d="M1325.9,591c2,6.25,5.48,5.6,8.85,5.58,7.54.13,14.93-.22,22.47.56,3.21.31,3.22,1.91,3.23,4.16"/><path class="cls-2" d="M1277.66,2237.28c4.52,5.44,5,10.09,10.49,14.73"/><path class="cls-2" d="M953.92,1537.05c-.78,7.07-2,16.54,1.05,23.43"/><path class="cls-2" d="M1768.4,1494.27c-5.3.34-54.08,4.86-59.37,5.37-4.49.5-22-2-24.9-5.52"/><path class="cls-2" d="M1601,2615.66l0,12.84c16.86.74,16.86.74,16.81-11.3"/><path class="cls-2" d="M950.89,1165.46c1.65,12.51-.34,37.24.19,49.76"/><path class="cls-2" d="M1659.41,827.89c9.62-2,28.57-.59,38.2.17"/><path class="cls-2" d="M1692.11,2110.48c-8.34,1.16-16.06-2.19-24.09-3.92"/><path class="cls-2" d="M790.18,906.84c1.46,4.81-.27,12.36,2.63,15.88,1.77,2.08,2.27,6.89,3.41,9"/><path class="cls-2" d="M1540.08,2647.2c2,6.41,4.55,14.43,6.5,20.84"/><path class="cls-2" d="M1646.37,2528.65l0-10.92c-4.5-1.59-9.15-.29-13.65-.75-3.05-.31-4.46,8.52-4,11.73"/><path class="cls-2" d="M1663.92,832.85c-1.62-4.49-6.44-4.79-9.65-5.58-2.89-.63-19.44-4.26-22.33-4.73"/><path class="cls-2" d="M1471,1810.67c.51,8,2,18,2.51,26"/><path class="cls-2" d="M1394.09,542.71c-.78,6.42-1.75,44.63-12.8,51.26"/><path class="cls-2" d="M1682.51,1909.22c0-3.69-1-43.82-1-47.35-2.73-1-16.55-4.91-19.28-5.7"/><path class="cls-2" d="M878.49,915.33c6.28,4,17.53,9.72,24.13,14.35"/><path class="cls-2" d="M1319.22,1359.08c-6.42,0-17.65,2-24.07,2"/><path class="cls-2" d="M1654.21,1019.89c-6.09,2.59-14.1,5.51-20.52,5.7"/><path class="cls-2" d="M948,2078c0,6.42,1,16.85,1.05,23.27"/><path class="cls-2" d="M956.6,981.65c-.1,15.73-.1,15.73,16.11,15.19a20.1,20.1,0,0,0,8-2.92"/><path class="cls-2" d="M985.37,1575.46l0-9.47c-3.21-.79-5.62-.78-11.25-2.52"/><path class="cls-2" d="M1006.18,724.62c.18,5.62-3.65,11.09-.1,16.53-3.68,3.22-7.54,1.47-11.07,2"/><path class="cls-2" d="M655,742l-27.61.11"/><path class="cls-2" d="M1275.05,2185.92c4.35,5.44,12.59,18.73,19.35,22.08"/><path class="cls-2" d="M1480.25,2407.45c-2.22,6.11.59,28.41.45,34.51"/><path class="cls-2" d="M1487.87,1592.79c-8,1.32-42.54-.64-53,1"/><path class="cls-2" d="M1490.33,2440.32c1.61,0,6.26,0,7.37-3.24.79-2.41-4.51-4-7.4-4.79"/><path class="cls-2" d="M1236.8,963.71c-5.6,5-5.89,12.38-2.49,19.27"/><path class="cls-2" d="M1254.28,543.89c-9.15,1-54.26,0-64,1"/><path class="cls-2" d="M1730.16,2403.28c-9.63.68-16.37.71-28.57,1.55"/><path class="cls-2" d="M816.91,2304.86l-47,.18"/><path class="cls-2" d="M1672.46,1175.21c-1.73,10.44.15,39.81-.61,50.24"/><path class="cls-2" d="M974.09,1563.46c-5.47-3.35-30.67-2.61-36.14-5.48"/><path class="cls-2" d="M1902.26,1659.41c-1.08,10.12.64,41.09-.12,51.37-.31,3.05-1.74,6.43.36,10.43l24.24-.09"/><path class="cls-2" d="M673,2375.24c-12.36.21-24.72-.39-36.92.94"/><path class="cls-2" d="M994.59,2301.93c-5.94-1.26-45.13-6.25-50.91-7.67"/><path class="cls-2" d="M1424.38,2198.19c-5.94,0-19.42-.09-25.06-5.68"/><path class="cls-2" d="M1191.31,2656.24c2.92,6.73,12.37,44.58,14,51.63"/><path class="cls-2" d="M1560.69,1745.8c-5.94.18-24.4-1.19-30.18.6"/><path class="cls-2" d="M665,920.17c1.63,5.93,4.06,13.31,5.69,19.24"/><path class="cls-2" d="M982.14,1151.7c-5.77,1.63-12.81,8.72-19.23,8.9"/><path class="cls-2" d="M1768.52,2402.33c-5.94,0-32.58.93-38.52,1"/><path class="cls-2" d="M1669.84,2161.93c-5.94,0-12.84,1.49-19.25,2.48"/><path class="cls-2" d="M1399.18,2155.11c-7,4.84-15,17.55-9.21,26.2a151.06,151.06,0,0,0,10.16,12.16"/><path class="cls-2" d="M1681.8,2517c-3.71-5.6-10.16-12.48-20.26-8.27"/><path class="cls-2" d="M634.82,2665.13c5.48,5,12,2.52,17.67,2.34"/><path class="cls-2" d="M1691.71,2213.21c1.64,9,.71,18.14.91,27.28,0,1.28-.26,16.37.07,17.66"/><path class="cls-2" d="M1234.91,2224.76c-4.33,2.1-23.58,4.26-28.08,4"/><path class="cls-2" d="M1265.55,2217.9c2.43,5.77,7.76,14.9,12.11,19.38"/><path class="cls-2" d="M1676.27,1121.74c-7.24-3-14.94-1.87-21.35.72-3.21,1.3-22.78,4.74-25.17,8.28"/><path class="cls-2" d="M1705.29,2615.26c-6.74.19-13.49-1.07-20.22,2.33-3.36,1.78-9.79,1.48-14,2.78"/><path class="cls-2" d="M1528.75,538.5c-1.26,6.91-2.61,31.15-3.87,38.22"/><path class="cls-2" d="M1884.17,1546.31l-25.68.1"/><path class="cls-2" d="M639.82,2547.13c-8.34.83-9.28,8.22-19.86,10.51"/><path class="cls-2" d="M583.58,2614.92c7.71,1.09,23.29,3.6,31,4.54"/><path class="cls-2" d="M600,707.73c-4.49.82-19.44-4.9-22.48-.88-.3,6.58,1,12.2-.73,17.82"/><path class="cls-2" d="M776.2,737.87c-4.8,4.51-8.66,1.32-14,2.14"/><path class="cls-2" d="M1694.31,2056.69c-7.87,0-15.56,2.15-23.26,3.3"/><path class="cls-2" d="M1581.51,900.59c2.75,5.13,1,47.35,5,52.15"/><path class="cls-2" d="M1661.54,2508.68c-8.66,2.76-2.36,13.49-2.34,18.31"/><path class="cls-2" d="M1179.78,1622.86l.1,25"/><path class="cls-2" d="M628,882.59c-5.3-1.1-38.08-9.16-43.38-10.27"/><path class="cls-2" d="M634.74,2644.42c-.68-8.67-5.22-22.61-9.72-23.56-3.37-.63-6.91-1.1-10.44-1.57"/><path class="cls-2" d="M676.5,2441l.14,36.44"/><path class="cls-2" d="M581.15,2482.34l.09,24.08"/><path class="cls-2" d="M638.11,2476.51c8,.61,16-1.19,24.08.71"/><path class="cls-2" d="M991.05,2008.84c0,5.3.85,12.36.87,17.65"/><path class="cls-2" d="M375.34,2602.88c0,7.38-.73,20.07-.7,25.69"/><path class="cls-2" d="M1691.45,2356.07c-.46,5.3,1.07,26.8-.68,32.11"/><path class="cls-2" d="M1772.48,1721.71c-7.06,1.47-62-3.29-67.88,5.56-1.44,2.09-8.18.83-12.36,1.17"/><path class="cls-2" d="M1762.11,2155.15l-15.25.06"/><path class="cls-2" d="M1618.3,2532.93l33.71-.13"/><path class="cls-2" d="M946.33,1857.32l.18,46.55"/><path class="cls-2" d="M943.32,867.73c-6-5.11-14.58,6.16-20.33,15.49-.47,3.37-2.92-9-6.48-15.22"/><path class="cls-2" d="M981.86,1079.47c-5.95-1.58-13.34-4-19.28-5.54"/><path class="cls-2" d="M942.93,2101.32c7.86-.35,24.25,3.12,31.64,4.69"/><path class="cls-2" d="M1527.82,545.4c4.82,1.59,50.72-1.48,56.18-1.18,0,9,5,16.84,6.52,25.66"/><path class="cls-2" d="M795.89,930.9c2.11,4.81,1,10.59,4.07,15.23"/><path class="cls-2" d="M961.09,896.55c0,5.14-3.82,9.65-4,15.26"/><path class="cls-2" d="M686.2,2668.14c1,5.13,7.32,26.14,10.55,30.46"/><path class="cls-2" d="M1631.58,2646.84l-19.26.07"/><path class="cls-2" d="M951.19,1034.64c1.16,9.15-1.67,25.37.13,34.51"/><path class="cls-2" d="M1687.48,2157.85c-5.13,2.43-13,2.62-17.64,4.08"/><path class="cls-2" d="M1628.88,2573c-.3,4.66-4,3.71-6.41,3.07-5.14-1.26-10.27-.44-15.25-.58"/><path class="cls-2" d="M1262.44,2662.71c0,7.06-5.31,39.51-5.45,44.81"/><path class="cls-2" d="M1035.71,558.53c.47-2.57.93-9-1.32-9l-57.79.22"/><path class="cls-2" d="M860.25,553.43c.68,10.43-43.16,4.82-46.69,6.12"/><path class="cls-2" d="M1679.66,2210.85c-4.35-3.35-24.26-4.4-28.92-6.31"/><path class="cls-2" d="M1774,1705.65c-2.71,4.83-1.41,9.64.06,14.45"/><path class="cls-2" d="M992.25,2111.57c-5.14-.14-15.27-5.56-23.14-6.81"/><path class="cls-2" d="M757,2672.68c-3.83,6.44-8.9,22.19-10.49,27"/><path class="cls-2" d="M1669.15,2106.87c-6.1-1.1-14.29-1.87-18.79-3.46"/><path class="cls-2" d="M984.5,1347.52c-4.48,2.75-24.7,5.87-30.46,8.95"/><path class="cls-2" d="M663.44,2386.52l-14.44.86"/><path class="cls-2" d="M1553,1701c-16.37,2-29.53.43-37.39,2.39"/><path class="cls-2" d="M1825.25,1667.73c-5.94-1.1-21.5,3.13-20.52,8.1"/><path class="cls-2" d="M1720.26,1707.46c1.46,4.49.84,9.15.05,13.64"/><path class="cls-2" d="M950.5,1065.14c.5,5.62-3.68,4-6.41,3.88s-5.15-2.55-8-.61"/><path class="cls-2" d="M1179.88,1647.91c-5.94.5-11.71,1.65-17.65,2.32"/><path class="cls-2" d="M1695.64,2568.75c-6.42-.94-32.92-3.08-39.19-5.95"/><path class="cls-2" d="M1557.33,2458.52c-3.18,6.75-8.32,6.29-11.55.85"/><path class="cls-2" d="M1768.71,2409.55c-12,1-56.18.86-63.4.24"/><path class="cls-2" d="M1689.3,1795.87a194,194,0,0,0-21.49,6"/><path class="cls-2" d="M774.41,2524.94c0,7.7-4.63,131.64-4,138.06"/><path class="cls-2" d="M1144.2,1969.72c-2.71,4.18-13.71,23.81-17.55,27.36"/><path class="cls-2" d="M1693.32,2006.94c-4.66-.14-9,.68-13.81-2-4-2.23-16.06-2.83-23.45-4.24"/><path class="cls-2" d="M1671.05,2060c-11.38,3.25-22.12,8.59-24.83,13.74"/><path class="cls-2" d="M455.89,2470l-13.64.05"/><path class="cls-2" d="M680,2309.4c.36,9,.87,17.81-2.31,26.49"/><path class="cls-2" d="M1539,2529.38a71.84,71.84,0,0,1-2.32,21.84"/><path class="cls-2" d="M1438,2189.31c-4.33,2.26-8,8.54-13.61,8.88"/><path class="cls-2" d="M1671.6,2620.2l-12.83,3.26"/><path class="cls-2" d="M771.26,2664.6c-4.82-.62-13.32,1.82-17.6,15.16"/><path class="cls-2" d="M1670.11,774.24c-6.73,2.92-14.12,1-20.85,3.29-1.92.65-5.29,1.95-7.21,2.44"/><path class="cls-2" d="M620,2557.64c-3.84,2.9-12.35,3.26-16,6.48"/><path class="cls-2" d="M793.9,665.89c-7.87-.93-28.1-1.82-36,1.1-2.64-18.29,30.79-8.14,35.92-10.57"/><path class="cls-2" d="M940,839.65c-3.69,0,.57,22,.9,25.68"/><path class="cls-2" d="M1689.06,2568l.18,48"/><path class="cls-2" d="M1675.42,901.83c2.43,7.05.87,16.53.88,20.86"/><path class="cls-2" d="M585.33,859.48c-1.27,2.57-2,10-.75,12.84"/><path class="cls-2" d="M980.39,906.11c-1.75,3.86-.29,8.83-4,12.05"/><path class="cls-2" d="M770.79,666.94c1.62,2.88-3.34,8.68,4,8.81"/><path class="cls-2" d="M1597.39,2690.32l-44.3.17"/><path class="cls-2" d="M1196.61,573c0-.8-4.88-17.64-4.89-18.44,0-11.08,0-11.08-11.28-10.39"/><path class="cls-2" d="M936.57,1407.9c9.47.12,18,4.43,27.31,5.51"/><path class="cls-2" d="M1676.08,1072.78c-8.34,1.8-15.74-1.54-23.29-3.92a10.76,10.76,0,0,0-3.21,0"/><path class="cls-2" d="M1200.87,2095.51c2.75,4.64,4.05,9.94,7.92,13.93l-4.65,2.1"/><path class="cls-2" d="M1366.68,968.83a13,13,0,0,1,.05,13.64"/><path class="cls-2" d="M441.88,2625.74c0,7.22-1.71,14.13-1,20.87.5,4,1.34,14.12,1.36,18.45"/><path class="cls-2" d="M1697.78,871.24c-10.26,3.41-18.13,2.16-23.27,2.34-4.65.18-3.21.65-8,.83"/><path class="cls-2" d="M962.91,1160.6c-6.41,2.11-12.83,4.22-19.24,6.49-2.73,1-5.29.66-8,.83"/><path class="cls-2" d="M1451.8,2649.14c-3.69,1.3-12.51,2.94-19.24,4.89"/><path class="cls-2" d="M1703.29,2511.73c-5.3-.3-9.78,2.61-16.52,3.27"/><path class="cls-2" d="M1676.47,1173.91a7.56,7.56,0,0,1-6.42,1c-2.73-.79-7.36,5.49-8.8,8.7"/><path class="cls-2" d="M616.46,814.41c-3.69,1.3-34.79,10.25-38.5,7.37"/><path class="cls-2" d="M1551.43,2676c-1.59,4,.06,14.45,2.34,22.95"/><path class="cls-2" d="M670.71,939.41c1.63,6.41,5.68,15.23,7.31,21.64"/><path class="cls-2" d="M927,2664.81c-4.16,3.87-9.09,16.57-9.55,20.1"/><path class="cls-2" d="M1547.63,2438.65c-3.53,1.62-4,5.47-2.54,8.52,1.94,4.17-1.89,8.19.69,12.2"/><path class="cls-2" d="M1005,1666.88l-12.82,6.47"/><path class="cls-2" d="M949.27,2662.15c-5,.34-18.6,4.73-22.3,2.65"/><path class="cls-2" d="M1560.69,1746.28c.33,2.89-4.3,9.49-8.15,8.86"/><path class="cls-2" d="M963.38,1700.75c-7.86,1.31-15.07,5.68-23.26,4.91"/><path class="cls-2" d="M1481.86,1699.55c-5.14-.78-6.9.51-10.43,0"/><path class="cls-2" d="M1225.45,2227.21c.83,5.94.12,32.1,1.75,37.55"/><path class="cls-2" d="M1697.5,2258.13a56.85,56.85,0,0,0-22.46,4.1"/><path class="cls-2" d="M1612.31,2646.92c-7.54.19-11.71,1-10.87,11.76"/><path class="cls-2" d="M961,1500.91c-1.6.49-17.79,6.49-19.23,7.3-2.4,1.45-5-1.91-5-7.2"/><path class="cls-2" d="M1531.49,1833.24c-.81-2.89,1.73-9.48-2.77-11.39"/><path class="cls-2" d="M1481.92,2340.83c0,8.35.21,14,.08,20.87"/><path class="cls-2" d="M1263.14,549.63c-3.69,1.78-2,17.5-6.67,18.81"/><path class="cls-2" d="M781.86,665.13c-.79,3.37-2.36,13.49-7,10.62"/><path class="cls-2" d="M1489.64,594.35c1.62,3,.52,11.07.86,14.12"/><path class="cls-2" d="M1597.66,2675.87c1.16,8.34.07,18.78-2.65,20.4"/><path class="cls-2" d="M607.2,2410.81c7.25,6.55,18.5,10.52,24.09,3"/><path class="cls-2" d="M1556.94,2439.26c.34,6.1,1.5,13.32.4,19.26"/><path class="cls-2" d="M1249.56,985.33c-3.21,1.3-12-1.08-15.26-2.35"/><path class="cls-2" d="M1550.51,2438.48c1.92-.33,3.69-.66,5.62-.82,9-.68,9.63.12,8.06,8.8-.31,1.61.22,15.41,1.19,16.21"/><path class="cls-2" d="M1204.83,2707.88c-3.21.17-6.42-.62-11.23.85"/><path class="cls-2" d="M1663.64,1176.68c-2.9-2.24-21-5.06-23.79-7.93"/><path class="cls-2" d="M586.64,2450.38c.35,6.9-1.4,10.76-.75,14"/><path class="cls-2" d="M1311.09,2164.91c-1.27,3.22.07,18.94.09,24.08"/><path class="cls-2" d="M941.69,1903.09c5.63,2.71,11.73,2,17.67,3.14"/><path class="cls-2" d="M766,2545.36c-5.61,1.31-12.35,2.94-12.81,8.08"/><path class="cls-2" d="M1271.74,2159.45c-2.9-1.59-5.94-.46-8.83-.77"/><path class="cls-2" d="M1557,2448.73l-10.43,1"/><path class="cls-2" d="M1601.44,2657.88c.33,2.89,1.79,7.06-2.7,8.36"/><path class="cls-2" d="M1624,673.29c7.7-.51,37.84-10.26,45.72-8.2"/><path class="cls-2" d="M1045.39,904.74c-1.92,2.74-5.27,8.21-7.18,10.94"/><path class="cls-2" d="M626.75,2403.83c3.71,4.48,5.14,1.91,4.37,9.94"/><path class="cls-2" d="M567.44,2466.34c-2.89.33-38.52.63-41.41,1"/><path class="cls-2" d="M1244.21,2220.23c-3.69,1.3-3.69,1.46-12.18,5.34"/><path class="cls-2" d="M432.24,2373c1.94,4.65-.2,31.3.94,36.11"/><path class="cls-2" d="M384.3,2636.4c0,5.14-1.65,30.83-.67,33.71"/><path class="cls-2" d="M991.93,2026.49c-1.76,2.58-1.1,6.91-1.57,9.64"/><path class="cls-2" d="M1654.21,1019.89c4.17-1.94,10.27-1.48,14.44-2.46"/><path class="cls-2" d="M950.34,1023.41c1.78,2.56.35,8.51.85,11.23"/><path class="cls-2" d="M765.91,2525c.49,2.73-.6,9.63,1.17,12.19"/><path class="cls-2" d="M1663.88,615.35c-.31,2.73,1.3,46.22,1,49"/><path class="cls-2" d="M1141.94,548.33a32.73,32.73,0,0,1-1.55,15.26"/><path class="cls-2" d="M922.61,907.94c3.34-6.92,23,.71,28.59,5.67"/><path class="cls-2" d="M934.85,1169.54c-1.74,6.91,1.27,37.56.65,44.46"/><path class="cls-2" d="M961.82,877.29c-3.7-2.39-8.18.83-12,1.65"/><path class="cls-2" d="M677.7,2335.9c-.78,5.14.69,12-2.34,16.86"/><path class="cls-2" d="M961,1500.91c-4.49,1.3-8.39,31.82-7.24,37.27"/><path class="cls-2" d="M766,2545.36c1.93,2.08,1.84,18.93,3.14,24.07"/><path class="cls-2" d="M920.23,916c0-2.09,2.39-5.47,2.38-8,3.53-.5,19.94,7.95,23.32,10.34"/><path class="cls-2" d="M1398.49,2142.91c-4.32,3.39-13.91,15.14-20.79,20.14"/><path class="cls-2" d="M1021.57,761.48c-4,.82-8.34,2-11.25-4.77"/><path class="cls-2" d="M1550.51,2438.48c-6.42,0-17.64,3.28-18.63-1.53"/><path class="cls-2" d="M746.36,2700.33c.17,2.25-1.86,17.34-3.14,19.27"/><path class="cls-2" d="M1421.9,1594.16c-2.09-1.28-12.83,2.3-14.93.06"/><path class="cls-2" d="M1004.73,1601.07l4.84,5.6"/><path class="cls-2" d="M925,893.48c.49,2.41-2.37,10.76-1.88,12.85"/><path class="cls-2" d="M923,884.5c.33,2.25,1.63,6.57,2,9"/><path class="cls-2" d="M951.32,1069.15c2.58,3,7.72,4.14,11.25,4.77"/><path class="cls-2" d="M1534.47,2441c.49,2.08-.25,59.55-.07,65"/><path class="cls-2" d="M1631,1235.88c-.47,2.09.67,6.1-1.25,8"/><path class="cls-2" d="M1639,1229.43c-2.89.33-7.54.83-8,6.45"/><path class="cls-2" d="M1685.65,2515.81c-8,3.24-30.61,11.84-32.85,15.38"/><path class="cls-2" d="M712.77,2481l.05,13.64"/><path class="cls-2" d="M1546.26,2667.24c1.3,4,2.12,7.86,5.17,8.81"/><path class="cls-2" d="M1652.4,966.93c3.69.47,9.16,1.89,12.85,2.36"/><path class="cls-2" d="M1564.89,2460.74c1,3.37-.14,6.58,1,9.79"/><path class="cls-2" d="M1661.74,1182.79c-1.28,1.77.85,11.39.21,14.12"/><path class="cls-2" d="M1618.84,590.64c0,3.53,4.88,16.84,8.09,16.82"/><path class="cls-2" d="M1701.11,2570.33a57.66,57.66,0,0,0-7.55-1.9"/><path class="cls-2" d="M665.88,2394.53c1.93.47,5.3,1.1,7.23,1.58"/><path class="cls-2" d="M1022.69,845.75c5,3.51,3.39,4.32-3.18,8"/><path class="cls-2" d="M583,873.13c-1.44,1.93-4.66-.62-5.61,2.43"/><path class="cls-2" d="M603,647.52c-3.69.66-22,9.23-20.82,12.92"/><path class="cls-2" d="M1529.75,1756.35c13.16-.05,20.22-1,24.23-1.22"/><path class="cls-2" d="M1768.65,2394.3c-.31,4,.36,11.23.06,15.25"/><path class="cls-2" d="M909.47,2707.41c.17,2.89-2.38,6.11.84,8.83"/><path class="cls-2" d="M1688.11,2112.1l.18,45.75"/><path class="cls-2" d="M1675.69,970.85c-2.89-.15-7.55-1.58-10.92-1.56"/><path class="cls-2" d="M652.49,2667.47c14.93.75,31.14.2,33.71.67"/><path class="cls-2" d="M434,2627.38c-.79,4.34,0,40.29-.64,42.7"/><path class="cls-2" d="M1668,1017.59a65.74,65.74,0,0,1,7.86-1"/><path class="cls-2" d="M972.23,872.43c-1.12.16-5.93,1.95-6.73,3.24"/><path class="cls-2" d="M938.94,854.26c-6.41,2.27-20,16-22.42,13.89"/><path class="cls-2" d="M943.32,867.73c1.61,1.28,6.78,8.8,7.26,9.6"/><path class="cls-2" d="M1050.08,871.33c-.8.48-4,3.87-4.8,4.51"/><path class="cls-2" d="M382.49,2374.44l.14,36.12"/><path class="cls-2" d="M1377.35,2697.1c0,1.61,1.46,4.17,1.47,5.77"/><path class="cls-2" d="M1421.8,2694.68c0,1.61,1.14,5,1.15,6.58"/><path class="cls-2" d="M1490.3,2432.29c0-4.33.1-14.93.09-19.26l0-4.66"/><path class="cls-2" d="M1480.25,2407.45c2.41,0,7.71.93,10.12.92"/><path class="cls-2" d="M1534.4,2506c1.12,0,4-.34,5.14-.34"/><path class="cls-2" d="M1654.4,2528.61c-3.37,0-9.79.36-13.16.37l-102.25.39"/><path class="cls-2" d="M1525.55,1833.26c-.81-2.89-.35-7.38-.36-10.75"/><path class="cls-2" d="M1525.19,1822.34c1.12,0,2.41-.49,3.69-.5"/><path class="cls-2" d="M636.59,2542.16l60.68-.23c3.21,0,6.1-.67,9.31-.68"/><path class="cls-2" d="M706.51,2524.4l.06,16.85"/><path class="cls-2" d="M714.44,2540.58c1.77,0,5.46-.34,7.22-.35"/><path class="cls-2" d="M722,2540.07c0,1.28.34,4.17.34,5.46"/><path class="cls-2" d="M634.92,2481.33l71.43-.28"/><path class="cls-2" d="M706.35,2481.06c0,3.53.68,9.79.69,13.32"/><path class="cls-2" d="M706.88,2494.38c1.93,0,3.85.31,5.94.3"/><path class="cls-2" d="M712.77,2481l9,0"/><path class="cls-2" d="M722.06,2477l0,4"/><path class="cls-2" d="M670.4,2441.23l.14,36"/><path class="cls-2" d="M670.4,2441.23c2.57,0,3.53-.17,6.1-.18"/><path class="cls-2" d="M725.9,2306.82c0,4.49,3.89,10.58,3.91,15.07"/><path class="cls-2" d="M761.26,2360.14l.35,91.17"/><path class="cls-2" d="M761.61,2451.31l8,0"/><path class="cls-2" d="M753.18,2553.75c-.17-1.28-2.75-6.09-1.64-8.66a12.61,12.61,0,0,1,5.6-6c3.36-2.1,8.18-2,9.94-2"/><path class="cls-2" d="M765.91,2525l8.51,0"/><path class="cls-2" d="M1588.64,2458.72c-3.18,6.75-8.32,6.29-11.55.85"/><path class="cls-2" d="M1576.2,2437.9c1.94,4.17-1.54,17.66.89,21.51"/><path class="cls-2" d="M1588.24,2439.46c.34,6.1,1.5,13.32.4,19.26"/><path class="cls-2" d="M1588.28,2448.93l-10.43,1"/><path class="cls-2" d="M1564.12,2554.65c-3.18,6.75-8.32,6.29-11.55.85"/><path class="cls-2" d="M1550.89,2536.56c1.94,4.17-.74,15.09,1.68,18.93"/><path class="cls-2" d="M1563.73,2535.38c.34,6.1,1.5,13.32.4,19.26"/><path class="cls-2" d="M1563.77,2545l-10.43,1"/><path class="cls-2" d="M1601,2552.42c-3.18,6.75-8.32,6.29-11.55.85"/><path class="cls-2" d="M1587.8,2534.81c1.94,4.17-.75,14.61,1.84,18.45"/><path class="cls-2" d="M1600.8,2533.15c.34,6.1,1.5,13.32.4,19.26"/><path class="cls-2" d="M1600.84,2542.63l-10.43,1"/><path class="cls-2" d="M1628.64,2552.31c-3.18,6.75-8.32,6.29-11.55.85"/><path class="cls-2" d="M1615.09,2533.1c1.94,4.17-.42,16.21,2,20.06"/><path class="cls-2" d="M1628.25,2533c.34,6.1,1.5,13.32.4,19.26"/><path class="cls-2" d="M1628.29,2542.52l-10.43,1"/><path class="cls-2" d="M1607.06,2533.77l.16,41.73"/><path class="cls-2" d="M1766.06,2347c0,1.61.34,5.62.35,7.22"/><path class="cls-2" d="M1474.53,2340.05l.09,22.15"/><path class="cls-2" d="M1474.62,2362.21c1.93,0,4.49-.34,6.58-.35"/><path class="cls-2" d="M1438,2189.31c1.13,1.12,3.22,2.72,4.19,3.84"/><path class="cls-2" d="M1232,2207.28c3.38,3.36,6,10.57,9.36,13.93"/><path class="cls-2" d="M1194.49,2108.06a23,23,0,0,0,2.41,1.76,21.87,21.87,0,0,0,7.23,1.9"/><path class="cls-2" d="M1584.08,1774.6a163.19,163.19,0,0,1-21.67,1c-3.53,0-6.58-.14-6.4,4.84,0,5.62,4.51,4.32,7.4,4.63,4.5.46,16.37-.38,20.86-.72"/><path class="cls-2" d="M1589.4,1697.53a9.35,9.35,0,0,1-.62,6.26c-1.12,2.09-4.32,3.07-5,3.39"/><path class="cls-2" d="M1521.36,1703.9l.27,69.34"/><path class="cls-2" d="M1521.63,1773.24l7.7,0"/><path class="cls-2" d="M1471.28,1703.45a38.69,38.69,0,0,1,6.1,0c2.25.31,3.53.79,4.66,0s.63-2.41.47-3.69"/><path class="cls-2" d="M1897.43,1489.44l.26,66.61"/><path class="cls-2" d="M1768.4,1495.07l.07,17.18"/><path class="cls-2" d="M1675,1471.84c1.6-.33,5.93-1.31,7.54-1.63"/><path class="cls-2" d="M1676.15,1424.32l5.13-1.95"/><path class="cls-2" d="M941.95,2053.17c1.77,0,5.93-1.47,7.7-1.47"/><path class="cls-2" d="M1354.46,962.46c-3.82,7.4-6.68,15.92-3.44,22.81"/><path class="cls-2" d="M1366.73,982.47c-3.21,1.3-12.34,4.06-15.56,2.79"/><path class="cls-2" d="M851.85,957c-.15,2.73,1.63,6.25,1.48,9"/><path class="cls-2" d="M678,961c0,1.28.34,3.69.34,5.14"/><path class="cls-2" d="M731,960.84c.17,1.44.34,5.14.51,6.42"/><path class="cls-2" d="M577.82,660.78c1-.65,3.37-.33,4.17-1"/><path class="cls-2" d="M655,695.8l0,9.79c0,11.4-.06,25,0,36.6"/><path class="cls-2" d="M655,695.8l8.19,0"/><path class="cls-2" d="M654.68,609.6l.18,45.75"/><path class="cls-2" d="M754.08,703.12l5.62,0"/><path class="cls-2" d="M994.3,724.19c0,5.62.69,13.16.72,18.94"/><path class="cls-2" d="M1025.61,770l-11.08,0"/><path class="cls-2" d="M1014.54,770c0,1.93-.14,6.42-.13,8.35"/><path class="cls-2" d="M1065.43,771.11l0,6.9"/><path class="cls-2" d="M1583.81,538.12c0,1.61.34,4.49.35,6.26"/><path class="cls-2" d="M1704.51,536.05l.1,25.2"/><path class="cls-2" d="M920.23,916c1.29,1.28,6.44,5.27,7.73,6.55l5.16,5.12"/><path class="cls-2" d="M909.3,869.3a27.75,27.75,0,0,0-14.41,10.49"/><path class="cls-2" d="M892.67,886.06a20.71,20.71,0,0,0-1.27,4.5,20.41,20.41,0,0,0,.68,9.31"/><path class="cls-2" d="M893.39,906.28a57.86,57.86,0,0,0,6.15,14.1"/><path class="cls-2" d="M1748.83,2667.26c0,6.74-.26,16.53-.23,23.28"/><polyline class="cls-1" points="629.96 776.64 682.93 776.43 697.38 776.38"/></g></svg>