<svg xmlns="http://www.w3.org/2000/svg" viewBox="0 0 1980 1288"><defs><style>.cls-1,.cls-11{fill:#ffce55;}.cls-10,.cls-2,.cls-3,.cls-4,.cls-5,.cls-6,.cls-7,.cls-8,.cls-9{fill:none;}.cls-2,.cls-3{stroke:#000;stroke-linecap:round;stroke-linejoin:round;}.cls-11,.cls-2,.cls-4{stroke-width:2px;}.cls-3{stroke-width:2.07px;}.cls-10,.cls-11,.cls-4,.cls-5,.cls-6,.cls-7,.cls-8,.cls-9{stroke:#231f20;stroke-miterlimit:10;}.cls-5{stroke-width:2.07px;}.cls-6{stroke-width:1.59px;}.cls-7{stroke-width:2.06px;}.cls-8{stroke-width:2.27px;}.cls-9{stroke-width:1.88px;}.cls-10{stroke-width:1.91px;}</style></defs><title>plantegning 1sal</title><g id="Layer_2" data-name="Layer 2"><polygon class="cls-1" points="1101.25 561.75 1101.25 554.08 1101.25 550.13 1101.25 539.92 1101.25 504.42 1101.25 469.23 1101.25 427.39 1100.51 417.32 1107.88 417.32 1138.63 417.32 1138.63 431.88 1139.18 459.75 1139.18 468.5 1139.88 469.92 1151.25 469.88 1161.49 469.81 1161.59 470.18 1161.41 471.38 1160.22 478.92 1156.51 502.62 1154.25 502.63 1144.78 502.78 1139.66 502.72 1139.03 504.25 1138.75 563.06 1138.44 563.49 1120.88 563.49 1100.51 563.49 1101.25 561.75"/><polygon class="cls-1" points="1155.83 383.43 1153.57 360.58 1154.6 352.33 1156.54 349.08 1163.25 349.08 1177.42 349.5 1211.63 349.08 1242.5 349.08 1284.25 349.08 1302.17 349.08 1325.13 347.67 1329.06 348.92 1331.92 349.92 1332.96 352 1332.96 361.08 1332.5 365.68 1342.23 368.27 1345.79 369.48 1350.42 371.29 1350.42 379.54 1350.56 400.72 1348.28 402.25 1341.19 404.5 1336.56 405.38 1332.92 435.08 1332.58 436.17 1327 436.17 1283.88 437.08 1247.25 437.65 1162.88 437.65 1160.59 436.88 1160.42 434.16 1160.42 417.32 1160.69 415.34 1156.44 387.25 1155.83 383.43"/><polygon class="cls-1" points="965.41 440.66 964.08 436.1 963.75 431.33 963.45 420.55 963.45 417.38 959.46 416.94 949.36 413.92 948.37 412.38 948.37 408.94 948.37 394.69 947.81 384.56 948.37 383.03 962 379.88 965.69 377.69 965.69 362.47 966.56 361.94 989.38 361.94 1042.63 361.21 1093.5 360.63 1095.04 360.88 1095.04 376.08 1095.04 385.13 1097.33 385.33 1099.73 383.92 1100.08 381.25 1100.08 370.42 1100.08 355.75 1100.17 321.92 1100.17 319.51 1139.03 322.25 1139.03 349.83 1139.39 383 1142.63 383.43 1154.88 383.77 1155.56 383.96 1155.95 384.2 1160.61 414.8 1157.31 414.49 1145.81 413.57 1141.57 414.41 1138.91 415.34 1138.8 416.98 1138.39 417.32 1100.86 418.25 1098.31 415.34 1095.5 415.13 1095.13 416 1095 424.38 1094.94 438.44 1090.67 439.46 1077.5 439.13 1054.21 439.03 1041.92 439.14 1028.08 439.33 1021.48 440.5 1020.3 441.48 1021.56 442.9 1023.19 444.22 1022.55 444.72 994.76 444.75 993.92 440.1 982.08 440.87 967.77 440.87 965.41 440.66"/><polyline class="cls-1" points="964.96 355.38 963.28 349.09 963.91 344 963.79 327.83 961.03 323.59 946.72 320.03 947.81 317.91 948.75 292 951.31 290.5 954.22 289.83 964.54 286.71 965.42 285.33 965.33 259.63 966.21 257.93 972 257.93 1031.25 257.93 1094.58 258.35 1094.94 261.56 1094.94 271.67 1095.1 287.6 1096.71 288.04 1099.63 287.75 1100.17 284.44 1100.69 257.81 1101.88 257.23 1107.71 257.23 1110.66 257.02 1110.66 242.38 1130.08 242.38 1130.08 255.67 1132.65 257.6 1137.06 257.65 1137.83 261.02 1137.45 272.84 1136.66 289.94 1137.45 290.78 1153.88 290.54 1153.88 268.04 1155.46 257.51 1158.25 257.24 1190.19 257.45 1190.03 262.63 1190.19 288.5 1190.19 317.5 1190.19 320.31 1191.19 321.65 1196.63 321.38 1209.88 321.38 1221.83 321.29 1222.61 321.92 1222.83 332.5 1222.56 343.56 1219.02 344.08 1197.38 343.66 1186.59 343.63 1159.44 344.08 1154.13 344.08 1154.06 343.29 1154.29 337.58 1154.6 331.72 1154.16 324.16 1150.06 321.83 1145 321.03 1139.69 321.03 1138 322.18 1100.51 325.33 1099.73 323 1099.68 318.88 1097.17 319.51 1093.65 320.13 1093.5 321.94 1093.65 332.06 1093.65 351.25 1092.92 355.38 1087.83 355.38 998.33 356.57 971.17 356.57 967.42 356.57 964.96 355.19"/><polygon class="cls-1" points="1195.17 257.71 1197.58 256.5 1202.21 256.33 1220.83 256.33 1222.08 256.5 1222.44 265.29 1222.83 278.49 1223.65 282.69 1226.44 283.98 1233.75 283.98 1240.84 284.31 1240.84 309.25 1241.29 317.63 1243.46 319.88 1245.75 320.33 1246.08 322.13 1245.81 323.32 1247.34 342.26 1246.53 344.08 1237.03 343.81 1230.31 343.78 1229.03 343.34 1229.19 338 1229 324.94 1228.73 316.9 1228.56 315.69 1220.93 315.63 1195.69 315.63 1195.17 307.56 1195.17 301.19 1195.17 281.69 1195.25 269.19 1195.17 260.69 1195.17 257.71"/><polyline class="cls-1" points="1304.79 348.92 1304.55 348.57 1304.31 348.23 1304.55 344.58 1304.31 343.01 1301.13 342.5 1262.88 342.5 1254.63 342.31 1252.07 342.44 1251.75 341.34 1251.21 326.38 1251.96 320.4 1256.1 319.23 1259.19 319.23 1259.21 314.75 1255.58 314.5 1246.46 314.35 1246 294.38 1246 284.31 1254.69 283.63 1258.77 283.4 1260.38 282.86 1260.19 278.13 1254.92 278.41 1239.71 278.61 1228.53 278.13 1228.53 274.5 1228.53 258.83 1228.53 257.25 1229.58 256.33 1236.42 255.82 1260.92 255.02 1279.17 253.16 1284.39 253.78 1285.75 252.5 1285.38 240.2 1283.33 239.39 1273.42 239.39 1190.38 240.57 1189.08 240.2 1189.29 233.88 1189.08 223.29 1189.13 194.1 1189.08 189.79 1189.08 162.38 1188.82 124.25 1189.1 70.75 1189.16 56.38 1189.78 54.16 1193.03 52.56 1198.72 51.59 1203.3 44.92 1204 40.6 1205.68 36.25 1207.21 35.54 1235.38 35.54 1236.69 37.69 1241.03 51.71 1243.19 51.97 1267.79 50.83 1274.82 45.45 1278 34.38 1278.36 32.91 1280.49 32.38 1307.93 32.38 1310.47 39.91 1315.44 47.81 1322.02 49.5 1330 50.06 1331.06 85.54 1344.59 89.9 1345.37 93.78 1345.37 118.5 1345.37 119.56 1337.03 121.53 1330.52 124.31 1331 133.47 1337.54 136.21 1341.63 140.22 1341.88 142.94 1341.73 159.91 1340.98 160.48 1334.69 160.44 1331.54 160.75 1330.94 161.41 1330.39 174.25 1330.95 175.72 1341.04 179.92 1346.21 181.27 1346.61 182.86 1347.54 211.13 1346.91 212.03 1339.72 213.63 1333.19 215.19 1330.54 216.38 1331.42 218.25 1332.66 223.66 1331.9 238.44 1324.06 239.14 1316.63 238.81 1314.94 250.5 1318.44 253.79 1325.25 254.25 1331.31 255.03 1331.94 258.06 1334.05 278.41 1339.5 282.33 1349.27 283.42 1351.75 283.42 1351.75 306.92 1351.75 312.83 1350.92 313.94 1343.6 314.65 1332.5 317.5 1332.25 335.92 1331.5 339.83 1331.09 342.06 1328.34 342.28 1326.39 342.55 1324.53 345.56 1324.81 347.67 1323.72 348.06 1315.44 349.75 1306.25 350.25"/><polygon class="cls-1" points="1101.94 52.88 1115.5 52.3 1126.25 53.44 1130.38 39.81 1131.18 37.06 1131.75 35.99 1136 35.99 1157.63 35.99 1161.27 36.5 1162.87 48.18 1163.49 52.63 1176.66 52.5 1181.92 53.44 1183.99 55.86 1184.65 66.24 1184.09 86.5 1184.6 102.24 1184.65 118.95 1184.81 141.33 1184.21 158.5 1183.69 166.24 1184.67 191.83 1184.49 194.33 1186.8 194.33 1189.13 194.33 1189.13 199.21 1189.13 213.69 1189.13 221.88 1186.8 222.5 1184.21 223.75 1184.21 240.2 1183.75 240.94 1179.67 240.94 1169.08 240.94 1165.7 240.94 1165.7 237.17 1165.7 231.88 1165.88 230.77 1162.79 230.04 1147.78 230.04 1132 230.04 1130.97 229.69 1130.19 234 1130.28 242.38 1129.13 242.38 1110.94 242.38 1110.32 241.34 1110.28 240.66 1108.4 202.16 1108.38 201.69 1113.98 200.59 1137.97 200.24 1161.1 199.13 1161.06 187.38 1161.08 175.58 1161.53 170.34 1161.75 166.24 1165.54 164.79 1166.98 163.08 1165.48 161.42 1162.05 161.08 1148.12 161.25 1101.94 161.06 1101.1 157.75 1101.1 101.72 1101.42 62.42 1101.46 53.54 1101.94 52.88"/><polyline class="cls-1" points="1098.04 201.69 1106.33 201.92 1109.46 202.25 1110.33 208.21 1111.88 241.62 1106.01 242.47 1089.19 241.62 1072.38 241.62 1060.63 241.31 1059.23 242.47 1058.42 245.42 1055.54 247.83 1051.47 248.47 1046.81 248.14 1044.05 246.21 1039.62 242.83 1036.27 242.17 1012.94 243.25 1011.5 243.63 1011.5 249.5 1011.5 250.69 1005.94 250.69 989.6 250.69 989.42 247.54 988.96 243.04 984.33 242.83 966.69 242.38 965.31 242.33 965.31 239.5 964.92 233.44 959.63 233.35 951.34 233.5 948.29 236.97 945.1 239.67 944.48 240.33 941.88 240.53 937.09 239.16 930.38 236.56 927.97 235.49 929.6 234.34 936.7 230.12 938.45 228.75 939.29 224.92 939.79 210.42 964.75 211 964.96 194.88 965.63 191.75 968.91 191.25 985.92 190.56 997.25 190.56 1005.33 191.6 1022.32 191.28 1048.79 191.28 1076.88 191.28 1087.29 191.63 1094.63 191.28 1096.5 191.75 1096.38 198.75"/><polyline class="cls-1" points="1028.82 56.63 1040.96 52.71 1048.42 50.47 1058.75 45.71 1059.17 43 1061.25 37.4 1064.77 37.1 1077.31 37.1 1086.5 37.1 1088.89 37.91 1090.26 43.07 1092.06 52.19 1094.56 54.06 1096.38 54.69 1096.69 56.63 1096.38 65.56 1096.34 122.67 1096.42 164.33 1096.69 182.93 1096.02 183.94 1094.06 185.56 1083.25 186.18 1077.38 186.18 1075.25 187.56 1075.06 190.19 1074.69 191.6 1057.42 191.28 1050.58 191.28 1049.98 189.01 1050.25 186.42 1038.58 186.36 1030.22 185.81 1029.72 182.44 1028.82 137.08 1028.31 119.38 1028.31 102.33"/><polyline class="cls-1" points="987.38 190.48 986.53 184.08 983.5 183.21 974.33 183.21 967.25 183.21 966.62 178.88 966.62 175.04 966.35 173.88 964.91 178.59 963.41 179.5 955.36 180.8 949.56 180.41 946.94 179.59 946.78 175.41 946.78 164.75 948.25 161 949.46 159.58 961.17 159.25 964.54 159.25 965.08 152.56 965.02 137.69 965.08 105.38 964.86 73.88 964.93 61.37 966.24 56.43 973.75 40.08 977.58 38.06 984.13 38.1 1000.96 38.06 1004.29 39.46 1007.38 45.34 1010.81 49.49 1014.44 52.57 1017.43 55.63 1019.63 55.5 1023.75 55.75 1024.16 70.31 1023.98 101.23 1026.96 102.73 1028.31 102.63 1028.31 105.79 1028.31 118.92 1025.13 119.3 1024.94 121.22 1024.88 125.88 1025.23 169.63 1024.66 185.59 1021.09 185.84 1004.41 186.97 1004.13 190.88 1003.92 193.5"/><polygon class="cls-1" points="1025.33 101.38 1030.5 101.38 1030.5 120.17 1024.83 119.25 1025.33 101.38"/><polygon class="cls-1" points="794.78 255.5 793.71 254.5 788.63 241.53 782.94 239 771.13 239.56 765.29 239 764.13 238.25 764.9 236.27 765.33 227.89 763.79 223.21 749.06 216.94 749.81 213.5 749.83 185.33 749.92 183.28 754.46 182.38 764.15 177.13 764.58 161.83 766.01 143.66 794.78 140.56 795.06 148.63 799.31 149.06 841.5 148.73 853.5 149.31 854.13 149.56 854.7 163.69 854.44 172.94 859.13 172.94 860.94 172.94 861.71 148.9 863.38 147.15 868.29 147.13 889.88 146.78 905.52 147.08 907.01 146.56 907.63 142.19 907.4 140.22 907.54 139.54 926.58 139.92 926.58 145.4 927.27 146.69 938.65 146.4 939.15 149.77 939.43 172.5 939.08 203.67 938.98 210.29 939.54 210.75 939.77 211 939.29 224.92 938.77 227.32 936.31 225.59 925.72 218.38 925.06 216.78 922.75 214.67 920.88 214.47 916.14 203.48 913.75 199.17 909.85 201.73 904.69 205.79 903 210.18 901.63 215.2 901.67 218 903.25 222.04 908.38 229.78 914.03 233.56 924.58 236.17 924.38 237.04 920.23 237.33 913.7 236.13 911.07 235.49 903.28 247.03 901.37 251.37 900.75 254.06 900.5 256.59 895.55 256.22 872.78 255.8 871.17 255.17 870.21 247.83 865.83 242.93 859.19 236.9 857.42 231.67 858.25 226.54 857.89 202.88 858.5 192.88 857.56 192.48 853.83 194.63 851.73 197.58 851.31 202.65 852.56 217.2 852.81 225.88 852.93 232.44 852.39 236.02 846.43 238.54 830.96 239.88 828.42 240.75 827.17 245.87 824.77 253.25 824.06 255.8 820.5 255.8 796.5 255.8 794.78 255.5"/><polygon class="cls-1" points="766.66 142.5 766.16 138.56 765.06 134.89 765.25 130.13 763.78 124.78 760.56 122.09 752.42 120 743.19 117.88 741.42 116.75 742.41 98.12 742.46 92.75 742.75 89.67 746.05 87.37 756.42 83.5 761.75 81 764.95 74.8 765.22 61.91 765.25 58.44 767.44 56.5 773.72 56.5 782.17 56.5 785.92 56.5 790.94 48.19 792.81 42.13 793.13 40.63 794 40 798.13 40 817.08 39.25 822.54 38.5 823.45 39.04 824.25 44.88 826.34 50.89 828.75 54.25 834.01 56.05 835.44 63.75 834.56 73.06 835.44 77.94 836.75 78.88 839.83 77.71 841.29 74.13 841.61 65 841.92 58.08 842.38 55.67 846.58 55.54 862.63 55.31 865.08 54.29 870.64 41.58 871.34 40.22 875.56 39.66 887.25 39.81 895.5 39.88 899.13 39.69 902 41.81 923.08 58.71 938.04 67.13 940.58 68.58 940.58 75.42 940.58 114.88 940.58 117.53 942.75 118 957.84 119.09 959.59 119.47 959.59 122.06 958.83 129.27 956.29 132.63 950.63 134.36 940.85 133.84 939.61 134.49 939.08 138.92 932 139.21 927.38 139.52 926.08 141.25 906.91 142 906 139.88 899.47 140.05 848.5 138.94 841.59 138.8 841.1 127 841.19 110.13 840.56 103.69 838.56 103.25 837.38 104.25 836.62 128 836.62 136.94 836.06 139.19 830.31 139.54 798.19 139.87 795.49 141.31 791.56 143.63 770 146.33 766.81 144 766.66 142.5"/></g><g id="Layer_1" data-name="Layer 1"><polyline class="cls-1" points="766.57 1047.11 770.41 1045.22 780.07 1043.92 797.56 1043.92 846.9 1044.28 876.92 1043.34 892.72 1043.34 942.4 1042.59 951.26 1044.45 954.68 1046.58 958.8 1045.84 963.72 1042.59 970.9 1040.73 982.06 1040.73 991.73 1040.73 1001.65 1040.73 1006.42 1041.68 1007.66 1045.65 1007.17 1052.43 1010.51 1058.34 1025.05 1064.37 1045.08 1066.85 1060.44 1064.76 1067.18 1062 1074.15 1060.62 1079.47 1060.62 1080.71 1048.77 1079.62 1038.61 1082.01 1037.9 1087.18 1038.4 1129.68 1040.73 1140.81 1041.26 1160.63 1036.36 1249.03 1032.36 1289.47 1031.52 1336.74 1031.1 1343.89 1031.45 1343.07 1096.04 1344.59 1159.68 1345.1 1188.04 1343.89 1203.64 1340.05 1210.32 1333.85 1214.28 1320.67 1215.61 1307.02 1214.45 1290.42 1215.34 1213.84 1216.96 1158.27 1218.62 1141.16 1221.5 1120.95 1220.7 1103.93 1220.15 1087.15 1220.7 1071.67 1221.98 1024.52 1223.32 993.79 1224.09 978.31 1224.23 931.84 1225.27 884.01 1226.51 845.95 1229.1 826.1 1229.1 801.87 1228.89 782.79 1228.89 771.44 1226.33 765.83 1219.3 763.67 1211.33 763.67 1185.6 766.57 1165.53 766.49 1154.98 766.57 1107.86 766.57 1082.04 766.15 1061.65 765 1052.34 766.57 1047.11"/><path class="cls-1" d="M966.43,845l9-1.65h9.4l26-1.2,44.08.73,28.72-1.42,18.32-.72,2.72.41,1,59.25.44,7.31,2.17,1.82,2.07-.22.72-2,1.55-1.46,11-.53h19.38l2.25,2.67,5.67,1,6.82-.47,1.8-1.74.35-29.19-.89-24.94-.5-10.95.58-1.33,2-.4,11.83-1.41,4.7.21,13.83-.21,31.88-2.45,30.25-.49,23.75-.49,13.07.53,14.4-1.76,17.9-.59,7.86.47,6.68.77,1,9.34-1.06,6.2,2.36,3.66,10.28,4.61,4.79.89-.27,29.41-1.64,1.86-7.31,2.53-2.48,2.57s-.83,13.27-.89,13.44-1.6,19.32-1.6,19.32l-.89,13.86,2.78,4.83,5.2,2,9.88,1.77,5.41.49,1.2.35.44,11.39.86,16.32-.41,2-9.07.77-7.95,2.79-6.12,3.86-.44,16.4-3.55.77h-7.21l-5.5.24s.12,15.36.18,15.84a17.42,17.42,0,0,1-.35,2.54h-8.69l-21.74-.3-1.39-.83.31-12.35-.81-3.07-4.31-.67-51.76.9-24.52.65-5.67-1.29-4-3-4.85-2.78-4.08,2-3.72,3.74-4.85,1.34-5-1.33-3.72-3.66-3.2-8.45-9.29-7-4.17-5.71.62-11.44,0-14.85-.1-19.26-3.78-.63-7.09-.23-4,1.34-1.14,3-.1,9.52.93,9v20.12l.58,13,.62,17.1-.89,3.1-4.66,1.22-7.46-1-6.56.35-3.78-.3-1.65-2.1,1.79-7.14-.21-19.35.18-14.89,1.06-12.23.93-16.49-1.77-3.89-5.23-.36-7,1.18-1.28,6,1.22,5.24.25,32.51-.4,29.25-1.33,1.55-7.27,1.33-3-1-2.71-6-2.23-2.77h-3.46l-2.13,5.11-7.68,3.55-12.27.26-8.51.44-3.14.27-2.27,1.71-6.67.29-8.6.49h-9.87l-2.48.47-11.58-1.48-46.28.38-1.86-.66-.31-5.54L966.77,996l-7.5-1.38-6.61-5.38L951.31,983l-.32-19.3,1.21-2.42,8.1-2.54,6.59-1.93,0-24.4.61-19,1-2.88-3.13-7.21-3.75-1.62-10.31-3.69-.71-4.14V870.87l.31-2.53,7.41-2.32,5.84-1-1.26-5.39.76-4-.15-4.57.49-4.33Z"/><path class="cls-1" d="M983.66,843.72l-.33-1.82-.16-5.81-1.75-4.54-14.61-1-1.33-.75.24-2.79-.24-20.77-2-3.07-10.17-3.55-4.54-1.77v-7.65l.18-17.08,1.6-6,8.44-3.5,5.14-.53,1.45-4-.86-28.92.71-9.81-7.74-4.34-7.36-2.3-2.39-2.13.71-20.83-.13-8.15,5.19-2.13,7.89-3,3.1-3.81.09-16.71-1.23-8.73-1.32-1.53,4.15-.48,7.54.45,6.87-.45h1.83l28.48.22,36.06-.7,26.23-.38,15.47-2.33,5.14.95,2.13,6.74-1.42,30.19-.18,6.73.24,4.12,3,2.51-3,5,.34,12.79-.75,20.89-.35,27.12.18,12.05,1.18,1.09.15-10.16,3.22.38,8-.12,15.16-.64,6.41.46,11,0,1.16,2.48,2.28,6.47,8.64-1,5.59-.25V755.47l-.89-30.74.27-18.5.62-24.76,0-59.92V546.28l-1.29-40,.64-3.25,5.46-34.83v-13l.35-12h9l29.78-.36,78.94-.46,53,.26.71,8.34.8,6.08,5.83,3.58s9.55,2,9.62,2.08,2.28.82,2.28.82V491l-1,1.65-8.51,2.13-5.14,1.6-3.9.89-.29,3.25.65,6.32-.36,9.22v2.51l18.53,3.87.22,3.79.2,10.3.37,15.75L1341,555.05l-5.94,4.73-.53,40.39,1.13,9.31,5.11,3.77,7.24,2.1,1.32,4.43-.61,21-.24,5.79-7.45,3.31-9,3.9-3.31,3.55-.38,3.66.2,17.15-1.24,6.07.41,9,7.21,9.53,8.54,3.77,6.88,1.68.22,3.68,1,25.44-.25,2.17-14.58,3.55-.62,9.13-.18,10.19,16,5.1v29.16l-.36,1.82-6.69,1.2-8.42,1s.78,6.64.78,6.82-.77,10.79-.77,10.79l-.81,3.35-9.17-.53-4.3-.31.31,11.43-.16,1.42-30.08,1.8-1.18-1.31-.21-9.88-25.56-.56-47,1.17-11.92.28-15,1.09h-27.56l-5.72-.3-.19-11.09-.23-11.66H1143.5l-1.55,6.17.94,11.55-2.75,6.19-1.88,3.08,2,9.77,1.28,5.43.12,1-7,.35-22.39-.18-3.6-.71-.22-2.92.72-3.57,2.13-2.42-.32-7.33-3.72-1.77-20.62.53-74.92,1.77-2.12,1.77.7,7.45v2.48l.53,1.11Z"/><path class="cls-1" d="M983,645.78l-.22-10.9-8.42-.4-9.62-.49-.41-2.57v-6.87l.14-9.76-.77-4.11-4-1.77L948.43,605l-.49-13.05V573.55l6.2-.75,7.73-3.32,1.81-2.66,2.47-.49,9.44-1.24L983,559.9l-6.29-2.5H966.38l-2.41-4.2-.28-13.83-1.33-18.91-2-8.86-8.42-3.1-4.61-.8-.52-6.29.17-22.54,4.93-2.1,9.17-2.51,3.6-.74.21-10-1-13.35.3-4.4,2.07-1,10.4-.31,18,0,32.1,0h9.63l28.89-.52,21.86.17,7.49-.17,2.25,4-.05,22.57V556l-6.15,1.18h-80l-2.13-.12,3.49,6.45h127.13v68.29l-3.16,1-14.18-.18-16.37-.12-9.1-1L1045.44,633l-16.37-.89-15.36.06-3.37,1.24s-.71,11-.65,11.16a14.22,14.22,0,0,1-.41,1.86l-25.73.3Z"/><path class="cls-2" d="M833.78,1020.17c-31-1-61.89,3.12-93.37,1.24-1.89,78.89,1.86,156.88.21,235.59,49.92,0,105.91-4.2,154.85-3.55"/><path class="cls-2" d="M1155.8,503.26c2.48,64.27.61,132.82.61,197.12"/><path class="cls-2" d="M1050,191.28c-.56-4.86,1.81-5.16-2.13-5-6.14.21-12.29.06-18.54.06-.07-23.66-.14-44.41-1.22-66.74l-2.92.07V186l-20.56,1c.08,1.06-.08,3.19,0,4.25"/><path class="cls-2" d="M1099.68,284.87c.63,3.21-1.45,3-4.25,2.72V257.93H965"/><path class="cls-2" d="M1203.2,43.79c.94,5.19-5.19,8.14-7.11,8.3-7.68.66-7.5.36-7.14,8,.3,6.37.06,12.76.06,19.14v65.94c0,11.58-.2,37.34-.2,48.93"/><path class="cls-2" d="M964.79,1226c-19.32,0-26.73.27-35.29.18-13.19-.13-26.45.88-39.7,1-19.4.23-38.69,2.51-58.15,2.38-12-.08-24.11.45-36.16-.3-2.4-.15-2,1.45-2.13,2.86"/><path class="cls-2" d="M1094,352.94c-.37,2-.08,2.85-2.13,2.86-20.34,0-40.89-.19-61.22.63-9,.32-17.73.09-26.71.11-11.11,0-22.22.3-33.32.71-5.26.2-7.55-1.5-7.2-7.15.45-7.3-.08-14.65.18-22,.16-4.46-6.34-5.81-10-6.38"/><path class="cls-2" d="M942.46,991.75c.22,9.9,1.37,11.19,0,16.41-.84,3.1-.15,6.61-.15,10.83-15.38-2.06-29.94,2-44.69-.08-5.07-.7-10.38.43-15.58.54-14.18.3-28.36.42-42.54.77-5.36.13-7.83,3.25-7.8,9.18"/><path class="cls-2" d="M765,1053.5c.47,9,1.51,18,1.3,26.94-.4,17.5-.78,35,0,52.48.48,10.38.09,20.8.09,31.19"/><path class="cls-2" d="M1357.66,462.37c-5.21,1-14-1.9-19-2.61a6,6,0,0,1-5.07-6.85c.34-3.51.07-7.08.07-10.63-43.49,0-128.69.62-172.18.62"/><path class="cls-2" d="M1370.54,1169.78c-.65,13-1.25,26-.15,39,.75,8.92-1.34,17.9,0,27,.48,3.37-3.09,4-6.18,4.28-7.81.68-15.53-.8-23.42-.31-17,1.06-34,.73-51,1"/><path class="cls-2" d="M1354.94,25.35c-18.2,0-36.4-.28-54.6.07-20.33.39-40.75.39-60.94,2.44-10.69,1.09-22.71.68-33.37,1"/><path class="cls-2" d="M1334.38,416.76l-1.11,19.85c-39.31,0-89.65,1.42-128.65,1.42"/><path class="cls-2" d="M1101.1,79.24v82.25h58.14a30.87,30.87,0,0,1,5.66.07c2.48.47,1.61,2.07.72,3.48"/><path class="cls-2" d="M740.89,192.69c-.47,22-.79,44-1.52,65.94-.19,5.64,1.7,7.34,7.2,7.18q61.68-1.8,123.38-.14"/><path class="cls-2" d="M1139.39,503.26V632.41c-2,1.73-5.43.5-8.51.54-9,.13-17.87,1.11-27-.34-7.8-1.24-16,.06-24.06.43-16.08.73-32.15,1.3-48.22,0"/><path class="cls-3" d="M1100.86,558.1c0,5.36-.85,4.71-4,4.73-16.43.1-32.86-.15-49.29.09-11.38.16-22.75.19-34.12.57-1.73.06-4.36-2.9-4.55-6.09"/><path class="cls-2" d="M1265.91,254.66c-15.29,1.06-12,1-14.76,1.06-17,.19-32.35.05-49.37.11a65.28,65.28,0,0,0-7.09.85v59.39"/><path class="cls-2" d="M957.16,993.93c2.92.7,5.4,2.71,9.22,2.12v19.86c11.82,0,22.94-.27,34,.09,9,.29,18.11-1.79,26.95,1.33"/><path class="cls-2" d="M1017.43,55.14h6.74v46c4.66,2.38,4.68-.21,4.65-3.45-.1-11.82-.31-29.84-.31-41.66"/><path class="cls-2" d="M906.81,139.51c-21.76,1.44-43.49-.54-65.15.09-1.34-12.5.26-24.32-.86-36.35l-3.11,0c-.36,10.9-.73,25.34-1.09,36.24"/><path class="cls-2" d="M857.89,235.95V192.6c-5,2-6.06,4.22-6.2,7.27-.57,11.59,2.58,23.78,1.24,35.36"/><path class="cls-2" d="M1353.17,522.41c0,8.75.36,21.07.36,30.55-3.85,0-6.24,1-10,1.78-7.1,1.45-8.89,4.82-8.61,11.65.55,13,.36,26,0,39-.11,4.57,1.57,6.61,5.76,7.89a49.7,49.7,0,0,0,17,2"/><path class="cls-2" d="M1296.8,1030.81c-23.9.31-47.76,1.51-71.62,2.74-14.86.76-29.78.87-44.66.68-7.19-.1-14.17,1.24-21.26,1.73-3,.21-6.6.5-8.88,3.54-8.6,1.24,1-.41-9.57,1.24"/><path class="cls-2" d="M941.56,503.62c.71,2.13-1.42,5,0,5,4.25,0,9.93,1,14.18,1,2.84,1.42,5.67,2.84,5.67,4.25,1.42,14.18,2.84,29.78,2.51,44.67,3.77,0,.59-7.15,0,0,6-2.13,13.09-.71,18.76.71-2.84,5.67-13.47,8.12-19,5.85"/><path class="cls-2" d="M1291.13,829.43v-6c-26.94.46-53.14,2.34-79.42,1.71"/><path class="cls-2" d="M1105.35,870.56V840.78c6.21-2.11,6.21-2.11,4.86-12.1-32.76.47-65.62-.86-98.46,1.46"/><path class="cls-2" d="M939.43,706.05v7c8.51.56,16.94,2.05,25.45,6.85-1.91,13.31.75,27.69,0,42.28-1.38,1.29-3.24.15-4.86.55-10,2.48-12.06,5.09-12.06,15.59v19.85"/><path class="cls-2" d="M1309.56,36.08c2.8,9.47,4.22,14.35,21.27,13.34q0,18.13,0,36.2c7.81,2.72,15.78,4.48,24.11,4.26"/><path class="cls-2" d="M1119.53,28.19c-30.73,0-167.83.83-198.53,1.63-19.88.51-39.76-1.06-59.55,0-19.18,1.05-38.32-.93-57.44.53a12.12,12.12,0,0,0-3.16-.15"/><path class="cls-2" d="M1082.66,557.15h14.18V476.32c0-8-.07-16.07,0-24.11.1-9,.29-8.68-8.53-8.51"/><path class="cls-2" d="M1357.07,425.27c.47,13.71.5,30.25.65,44,.3,27.18-.23,54.36.69,81.54.43,12.51,0,25.05.09,37.58.16,18.67-.34,37.4.87,56,2,31.22,1,62.4.77,93.61-.05,7.75.75,53.09,1.16,60.89"/><path class="cls-2" d="M1160.66,839.36c-2.32-.43-3,.5-2.88,2.84.57,13,1.08,26,1.43,39,.2,7.32,0,14.65.06,22,0,3-1.38,5.14-4.26,4.84-3.84-.41-8.6,2.34-11.36-2.71"/><path class="cls-2" d="M1010.34,839.36c.41,2.73,2.53,2,4.25,2.13,21.05,1.28,42.08.6,63.11-.66,9-.54,18-.52,26.94-.76"/><path class="cls-2" d="M1190.44,321V256.86H1155c-1.89,11.64-1.36,22.32-1.48,33.68h-16.62"/><path class="cls-2" d="M1341.8,213.49a65.81,65.81,0,0,1-11,2.27c4,7.72,1,15.7,1.53,23.37H1316c-2.06,15.24-2.06,15.24,15.67,15.24,1.25,4.67.49,9.45.55,14.18.13,9.85,3.42,13.47,13.51,14.15,3.29.22,6.62,0,9.92,0"/><path class="cls-2" d="M1095.76,647.28c-.6-2.79-4.55-4.28-8.14-3.62-18.1,3.35-36.39,1.74-54.6,2.13-7.56.16-15.13.46-22.69.7"/><path class="cls-2" d="M1132.3,1247.78c-18.9,1-37.87.79-56.75,1.33-21.76.62-43.45,2.78-65.21,2.87-23.65.1-47.28.61-70.91,1.38-14.64.48-29.3.09-44,.09"/><path class="cls-2" d="M1336.51,801.07c1.39,4.25.76,15.6-.27,20.58-4.22-.2-8.71.49-13.56-.82v12.5h14.95c.24,5.3,1.94,10.09.41,15.28-.87,3,1.11,4.61,4.1,5.76,4,1.53,7.75,3.65,12.81,3.65V889.7"/><path class="cls-2" d="M1163.5,52.3c6.64.1,13.34-.57,20.28,1.54a160.61,160.61,0,0,1,.44,30.38c-.6,7.5.46,15.11.51,22.68q.16,22.69,0,45.38a138.46,138.46,0,0,1-.75,14"/><path class="cls-2" d="M940.14,508.94c-1.59,13.92-.34,27.89-.68,41.84-.17,6.85,0,13.71,0,20.56"/><path class="cls-2" d="M965,378.73c-7.26,1.26-18.49,6.49-25.53,3.26,1.42-18.77,2.84-41.37,2.84-60.52"/><path class="cls-2" d="M1347.85,799.65l13.46-.8c1.2,2.6.7,5.28.7,7.89,0,23.64-.34,47.28.14,70.9.37,18.45,2,36.87,2.64,55.31.43,13,.28,26,0,39-.08,3.41,2.42,6.49.84,9.93"/><path class="cls-2" d="M1356.36,222.47c0,32.38-.17,64.76.06,97.14.15,21,.26,41.89.65,62.93,0,1.87-1.06,4.87-.71,7.27"/><path class="cls-2" d="M1089.28,444c-17.25.4-41.14-1.09-58.38.34-2.56.21-5.19-.41-7.79-.65l-2.29-2.29"/><path class="cls-2" d="M755.08,83.5c-3.63,1.95-9,2.84-12.68,6.5.41,10.54-1,23.27-1.42,36-.57,17.48.08,35-1.2,52.44.2,4.74,1.36,8.89,1.12,14.21"/><path class="cls-2" d="M939.41,382.55c0,29.31.73,97.08.73,126.39"/><path class="cls-2" d="M762.17,222.47c4.28,2,2.23,6.25,2.5,9.25.17,2,.65,4.95-1.65,7.29,6.87,2.18,13.34,0,19.72.34,3.53.18,5.63.78,7.2,4.34,2.95,6.66,4.5,13.37,3.42,20.62"/><path class="cls-2" d="M1274.11,1242.11c-6.38.24-12.78.88-19.14.63-22.26-.86-44.53.41-66.62,2-17.31,1.24-40,2.57-57.29,3.22"/><path class="cls-2" d="M1291.13,835.1c-6.57-1.68-13.25-.67-19.85-.61-14.42.15-28.84,1.18-43.25,1.23-18.24.06-36.33,3.15-54.6,2.21"/><path class="cls-2" d="M1223.06,278.49c-.45,6.44,4.68,4.55,7.81,4.83a53.79,53.79,0,0,0,10.62.14c0,10.74.24,20.09-.12,30.49-.14,4.13,1.13,5.79,5.08,5.68"/><path class="cls-2" d="M793.66,31.89c.42,6.63-3.46,18.07-6.83,23.14-1.3,2-4.4,1-6.94,1-17.52-.22-15.36-2.25-14.63,13.28.39,8.39-2.32,12.65-10.18,14.19"/><path class="cls-2" d="M1085.5,1222.25c-33.12-.48-66.14,2.7-99.27,2.39-6-.06-12.11.75-18.43,1.16-7.36.48-3,.61-22.66.25"/><path class="cls-2" d="M1145.06,938.63c4.33-3.32,9-.73,14.18-1.74,0,14.25.41,27.51-.16,40.73-.31,7.1,1.71,11.6,8.67,13.48"/><path class="cls-2" d="M1099.68,378.47c-.79,2.34,2.27,6.83-4.25,6.33V360c-17.48,0-112.53,1.42-130,1.42"/><path class="cls-2" d="M1111,947.14c.44,9.45-1.11,18.82-.25,28.38,1,11.72.25,23.61.25,35.43"/><path class="cls-2" d="M803.63,30.47c-15.81-1.69-34.85,1.62-50.68,1.24-2.13-.05-10.34-.45-12.47-.68"/><path class="cls-2" d="M940.85,816.67v62.4"/><path class="cls-2" d="M1161.28,185.87c0,2.13-.18,11.09-.18,13.93-16.07,0-33.16.45-48.53.45"/><path class="cls-2" d="M951.49,233.82H965V243h24c.06,3.26.13,5.38.11,7.8"/><path class="cls-2" d="M1343.6,894.67c-.58,13-2,30.22-3.31,43.28-.32,3.13-1,11.28,7.57,10.61"/><path class="cls-2" d="M1139.39,415.34v53.89h22.1"/><path class="cls-2" d="M1303.89,348.57c-19.38.34-65.73.6-85.09.49s-38.77.35-58.14-.48c-5.63-.24-7.17,2-7.19,7.19a174.19,174.19,0,0,0,1.83,27.65c-5.49,0-10-.36-14.5-.09-1.78.11-.95-1.32-1.42-2"/><path class="cls-2" d="M966.38,918.77v37.78l-13.47,4.05"/><path class="cls-2" d="M964.51,444.39l30.15,0c.11-2.93.53-4.45-2.06-4.3-7.08.38-14.23,1.18-21.25.57-6.72-.58-7.6,3.08-7.8,8a107,107,0,0,0,1.64,24c-6.29,3.11-13.22,2.85-19.52,5.46-2.94,1.22-3.42,2.09-3.43,4.59,0,3.13.5,5.2.11,9.63"/><path class="cls-2" d="M940.85,67.9v49.63"/><path class="cls-2" d="M1292.54,1009.53c-1-2.14-3.22-2.07-5-2.06-12.76.11-25.55,0-38.28.75-13,.76-26,1.19-39,1.39-3.86.06-5.64-3-8.51-4.34"/><path class="cls-2" d="M1140.1,750h-43.81c-3.11,14.76-1.54,12.72,9.78,12.76h6.38"/><path class="cls-2" d="M1360.15,738c-6.4,1.83-16.59,3.66-23.64,5.67v18.58c6.12,1.84,12.35,3.48,18.41,5.62,3.08,1.09,5.71,1.06,5.71,3.82"/><path class="cls-2" d="M1099.68,416.76c-2.1-1.58-4.24-3.23-4.25,1.42,0,6.63,0,13.25,0,20.48-1.87,1.41-4.59,1.06-7.8,1-21-.39-42.1-1.38-63.1.38l-3.43.83"/><path class="cls-2" d="M847.25,1043.57h-46.8"/><path class="cls-2" d="M1206,28.9c-14.16-1.59-28.39-.9-42.53-.39-5.27.19-10.37-.92-15.62-.43s-10.86.11-16.3.11"/><path class="cls-2" d="M1347.85,985.43c5.29-3,11.09-3.57,17-3.55,2.39,1.42,1.47,3.75,1.39,5.67-.34,9-1.34,17.74-1.32,27,0,8.79-.2,1.88,0,3.53,1.66,14.28,1.84,28.35,2.1,42.55.23,12.53.5,25.05.68,37.58,0,2.37.45,4.82-.69,7.09"/><path class="cls-2" d="M906.81,140.22c.09,2.84.71,6.61-.83,6.62-9.69,0-22.1-.07-31.79-.31-4.43.38-13.21-.59-13,2.2"/><path class="cls-2" d="M1140.1,686.2c1.46-8.95,1-18,.42-26.93-.32-5.07.41-9.95.31-15.33-15.21-1.34-30.36-1.47-45.4,1.84"/><path class="cls-2" d="M1356.36,136v86.51"/><path class="cls-2" d="M1096.13,755.69h44"/><path class="cls-2" d="M965,257.93v28.29c-7.55,2-14.21,4.62-21.26,5.46a223.77,223.77,0,0,0-1.42,29c3.89-.9,7.61.12,11.33,1.08"/><path class="cls-2" d="M1343.6,1096c.41,27.18,1.77,54.34,1.56,81.54-.05,6.85,1.05,13.71-.14,20.56"/><path class="cls-2" d="M1096.13,738.67c11.55,1.55,23.17.32,34.74.69,3.07.1,6.14,0,9.22,0"/><path class="cls-2" d="M1118.12,1235c-.31,6-3.65,7.54-9.22,7.19-6.83-.43-13.71.13-20.55-.18-4.41-.2-7.26.7-7.09,5.75"/><path class="cls-2" d="M1099.68,378.47v-59l-5.67.81"/><path class="cls-2" d="M1156.4,770.58l-13.58,1.59c-3-4.43-2.36-8.56-1.86-12.21,1.42-10.46-.58-20.81-.25-31.22.39-12.51.09-25.05.1-37.58,0-4-2.54-4.35-5.68-4.28-13,.29-26,.5-39,.73"/><path class="cls-2" d="M1140.1,699l-43.25.71"/><path class="cls-2" d="M864.27,55.14H842c-1.42,7,1.16,14.41-1.8,21.27"/><path class="cls-2" d="M1204.62,438h-44.2"/><path class="cls-2" d="M939.43,591.19v56.73"/><path class="cls-2" d="M1095.43,733c.26,11.19.28,10.78,12,11.47,10.88.63,21.75.43,32.62.59"/><path class="cls-2" d="M740.48,31c.43,14.18.38,46.47,2,60.62"/><path class="cls-2" d="M1095.43,697.55c0,6.38.08,12.76,0,19.14-.07,4.52,1.38,6,6.41,5.87,12.75-.36,25.52.28,38.28.51"/><path class="cls-2" d="M1259.93,282.74c-10.44,1.12-8.92.08-14.18,1V315"/><path class="cls-2" d="M986.5,190.48c-11.92.84-5.84.65-8.69.66-5.59,0-8.13.13-12.85.13v19.49c-13.47-.15-1.73.37-18.44-.7"/><path class="cls-2" d="M1157.82,820.92v5.67h36.87"/><path class="cls-2" d="M1194.69,316.07h34v28h18.44c0-3-.71-21.86-.71-24.46"/><path class="cls-2" d="M1139.39,694h-41.13"/><path class="cls-2" d="M1255.36,255.45c10.19.28,21-4,29.74-1.48V239.79c-8.15-1.28-16.66,1-25.17.41"/><path class="cls-2" d="M943.69,798.23A46.71,46.71,0,0,1,965,804.36V828"/><path class="cls-2" d="M1062.81,1063.42c-13.24,3.1-26.47,4-39.71,0"/><path class="cls-2" d="M1163.5,52.3c-.74-3.54-1.48-12.75-2.22-16.31h-29"/><path class="cls-2" d="M837.33,1240.69c-1.58,7.91-6.5,10-14.2,9.39-7-.57-16.16-1-23.22.3"/><path class="cls-2" d="M1133.23,186.05c.53-5.67-.59-13.91,0-20.3h-32.31c.68,6.62.21,14.36,1.09,24.8"/><path class="cls-2" d="M1160.42,438c-.83-7.68-.49-14.63,0-22.69-4.53-1.62-15.92-3-21,0"/><path class="cls-2" d="M1119.53,28.19h10.82c3.22,9.1-4,16.38-4,25a112.52,112.52,0,0,0-25.25-.73V79.24"/><path class="cls-2" d="M962.12,647.91c2.81,2.86,2,6.49,2.11,9.93s0,7.09,0,10.64c.17,8.64-.2,9.09-9.23,10.64"/><path class="cls-2" d="M1157.82,803.2h-14.89c-1.4,3.47-.77,7.11-.62,10.63.2,4.82,2.24,9.5-2.69,13.75-1.52,1.31-1.31,6.47,0,8.82,2.68,4.84,2.58,9.95,2.61,16l-31.9,1.1"/><path class="cls-2" d="M1157.82,1219.42c38.77-.71,77.47-3.94,116.29-2.84"/><path class="cls-2" d="M1179.09,1235c2.37,4.48,9.17,7,15.56,4.85s12.79-.91,19.18-1.31"/><path class="cls-2" d="M1140.81,847.16h-31.27c-1.44,4.25.44,7.8,0,11.72,10.93,1.22,21.91-.81,32.72,1"/><path class="cls-2" d="M1082.66,557.15h-73.74"/><path class="cls-2" d="M1089.75,40.36c.91,1.91.42,13.37,5.67,13.46,2.87.05,1.37,2.78,1.34,4.15-.35,15.83.12,31.67-.31,47.52-.26,9.61-.05,47.92.43,57.6"/><path class="cls-2" d="M852.93,235.95c-4.47,3-9.46,3-14.19,3.49a91.34,91.34,0,0,1-9.36.06c-1.13,4.23-3.47,12-4.61,16.31"/><path class="cls-2" d="M1190.44,321c24.55-.17,19.85-.17,32.17,0"/><path class="cls-2" d="M1139.39,716.69l-43.25.71"/><path class="cls-2" d="M926.67,1246.36c-1.57,3-4.27,1.25-6.38,1.33-6.61.24-13.25.36-19.84,0a9.32,9.32,0,0,0-8.51,3.65"/><path class="cls-2" d="M1348.59,985c-6,4-6.42,3.41-6.41,5.37,0,5.21,0,10.42,0,16.31h-16.49"/><path class="cls-2" d="M826,264.31c-2.12-2.43,1.37-5.37-1.21-8.51h-30"/><path class="cls-2" d="M1059.71,241.62c12.23.9,28.64.35,40.68.42,3.06,0,6.14,1,9.93-.06v14.89h-9.92c-.61,5-.4,23.52-.72,28"/><path class="cls-2" d="M1234.76,28.9c1.42,5.67,3.14,13.49,4.63,19.14.64,2.43,2,4.1,4.94,3.57,7.52-1.34,15.12-.63,22.69-.71s10.94-14.24,11.34-25.08"/><path class="cls-2" d="M1060,1042.86c-11.79,1.57-23.64.3-35.45.71"/><path class="cls-2" d="M939.43,733q0,17.37,0,34.75c2.65,2.43,5.85-1.67,8.51.71"/><path class="cls-2" d="M1259.93,240.2c-11.35.24-59.8.51-71.15.74"/><path class="cls-2" d="M1344.48,314.65c-2.15.36-9.44,2.13-12.24,2.6-.12,7.07,1.52,14,.1,20.82-.56,2.7.48,5.57-4.39,4.43-3-.71-2.88,2.53-2.79,4.77"/><path class="cls-2" d="M1139.39,734.42l-42.54.71"/><path class="cls-2" d="M942.27,265.17c-11.34-.46-12.76,1-41.13.56"/><path class="cls-2" d="M1331.54,133.13c2.24.06,10.59,6,10.6,7.09.07,6.14-.13,12.3.08,18.43,0,2.69-.4,2.81-7.14,2.13"/><path class="cls-2" d="M942.27,576.3c-.54,8.51,1.83,17,0,25.53-.45,2.14.56,3.7,2.81,3.48,5.37-.51,9.4,3.8,14.2,4.06s5.06,4.06,4.69,5.87c-1.33,6.45.86,12.86-.78,19.55H982v11"/><path class="cls-2" d="M1335.09,160.79c-2,.1-4.52-.84-4.29,2.84a60,60,0,0,1,0,9.21c-.19,2.09.84,3.88,2.22,4.13,7.3,1.33,14.07,6,22,3.68"/><path class="cls-2" d="M1055.72,1019.46V1029h-27.48c-.41.83-.88,1.31-.85,1.77.56,8.63.57,8.61-8.54,8.52-4.07,0-8.17-.21-12.05,1.41"/><path class="cls-2" d="M1075.57,190.9c6.8,1.77,13.73-1.06,21.28-.17v10.13c3.05,2.07,17.51-.37,19.63-.62"/><path class="cls-2" d="M939.87,133.84a49.62,49.62,0,0,0,7.24.65c9.37,0,13.53-1.95,12.68-16-6.42.06-10.91-1-18.94-1"/><path class="cls-2" d="M1140.1,729.45h-41.83"/><path class="cls-2" d="M1157.38,1219.42c-22,4.25-28,2-35,1.78-10.88-.29-21.76.07-32.63-.37"/><path class="cls-2" d="M823.85,31c-1.51,2.13-1.37,4.43-.38,6.93-9.58,3.2-18.91,2.2-28.69,2.29"/><path class="cls-2" d="M1043,245.16c-3.14-4.16-7.51-2-11.35-2-6.62,0-13.24.28-19.85.51"/><path class="cls-2" d="M1223.15,339.91c-.12,3.49,1.12,4.58-4.08,4.7-21.74-1.32-43.75-.12-65.5-.18"/><path class="cls-2" d="M1142.22,888.28c-10.4.66-20.8-1.9-31.2,0"/><path class="cls-2" d="M923.83,1025.84a164.42,164.42,0,0,0-27.67-.19c-3.93.34-5.69,1.63-6.37,5.15"/><path class="cls-2" d="M1111,882.61h31.2"/><path class="cls-2" d="M1142.22,869.85H1111"/><path class="cls-2" d="M1142.22,875.52H1111"/><path class="cls-2" d="M1089.75,41c.07-3.43-1-4.71-5-4.42-8,.57-16.07.17-24.15.17-.2,2.47-2.64,5.14-2.07,8.51"/><path class="cls-2" d="M1360.61,1196.73c-6.35,1.81-12.23,3.18-16.71,9.65-3.5,5.05-8.72,10.24-17.36,9.07-9.29-1.25-18.87-.28-28.32-.28"/><path class="cls-2" d="M1086.92,1011c-8.28,3-17,1.65-25.52,2.86-1.65.24-3.5-.83-5,.69"/><path class="cls-2" d="M947.94,682.66v30.49"/><path class="cls-2" d="M836.62,139.51l-41.13.71"/><path class="cls-2" d="M830.24,1026.55l-29.78.71"/><path class="cls-2" d="M1003.25,31c-2.14,1.92,1.43,4.47-1,6.66-8.61,2.19-17.66-.34-26.63.37-.2,0-2.28-7.2-2.52-7.68"/><path class="cls-2" d="M1050,191.28c-15.13-2.15-30.25,1.37-45.38,0"/><path class="cls-2" d="M943,769.16c.44,8.5-.85,17,.67,25.53.45,2.53-1.68,3.37-3.51,4.25"/><path class="cls-2" d="M965,60.81c-.47,9.45.94,88.43-.71,97.85"/><path class="cls-2" d="M1025.85,1224.09c-2.45,9.21-5.26,20.91-14.08,21.75-8.51.81-10.49-.53-26.25-.18"/><path class="cls-2" d="M943.69,682.66,943,710.31"/><path class="cls-2" d="M1055.72,1015.92c-8.27.24-16.54.53-24.82.67-2.11,0-4-.12-3.54,2.87"/><path class="cls-2" d="M940.85,881.9c-.36,23.64,1.34,47.25,1,70.91-.19,12.25.57,26,.65,38.26"/><path class="cls-2" d="M861.2,148.73a203.3,203.3,0,0,1-.71,24.21l-5.79,0V148.73H795.49v-8.51"/><path class="cls-2" d="M1054.3,1022.3c-9,.64-18,1.62-26.94,0"/><path class="cls-2" d="M1130.64,230c0,7.1.24,19.4.24,26.18,2.71,1.7,5,.69,7.09,1"/><path class="cls-2" d="M1345,89.24c1.64,9.18.23,20.5.76,29.71"/><path class="cls-2" d="M948.46,290.85c.44,9.75-.92,19.54-1.23,28.76"/><path class="cls-2" d="M1094,321.65c-.19,8.46-.7,22.07,0,31.3"/><path class="cls-2" d="M1351.1,707.57c.63,20.29.47,3.81.11,15.41,1,5.33.26,10.51.89,15.7"/><path class="cls-2" d="M1074.15,1037.9c-12.53-.71-25.06-1.29-37.57-2.23-2.65-.2-5.21,2.22-7.81.1"/><path class="cls-2" d="M911.8,235.25c-10.58,14.17-11,16.64-10.66,18.42,0,.27.42,1.89-.38,2.58a2.13,2.13,0,0,1-1.74.25c-2-.39-11.85-.6-26.24-.71"/><path class="cls-2" d="M1369.12,1132.91c.34,11.35-.87,22.77,1.42,34"/><path class="cls-2" d="M1111,899.63c9.67-1.27,19.38-.44,29.07-.7,3.51-.09,3.67,2.37,3.53,5.3-10.8,1.33-21.79-.8-32.6,1.07"/><path class="cls-2" d="M950.07,871.27v27c-2.51,1.17-5.19.54-7.8.69"/><path class="cls-2" d="M764.65,131.76c.88,5.54,2.07,12.59.87,20A127.25,127.25,0,0,0,763.67,177c-5.49,5.39-13.42,6.29-21.36,7.18"/><path class="cls-2" d="M947.23,578.42v25.53"/><path class="cls-2" d="M1294,1025.13h28.36"/><path class="cls-2" d="M1362,1165.53c3.08,2.67,1.82,6.5,1.16,9.15-1.28,5.18,0,10,.26,15"/><path class="cls-2" d="M1352.82,768.45c-1.91,9.89.15,19.87-.71,29.78"/><path class="cls-2" d="M1272.69,1230.76c.3,3.53,1.5,4.78,5.69,4.46,8.93-.68,17.95-.21,26.93-.21"/><path class="cls-2" d="M794.78,1043.57c-10.19,0-14.18-.92-24.37.95"/><path class="cls-2" d="M947.23,384.14c1.86,9.62-.28,19.44,1.13,29.57-1.7,3.36-5.27-1.5-7.52.92"/><path class="cls-2" d="M963.54,565.66c2.17,6.27-20.56,8.84-24.29,8.8"/><path class="cls-2" d="M1356.36,136V120.58c-9.24-2.41-17,.73-25.61,3.6.47,2.81-.65,5.88.8,9"/><path class="cls-2" d="M966.38,831.56h15.05c1.59,3.44,1.15,7,1.25,11.1-6.34.71-12.42-.83-17.72,2.37"/><path class="cls-2" d="M943.69,383.61c-.71,9,.13,21.33,0,30.31"/><path class="cls-2" d="M1078.41,1037.9c2.7,7,1.46,14.14.73,21.27-.23,2.22-1.81,1.15-2.86,1.42"/><path class="cls-2" d="M1356.36,389.81l.71,35.45"/><path class="cls-2" d="M964.25,159c-4.83-.09-10.16.64-14.89.39-4.37-.24-2.34,18.67-2.84,20.58"/><path class="cls-2" d="M1355.65,401.87c-6.65-1.45-12,3.52-18.43,3.76-2.69.1-2.08,5.25-2.84,11.13"/><path class="cls-2" d="M966.35,174.43c-.47,4.35-1.28,6.53-8.5,6.3-3.76-.12-7.62.58-11.33-.8"/><path class="cls-2" d="M1188.78,222.52c-2.32-.43-4.15.46-4.07,2.8.19,5.2.06,10.42.06,16.31h-19.14"/><path class="cls-2" d="M1335.09,497.59c-2.37,1.06-.95,2.59-.84,4.26.35,5.41.13,10.86.13,16.3"/><path class="cls-2" d="M1096.84,164.33c0,5.44-.11,10.88,0,16.31.11,4.08-1.66,5.68-5.71,5.74-5.2.08-10.46-.82-15.6.64"/><path class="cls-2" d="M943.69,962c2.13-1.23,4.25-.74,6.76.13,1.36,9-1.22,18.48,1.75,27.52"/><path class="cls-2" d="M1356.36,370.67c-7.08,1.39-16.48-5.47-23.4-5"/><path class="cls-2" d="M773.17,1227.81c6.26,2.54,15.4,2.17,20.15,2.12"/><path class="cls-2" d="M1184.21,163.63c0,11,.1,20.55.56,30.48"/><path class="cls-2" d="M871.36,1042.15c21.27,0,42.55.27,63.81-.17,6.27-.13,12.23-1,17.78,2.93,2,1.37,4.15,1.25,6.39-.57,5.12-4.17,11.69-4.84,17.64-4.08,10,1.26,19.93-1.69,29.81.47"/><path class="cls-2" d="M1142.22,894H1111"/><path class="cls-2" d="M1095.43,669.18c-.27,5.43.4,10.88-.61,16.33-.52,2.82-.65,5.92,2.66,7.91.84.5-.49,2-1.34,2.71"/><path class="cls-2" d="M946.36,477.84c.24,6.36.19,24.84.43,31.09"/><path class="cls-2" d="M1368.41,1159.85c-3.31,1.12-6.33,3.44-10,.14-1.83-1.63-4.91-2-7.68-1.55"/><path class="cls-2" d="M1139.39,321.74c1.42,0,2.84.07,4.25,0,9.93-.57,12.09,1.5,10.48,11.33,0,3-.22,8.54-.55,11.37"/><path class="cls-2" d="M1259.34,318.79c-9.22,0-8.5.12-8.68,10-.08,4.5,1.06,9,.59,14.18h52.65"/><path class="cls-2" d="M1121.66,167.17c0,3.55-.23,7.11,0,10.63.66,8.39-.31,9.64-8.55,9.92a39.55,39.55,0,0,1-7.08-.06c-3.05-.46-3.7,1.41-4.26,3.61"/><path class="cls-2" d="M945.1,871.27v26.94"/><path class="cls-2" d="M1236.29,35.28h-31l-2.13,8.51"/><path class="cls-2" d="M870.65,31a14.49,14.49,0,0,0,0,9.2c9.6-2.43,19.44.22,29.42-1l1.08-7.48"/><path class="cls-2" d="M1144.76,957.25c-.76-14.39,0-16,.3-18.62"/><path class="cls-2" d="M1333,349.4V365.7"/><path class="cls-2" d="M1346.43,182.06c2.22,9.61,1.16,19.37,1.42,29.07"/><path class="cls-2" d="M939.43,139.52c-3.54.32-8.49-.07-12.18.26a8.31,8.31,0,0,0,.12,6.82c3.71-1.37,7.57-.37,12.06-.84v64.31c2-.06,5.13.06,7.09,0"/><path class="cls-2" d="M1259.93,278.14a210.82,210.82,0,0,1-31.76.56"/><path class="cls-2" d="M1363.45,950.68c-5.47,1.25-10.16-3.18-15.6-2.13"/><path class="cls-2" d="M1111,711.73c-5,.84-9.93-1.48-14.89,0"/><path class="cls-2" d="M835.29,68.85a36.44,36.44,0,0,0,0-7.69c-.31-2.55-.32-4.76-2.17-6-1.55-1.06-2.22-.85-3.6-1.18-2.33-.56-4.86-4-6-16.22"/><path class="cls-2" d="M1349.27,616.71c0,6.62.07,13.24,0,19.85,0,3,0,7.33,0,11.35"/><path class="cls-2" d="M963.54,864.88c-7.8.71-14.89,6.38-23.85,5.08"/><path class="cls-2" d="M1192.57,1006c-4.31,4.62-9.13,4.15-14.18,1.42"/><path class="cls-2" d="M963.2,417.85c1,6.34-1.08,17.52,1.76,23.73"/><path class="cls-2" d="M1147.19,165.75a33.81,33.81,0,0,1,.76,13.48c-.65,4.13.53,7.51,5.59,6.25,3.09-.77,9.6,3.63,8.22-5.6a40.94,40.94,0,0,1,.32-13.41"/><path class="cls-2" d="M1357.78,491.92c-4,.47-18.67,5.2-22.69,5.67"/><path class="cls-2" d="M1356.36,204v9.55c-5.2-4-16.76,1.11-21.25,1.3"/><path class="cls-2" d="M1354.94,313.94l-11.35.71"/><path class="cls-2" d="M1315.23,1216.58c-.34,4.19-2.46,7.7-4.25,11.35"/><path class="cls-2" d="M1152.86,165.75c-1.51,3.7-.32,7.57-.71,11.35"/><path class="cls-2" d="M1111,863.47c3.54,2.44,7.55,1.06,11.35,1.42"/><path class="cls-2" d="M1360.61,889.7a40.87,40.87,0,0,0-17,5"/><path class="cls-2" d="M1143.64,165.75v19.14"/><path class="cls-2" d="M749.4,184.89v32.68"/><path class="cls-2" d="M1116.79,187.82c-.31,8.3,2.66,12.39-11.43,12"/><path class="cls-2" d="M945.1,240.91c2.54-3.91,4-3.42,6.38-7.09"/><path class="cls-2" d="M942.27,492.63c-.34,3.54.76,7.17-.71,10.64"/><path class="cls-2" d="M742.31,118.24c6.39.37,12.24,3.07,18.44,4.25"/><path class="cls-2" d="M1007.5,1042.15a15.23,15.23,0,0,1,0,9.93"/><path class="cls-2" d="M950.78,898.21c2.85,2.45,6.45,2.84,9.93,3.55"/><path class="cls-2" d="M1095.76,647.28c0,3.55,0,19.68-.34,23.14"/><path class="cls-2" d="M1074.86,1060.59c-3.11.2-6.42-.81-9.22,1.42"/><path class="cls-2" d="M857.89,235.95A51,51,0,0,1,869.94,248c.71,4.73,1.42,12.46,2.13,17.19"/><path class="cls-2" d="M1156.4,166.46V184.3"/><path class="cls-2" d="M888.83,1033.17c-1.36,3-4.61,4.85-3.29,8.27"/><path class="cls-2" d="M1367.71,1111.64c.84-4.12-1.1-6.95-4.93-9.23l-7.83,2.14"/><path class="cls-2" d="M1122.37,184.89c2.36,1.13,8.34,1.42,14.55.69"/><path class="cls-2" d="M963.2,417.85c-2.36-.71-11.48-2.51-13.84-3.22"/><path class="cls-2" d="M1142.93,853.54c.21,15.36,1.53,30.73,0,46.09"/><path class="cls-2" d="M1148.61,184.89c-5,1.21-14.09,1.42-19.41.87"/><path class="cls-2" d="M764.61,133.13c0-3.72.71-8.68-3.87-10.64"/><path class="cls-2" d="M1109.61,859.92q.35,23,.7,46.09c0,3.33-1,4.3-3.53,1.42"/><path class="cls-2" d="M1102,190.55c-.09,2.24-1.34,8.2,1.93,8.52"/><path class="cls-2" d="M1097.55,723.07c-2.74,2.46,2,6.16-1.42,8.51"/><path class="cls-2" d="M1308.85,26.77c-2.32,3.49.43,6.62.71,9.93"/><path class="cls-2" d="M1308.14,1233.6c-1,2.86,2.58,3.44,2.84,5.67"/><path class="cls-2" d="M1335.09,518.15c11.82,2.11,15.56,3.84,21.27,4.25"/><path class="cls-2" d="M1122.37,1222.25l-1.42,5.67"/><path class="cls-2" d="M1164.91,165.75c-12.84,0-19.41-.53-33.59,0"/><path class="cls-2" d="M928.09,1023c-3.24-.11-4.12,1-3,4.31.54,1.59,2.35,2.9,1.57,4.91"/><path class="cls-2" d="M1056.43,1030.1c1.43,1.89.69,3.78,0,5.67"/><path class="cls-2" d="M939.43,792.56v9.93"/><path class="cls-2" d="M1222.44,256.33c0,1.65.41,20.53.62,22.16"/><path class="cls-2" d="M741.6,216.09c4.75.21,16.47,3.68,20.56,6.38"/><path class="cls-2" d="M1368.41,1194.6l-5-.71"/><path class="cls-2" d="M1108.19,841.49c.38,1.63-.81,3.49.71,5"/><path class="cls-2" d="M1152.15,175.81v9.09"/><path class="cls-2" d="M1358.49,647.91h-9.22"/><path class="cls-2" d="M952.19,680.53c-4.16,1.29-8.46,1.42-12.76,1.42"/><path class="cls-2" d="M799.52,1246.84c.56,2.52.91,4.86-.87,7.88"/><path class="cls-2" d="M1215.26,1240l1.42,2.13"/><path class="cls-3" d="M1100.15,417.32c0,1.5.71,4.56.71,6.06V560.54"/><path class="cls-2" d="M1139.18,503.26h16.9"/><path class="cls-2" d="M1161.49,443.26v26"/><path class="cls-2" d="M965.14,361.45v17"/><path class="cls-2" d="M943.7,291.67c0-8.51-1-18-1-26.49"/><path class="cls-2" d="M835.35,68.1a40.71,40.71,0,0,0-.42,5.83c.17,1.94.47,3.88,1.42,4.49s3.81-.62,4.61-4.33"/><path class="cls-2" d="M864.27,54.91c1.34-2.17,5-12.52,6.37-14.69"/><path class="cls-2" d="M939.87,133.84c-.08,1.26-.19,4.42-.27,5.68"/><path class="cls-2" d="M986.5,190.48c.12-1.14-.12-5.86,0-7"/><path class="cls-2" d="M966.62,183.92c6.63,0,13.25-.45,19.88-.45"/><path class="cls-2" d="M966.62,183.92c0-1.67-.27-7.7-.27-9.38"/><path class="cls-2" d="M965.08,60.1c.76-1.62,2.18-8.06,3.07-9.75,1.4-2.66,4.42-7.72,5.84-10"/><path class="cls-2" d="M973.29,41.31l2.3-3.25"/><path class="cls-2" d="M900.06,39.22c2.52,2.91,10,8.86,13.67,12A95,95,0,0,0,929.33,62a120.06,120.06,0,0,0,11.52,5.85"/><line class="cls-4" x1="741.55" y1="264.93" x2="942.27" y2="265.73"/><line class="cls-4" x1="1355.65" y1="25" x2="1356.18" y2="121.79"/><path class="cls-4" d="M766.42,1163.6c.15,3.17-10,50.34,3,61.69a12.42,12.42,0,0,0,4.06,2.63"/><path class="cls-5" d="M777.35,1043.6c-6.24.75-6,.63-9.27,1.47-1.87.48-3.56,4.85-3,9.48"/><line class="cls-4" x1="791.71" y1="1043.61" x2="802.81" y2="1043.37"/><line class="cls-4" x1="846.68" y1="1043.61" x2="871.67" y2="1042.09"/><line class="cls-6" x1="1062.99" y1="1063.78" x2="1066.18" y2="1061.47"/><line class="cls-4" x1="1072.49" y1="1037.87" x2="1079.01" y2="1037.56"/><line class="cls-6" x1="1078.44" y1="1037.27" x2="1140.54" y2="1040.89"/><line class="cls-4" x1="1292.72" y1="1009" x2="1293.08" y2="1024.96"/><line class="cls-4" x1="1325.68" y1="1006.7" x2="1325.87" y2="1025.31"/><line class="cls-4" x1="1321.78" y1="1025.09" x2="1327.22" y2="1025.09"/><line class="cls-4" x1="1293.36" y1="1025.09" x2="1291.69" y2="1025.09"/><line class="cls-4" x1="1343.6" y1="1096.28" x2="1343.6" y2="1030.57"/><line class="cls-4" x1="1293.96" y1="1030.85" x2="1345" y2="1030.57"/><line class="cls-4" x1="1367.35" y1="1111.88" x2="1369.24" y2="1133.27"/><line class="cls-4" x1="1343.6" y1="1108.68" x2="1355.41" y2="1104.55"/><line class="cls-4" x1="1350.81" y1="1158.44" x2="1345.37" y2="1158.79"/><line class="cls-4" x1="1360.7" y1="1161.45" x2="1362.3" y2="1166.15"/><line class="cls-4" x1="1370.14" y1="1163.8" x2="1370.5" y2="1169.95"/><line class="cls-4" x1="1363.32" y1="1188.91" x2="1363.74" y2="1193.99"/><line class="cls-4" x1="1360.39" y1="1196.8" x2="1363.68" y2="1194.19"/><line class="cls-4" x1="1345.25" y1="1197.2" x2="1344.07" y2="1205.77"/><line class="cls-4" x1="1311.51" y1="1226.86" x2="1307.97" y2="1233.95"/><line class="cls-4" x1="1298.84" y1="1215.32" x2="1271.62" y2="1216.7"/><line class="cls-4" x1="1272.91" y1="1242.01" x2="1291.84" y2="1240.74"/><line class="cls-4" x1="1270.8" y1="1216.01" x2="1272.69" y2="1230.41"/><line class="cls-4" x1="1305.49" y1="1235.03" x2="1307.85" y2="1234.8"/><line class="cls-4" x1="1273.5" y1="1233.89" x2="1272.67" y2="1241.35"/><line class="cls-4" x1="1214.68" y1="1239.27" x2="1225.18" y2="1217.76"/><line class="cls-4" x1="1172" y1="1219.24" x2="1179.42" y2="1235.49"/><line class="cls-4" x1="1182.11" y1="1238.96" x2="1178.3" y2="1244.94"/><line class="cls-7" x1="1121.07" y1="1227.36" x2="1117.98" y2="1235.46"/><line class="cls-7" x1="1090.73" y1="1220.76" x2="1082.78" y2="1222.23"/><path class="cls-8" d="M1079.12,1222l1.23,6.48c.95,5,1.44,7.51,2.59,9.6a17.9,17.9,0,0,0,3.27,4.24"/><path class="cls-8" d="M1114.66,1241.4a7,7,0,0,1,4,6.56"/><path class="cls-9" d="M1018.38,1242.35c.2.94,2.27,4.72,2.42,5.78s.28,2.25.35,3.28"/><path class="cls-9" d="M984.81,1245.65c-1-.86-1.31-.26-2.39-2.22a13.58,13.58,0,0,1-1.77-5.23c-.19-1.71.18-1.68,0-3.55-.2-2.09-.73-2.72-1.24-5.05a23.54,23.54,0,0,1-.53-4.34"/><path class="cls-9" d="M983.13,1252.12c1.12-1.51,1.27-5,2.39-6.47"/><path class="cls-10" d="M926.67,1246.36c1.65-.7,2.5-3.37,3.55-6a22.39,22.39,0,0,0,1.42-5.46c.12-1,.14-1.81.18-3.46,0-2.07,0-3.77,0-4.92"/><path class="cls-10" d="M925.84,1247.84c.41.29,3.4,2.49,3.13,5.38a4.1,4.1,0,0,1-.3,1.18"/><path class="cls-9" d="M893.12,1250.26a6.74,6.74,0,0,0-2.22,2.7c-.28.63-.21.15-.28.63"/><path class="cls-9" d="M895.35,1248a13.6,13.6,0,0,1-5.67-5,16.52,16.52,0,0,1-1.65-3.9c-.25-.93-.19-1-.59-3-.44-2.08-.63-2.5-.95-4a35.63,35.63,0,0,1-.59-4"/><path class="cls-9" d="M837.21,1240.81a24.26,24.26,0,0,0,1.06-5.55,12.11,12.11,0,0,0-.12-3.19,11,11,0,0,0-.83-2.6"/><path class="cls-9" d="M793.32,1232.06a27.12,27.12,0,0,0,.87,3.31,38.27,38.27,0,0,0,2.13,4.49c1.6,2.87,2,2.68,2.48,4.25a24.86,24.86,0,0,1,.95,3.19c.17.94-.28,2.65.17,3.07"/><path class="cls-9" d="M833.07,1248.55a26.26,26.26,0,0,1,1.95,2.36,21,21,0,0,1,1.89,3c.4.79.21.27.4.79"/><path class="cls-4" d="M798.09,1020.41c.44,1.44.75,2.61.95,3.43a6.87,6.87,0,0,0,1.06,2.84c.44.58,1.3.48,1.3,1.18"/><path class="cls-4" d="M800.81,1028.15c-.47,3.26,1.19,4.7,1.86,6.12s.59,3.18,1.33,5.58c.34,1.1,1.1,3.09,1.33,3.68"/><path class="cls-4" d="M831.65,1029.56c-.11,2-.31,4.06-.62,6.29-.34,2.43-.77,4.68-1.24,6.74"/><path class="cls-4" d="M829,1020c1.57.06,4.62.25,5.52.26h1.83c1.2,0,3.72-.39,4.54-.16"/><path class="cls-4" d="M891.22,1027.56c-.65,1-1.42,3.51-2.66,6.23"/><path class="cls-4" d="M889.09,1019.76a24.72,24.72,0,0,0,2.84,5.79"/><path class="cls-4" d="M926.79,1031.46c.09,1.39-1,3.2-1,5.2a16,16,0,0,0,1,5.5"/><path class="cls-4" d="M927.32,1023a5.24,5.24,0,0,0,5.91-4.37"/><path class="cls-4" d="M942.45,993.67c.08.7.1,1.92.2,2.58"/><path class="cls-4" d="M951.63,987.85a7.54,7.54,0,0,0,2.07,3.37c1.55,1.24,3.06,2,3.92,3.07"/><path class="cls-4" d="M949.83,962.38a2.58,2.58,0,0,1,1.06-1.12,11.92,11.92,0,0,1,2.13-.47,4,4,0,0,0,1.56-.86"/><path class="cls-4" d="M957.35,901.09c.8.08,5,.66,6.54,1.85a8.47,8.47,0,0,1,2.48,3.19,11.75,11.75,0,0,1,1.3,6.38c-.15,1.6-1,1.78-1.29,4-.2,1.58.47,3.27-.12,4.33"/><line class="cls-4" x1="940.87" y1="877.2" x2="940.87" y2="885"/><path class="cls-4" d="M939.39,795.6c0,1.26.24,8,.4,9.37.79,6.65.82,12.79,1,17.53"/><path class="cls-4" d="M965,822.05c.24,1.42-1.07,8.24.44,9.24,1.08.72,4.18.33,6.69.22"/><path class="cls-4" d="M967.31,843.88c-3.21.93-3.93,3.71-4.24,5.88-.22,1.51,0,1.69,0,4.73s-.32,3.76-.24,6.26a39.66,39.66,0,0,0,.68,4.73"/><path class="cls-4" d="M1016.93,829.81c-5.9.07-7.08.62-7.29,2.1a13.37,13.37,0,0,0,1.73,9"/><line class="cls-4" x1="1027.23" y1="1018.6" x2="1027.48" y2="1030.9"/><path class="cls-4" d="M1055.81,1016.09c.05,1.55-.25,3.1-.13,4.81a55.23,55.23,0,0,1,.06,5.63"/><path class="cls-4" d="M1086.73,1011.07a8.24,8.24,0,0,0,3.66-4.25c.42-1.26.29-2.16,1-2.69,1-.68,2.79-.24,3.88.75s.73,1.76,1.79,4.4c.81,2,1.39,3.46,2.76,4.25,1.07.62,2.09.54,4.1.37,2.93-.24,5.45-.11,6.49-1.89,1.18-2,.33-5.49.71-7.56"/><line class="cls-4" x1="939.39" y1="767.39" x2="939.39" y2="796.46"/><line class="cls-4" x1="939.39" y1="712.39" x2="939.39" y2="734.61"/><line class="cls-4" x1="939.39" y1="682.08" x2="939.39" y2="707.54"/><line class="cls-4" x1="943.18" y1="704.95" x2="942.98" y2="713.32"/><path class="cls-4" d="M1111,947.53c-.11-.24-2.21-7,0-9.38,1-1,2.38-1.16,5-1.42,2.14-.21,4.74-.47,6.15.24,3.53,1.78,2.08,11,1.18,18.44-3.87,32.19,1,44.68-2.13,54.6a3.59,3.59,0,0,0,0,2.84c1.38,2.41,6.47.47,16.78.95,4.94.23,5.46.75,6.62,0,3.06-2,1.58-7.15.95-22.69-.39-9.61-.59-14.42-.24-18a58.64,58.64,0,0,0,.24-10.87c-.18-2.41-.7-6.75-1.08-13.06"/><path class="cls-4" d="M1166.77,990.77a9.24,9.24,0,0,1,4.79,3.16c1.59,2.07,1.94,3.77,3.19,6.74.63,1.5,1.79,5.83,4.23,7"/><path class="cls-4" d="M1189.44,1008.47c2.45-1.48,3.64-3.64,4.87-4.64a5.51,5.51,0,0,1,3.43-1.18c1.91,0,1,2,11.23,6.68"/><line class="cls-4" x1="1023.72" y1="1038.92" x2="1024.56" y2="1043.61"/><line class="cls-4" x1="1060.44" y1="1037.19" x2="1059.95" y2="1043.06"/><path class="cls-6" d="M1007.51,1051.32c-.58,1.17.62,3.4,1.71,4.9.89,1.23,2.1,2.3,5.2,3.9a47.48,47.48,0,0,0,8.69,3.43"/><line class="cls-4" x1="1106.77" y1="907.61" x2="1105.35" y2="868.37"/><line class="cls-4" x1="1121.9" y1="864.95" x2="1142.47" y2="864.71"/><path class="cls-4" d="M1159.3,839.42c4.2.41,6-2.59,14.3-1.47,7,.93,13-.28,18.49-.24"/><line class="cls-4" x1="1291.1" y1="828.28" x2="1291.01" y2="834.99"/><path class="cls-4" d="M1191.37,826.64c4.89.35,6-.49,8.17-.68,1.08-.1,2.84-.25,5.14-.37s3.46-.24,6.5-.43c.67,0,2.56.1,2.94.08"/><line class="cls-4" x1="1157.8" y1="803.1" x2="1157.87" y2="821.85"/><path class="cls-4" d="M1111.78,762.74c7-.27,7.15,0,10.15,0h18.62"/><path class="cls-4" d="M1095.51,715.14c-.4,3.46-.8,9.59-.8,12.9v45.73"/><path class="cls-4" d="M1156.17,699.44v55.78c0,4.88.24,10.3.24,15.18"/><path class="cls-4" d="M1110.55,711.77a65.83,65.83,0,0,1,8.51-.07h21.27"/><path class="cls-4" d="M1010.52,647c-.53-3.28.18-7.48.18-10.75v-3.8"/><path class="cls-4" d="M1031.58,633h-22.31"/><path class="cls-11" d="M960.79,646.6c.47,0,1.25-.7,1.72-.7h14.21c1.89,0,3.52.35,5.41.35"/><path class="cls-4" d="M963.51,650.45a11.07,11.07,0,0,1-2.39-3.85c0-.5.46-.6.56-.7.92-.93,5.41,0,6.59,0"/><path class="cls-4" d="M950.8,680.94a29.75,29.75,0,0,0,4.39-1.84c.55-.22,2.8-.39,3.34-.62"/><path class="cls-4" d="M939.49,647.41c0,2.66.21,5.91.21,8.57v22.87c0,1.21-.31,2.86-.31,4.07"/><path class="cls-4" d="M939.51,571.2c0,2,.25,4.6.25,6.62v7.37c0,2.45-.25,5.72-.25,8.16"/><path class="cls-4" d="M946.89,573.93c0,2,.4,4.73.4,6.77"/><path class="cls-2" d="M989.6,250.93h18.18c1.83,0,4.38.23,4.34-.12-.19-1.71,0-4.79-.36-7.18"/><path class="cls-2" d="M1043,245.16a20,20,0,0,0,2.66,2.3,10.14,10.14,0,0,0,7.09,1.42,8,8,0,0,0,4.61-1.77,7.72,7.72,0,0,0,2.39-5.5"/><path class="cls-2" d="M911.8,235.25c8.37,4.33,14.39,1.63,16.29,1.4,2.92-.35,14.68,5.29,16.4,4.25"/><path class="cls-2" d="M1002.22,37.69A122.25,122.25,0,0,0,1009.36,48c2,2.44,6.21,5.3,8.07,7.18"/><path class="cls-2" d="M1028.82,55.73c4.18-1.18,7.5-2.09,9.57-2.66,5.93-1.61,8.38-2.22,11.88-3.72,2.34-1,7.14-3.48,8.29-4.14"/><path class="cls-2" d="M1060.88,29.89c0,.86,0,5.74,0,6.6"/><path class="cls-2" d="M1075.57,187.3c0,.73,0,2.71,0,3.44"/><path class="cls-2" d="M1161.9,30.23c0,1.06-.6,4.7-.63,5.76"/><path class="cls-2" d="M1184.77,194.11c3.74,0,.31,0,4.06,0"/><path class="cls-2" d="M1206,28.9c-.09.83-.62,5.55-.71,6.38"/><path class="cls-2" d="M1130.64,230h35.06"/><path class="cls-2" d="M1165.7,230c0,2-.08,9.53-.08,11.58"/><path class="cls-2" d="M1188.78,222.82v18.13"/><path class="cls-2" d="M1138,257.51v12.11c0,2.91-.34,5.36-.34,8.27,0,3.35-.7,9.29-.7,12.64"/><path class="cls-2" d="M1223,321c0,2.45.12,6.95.12,9.4V341.6"/><path class="cls-2" d="M1139,321.83V339.4c0,11.4.35,30.51.35,41.91"/><path class="cls-2" d="M1303.89,343c.06,1.71-.06,3.84,0,5.56"/><path class="cls-2" d="M1259.34,315v3.78"/><path class="cls-2" d="M1245.75,315h13.59"/><path class="cls-2" d="M1259.93,282.74v-4.61"/><path class="cls-2" d="M1228.17,256.33c0,3-.15,9.34-.15,12.35v9.92"/><path class="cls-2" d="M1325.16,347.27c1.84,0,6,2.13,7.8,2.13"/><path class="cls-2" d="M1349.27,647.91c-3.2.23-13.7,2.77-18.61,8.15-3.64,4,.06,7.8-1.24,17.37-1.46,10.72-2.72,15.59-.53,19.85,4.23,8.23,7.69,11,14.71,12.76a52.2,52.2,0,0,0,15.6,1.42"/><path class="cls-2" d="M1348.38,799.65c-1.81,0-10.06,1.42-11.88,1.42"/><path class="cls-2" d="M1353.05,553l4-.35"/><path class="cls-2" d="M1352.64,462.59v29.33"/><path class="cls-2" d="M1350.69,370.85c0,9,.35,21.76.35,30.75"/><path class="cls-2" d="M1352.11,282.82v31.13"/><path class="cls-2" d="M1278.9,32.09h29"/><circle class="cls-2" cx="921.71" cy="218" r="3.07" transform="translate(667.84 1130.48) rotate(-87.76)"/><path class="cls-2" d="M913.55,199.43A23.14,23.14,0,0,0,903,210.18c-3.57,8.27,3.59,16.91,4.49,18a20.89,20.89,0,0,0,14.65,7.33c9.57.42,15.55-6.22,16.31-7.09"/><path class="cls-2" d="M913.55,199.43c2.66,4,3.52,8,6.68,15.24"/><path class="cls-2" d="M905.74,207.05c6.39,5.2,5,3.26,13,10.17"/><path class="cls-2" d="M903.45,218a19.07,19.07,0,0,0,5.58.8c3.35.12.11-.07,4.72.2a31.46,31.46,0,0,1,4.24.35"/><path class="cls-2" d="M919,221.29l-5.44,3-5.85,2.17"/><path class="cls-2" d="M921.59,221.07c0,2-2.27,7.31-2.85,9.2-.67,2.2-1.34,2.82-1.34,4.39"/><path class="cls-2" d="M923.83,221.06l2.25,3.31c1.8,2.65,2.64,4.17,4.14,6.62a15.67,15.67,0,0,0,1.89,2.27"/><path class="cls-2" d="M924.78,218.12c3.36,2.45,5.19,3.94,7.33,5.42,4.18,2.88,4.55,3.05,6.35,4.85"/></g></svg>