<svg id="Layer_3" data-name="Layer 3" xmlns="http://www.w3.org/2000/svg" viewBox="0 0 2480 3508"><defs><style>.cls-1,.cls-11{fill:#ffce57;}.cls-10,.cls-2,.cls-3,.cls-4,.cls-5,.cls-6,.cls-7,.cls-8,.cls-9{fill:none;}.cls-2,.cls-3{stroke:#010101;stroke-linecap:round;stroke-linejoin:round;}.cls-11,.cls-2,.cls-4{stroke-width:3.55px;}.cls-3,.cls-5{stroke-width:3.67px;}.cls-10,.cls-11,.cls-4,.cls-5,.cls-6,.cls-7,.cls-8,.cls-9{stroke:#231f20;stroke-miterlimit:10;}.cls-6{stroke-width:2.82px;}.cls-7{stroke-width:3.66px;}.cls-8{stroke-width:4.03px;}.cls-9{stroke-width:3.34px;}.cls-10{stroke-width:3.39px;}</style></defs><title>1 sal</title><g id="Layer_2" data-name="Layer 2"><polygon class="cls-1" points="1209.25 1500.68 1209.25 1487.06 1209.25 1480.05 1209.25 1461.92 1209.25 1398.9 1209.25 1336.42 1209.25 1262.14 1207.94 1244.27 1221.02 1244.27 1275.61 1244.27 1275.61 1270.11 1276.59 1319.59 1276.59 1335.13 1277.83 1337.65 1298.02 1337.58 1316.2 1337.45 1316.38 1338.11 1316.06 1340.24 1313.94 1353.63 1307.36 1395.7 1303.34 1395.72 1286.53 1395.99 1277.44 1395.88 1276.32 1398.6 1275.83 1503.01 1275.28 1503.77 1244.1 1503.77 1207.94 1503.77 1209.25 1500.68"/><polygon class="cls-1" points="1306.15 1184.1 1302.14 1143.53 1303.96 1128.88 1307.41 1123.11 1319.32 1123.11 1344.48 1123.86 1405.21 1123.11 1460.02 1123.11 1534.14 1123.11 1565.95 1123.11 1606.72 1120.61 1613.69 1122.83 1618.77 1124.61 1620.62 1128.3 1620.62 1144.42 1619.8 1152.59 1637.08 1157.18 1643.4 1159.33 1651.62 1162.55 1651.62 1177.19 1651.87 1214.79 1647.82 1217.51 1635.23 1221.51 1627.01 1223.07 1620.55 1275.8 1619.94 1277.73 1610.04 1277.73 1533.48 1279.35 1468.45 1280.36 1318.66 1280.36 1314.6 1278.99 1314.3 1274.16 1314.3 1244.27 1314.78 1240.75 1307.23 1190.88 1306.15 1184.1"/><polygon class="cls-1" points="968.08 1285.7 965.72 1277.61 965.14 1269.14 964.61 1250 964.61 1244.37 957.52 1243.59 939.59 1238.23 937.83 1235.49 937.83 1229.39 937.83 1204.09 936.84 1186.1 937.83 1183.39 962.03 1177.8 968.58 1173.91 968.58 1146.89 970.13 1145.94 1010.64 1145.94 1105.18 1144.65 1195.49 1143.62 1198.22 1144.06 1198.22 1171.05 1198.22 1187.12 1202.29 1187.47 1206.55 1184.97 1207.17 1180.23 1207.17 1161 1207.17 1134.96 1207.33 1074.89 1207.33 1070.62 1276.32 1075.48 1276.32 1124.45 1276.96 1183.33 1282.71 1184.1 1304.46 1184.7 1305.67 1185.04 1306.36 1185.46 1314.63 1239.79 1308.78 1239.24 1288.36 1237.61 1280.83 1239.1 1276.11 1240.75 1275.91 1243.66 1275.19 1244.27 1208.56 1245.92 1204.03 1240.75 1199.04 1240.38 1198.38 1241.92 1198.15 1256.8 1198.05 1281.76 1190.47 1283.57 1167.09 1282.98 1125.74 1282.81 1103.92 1283 1079.35 1283.34 1067.63 1285.42 1065.53 1287.16 1067.77 1289.68 1070.66 1292.02 1069.53 1292.91 1020.19 1292.96 1018.7 1284.71 997.68 1286.08 972.27 1286.08 968.08 1285.7"/><polyline class="cls-1" points="967.28 1134.3 964.3 1123.13 965.42 1114.1 965.21 1085.39 960.31 1077.86 934.9 1071.54 936.84 1067.78 938.51 1021.78 943.05 1019.11 948.22 1017.92 966.54 1012.38 968.1 1009.93 967.94 964.31 969.5 961.29 979.78 961.29 1084.97 961.29 1197.41 962.04 1198.05 967.74 1198.05 985.68 1198.33 1013.97 1201.19 1014.75 1206.37 1014.23 1207.33 1008.36 1208.26 961.08 1210.37 960.05 1220.72 960.05 1225.96 959.67 1225.96 933.68 1260.43 933.68 1260.43 957.28 1265 960.7 1272.83 960.79 1274.19 966.78 1273.52 987.76 1272.12 1018.12 1273.52 1019.61 1302.69 1019.18 1302.69 979.24 1305.49 960.54 1310.44 960.07 1367.15 960.44 1366.87 969.63 1367.15 1015.56 1367.15 1067.05 1367.15 1072.04 1368.92 1074.42 1378.58 1073.94 1402.11 1073.94 1423.32 1073.78 1424.71 1074.89 1425.1 1093.68 1424.62 1113.31 1418.33 1114.24 1379.91 1113.49 1360.76 1113.44 1312.56 1114.24 1303.13 1114.24 1303.01 1112.84 1303.41 1102.7 1303.96 1092.29 1303.18 1078.87 1295.9 1074.74 1286.92 1073.32 1277.49 1073.32 1274.49 1075.36 1207.94 1080.95 1206.55 1076.81 1206.46 1069.5 1202.01 1070.62 1195.76 1071.72 1195.49 1074.93 1195.76 1092.9 1195.76 1126.97 1194.46 1134.3 1185.42 1134.3 1026.53 1136.41 978.31 1136.41 971.65 1136.41 967.28 1133.96"/><polygon class="cls-1" points="1375.99 960.9 1380.27 958.75 1388.49 958.45 1421.55 958.45 1423.77 958.75 1424.4 974.36 1425.1 997.79 1426.55 1005.25 1431.51 1007.54 1444.48 1007.54 1457.07 1008.12 1457.07 1052.4 1457.87 1067.28 1461.72 1071.27 1465.79 1072.07 1466.38 1075.27 1465.9 1077.38 1468.61 1111.01 1467.17 1114.24 1450.31 1113.76 1438.38 1113.7 1436.11 1112.92 1436.39 1103.44 1436.05 1080.26 1435.57 1065.98 1435.27 1063.84 1421.72 1063.73 1376.91 1063.73 1375.99 1049.4 1375.99 1038.09 1375.99 1003.47 1376.13 981.28 1375.99 966.19 1375.99 960.9"/><polyline class="cls-1" points="1570.61 1122.83 1570.18 1122.21 1569.75 1121.61 1570.18 1115.13 1569.75 1112.34 1564.11 1111.43 1496.2 1111.43 1481.55 1111.1 1477.01 1111.33 1476.44 1109.37 1475.48 1082.81 1476.81 1072.2 1484.16 1070.12 1489.65 1070.12 1489.68 1062.17 1483.24 1061.72 1467.05 1061.46 1466.23 1026 1466.23 1008.12 1481.66 1006.92 1488.9 1006.51 1491.76 1005.55 1491.42 997.15 1482.07 997.65 1455.07 998 1435.22 997.15 1435.22 990.71 1435.22 962.89 1435.22 960.08 1437.08 958.45 1449.22 957.54 1492.72 956.12 1525.12 952.82 1534.39 953.92 1536.8 951.65 1536.15 929.81 1532.51 928.38 1514.91 928.38 1367.49 930.47 1365.18 929.81 1365.55 918.59 1365.18 899.79 1365.27 847.97 1365.18 840.32 1365.18 791.65 1364.72 723.96 1365.21 628.98 1365.32 603.47 1366.42 599.52 1372.19 596.68 1382.29 594.96 1390.42 583.12 1391.67 575.45 1394.65 567.73 1397.37 566.47 1447.38 566.47 1449.7 570.28 1457.41 595.17 1461.24 595.64 1504.92 593.61 1517.4 584.06 1523.04 564.41 1523.68 561.8 1527.46 560.86 1576.18 560.86 1580.69 574.23 1589.51 588.25 1601.2 591.25 1615.36 592.25 1617.24 655.24 1641.27 662.98 1642.65 669.86 1642.65 713.75 1642.65 715.63 1627.84 719.13 1616.29 724.07 1617.14 740.33 1628.75 745.19 1636.01 752.31 1636.45 757.14 1636.19 787.27 1634.86 788.28 1623.69 788.21 1618.1 788.76 1617.03 789.93 1616.06 812.73 1617.05 815.34 1634.96 822.79 1644.14 825.19 1644.85 828.01 1646.5 878.2 1645.38 879.8 1632.62 882.64 1621.03 885.41 1616.32 887.52 1617.88 890.84 1620.09 900.45 1618.74 926.69 1604.82 927.93 1591.63 927.35 1588.63 948.1 1594.84 953.94 1606.93 954.76 1617.69 956.14 1618.81 961.52 1622.55 997.65 1632.23 1004.61 1649.57 1006.54 1653.98 1006.54 1653.98 1048.27 1653.98 1058.76 1652.5 1060.73 1639.51 1061.99 1619.8 1067.05 1619.36 1099.75 1618.03 1106.69 1617.3 1110.65 1612.42 1111.04 1608.95 1111.52 1605.65 1116.87 1606.15 1120.61 1604.21 1121.3 1589.51 1124.3 1573.2 1125.19"/><polygon class="cls-1" points="1210.47 597.25 1234.55 596.22 1253.63 598.25 1260.97 574.05 1262.39 569.17 1263.4 567.27 1270.94 567.27 1309.34 567.27 1315.81 568.17 1318.65 588.91 1319.75 596.81 1343.13 596.58 1352.47 598.25 1356.14 602.54 1357.32 620.97 1356.32 656.94 1357.23 684.88 1357.32 714.55 1357.6 754.28 1356.53 784.77 1355.61 798.51 1357.35 843.94 1357.03 848.38 1361.13 848.38 1365.27 848.38 1365.27 857.04 1365.27 882.75 1365.27 897.29 1361.13 898.39 1356.53 900.61 1356.53 929.81 1355.72 931.13 1348.47 931.13 1329.67 931.13 1323.67 931.13 1323.67 924.43 1323.67 915.04 1323.99 913.07 1318.51 911.77 1291.86 911.77 1263.84 911.77 1262.01 911.15 1260.63 918.81 1260.79 933.68 1258.75 933.68 1226.45 933.68 1225.35 931.84 1225.28 930.63 1221.94 862.28 1221.91 861.44 1231.85 859.49 1274.44 858.87 1315.51 856.9 1315.43 836.04 1315.47 815.09 1316.27 805.79 1316.66 798.51 1323.39 795.93 1325.94 792.9 1323.28 789.95 1317.19 789.35 1292.46 789.65 1210.47 789.31 1208.98 783.43 1208.98 683.96 1209.55 614.19 1209.62 598.42 1210.47 597.25"/><polyline class="cls-1" points="1203.55 861.44 1218.27 861.85 1223.83 862.44 1225.37 873.02 1228.12 932.33 1217.7 933.84 1187.84 932.33 1157.99 932.33 1137.13 931.78 1134.65 933.84 1133.21 939.08 1128.1 943.36 1120.87 944.5 1112.6 943.91 1107.7 940.48 1099.83 934.48 1093.89 933.31 1052.47 935.23 1049.91 935.9 1049.91 946.32 1049.91 948.44 1040.04 948.44 1011.03 948.44 1010.71 942.84 1009.89 934.86 1001.67 934.48 970.36 933.68 967.91 933.59 967.91 928.57 967.21 917.81 957.82 917.65 943.11 917.92 937.69 924.08 932.03 928.87 930.93 930.04 926.31 930.4 917.81 927.97 905.89 923.35 901.62 921.45 904.51 919.41 917.11 911.92 920.22 909.49 921.71 902.68 922.6 876.94 966.91 877.97 967.28 849.35 968.48 843.8 974.3 842.91 1004.5 841.68 1024.61 841.68 1038.96 843.53 1069.12 842.96 1116.11 842.96 1165.98 842.96 1184.46 843.58 1197.5 842.96 1200.82 843.8 1200.6 856.22"/><polyline class="cls-1" points="1080.66 603.91 1102.21 596.95 1115.46 592.97 1133.8 584.52 1134.54 579.71 1138.23 569.77 1144.48 569.24 1166.75 569.24 1183.06 569.24 1187.31 570.67 1189.74 579.84 1192.93 596.03 1197.37 599.35 1200.6 600.47 1201.15 603.91 1200.6 619.76 1200.53 721.15 1200.67 795.12 1201.15 828.14 1199.96 829.93 1196.48 832.81 1177.29 833.91 1166.87 833.91 1163.09 836.36 1162.75 841.03 1162.1 843.53 1131.43 842.96 1119.29 842.96 1118.23 838.93 1118.71 834.33 1097.99 834.23 1083.14 833.25 1082.26 827.27 1080.66 746.74 1079.76 715.31 1079.76 685.04"/><polyline class="cls-1" points="1007.09 841.54 1005.58 830.18 1000.2 828.63 983.92 828.63 971.35 828.63 970.23 820.95 970.23 814.13 969.75 812.07 967.2 820.43 964.53 822.05 950.24 824.36 939.95 823.66 935.29 822.21 935.01 814.79 935.01 795.86 937.62 789.2 939.77 786.68 960.56 786.1 966.54 786.1 967.5 774.22 967.39 747.82 967.5 690.46 967.11 634.53 967.23 612.33 969.56 603.55 982.89 574.53 989.69 570.94 1001.32 571.01 1031.2 570.94 1037.11 573.43 1042.6 583.87 1048.69 591.23 1055.13 596.7 1060.44 602.13 1064.34 601.9 1071.66 602.35 1072.39 628.2 1072.07 683.09 1077.36 685.75 1079.76 685.58 1079.76 691.19 1079.76 714.5 1074.11 715.17 1073.77 718.58 1073.66 726.85 1074.29 804.53 1073.28 832.86 1066.94 833.3 1037.32 835.31 1036.83 842.25 1036.45 846.9"/><polygon class="cls-1" points="1074.46 683.36 1083.64 683.36 1083.64 716.72 1073.58 715.08 1074.46 683.36"/><polygon class="cls-1" points="665.15 956.98 663.25 955.2 654.24 932.17 644.13 927.68 623.17 928.68 612.8 927.68 610.74 926.35 612.11 922.84 612.87 907.96 610.14 899.65 583.99 888.52 585.32 882.41 585.35 832.4 585.51 828.76 593.57 827.16 610.77 817.84 611.54 790.68 614.08 758.42 665.15 752.92 665.65 767.24 673.2 768.01 748.1 767.42 769.4 768.45 770.52 768.89 771.53 793.98 771.07 810.4 779.4 810.4 782.61 810.4 783.98 767.72 786.94 764.62 795.66 764.58 833.99 763.96 861.76 764.49 864.4 763.57 865.5 755.81 865.1 752.31 865.34 751.11 899.15 751.78 899.15 761.51 900.37 763.8 920.58 763.28 921.46 769.27 921.96 809.62 921.34 864.96 921.16 876.71 922.16 877.53 922.56 877.97 921.71 902.68 920.79 906.95 916.42 903.88 897.62 891.07 896.45 888.23 892.35 884.49 889.03 884.13 880.61 864.62 876.37 856.97 869.45 861.51 860.28 868.72 857.28 876.52 854.85 885.43 854.92 890.4 857.73 897.57 866.84 911.31 876.87 918.02 895.6 922.66 895.24 924.2 887.87 924.72 876.28 922.59 871.61 921.45 857.78 941.94 854.39 949.64 853.29 954.42 852.85 958.91 844.06 958.25 803.63 957.51 800.77 956.39 799.07 943.36 791.29 934.66 779.51 923.95 776.36 914.67 777.84 905.56 777.2 863.56 778.28 845.8 776.61 845.09 769.99 848.91 766.26 854.15 765.52 863.15 767.74 888.98 768.18 904.39 768.39 916.04 767.43 922.39 756.85 926.87 729.39 929.25 724.88 930.79 722.66 939.88 718.4 952.98 717.14 957.51 710.82 957.51 668.21 957.51 665.15 956.98"/><polygon class="cls-1" points="615.23 756.36 614.34 749.37 612.39 742.85 612.73 734.4 610.12 724.9 604.4 720.13 589.95 716.41 573.56 712.65 570.42 710.64 572.18 677.57 572.27 668.04 572.78 662.57 578.64 658.48 597.05 651.61 606.51 647.17 612.2 636.17 612.67 613.28 612.73 607.12 616.62 603.68 627.76 603.68 642.77 603.68 649.42 603.68 658.34 588.93 661.66 578.17 662.23 575.5 663.77 574.39 671.1 574.39 704.75 573.05 714.44 571.72 716.05 572.68 717.47 583.05 721.18 593.72 725.46 599.68 734.8 602.88 737.34 616.55 735.78 633.08 737.34 641.74 739.67 643.41 745.13 641.33 747.73 634.98 748.29 618.77 748.85 606.48 749.66 602.21 757.12 601.98 785.61 601.57 789.96 599.75 799.83 577.19 801.08 574.78 808.57 573.78 829.32 574.05 843.97 574.17 850.41 573.84 855.51 577.6 892.93 607.6 919.49 622.55 924 625.13 924 637.27 924 707.33 924 712.03 927.86 712.86 954.64 714.8 957.75 715.47 957.75 720.07 956.4 732.87 951.89 738.84 941.85 741.91 924.48 740.99 922.28 742.14 921.34 750 908.77 750.52 900.57 751.07 898.26 754.14 864.23 755.47 862.61 751.71 851.02 752.01 760.53 750.04 748.26 749.79 747.39 728.84 747.55 698.89 746.43 687.46 742.88 686.68 740.78 688.45 739.44 730.62 739.44 746.49 738.44 750.48 728.23 751.11 671.21 751.69 666.41 754.25 659.44 758.37 621.16 763.16 615.5 759.02 615.23 756.36"/></g><g id="Layer_1" data-name="Layer 1"><polyline class="cls-1" points="615.07 2362.37 621.89 2359.01 639.04 2356.71 670.09 2356.71 757.69 2357.34 810.98 2355.68 839.03 2355.68 927.23 2354.34 942.96 2357.65 949.03 2361.43 956.35 2360.11 965.08 2354.34 977.83 2351.04 997.64 2351.04 1014.81 2351.04 1032.42 2351.04 1040.89 2352.73 1043.09 2359.78 1042.22 2371.81 1048.15 2382.31 1073.97 2393.01 1109.53 2397.41 1136.8 2393.7 1148.76 2388.8 1161.14 2386.36 1170.58 2386.36 1172.78 2365.32 1170.85 2347.28 1175.09 2346.02 1184.27 2346.91 1259.72 2351.04 1279.48 2351.98 1314.67 2343.28 1471.61 2336.18 1543.41 2334.69 1627.33 2333.95 1640.02 2334.57 1638.57 2449.24 1641.27 2562.22 1642.17 2612.57 1640.02 2640.27 1633.21 2652.13 1622.2 2659.16 1598.8 2661.52 1574.57 2659.46 1545.1 2661.04 1409.14 2663.91 1310.48 2666.86 1280.1 2671.97 1244.22 2670.55 1214.01 2669.58 1184.22 2670.55 1156.73 2672.83 1073.03 2675.21 1018.47 2676.57 990.99 2676.82 908.49 2678.67 823.57 2680.87 756 2685.47 720.76 2685.47 677.74 2685.09 643.87 2685.09 623.72 2680.55 613.76 2668.07 609.92 2653.92 609.92 2608.24 615.07 2572.61 614.93 2553.88 615.07 2470.22 615.07 2424.38 614.33 2388.18 612.28 2371.66 615.07 2362.37"/><path class="cls-1" d="M969.9,2003.55l16-2.93h16.69l46.16-2.13,78.26,1.3,51-2.52,32.52-1.28,4.83.73,1.78,105.19.78,13,3.85,3.23,3.67-.39,1.28-3.55,2.75-2.59,19.53-.94h34.41l4,4.74,10.07,1.78,12.11-.83,3.2-3.09.62-51.82-1.58-44.28-.89-19.44,1-2.36,3.55-.71,21-2.5,8.34.37,24.55-.37,56.6-4.35,53.7-.87,42.16-.87,23.2.94,25.57-3.12,31.78-1,14,.83,11.86,1.37,1.78,16.58-1.88,11,4.19,6.5,18.25,8.18,8.5,1.58-.48,52.21-2.91,3.3-13,4.49-4.4,4.56s-1.47,23.56-1.58,23.86-2.84,34.3-2.84,34.3l-1.58,24.61,4.94,8.58,9.23,3.55,17.54,3.14,9.6.87,2.13.62.78,20.22,1.53,29-.73,3.55-16.1,1.37-14.11,5-10.87,6.85-.78,29.12-6.3,1.37h-12.8l-9.76.43s.21,27.27.32,28.12a30.93,30.93,0,0,1-.62,4.51h-15.43l-38.6-.53-2.47-1.47.55-21.93-1.44-5.45-7.65-1.19-91.89,1.6-43.53,1.15-10.07-2.29-7.1-5.33L1380,2282l-7.24,3.55-6.6,6.64-8.61,2.38-8.88-2.36-6.6-6.5-5.68-15-16.49-12.43-7.4-10.14,1.1-20.31V2201.5l-.18-34.19-6.71-1.12-12.59-.41-7.1,2.38-2,5.33-.18,16.9,1.65,16v35.72l1,23.08,1.1,30.36L1287,2301l-8.27,2.17-13.24-1.78-11.65.62-6.71-.53-2.93-3.73,3.18-12.68-.37-34.35.32-26.44,1.88-21.71,1.65-29.28-3.14-6.91-9.29-.64-12.43,2.09-2.27,10.65,2.17,9.3.44,57.72-.71,51.93-2.36,2.75-12.91,2.36-5.33-1.78-4.81-10.65-4-4.92h-6.14l-3.78,9.07-13.63,6.3-21.78.46-15.11.78-5.57.48-4,3-11.84.51-15.27.87H1081.6l-4.4.83-20.56-2.63-82.16.67-3.3-1.17-.55-9.84-.12-23-13.32-2.45-11.74-9.55-2.4-11.08-.57-34.26,2.15-4.3,14.38-4.51,11.7-3.43v-43.32l1.08-33.73,1.78-5.11-5.56-12.8-6.66-2.88-18.3-6.55-1.26-7.35v-40.83l.55-4.49,13.16-4.12,10.37-1.78-2.24-9.57,1.35-7.1-.27-8.11.87-7.69Z"/><path class="cls-1" d="M1000.48,2001.28l-.59-3.23-.28-10.31-3.11-8.06-25.94-1.78-2.36-1.33.43-5-.43-36.87-3.55-5.45L946.6,1923l-8.06-3.14v-13.58l.32-30.32,2.84-10.65,15-6.21,9.13-.94,2.57-7.1-1.53-51.34,1.26-17.42-13.74-7.71-13.07-4.08-4.24-3.78,1.26-37-.23-14.47,9.21-3.78,14-5.33,5.5-6.76.16-29.67-2.18-15.5-2.34-2.72,7.37-.85,13.39.8,12.2-.8h3.25l50.56.39,64-1.24,46.57-.67,27.46-4.14,9.13,1.69,3.78,12-2.52,53.6-.32,11.95.43,7.31,5.33,4.46-5.33,8.88.6,22.71-1.33,37.09-.62,48.15.32,21.39,2.1,1.94.27-18,5.72.67,14.2-.21,26.91-1.14,11.38.82h19.53l2.06,4.4,4,11.49,15.34-1.78,9.92-.44V1844.6l-1.58-54.57.48-32.84,1.1-44v-240l-2.29-71,1.14-5.77,9.69-61.84v-23.08l.62-21.3h16l52.87-.64,140.15-.82,94.09.46,1.26,14.81,1.42,10.79,10.35,6.36s17,3.55,17.08,3.69,4,1.46,4,1.46v48.75l-1.78,2.93-15.11,3.78-9.13,2.84-6.92,1.58-.51,5.77,1.15,11.22-.64,16.37V1424l32.9,6.87.39,6.73.35,18.29.66,28-21.09,4.92-10.55,8.4-.94,71.71,2,16.53,9.07,6.69,12.85,3.73,2.34,7.86L1648.6,1641l-.43,10.28-13.23,5.88-16,6.92-5.88,6.3-.67,6.5.35,30.45-2.2,10.78.73,16,12.8,16.92,15.16,6.69,12.21,3,.39,6.53,1.78,45.17-.44,3.85-25.88,6.3-1.1,16.21-.32,18.09,28.41,9.05v51.77l-.64,3.23-11.88,2.13-14.95,1.78s1.38,11.79,1.38,12.11-1.37,19.16-1.37,19.16l-1.44,5.95-16.28-.94-7.63-.55.55,20.29-.28,2.52-53.4,3.2-2.1-2.33-.37-17.54-45.38-1-83.44,2.08-21.16.5-26.63,1.94h-48.93l-10.16-.53-.34-19.69-.41-20.7h-25.19l-2.75,11,1.67,20.51-4.88,11-3.34,5.47,3.55,17.35,2.27,9.64.21,1.78-12.43.62-39.75-.32-6.39-1.26-.39-5.18,1.28-6.34,3.78-4.3-.57-13-6.6-3.14-36.61.94-133,3.14-3.76,3.14,1.24,13.23v4.4l.94,2Z"/><path class="cls-1" d="M999.31,1649.86l-.39-19.35L984,1629.8l-17.08-.87-.73-4.56v-12.2l.25-17.33-1.37-7.3-7.1-3.14-20-6.94-.87-23.17v-32.67l11-1.33,13.72-5.89,3.21-4.72,4.39-.87,16.76-2.2,13.16-9.21L988.15,1493H969.81l-4.28-7.46-.5-24.55-2.36-33.57-3.55-15.73-14.95-5.5-8.18-1.42-.92-11.17.3-40,8.75-3.73,16.28-4.46,6.39-1.31.37-17.75-1.78-23.7.53-7.81,3.68-1.78,18.46-.55h106l51.29-.92,38.81.3,13.3-.3,4,7.1-.09,40.07v151.78l-10.92,2.09h-142l-3.78-.21,6.2,11.45h225.7V1625l-5.61,1.78-25.17-.32-29.06-.21-16.16-1.78-90.4,2.66-29.06-1.58-27.27.11-6,2.2s-1.26,19.53-1.15,19.81a25.23,25.23,0,0,1-.73,3.3l-45.68.53Z"/><path class="cls-2" d="M734.39,2314.54c-55-1.78-109.88,5.54-165.77,2.2-3.36,140.06,3.3,278.52.37,418.26,88.63,0,188-7.46,274.91-6.3"/><path class="cls-2" d="M1306.1,1396.84c4.4,114.1,1.08,235.8,1.08,350"/><path class="cls-2" d="M1118.26,843c-1-8.63,3.21-9.16-3.78-8.88-10.9.37-21.82.11-32.92.11-.12-42-.25-78.84-2.17-118.49l-5.18.12V833.59l-36.5,1.78c.14,1.88-.14,5.66,0,7.55"/><path class="cls-2" d="M1206.46,1009.12c1.12,5.7-2.57,5.33-7.55,4.83V961.29H967.36"/><path class="cls-2" d="M1390.25,581.11c1.67,9.21-9.21,14.45-12.62,14.74-13.63,1.17-13.32.64-12.68,14.2.53,11.31.11,22.65.11,34V761.1c0,20.56-.35,66.29-.35,86.87"/><path class="cls-2" d="M967,2680c-34.3,0-47.46.48-62.65.32-23.42-.23-47,1.56-70.48,1.78-34.44.41-68.69,4.46-103.24,4.23-21.3-.14-42.8.8-64.2-.53-4.26-.27-3.55,2.57-3.78,5.08"/><path class="cls-2" d="M1196.38,1130c-.66,3.55-.14,5.06-3.78,5.08-36.11,0-72.59-.34-108.69,1.12-16,.57-31.48.16-47.42.2-19.72,0-39.45.53-59.16,1.26-9.34.36-13.4-2.66-12.78-12.69.8-13-.14-26,.32-39.06.28-7.92-11.26-10.31-17.75-11.33"/><path class="cls-2" d="M927.34,2264.09c.39,17.58,2.43,19.87,0,29.13-1.49,5.5-.27,11.74-.27,19.23-27.31-3.66-53.15,3.55-79.34-.14-9-1.24-18.43.76-27.66,1-25.17.53-50.35.75-75.52,1.37-9.52.23-13.9,5.77-13.85,16.3"/><path class="cls-2" d="M612.28,2373.71c.83,16,2.68,32,2.31,47.83-.71,31.07-1.38,62.14,0,93.17.85,18.43.16,36.93.16,55.37"/><path class="cls-2" d="M1664.47,1324.24c-9.25,1.78-24.86-3.37-33.73-4.63a10.65,10.65,0,0,1-9-12.07v-.09c.6-6.23.12-12.57.12-18.87-77.21,0-228.47,1.1-305.68,1.1"/><path class="cls-2" d="M1687.34,2580.15c-1.15,23.08-2.22,46.16-.27,69.24,1.33,15.84-2.38,31.78,0,47.93.85,6-5.49,7.1-11,7.6-13.87,1.21-27.57-1.42-41.58-.55-30.18,1.88-60.36,1.3-90.54,1.78"/><path class="cls-2" d="M1659.64,548.38c-32.31,0-64.62-.5-96.93.12-36.09.69-72.35.69-108.19,4.33-19,1.94-40.32,1.21-59.24,1.78"/><path class="cls-2" d="M1623.14,1243.27l-2,35.24c-69.79,0-159.16,2.52-228.4,2.52"/><path class="cls-2" d="M1209,644.05v146H1312.2a54.81,54.81,0,0,1,10,.12c4.4.83,2.86,3.68,1.28,6.18"/><path class="cls-2" d="M569.48,845.47c-.83,39.06-1.4,78.12-2.7,117.07-.34,10,3,13,12.78,12.75q109.5-3.2,219-.25"/><path class="cls-2" d="M1277,1396.84v229.29c-3.55,3.07-9.64.89-15.11,1-16,.23-31.73,2-47.93-.6-13.85-2.2-28.41.11-42.72.76-28.55,1.3-57.08,2.31-85.61,0"/><path class="cls-3" d="M1208.56,1494.2c0,9.52-1.51,8.36-7.1,8.4-29.17.18-58.34-.27-87.51.16-20.2.28-40.39.34-60.58,1-3.07.11-7.74-5.15-8.08-10.81"/><path class="cls-2" d="M1501.58,955.48c-27.15,1.88-21.3,1.78-26.2,1.88-30.18.34-57.43.09-87.65.2a115.89,115.89,0,0,0-12.59,1.51v105.44"/><path class="cls-2" d="M953.44,2268c5.18,1.24,9.59,4.81,16.37,3.76V2307c21,0,40.73-.48,60.36.16,16,.51,32.15-3.18,47.85,2.36"/><path class="cls-2" d="M1060.44,601.26h12v81.67c8.27,4.23,8.31-.37,8.26-6.12-.18-21-.55-53-.55-74"/><path class="cls-2" d="M864,751.05c-38.63,2.56-77.21-1-115.66.16-2.38-22.19.46-43.18-1.53-64.53h-5.52c-.64,19.35-1.3,45-1.94,64.34"/><path class="cls-2" d="M777.2,922.27v-77c-8.88,3.55-10.76,7.49-11,12.91-1,20.58,4.58,42.22,2.2,62.78"/><path class="cls-2" d="M1656.5,1430.84c0,15.53.64,37.41.64,54.24-6.84,0-11.08,1.78-17.75,3.16-12.61,2.57-15.78,8.56-15.29,20.68,1,23.08.64,46.16,0,69.24-.2,8.11,2.79,11.74,10.23,14a88.23,88.23,0,0,0,30.18,3.55"/><path class="cls-2" d="M1556.42,2333.43c-42.43.55-84.79,2.68-127.15,4.86-26.38,1.35-52.87,1.54-79.29,1.21-12.76-.18-25.16,2.2-37.74,3.07-5.33.37-11.72.89-15.77,6.28-15.27,2.2,1.78-.73-17,2.2"/><path class="cls-2" d="M925.74,1397.48c1.26,3.78-2.52,8.88,0,8.88,7.55,0,17.63,1.78,25.17,1.78,5,2.52,10.07,5,10.07,7.55,2.52,25.17,5,52.87,4.46,79.31,6.69,0,1-12.69,0,0,10.65-3.78,23.24-1.26,33.31,1.26-5,10.07-23.91,14.42-33.73,10.39"/><path class="cls-2" d="M1546.35,1975.91v-10.65c-47.83.82-94.34,4.15-141,3"/><path class="cls-2" d="M1216.53,2048.93v-52.87c11-3.75,11-3.75,8.63-21.48-58.16.83-116.5-1.53-174.8,2.59"/><path class="cls-2" d="M922,1756.86v12.43c15.11,1,30.07,3.64,45.18,12.16-3.39,23.63,1.33,49.16,0,75.06-2.45,2.29-5.75.27-8.63,1-17.75,4.4-21.41,9-21.41,27.68v35.24"/><path class="cls-2" d="M1579.07,567.43c5,16.81,7.49,25.48,37.76,23.68v64.27c13.87,4.83,28,8,42.8,7.56"/><path class="cls-2" d="M1241.7,553.42c-54.56,0-298,1.47-352.46,2.89-35.29.91-70.59-1.88-105.72,0-34.05,1.86-68-1.65-102,.94a21.52,21.52,0,0,0-5.61-.27"/><path class="cls-2" d="M1176.25,1492.51h25.17V1349c0-14.2-.12-28.53,0-42.8.18-16,.51-15.41-15.14-15.11"/><path class="cls-2" d="M1663.42,1258.38c.83,24.34.89,53.7,1.15,78.12.53,48.25-.41,96.51,1.22,144.76.76,22.21,0,44.47.16,66.72.28,33.15-.6,66.4,1.54,99.42,3.55,55.43,1.78,110.78,1.37,166.19-.09,13.76,1.33,94.25,2.06,108.1"/><path class="cls-2" d="M1314.72,1993.54c-4.12-.76-5.33.89-5.11,5,1,23.08,1.92,46.16,2.54,69.24.35,13,0,26,.11,39.06,0,5.33-2.45,9.13-7.56,8.59-6.82-.73-15.27,4.15-20.17-4.81"/><path class="cls-2" d="M1047.85,1993.54c.73,4.85,4.49,3.55,7.55,3.78,37.37,2.27,74.71,1.07,112-1.17,16-1,32-.92,47.83-1.35"/><path class="cls-2" d="M1367.59,1073.26V959.39h-62.92c-3.36,20.67-2.41,39.63-2.63,59.79h-29.51"/><path class="cls-2" d="M1636.31,882.39a116.84,116.84,0,0,1-19.53,4c7.1,13.71,1.78,27.87,2.72,41.49h-29c-3.66,27.06-3.66,27.06,27.82,27.06,2.22,8.29.87,16.78,1,25.17.23,17.49,6.07,23.91,24,25.12,5.84.39,11.75,0,17.61,0"/><path class="cls-2" d="M1199.5,1652.53c-1.07-5-8.08-7.6-14.45-6.43-32.13,5.95-64.61,3.09-96.93,3.78-13.42.28-26.86.82-40.28,1.24"/><path class="cls-2" d="M1264.37,2718.63c-33.55,1.78-67.23,1.4-100.75,2.36-38.63,1.1-77.14,4.94-115.77,5.1-42,.18-83.94,1.08-125.89,2.45-26,.85-52,.16-78.12.16"/><path class="cls-2" d="M1626.92,1925.56c2.47,7.55,1.35,27.7-.48,36.54-7.49-.36-15.46.87-24.07-1.46v22.19h26.54c.43,9.41,3.44,17.91.73,27.13-1.54,5.33,2,8.18,7.28,10.23,7.1,2.72,13.76,6.48,22.74,6.48v56.24"/><path class="cls-2" d="M1319.77,596.22c11.79.18,23.68-1,36,2.73a285.13,285.13,0,0,1,.78,53.94c-1.07,13.32.82,26.83.91,40.27q.28,40.28,0,80.57a245.85,245.85,0,0,1-1.33,24.86"/><path class="cls-2" d="M923.22,1406.92c-2.82,24.71-.6,49.51-1.21,74.28-.3,12.16,0,24.34,0,36.5"/><path class="cls-2" d="M967.36,1175.75c-12.89,2.24-32.83,11.52-45.33,5.79,2.52-33.32,5-73.45,5-107.44"/><path class="cls-2" d="M1647.05,1923l23.9-1.42c2.13,4.62,1.24,9.37,1.24,14,0,42-.6,83.94.25,125.87.66,32.76,3.55,65.46,4.69,98.2.76,23.08.5,46.16,0,69.24-.14,6.05,4.3,11.52,1.49,17.63"/><path class="cls-2" d="M1662.16,898.34c0,57.49-.3,115,.11,172.46.27,37.28.46,74.37,1.15,111.72,0,3.32-1.88,8.65-1.26,12.91"/><path class="cls-2" d="M1188,1291.63c-30.62.71-73-1.94-103.65.6-4.55.37-9.21-.73-13.83-1.15l-4.07-4.07"/><path class="cls-2" d="M594.67,651.61c-6.44,3.46-16,5-22.51,11.54.73,18.71-1.78,41.31-2.52,63.91-1,31,.14,62.14-2.13,93.1.36,8.42,2.41,15.78,2,25.23"/><path class="cls-2" d="M921.92,1182.54c0,52,1.3,172.35,1.3,224.39"/><path class="cls-2" d="M607.26,898.34c7.6,3.55,4,11.1,4.44,16.42.3,3.55,1.15,8.79-2.93,12.94,12.2,3.87,23.68,0,35,.6,6.27.32,10,1.38,12.78,7.71,5.24,11.82,8,23.74,6.07,36.61"/><path class="cls-2" d="M1516.14,2708.56c-11.33.43-22.69,1.56-34,1.12-39.52-1.53-79.06.73-118.27,3.55-30.73,2.2-71,4.56-101.71,5.72"/><path class="cls-2" d="M1546.35,1986c-11.66-3-23.52-1.19-35.24-1.08-25.6.27-51.2,2.09-76.78,2.18-32.38.11-64.5,5.59-96.93,3.92"/><path class="cls-2" d="M1425.51,997.79c-.8,11.43,8.31,8.08,13.87,8.57a95.5,95.5,0,0,0,18.85.25c0,19.07.43,35.67-.21,54.13-.25,7.33,2,10.28,9,10.08"/><path class="cls-2" d="M663.17,560c.75,11.77-6.14,32.08-12.13,41.08-2.31,3.55-7.81,1.78-12.32,1.78-31.1-.39-27.27-4-26,23.58.69,14.9-4.12,22.46-18.07,25.19"/><path class="cls-2" d="M1181.29,2673.31c-58.8-.85-117.42,4.79-176.24,4.24-10.65-.11-21.5,1.33-32.72,2.06-13.07.85-5.33,1.08-40.23.44"/><path class="cls-2" d="M1287,2169.78c7.69-5.89,16-1.3,25.17-3.09,0,25.3.73,48.84-.28,72.31-.55,12.61,3,20.59,15.39,23.93"/><path class="cls-2" d="M1206.46,1175.29c-1.4,4.15,4,12.13-7.55,11.24v-44c-31,0-199.78,2.52-230.8,2.52"/><path class="cls-2" d="M1226.56,2184.89c.78,16.78-2,33.41-.44,50.38,1.78,20.81.44,41.92.44,62.9"/><path class="cls-2" d="M680.87,557.47c-28.07-3-61.87,2.88-90,2.2-3.78-.09-18.36-.8-22.14-1.21"/><path class="cls-2" d="M924.48,1953.26V2064"/><path class="cls-2" d="M1315.82,833.36c0,3.78-.32,19.69-.32,24.73-28.53,0-58.87.8-86.16.8"/><path class="cls-2" d="M943.37,918.49h24v16.3H1010c.11,5.79.23,9.55.2,13.85"/><path class="cls-2" d="M1639.51,2091.73c-1,23.08-3.55,53.65-5.88,76.84-.57,5.56-1.78,20,13.44,18.84"/><path class="cls-2" d="M1277,1240.75v95.67h39.24"/><path class="cls-2" d="M1569,1122.21c-34.41.6-116.69,1.07-151.07.87s-68.83.62-103.22-.85c-10-.43-12.73,3.55-12.76,12.76a309.26,309.26,0,0,0,3.25,49.09c-9.75,0-17.75-.64-25.74-.16-3.16.2-1.69-2.34-2.52-3.55"/><path class="cls-2" d="M969.81,2134.52v67.07l-23.91,7.19"/><path class="cls-2" d="M966.49,1292.32H1020c.2-5.2.94-7.9-3.66-7.63-12.57.67-25.26,2.09-37.73,1-11.93-1-13.49,5.47-13.85,14.2a190,190,0,0,0,2.91,42.61c-11.17,5.52-23.47,5.06-34.66,9.69-5.22,2.17-6.07,3.71-6.09,8.15,0,5.56.89,9.23.2,17.1"/><path class="cls-2" d="M924.48,623.92V712"/><path class="cls-2" d="M1548.86,2295.65c-1.78-3.8-5.72-3.68-8.88-3.66-22.65.2-45.36,0-68,1.33-23.08,1.35-46.16,2.11-69.24,2.47-6.85.11-10-5.33-15.11-7.71"/><path class="cls-2" d="M1278.22,1834.89h-77.78c-5.52,26.2-2.73,22.58,17.36,22.65h11.33"/><path class="cls-2" d="M1668.89,1813.59c-11.36,3.25-29.45,6.5-42,10.07v33c10.87,3.27,21.93,6.18,32.68,10,5.47,1.94,10.14,1.88,10.14,6.78"/><path class="cls-2" d="M1206.46,1243.27c-3.73-2.81-7.53-5.73-7.55,2.52v36.36c-3.32,2.5-8.15,1.88-13.85,1.78-37.28-.69-74.74-2.45-112,.67l-6.09,1.47"/><path class="cls-2" d="M758.31,2356.08H675.22"/><path class="cls-2" d="M1395.22,554.68c-25.14-2.82-50.4-1.6-75.51-.69-9.36.34-18.41-1.63-27.73-.76s-19.28.2-28.94.2"/><path class="cls-2" d="M1647.05,2252.87c9.39-5.33,19.69-6.34,30.18-6.3,4.24,2.52,2.61,6.66,2.47,10.07-.6,16-2.38,31.49-2.34,47.93,0,15.61-.35,3.34,0,6.27,2.95,25.35,3.27,50.33,3.73,75.54.41,22.25.89,44.47,1.21,66.72,0,4.21.8,8.56-1.22,12.59"/><path class="cls-2" d="M864,752.31c.16,5,1.26,11.74-1.47,11.75-17.2,0-39.24-.12-56.44-.55-7.86.67-23.45-1-23.08,3.91"/><path class="cls-2" d="M1278.22,1721.62c2.59-15.89,1.78-32,.75-47.81-.57-9,.73-17.66.55-27.22-27-2.38-53.9-2.61-80.6,3.27"/><path class="cls-2" d="M1662.16,744.82V898.41"/><path class="cls-2" d="M1200.16,1845h78.12"/><path class="cls-2" d="M967.36,961.29v50.22c-13.4,3.55-25.23,8.2-37.74,9.69a397.27,397.27,0,0,0-2.52,51.49c6.91-1.6,13.51.21,20.11,1.92"/><path class="cls-2" d="M1639.51,2449.17c.73,48.25,3.14,96.47,2.77,144.76-.09,12.16,1.86,24.34-.25,36.5"/><path class="cls-2" d="M1200.16,1814.78c20.51,2.75,41.14.57,61.68,1.23,5.45.18,10.9,0,16.37,0"/><path class="cls-2" d="M1239.2,2695.94c-.55,10.65-6.48,13.39-16.37,12.76-12.13-.76-24.34.23-36.48-.32-7.83-.35-12.89,1.24-12.59,10.21"/><path class="cls-2" d="M1206.46,1175.29V1070.55L1196.4,1072"/><path class="cls-2" d="M1307.16,1871.43l-24.11,2.82c-5.33-7.86-4.19-15.2-3.3-21.68,2.52-18.57-1-36.95-.44-55.43.69-22.21.16-44.47.18-66.72,0-7.1-4.51-7.72-10.08-7.6-23.08.51-46.16.89-69.24,1.3"/><path class="cls-2" d="M1278.22,1744.35l-76.78,1.26"/><path class="cls-2" d="M788.52,601.26H749c-2.52,12.43,2.06,25.58-3.2,37.76"/><path class="cls-2" d="M1392.77,1281H1314.3"/><path class="cls-2" d="M922,1552.95v100.72"/><path class="cls-2" d="M1198.92,1804.71c.46,19.87.5,19.14,21.3,20.36,19.32,1.12,38.61.76,57.91,1"/><path class="cls-2" d="M568.75,558.41c.76,25.17.67,82.5,3.55,107.62"/><path class="cls-2" d="M1198.92,1741.77c0,11.33.14,22.65,0,34-.12,8,2.45,10.65,11.38,10.42,22.64-.64,45.31.5,68,.91"/><path class="cls-2" d="M1491,1005.34c-18.53,2-15.84.14-25.17,1.78v55.5"/><path class="cls-2" d="M1005.53,841.54c-21.16,1.49-10.37,1.15-15.43,1.17-9.92,0-14.43.23-22.81.23v34.6c-23.91-.27-3.07.66-32.74-1.24"/><path class="cls-2" d="M1309.68,1960.8v10.07h65.46"/><path class="cls-2" d="M1375.14,1064.51h60.36v49.71h32.74c0-5.33-1.26-38.81-1.26-43.43"/><path class="cls-2" d="M1277,1735.47h-73"/><path class="cls-2" d="M1482.85,956.89c18.09.5,37.28-7.1,52.8-2.63V929.08c-14.47-2.27-29.58,1.78-44.69.73"/><path class="cls-2" d="M929.52,1920.52a82.93,82.93,0,0,1,37.83,10.88v42"/><path class="cls-2" d="M1141,2391.33c-23.51,5.5-47,7.1-70.5,0"/><path class="cls-2" d="M1319.77,596.22c-1.31-6.28-2.63-22.64-3.94-29h-51.49"/><path class="cls-2" d="M740.7,2706c-2.81,14-11.54,17.75-25.21,16.67-12.43-1-28.69-1.78-41.22.53"/><path class="cls-2" d="M1266,833.68c.94-10.07-1-24.7,0-36h-57.36c1.21,11.75.37,25.49,1.94,44"/><path class="cls-2" d="M1314.3,1281c-1.47-13.63-.87-26,0-40.28-8-2.88-28.26-5.33-37.28,0"/><path class="cls-2" d="M1241.7,553.42h19.21c5.72,16.16-7.1,29.08-7.1,44.38a199.76,199.76,0,0,0-44.83-1.3v47.54"/><path class="cls-2" d="M962.24,1653.65c5,5.08,3.55,11.52,3.75,17.63s0,12.59,0,18.89c.3,15.34-.36,16.14-16.39,18.89"/><path class="cls-2" d="M1309.68,1929.34h-26.44c-2.49,6.16-1.37,12.62-1.1,18.87.35,8.56,4,16.87-4.78,24.41-2.7,2.33-2.33,11.49,0,15.66,4.76,8.59,4.58,17.66,4.63,28.41l-56.63,2"/><path class="cls-2" d="M1309.68,2668.28c68.83-1.26,137.54-7,206.46-5"/><path class="cls-2" d="M1347.44,2695.94c4.21,8,16.28,12.43,27.62,8.61s22.71-1.62,34.05-2.33"/><path class="cls-2" d="M1279.48,2007.39H1224c-2.56,7.55.78,13.85,0,20.81,19.4,2.17,38.9-1.44,58.09,1.78"/><path class="cls-2" d="M1176.25,1492.51H1045.33"/><path class="cls-2" d="M1188.83,575c1.62,3.39.75,23.74,10.07,23.9,5.1.09,2.43,4.94,2.38,7.37-.62,28.1.21,56.23-.55,84.37-.46,17.06-.09,85.08.76,102.26"/><path class="cls-2" d="M768.39,922.27c-7.94,5.33-16.79,5.33-25.19,6.2a162.16,162.16,0,0,1-16.62.11c-2,7.51-6.16,21.3-8.18,29"/><path class="cls-2" d="M1367.59,1073.26c43.59-.3,35.24-.3,57.11,0"/><path class="cls-2" d="M1277,1775.75l-76.78,1.26"/><path class="cls-2" d="M899.31,2716.11c-2.79,5.33-7.58,2.22-11.33,2.36-11.74.43-23.52.64-35.22,0a16.55,16.55,0,0,0-15.11,6.48"/><path class="cls-2" d="M1648.37,2252.1c-10.65,7.1-11.4,6.05-11.38,9.53v29h-29.28"/><path class="cls-2" d="M720.58,972.62c-3.76-4.31,2.43-9.53-2.15-15.11H665.17"/><path class="cls-2" d="M1135.5,932.33c21.71,1.6,50.85.62,72.22.75,5.43,0,10.9,1.78,17.63-.11v26.44h-17.61c-1.08,8.88-.71,41.76-1.28,49.71"/><path class="cls-2" d="M1446.28,554.68c2.52,10.07,5.57,23.95,8.22,34,1.14,4.31,3.55,7.28,8.77,6.34,13.35-2.38,26.84-1.12,40.28-1.26s19.42-25.28,20.13-44.53"/><path class="cls-2" d="M1136,2354.82c-20.93,2.79-42,.53-62.94,1.26"/><path class="cls-2" d="M922,1804.71v61.69c4.7,4.31,10.39-3,15.11,1.26"/><path class="cls-2" d="M1491,929.81c-20.15.43-106.17.91-126.32,1.31"/><path class="cls-2" d="M1641.07,1062c-3.82.64-16.76,3.78-21.73,4.62-.21,12.55,2.7,24.86.18,37-1,4.79.85,9.89-7.79,7.86-5.33-1.26-5.11,4.49-5,8.47"/><path class="cls-2" d="M1277,1807.23l-75.52,1.26"/><path class="cls-2" d="M927,974.14c-20.13-.82-22.65,1.78-73,1"/><path class="cls-2" d="M1618.1,739.72c4,.11,18.8,10.65,18.82,12.59.12,10.9-.23,21.84.14,32.72,0,4.78-.71,5-12.68,3.78"/><path class="cls-2" d="M927,1526.51c-1,15.11,3.25,30.18,0,45.33-.8,3.8,1,6.57,5,6.18,9.53-.91,16.69,6.75,25.21,7.21s9,7.21,8.33,10.42c-2.36,11.45,1.53,22.83-1.38,34.71h33.39v19.53"/><path class="cls-2" d="M1624.4,788.83c-3.55.18-8-1.49-7.62,5a106.53,106.53,0,0,1,0,16.35c-.34,3.71,1.49,6.89,3.94,7.33,13,2.36,25,10.65,39.06,6.53"/><path class="cls-2" d="M1128.42,2313.28v16.94h-48.79c-.73,1.47-1.56,2.33-1.51,3.14,1,15.32,1,15.29-15.16,15.13-7.23,0-14.5-.37-21.39,2.5"/><path class="cls-2" d="M1163.66,842.29c12.07,3.14,24.38-1.88,37.78-.3v18c5.41,3.68,31.09-.66,34.85-1.1"/><path class="cls-2" d="M922.74,741a88.09,88.09,0,0,0,12.85,1.15c16.64,0,24-3.46,22.51-28.41-11.4.11-19.37-1.78-33.63-1.78"/><path class="cls-2" d="M1278.22,1798.41H1204"/><path class="cls-2" d="M1308.9,2668.28c-39.06,7.55-49.71,3.55-62.14,3.16-19.32-.51-38.63.12-57.93-.66"/><path class="cls-2" d="M716.76,558.41c-2.68,3.78-2.43,7.86-.67,12.3-17,5.68-33.57,3.91-50.94,4.07"/><path class="cls-2" d="M1105.83,938.62c-5.57-7.39-13.33-3.55-20.15-3.55-11.75,0-23.51.5-35.24.91"/><path class="cls-2" d="M1425.67,1106.83c-.21,6.2,2,8.13-7.24,8.34-38.6-2.34-77.67-.21-116.29-.32"/><path class="cls-2" d="M1282,2080.39c-18.46,1.17-36.93-3.37-55.39,0"/><path class="cls-2" d="M894.26,2324.61a291.91,291.91,0,0,0-49.12-.34c-7,.6-10.1,2.89-11.31,9.14"/><path class="cls-2" d="M1226.56,2070.32H1282"/><path class="cls-2" d="M1282,2047.67h-55.43"/><path class="cls-2" d="M1282,2057.74h-55.43"/><path class="cls-2" d="M1188.83,576.16c.12-6.09-1.78-8.36-8.88-7.85-14.2,1-28.53.3-42.88.3-.35,4.39-4.69,9.13-3.67,15.11"/><path class="cls-2" d="M1669.71,2628c-11.27,3.21-21.71,5.65-29.67,17.13-6.21,9-15.48,18.18-30.82,16.1-16.49-2.22-33.5-.5-50.28-.5"/><path class="cls-2" d="M1183.81,2298.26c-14.7,5.33-30.18,2.93-45.31,5.08-2.93.43-6.21-1.47-8.88,1.23"/><path class="cls-2" d="M937.07,1715.34v54.13"/><path class="cls-2" d="M739.44,751.05l-73,1.26"/><path class="cls-2" d="M728.11,2325.87l-52.87,1.26"/><path class="cls-2" d="M1035.26,558.41c-3.8,3.41,2.54,7.94-1.78,11.82-15.29,3.89-31.35-.6-47.28.66-.36,0-4-12.78-4.47-13.63"/><path class="cls-2" d="M1118.26,843c-26.86-3.82-53.7,2.43-80.57,0"/><path class="cls-2" d="M928.3,1868.91c.78,15.09-1.51,30.18,1.19,45.33.8,4.49-3,6-6.23,7.55"/><path class="cls-2" d="M967.36,611.33c-.83,16.78,1.67,157-1.26,173.72"/><path class="cls-2" d="M1075.39,2676.57c-4.35,16.35-9.34,37.12-25,38.61-15.11,1.44-18.62-.94-46.6-.32"/><path class="cls-2" d="M929.52,1715.34l-1.23,49.09"/><path class="cls-2" d="M1128.42,2307c-14.68.43-29.36.94-44.06,1.19-3.75,0-7.1-.21-6.28,5.1"/><path class="cls-2" d="M924.48,2069.06c-.64,42,2.38,83.89,1.78,125.89-.34,21.75,1,46.16,1.15,67.93"/><path class="cls-2" d="M783.07,767.42a360.93,360.93,0,0,1-1.26,43H771.53v-43H666.41V752.31"/><path class="cls-2" d="M1125.9,2318.32c-16,1.14-32,2.88-47.83,0"/><path class="cls-2" d="M1261.43,911.7c0,12.61.43,34.44.43,46.48,4.81,3,8.88,1.23,12.59,1.78"/><path class="cls-2" d="M1642,661.8c2.91,16.3.41,36.39,1.35,52.75"/><path class="cls-2" d="M938,1019.73c.78,17.31-1.63,34.69-2.18,51.06"/><path class="cls-2" d="M1196.38,1074.42c-.34,15-1.24,39.18,0,55.57"/><path class="cls-2" d="M1652.82,1759.56c1.12,36,.83,6.76.2,27.36,1.78,9.46.46,18.66,1.58,27.87"/><path class="cls-2" d="M1161.14,2346c-22.25-1.26-44.49-2.29-66.7-4-4.7-.35-9.25,3.94-13.87.18"/><path class="cls-2" d="M872.91,921c-18.78,25.16-19.53,29.54-18.93,32.7,0,.48.75,3.36-.67,4.58a3.78,3.78,0,0,1-3.09.44c-3.55-.69-21-1.07-46.59-1.26"/><path class="cls-2" d="M1684.82,2514.7c.6,20.15-1.54,40.43,2.52,60.36"/><path class="cls-2" d="M1226.56,2100.54c17.17-2.25,34.41-.78,51.61-1.24,6.23-.16,6.52,4.21,6.27,9.41-19.17,2.36-38.69-1.42-57.88,1.9"/><path class="cls-2" d="M940.85,2050.19v47.93c-4.46,2.08-9.21,1-13.85,1.23"/><path class="cls-2" d="M611.66,737.29c1.56,9.84,3.68,22.35,1.54,35.51a225.91,225.91,0,0,0-3.28,44.81c-9.75,9.57-23.83,11.17-37.92,12.75"/><path class="cls-2" d="M935.81,1530.28v45.33"/><path class="cls-2" d="M1551.45,2323.35h50.35"/><path class="cls-2" d="M1672.17,2572.61c5.47,4.74,3.23,11.54,2.06,16.24-2.27,9.2,0,17.75.46,26.63"/><path class="cls-2" d="M1655.88,1867.65c-3.39,17.56.27,35.28-1.26,52.87"/><path class="cls-2" d="M1513.62,2688.41c.53,6.27,2.66,8.49,10.1,7.92,15.85-1.21,31.87-.37,47.81-.37"/><path class="cls-2" d="M665.15,2356.08c-18.09,0-25.17-1.63-43.27,1.69"/><path class="cls-2" d="M935.81,1185.36c3.3,17.08-.5,34.51,2,52.5-3,6-9.36-2.66-13.35,1.63"/><path class="cls-2" d="M964.76,1507.62c3.85,11.13-36.5,15.69-43.12,15.62"/><path class="cls-2" d="M1662.16,744.82V717.44c-16.4-4.28-30.18,1.3-45.47,6.39.83,5-1.15,10.44,1.42,16"/><path class="cls-2" d="M969.81,1979.69h26.72c2.82,6.11,2,12.43,2.22,19.71-11.26,1.26-22-1.47-31.46,4.21"/><path class="cls-2" d="M929.52,1184.42c-1.26,16,.23,37.87,0,53.81"/><path class="cls-2" d="M1168.7,2346c4.79,12.43,2.59,25.1,1.3,37.76-.41,3.94-3.21,2-5.08,2.52"/><path class="cls-2" d="M1662.16,1195.42l1.26,62.94"/><path class="cls-2" d="M966,785.65c-8.58-.16-18,1.14-26.44.69-7.76-.43-4.15,33.15-5,36.54"/><path class="cls-2" d="M1660.9,1216.84c-11.81-2.57-21.3,6.25-32.72,6.68-4.78.18-3.69,9.32-5,19.76"/><path class="cls-2" d="M969.75,813c-.83,7.72-2.27,11.59-15.09,11.18-6.68-.21-13.53,1-20.11-1.42"/><path class="cls-2" d="M1364.65,898.42c-4.12-.76-7.37.82-7.23,5,.34,9.23.11,18.5.11,29h-34"/><path class="cls-2" d="M1624.4,1386.77c-4.21,1.88-1.69,4.6-1.49,7.56.62,9.6.23,19.28.23,28.94"/><path class="cls-2" d="M1201.42,795.12c0,9.66-.2,19.32,0,29,.2,7.24-2.95,10.08-10.14,10.19-9.23.14-18.57-1.46-27.7,1.14"/><path class="cls-2" d="M929.52,2211.27c3.78-2.18,7.55-1.31,12,.23,2.41,16-2.17,32.81,3.11,48.86"/><path class="cls-2" d="M1662.16,1161.44c-12.57,2.47-29.26-9.71-41.54-8.88"/><path class="cls-2" d="M626.79,2683.18c11.11,4.51,27.34,3.85,35.77,3.76"/><path class="cls-2" d="M1356.53,793.87c0,19.53.18,36.48,1,54.11"/><path class="cls-2" d="M801.11,2353.56c37.76,0,75.54.48,113.29-.3,11.13-.23,21.71-1.78,31.57,5.2,3.55,2.43,7.37,2.22,11.34-1,9.09-7.4,20.75-8.59,31.32-7.24,17.75,2.24,35.38-3,52.92.83"/><path class="cls-2" d="M1282,2090.54h-55.43"/><path class="cls-2" d="M1198.92,1691.41c-.48,9.64.71,19.32-1.08,29-.92,5-1.15,10.51,4.72,14,1.49.89-.87,3.55-2.38,4.81"/><path class="cls-2" d="M934.26,1351.71c.43,11.29.34,44.1.76,55.2"/><path class="cls-2" d="M1683.55,2562.52c-5.88,2-11.24,6.11-17.75.25-3.25-2.89-8.72-3.55-13.63-2.75"/><path class="cls-2" d="M1277,1074.58c2.52,0,5,.12,7.55,0,17.63-1,21.46,2.66,18.61,20.11,0,5.33-.39,15.16-1,20.19"/><path class="cls-2" d="M1489.92,1069.34c-16.37,0-15.09.21-15.41,17.75-.14,8,1.88,16,1,25.17H1569"/><path class="cls-2" d="M1245.48,800.16c0,6.3-.41,12.62,0,18.87,1.17,14.9-.55,17.11-15.18,17.61a70.21,70.21,0,0,1-12.57-.11c-5.41-.82-6.57,2.5-7.56,6.41"/><path class="cls-2" d="M932,2050.19V2098"/><path class="cls-2" d="M1449,566h-55l-3.78,15.11"/><path class="cls-2" d="M799.85,558.41a25.73,25.73,0,0,0,0,16.33c17-4.31,34.51.39,52.23-1.78L854,559.69"/><path class="cls-2" d="M1286.5,2202.84c-1.35-25.55,0-28.41.53-33.06"/><path class="cls-2" d="M1620.69,1123.68v28.94"/><path class="cls-2" d="M1644.53,826.59c3.94,17.06,2.06,34.39,2.52,51.61"/><path class="cls-2" d="M922,751.07c-6.28.57-15.07-.12-21.62.46a14.75,14.75,0,0,0,.21,12.11c6.59-2.43,13.44-.66,21.41-1.49V876.32c3.55-.11,9.11.11,12.59,0"/><path class="cls-2" d="M1491,997.17a374.28,374.28,0,0,1-56.39,1"/><path class="cls-2" d="M1674.75,2191.17c-9.71,2.22-18-5.65-27.7-3.78"/><path class="cls-2" d="M1226.56,1766.95c-8.88,1.49-17.63-2.63-26.44,0"/><path class="cls-2" d="M737.07,625.6a64.69,64.69,0,0,0,0-13.65c-.55-4.53-.57-8.45-3.85-10.65-2.75-1.88-3.94-1.51-6.39-2.09-4.14-1-8.63-7.1-10.65-28.8"/><path class="cls-2" d="M1649.57,1598.25c0,11.75.12,23.51,0,35.24v20.15"/><path class="cls-2" d="M964.76,2038.85c-13.85,1.26-26.44,11.33-42.34,9"/><path class="cls-2" d="M1371.38,2289.38c-7.65,8.2-16.21,7.37-25.17,2.52"/><path class="cls-2" d="M964.16,1245.21c1.78,11.26-1.92,31.1,3.12,42.13"/><path class="cls-2" d="M1290.81,797.64a60,60,0,0,1,1.35,23.93c-1.15,7.33.94,13.33,9.92,11.1,5.49-1.37,17,6.44,14.59-9.94a72.69,72.69,0,0,1,.57-23.81"/><path class="cls-2" d="M1664.68,1376.71c-7.1.83-33.15,9.23-40.28,10.07"/><path class="cls-2" d="M1662.16,865.54v17c-9.23-7.1-29.76,2-37.73,2.31"/><path class="cls-2" d="M1659.64,1060.73l-20.15,1.26"/><path class="cls-2" d="M1589.14,2663.24c-.6,7.44-4.37,13.67-7.55,20.15"/><path class="cls-2" d="M1300.88,797.64c-2.68,6.57-.57,13.44-1.26,20.15"/><path class="cls-2" d="M1226.56,2036.34c6.28,4.33,13.4,1.88,20.15,2.52"/><path class="cls-2" d="M1669.71,2082.91a72.56,72.56,0,0,0-30.18,8.88"/><path class="cls-2" d="M1284.51,797.64v34"/><path class="cls-2" d="M584.59,831.62v58"/><path class="cls-2" d="M1236.84,836.82c-.55,14.74,4.72,22-20.29,21.3"/><path class="cls-2" d="M932,931.07c4.51-6.94,7.1-6.07,11.33-12.59"/><path class="cls-2" d="M927,1378c-.6,6.28,1.35,12.73-1.26,18.89"/><path class="cls-2" d="M572,713.29c11.34.66,21.73,5.45,32.74,7.55"/><path class="cls-2" d="M1042.81,2353.56a27,27,0,0,1,0,17.63"/><path class="cls-2" d="M942.11,2098c5.06,4.35,11.45,5,17.63,6.3"/><path class="cls-2" d="M1199.5,1652.53c0,6.3,0,34.94-.6,41.08"/><path class="cls-2" d="M1162.4,2386.3c-5.52.35-11.4-1.44-16.37,2.52"/><path class="cls-2" d="M777.2,922.27a90.54,90.54,0,0,1,21.39,21.39c1.26,8.4,2.52,22.12,3.78,30.52"/><path class="cls-2" d="M1307.16,798.9v31.67"/><path class="cls-2" d="M832.13,2337.62c-2.41,5.33-8.18,8.61-5.84,14.68"/><path class="cls-2" d="M1682.31,2476.93c1.49-7.31-2-12.34-8.75-16.39l-13.9,3.8"/><path class="cls-2" d="M1246.75,831.62c4.19,2,14.81,2.52,25.83,1.23"/><path class="cls-2" d="M964.16,1245.21c-4.19-1.26-20.38-4.46-24.57-5.72"/><path class="cls-2" d="M1283.25,2018.71c.37,27.27,2.72,54.56,0,81.83"/><path class="cls-2" d="M1293.33,831.62c-8.88,2.15-25,2.52-34.46,1.54"/><path class="cls-2" d="M611.59,739.72c0-6.6,1.26-15.41-6.87-18.89"/><path class="cls-2" d="M1224.09,2030q.62,40.83,1.24,81.83c0,5.91-1.78,7.63-6.27,2.52"/><path class="cls-2" d="M1210.58,841.67c-.16,4-2.38,14.56,3.43,15.13"/><path class="cls-2" d="M1202.68,1787.08c-4.86,4.37,3.55,10.94-2.52,15.11"/><path class="cls-2" d="M1577.81,550.9c-4.12,6.2.76,11.75,1.26,17.63"/><path class="cls-2" d="M1576.55,2693.46c-1.78,5.08,4.58,6.11,5,10.07"/><path class="cls-2" d="M1624.4,1423.27c21,3.75,27.62,6.82,37.76,7.55"/><path class="cls-2" d="M1246.75,2673.31l-2.52,10.07"/><path class="cls-2" d="M1322.27,797.64c-22.8,0-34.46-.94-59.63,0"/><path class="cls-2" d="M901.83,2319.57c-5.75-.2-7.31,1.78-5.33,7.65,1,2.82,4.17,5.15,2.79,8.72"/><path class="cls-2" d="M1129.68,2332.17c2.54,3.36,1.22,6.71,0,10.07"/><path class="cls-2" d="M922,1910.45v17.63"/><path class="cls-2" d="M1424.41,958.45c0,2.93.73,36.45,1.1,39.34"/><path class="cls-2" d="M570.74,887c8.43.37,29.24,6.53,36.5,11.33"/><path class="cls-2" d="M1683.55,2624.22l-8.88-1.26"/><path class="cls-2" d="M1221.57,1997.32c.67,2.89-1.44,6.2,1.26,8.88"/><path class="cls-2" d="M1299.62,815.5v16.14"/><path class="cls-2" d="M1665.94,1653.65h-16.37"/><path class="cls-2" d="M944.61,1711.56c-7.39,2.29-15,2.52-22.65,2.52"/><path class="cls-2" d="M673.57,2717c1,4.47,1.62,8.63-1.54,14"/><path class="cls-2" d="M1411.66,2704.82l2.52,3.78"/><path class="cls-3" d="M1207.3,1244.26c0,2.66,1.26,8.1,1.26,10.76v243.51"/><path class="cls-2" d="M1276.59,1396.84h30"/><path class="cls-2" d="M1316.2,1290.32v46.16"/><path class="cls-2" d="M967.61,1145.08v30.18"/><path class="cls-2" d="M929.54,1021.19c0-15.11-1.78-32-1.78-47"/><path class="cls-2" d="M737.18,624.27a72.28,72.28,0,0,0-.75,10.35c.3,3.44.83,6.89,2.52,8s6.76-1.1,8.18-7.69"/><path class="cls-2" d="M788.52,600.86c2.38-3.85,8.88-22.23,11.31-26.08"/><path class="cls-2" d="M922.74,741c-.14,2.24-.34,7.85-.48,10.08"/><path class="cls-2" d="M1005.53,841.54c.21-2-.21-10.4,0-12.43"/><path class="cls-2" d="M970.23,829.9c11.77,0,23.52-.8,35.29-.8"/><path class="cls-2" d="M970.23,829.9c0-3-.48-13.67-.48-16.65"/><path class="cls-2" d="M967.5,610.07c1.35-2.88,3.87-14.31,5.45-17.31,2.49-4.72,7.85-13.71,10.37-17.75"/><path class="cls-2" d="M982.07,576.71l4.08-5.77"/><path class="cls-2" d="M852.06,573c4.47,5.17,17.75,15.73,24.27,21.3A168.66,168.66,0,0,0,904,613.44a213.16,213.16,0,0,0,20.45,10.39"/><line class="cls-4" x1="570.65" y1="973.72" x2="927" y2="975.14"/><line class="cls-4" x1="1660.9" y1="547.76" x2="1661.84" y2="719.59"/><path class="cls-4" d="M614.81,2569.18c.27,5.63-17.75,89.37,5.33,109.52a22,22,0,0,0,7.21,4.67"/><path class="cls-5" d="M634.21,2356.14c-11.08,1.33-10.65,1.12-16.46,2.61-3.32.85-6.32,8.61-5.33,16.83"/><line class="cls-4" x1="659.7" y1="2356.16" x2="679.41" y2="2355.73"/><line class="cls-4" x1="757.3" y1="2356.16" x2="801.66" y2="2353.46"/><line class="cls-6" x1="1141.32" y1="2391.96" x2="1146.99" y2="2387.86"/><line class="cls-4" x1="1158.19" y1="2345.97" x2="1169.77" y2="2345.41"/><line class="cls-6" x1="1168.75" y1="2344.9" x2="1279" y2="2351.33"/><line class="cls-4" x1="1549.18" y1="2294.71" x2="1549.82" y2="2323.05"/><line class="cls-4" x1="1607.69" y1="2290.63" x2="1608.03" y2="2323.67"/><line class="cls-4" x1="1600.77" y1="2323.28" x2="1610.43" y2="2323.28"/><line class="cls-4" x1="1550.31" y1="2323.28" x2="1547.35" y2="2323.28"/><line class="cls-4" x1="1639.51" y1="2449.66" x2="1639.51" y2="2333"/><line class="cls-4" x1="1551.38" y1="2333.5" x2="1641.99" y2="2333"/><line class="cls-4" x1="1681.67" y1="2477.36" x2="1685.03" y2="2515.33"/><line class="cls-4" x1="1639.51" y1="2471.68" x2="1660.48" y2="2464.35"/><line class="cls-4" x1="1652.31" y1="2560.02" x2="1642.65" y2="2560.64"/><line class="cls-4" x1="1669.87" y1="2565.36" x2="1672.71" y2="2573.71"/><line class="cls-4" x1="1686.63" y1="2569.54" x2="1687.27" y2="2580.45"/><line class="cls-4" x1="1674.52" y1="2614.12" x2="1675.26" y2="2623.13"/><line class="cls-4" x1="1669.32" y1="2628.12" x2="1675.16" y2="2623.49"/><line class="cls-4" x1="1642.44" y1="2628.83" x2="1640.34" y2="2644.05"/><line class="cls-4" x1="1582.54" y1="2681.49" x2="1576.25" y2="2694.08"/><line class="cls-4" x1="1560.04" y1="2661" x2="1511.72" y2="2663.45"/><line class="cls-4" x1="1514.01" y1="2708.39" x2="1547.62" y2="2706.13"/><line class="cls-4" x1="1510.26" y1="2662.23" x2="1513.62" y2="2687.79"/><line class="cls-4" x1="1571.85" y1="2696" x2="1576.04" y2="2695.59"/><line class="cls-4" x1="1515.06" y1="2693.97" x2="1513.58" y2="2707.22"/><line class="cls-4" x1="1410.63" y1="2703.52" x2="1429.27" y2="2665.33"/><line class="cls-4" x1="1334.86" y1="2667.96" x2="1348.03" y2="2696.81"/><line class="cls-4" x1="1352.81" y1="2702.97" x2="1346.04" y2="2713.59"/><line class="cls-7" x1="1244.44" y1="2682.38" x2="1238.95" y2="2696.76"/><line class="cls-7" x1="1190.57" y1="2670.66" x2="1176.46" y2="2673.27"/><path class="cls-8" d="M1170,2672.86l2.18,11.5c1.69,8.88,2.56,13.33,4.6,17a31.78,31.78,0,0,0,5.81,7.53"/><path class="cls-8" d="M1233.06,2707.3a12.43,12.43,0,0,1,7.1,11.65"/><path class="cls-9" d="M1062.13,2709c.36,1.67,4,8.38,4.3,10.26s.5,4,.62,5.82"/><path class="cls-9" d="M1002.53,2714.85c-1.78-1.53-2.33-.46-4.24-3.94a24.11,24.11,0,0,1-3.14-9.29c-.34-3,.32-3,0-6.3-.36-3.71-1.3-4.83-2.2-9a41.79,41.79,0,0,1-.94-7.71"/><path class="cls-9" d="M999.54,2726.34c2-2.68,2.25-8.88,4.24-11.49"/><path class="cls-10" d="M899.31,2716.11c2.93-1.24,4.44-6,6.3-10.65a39.75,39.75,0,0,0,2.52-9.69,61.31,61.31,0,0,0,.32-6.14v-8.73"/><path class="cls-10" d="M897.83,2718.74c.73.51,6,4.42,5.56,9.55a7.28,7.28,0,0,1-.53,2.1"/><path class="cls-9" d="M839.74,2723a12,12,0,0,0-3.94,4.79c-.5,1.12-.37.27-.5,1.12"/><path class="cls-9" d="M843.7,2719a24.14,24.14,0,0,1-10.07-8.88,29.33,29.33,0,0,1-2.93-6.92c-.44-1.65-.34-1.78-1-5.33s-1.12-4.44-1.69-7.1a63.26,63.26,0,0,1-1-7.1"/><path class="cls-9" d="M740.48,2706.26a43.07,43.07,0,0,0,1.88-9.85,21.5,21.5,0,0,0-.21-5.66,19.53,19.53,0,0,0-1.47-4.62"/><path class="cls-9" d="M662.56,2690.72a48.16,48.16,0,0,0,1.54,5.88,68,68,0,0,0,3.78,8c2.84,5.1,3.55,4.76,4.4,7.55a44.13,44.13,0,0,1,1.69,5.66c.3,1.67-.5,4.7.3,5.45"/><path class="cls-9" d="M733.13,2720a46.6,46.6,0,0,1,3.46,4.19,37.28,37.28,0,0,1,3.36,5.33c.71,1.4.37.48.71,1.4"/><path class="cls-4" d="M671,2315c.78,2.56,1.33,4.63,1.69,6.09a12.2,12.2,0,0,0,1.88,5c.78,1,2.31.85,2.31,2.1"/><path class="cls-4" d="M675.86,2328.71c-.83,5.79,2.11,8.34,3.3,10.87s1,5.65,2.36,9.91c.6,2,2,5.49,2.36,6.53"/><path class="cls-4" d="M730.61,2331.21c-.2,3.55-.55,7.21-1.1,11.17-.6,4.31-1.37,8.31-2.2,12"/><path class="cls-4" d="M725.91,2314.24c2.79.11,8.2.44,9.8.46H739c2.13,0,6.6-.69,8.06-.28"/><path class="cls-4" d="M836.37,2327.66c-1.15,1.78-2.52,6.23-4.72,11.06"/><path class="cls-4" d="M832.59,2313.81a43.89,43.89,0,0,0,5,10.28"/><path class="cls-4" d="M899.52,2334.58c.16,2.47-1.78,5.68-1.78,9.23a28.41,28.41,0,0,0,1.78,9.76"/><path class="cls-4" d="M900.46,2319.57a9.3,9.3,0,0,0,10.49-7.76"/><path class="cls-4" d="M927.32,2267.49c.14,1.24.18,3.41.36,4.58"/><path class="cls-4" d="M943.62,2257.16a13.39,13.39,0,0,0,3.68,6c2.75,2.2,5.43,3.55,7,5.45"/><path class="cls-4" d="M940.42,2211.94a4.58,4.58,0,0,1,1.88-2,21.16,21.16,0,0,1,3.78-.83,7.1,7.1,0,0,0,2.77-1.53"/><path class="cls-4" d="M953.77,2103.13c1.42.14,8.88,1.17,11.61,3.28a15,15,0,0,1,4.4,5.66,20.86,20.86,0,0,1,2.31,11.33c-.27,2.84-1.78,3.16-2.29,7.1-.36,2.81.83,5.81-.21,7.69"/><line class="cls-4" x1="924.52" y1="2060.72" x2="924.52" y2="2074.57"/><path class="cls-4" d="M921.89,1915.85c0,2.24.43,14.2.71,16.64,1.4,11.81,1.46,22.71,1.78,31.12"/><path class="cls-4" d="M967.36,1962.81c.43,2.52-1.9,14.63.78,16.4,1.92,1.28,7.42.59,11.88.39"/><path class="cls-4" d="M971.46,2001.56c-5.7,1.65-7,6.59-7.53,10.44-.39,2.68,0,3,0,8.4s-.57,6.68-.43,11.11a70.42,70.42,0,0,0,1.21,8.4"/><path class="cls-4" d="M1059.55,1976.58c-10.47.12-12.57,1.1-12.94,3.73a23.74,23.74,0,0,0,3.07,16"/><line class="cls-4" x1="1077.84" y1="2311.75" x2="1078.28" y2="2333.59"/><path class="cls-4" d="M1128.58,2307.3c.09,2.75-.44,5.5-.23,8.54a98.07,98.07,0,0,1,.11,10"/><path class="cls-4" d="M1183.47,2298.39a14.63,14.63,0,0,0,6.5-7.55c.75-2.24.51-3.83,1.78-4.78,1.78-1.21,5-.43,6.89,1.33s1.3,3.12,3.18,7.81c1.44,3.55,2.47,6.14,4.9,7.55,1.9,1.1,3.71,1,7.28.66,5.2-.43,9.68-.2,11.52-3.36,2.1-3.55.59-9.75,1.26-13.42"/><line class="cls-4" x1="921.89" y1="1865.77" x2="921.89" y2="1917.38"/><line class="cls-4" x1="921.89" y1="1768.12" x2="921.89" y2="1807.57"/><line class="cls-4" x1="921.89" y1="1714.31" x2="921.89" y2="1759.51"/><line class="cls-4" x1="928.62" y1="1754.91" x2="928.26" y2="1769.77"/><path class="cls-4" d="M1226.56,2185.58c-.2-.43-3.92-12.43,0-16.65,1.78-1.78,4.23-2.06,8.88-2.52,3.8-.37,8.42-.83,10.92.43,6.27,3.16,3.69,19.53,2.1,32.74-6.87,57.15,1.78,79.32-3.78,96.93a6.37,6.37,0,0,0,0,5c2.45,4.28,11.49.83,29.79,1.69,8.77.41,9.69,1.33,11.75,0,5.43-3.55,2.8-12.69,1.69-40.28-.69-17.06-1-25.6-.43-32a104.1,104.1,0,0,0,.43-19.3c-.32-4.28-1.24-12-1.92-23.19"/><path class="cls-4" d="M1325.57,2262.35a16.4,16.4,0,0,1,8.5,5.61c2.82,3.68,3.44,6.69,5.66,12,1.12,2.66,3.18,10.35,7.51,12.43"/><path class="cls-4" d="M1365.82,2293.77c4.35-2.63,6.46-6.46,8.65-8.24a9.78,9.78,0,0,1,6.09-2.09c3.39,0,1.78,3.55,19.94,11.86"/><line class="cls-4" x1="1071.61" y1="2347.83" x2="1073.1" y2="2356.16"/><line class="cls-4" x1="1136.8" y1="2344.76" x2="1135.93" y2="2355.18"/><path class="cls-6" d="M1042.83,2369.84c-1,2.08,1.1,6,3,8.7,1.58,2.18,3.73,4.08,9.23,6.92a84.29,84.29,0,0,0,15.43,6.09"/><line class="cls-4" x1="1219.05" y1="2114.71" x2="1216.53" y2="2045.04"/><line class="cls-4" x1="1245.91" y1="2038.97" x2="1282.43" y2="2038.54"/><path class="cls-4" d="M1312.31,1993.64c7.46.73,10.65-4.6,25.39-2.61,12.43,1.65,23.08-.5,32.83-.43"/><line class="cls-4" x1="1546.3" y1="1973.87" x2="1546.14" y2="1985.78"/><path class="cls-4" d="M1369.24,1971c8.68.62,10.65-.87,14.5-1.21,1.92-.18,5-.44,9.13-.66s6.14-.43,11.54-.76c1.19,0,4.55.18,5.22.14"/><line class="cls-4" x1="1309.65" y1="1929.16" x2="1309.77" y2="1962.45"/><path class="cls-4" d="M1227.94,1857.51c12.43-.48,12.69,0,18,0H1279"/><path class="cls-4" d="M1199.06,1773c-.71,6.14-1.42,17-1.42,22.9v81.19"/><path class="cls-4" d="M1306.75,1745.13v99c0,8.66.43,18.29.43,26.95"/><path class="cls-4" d="M1225.76,1767a116.88,116.88,0,0,1,15.11-.12h37.76"/><path class="cls-4" d="M1048.17,1652c-.94-5.82.32-13.28.32-19.09v-6.75"/><path class="cls-4" d="M1085.56,1627.17H1046"/><path class="cls-11" d="M959.88,1651.32c.83,0,2.22-1.24,3.05-1.24h25.23c3.36,0,6.25.62,9.6.62"/><path class="cls-4" d="M964.71,1658.15a19.65,19.65,0,0,1-4.24-6.84c0-.89.82-1.07,1-1.24,1.63-1.65,9.6,0,11.7,0"/><path class="cls-4" d="M942.15,1712.29a52.82,52.82,0,0,0,7.79-3.27c1-.39,5-.69,5.93-1.1"/><path class="cls-4" d="M922.07,1652.76c0,4.72.37,10.49.37,15.21v40.6c0,2.15-.55,5.08-.55,7.23"/><path class="cls-4" d="M922.1,1517.46c0,3.55.44,8.17.44,11.75v13.08c0,4.35-.44,10.16-.44,14.49"/><path class="cls-4" d="M935.2,1522.3c0,3.55.71,8.4.71,12"/><path class="cls-2" d="M1011,948.86h32.28c3.25,0,7.78.41,7.71-.21-.34-3,0-8.5-.64-12.75"/><path class="cls-2" d="M1105.83,938.62a35.5,35.5,0,0,0,4.72,4.08,18,18,0,0,0,12.59,2.52,14.2,14.2,0,0,0,8.18-3.14,13.71,13.71,0,0,0,4.24-9.76"/><path class="cls-2" d="M872.91,921c14.86,7.69,25.55,2.89,28.92,2.49,5.18-.62,26.06,9.39,29.12,7.55"/><path class="cls-2" d="M1033.44,570.28a217,217,0,0,0,12.68,18.3c3.55,4.33,11,9.41,14.33,12.75"/><path class="cls-2" d="M1080.66,602.31c7.42-2.09,13.32-3.71,17-4.72,10.53-2.86,14.88-3.94,21.09-6.6,4.15-1.78,12.68-6.18,14.72-7.35"/><path class="cls-2" d="M1137.58,556.44v11.72"/><path class="cls-2" d="M1163.66,835.9V842"/><path class="cls-2" d="M1316.93,557c0,1.88-1.07,8.34-1.12,10.23"/><path class="cls-2" d="M1357.53,848h7.21"/><path class="cls-2" d="M1395.22,554.68c-.16,1.47-1.1,9.85-1.26,11.33"/><path class="cls-2" d="M1261.43,911.7h62.24"/><path class="cls-2" d="M1323.67,911.7c0,3.55-.14,16.92-.14,20.56"/><path class="cls-2" d="M1364.65,899v32.19"/><path class="cls-2" d="M1274.49,960.54V982c0,5.17-.6,9.52-.6,14.68,0,5.95-1.24,16.49-1.24,22.44"/><path class="cls-2" d="M1425.4,1073.26c0,4.35.21,12.34.21,16.69v19.88"/><path class="cls-2" d="M1276.27,1074.74v31.19c0,20.24.62,54.17.62,74.41"/><path class="cls-2" d="M1569,1112.32c.11,3-.11,6.82,0,9.87"/><path class="cls-2" d="M1489.92,1062.61v6.71"/><path class="cls-2" d="M1465.79,1062.61h24.13"/><path class="cls-2" d="M1491,1005.34v-8.18"/><path class="cls-2" d="M1434.58,958.45c0,5.33-.27,16.58-.27,21.93V998"/><path class="cls-2" d="M1606.77,1119.9c3.27,0,10.65,3.78,13.85,3.78"/><path class="cls-2" d="M1649.57,1653.65c-5.68.41-24.32,4.92-33,14.47-6.46,7.1.11,13.85-2.2,30.84-2.59,19-4.83,27.68-.94,35.24,7.51,14.61,13.65,19.53,26.12,22.65a92.67,92.67,0,0,0,27.7,2.52"/><path class="cls-2" d="M1648,1923c-3.21,0-17.86,2.52-21.09,2.52"/><path class="cls-2" d="M1656.29,1485.15l7.1-.62"/><path class="cls-2" d="M1655.56,1324.64v52.07"/><path class="cls-2" d="M1652.1,1161.76c0,16,.62,38.63.62,54.59"/><path class="cls-2" d="M1654.62,1005.48v55.27"/><path class="cls-2" d="M1524.64,560.34h51.49"/><circle class="cls-2" cx="890.48" cy="890.39" r="5.45" transform="translate(-34.03 1745.39) rotate(-87.76)"/><path class="cls-2" d="M876,857.43a41.08,41.08,0,0,0-18.73,19.09c-6.34,14.68,6.37,30,8,32a37.09,37.09,0,0,0,26,13c17,.75,27.61-11,29-12.59"/><path class="cls-2" d="M876,857.43c4.72,7.1,6.25,14.2,11.86,27.06"/><path class="cls-2" d="M862.15,871c11.34,9.23,8.88,5.79,23.08,18.06"/><path class="cls-2" d="M858.08,890.4a33.86,33.86,0,0,0,9.91,1.42c5.95.21.2-.12,8.38.36a55.85,55.85,0,0,1,7.53.62"/><path class="cls-2" d="M885.69,896.24,876,901.57l-10.39,3.85"/><path class="cls-2" d="M890.29,895.85c0,3.55-4,13-5.06,16.33-1.19,3.91-2.38,5-2.38,7.79"/><path class="cls-2" d="M894.26,895.83l4,5.88c3.2,4.7,4.69,7.4,7.35,11.75a27.82,27.82,0,0,0,3.36,4"/><path class="cls-2" d="M896,890.61c6,4.35,9.21,7,13,9.62,7.42,5.11,8.08,5.41,11.27,8.61"/></g></svg>