<svg xmlns="http://www.w3.org/2000/svg" viewBox="0 0 1288 1980"><defs><style>.cls-1,.cls-3{fill:#6799d1;}.cls-2{fill:none;}.cls-2,.cls-3{stroke:#000;stroke-linecap:round;stroke-linejoin:round;stroke-width:2.5px;}</style></defs><title>Plantegning studeplan</title><g id="Layer_2" data-name="Layer 2"><polygon class="cls-1" points="245.06 1476.19 261.5 1475.56 272.19 1474.88 278.63 1475.88 286.81 1475.88 298.5 1475.3 326.25 1473.53 365.38 1472.28 375 1472.28 424 1469.78 473.63 1469.78 481.38 1476.19 491.75 1474.78 496.25 1469.78 503 1467.66 520.75 1467.91 571.63 1466.5 631.13 1464 669.13 1463.13 728.25 1460.83 731.58 1461.92 741.29 1465.83 745.5 1465.3 750.25 1462.92 752.25 1460 753.53 1459.31 755.78 1459.78 765 1458.54 780.58 1458 826.13 1457 884.04 1456.09 947.06 1452.25 982.25 1451.13 989 1452.44 995.63 1454.82 1004.69 1460.38 1006.03 1471.06 1008.17 1497.75 1007.31 1552.81 1008.58 1555.71 1009.04 1559 1010.15 1616.38 1012.66 1682.42 1009.5 1687.17 1003.75 1692.58 999.25 1695.42 993.92 1696.08 986.5 1697.24 910.31 1697.88 834.29 1701.83 680.04 1708.39 656.21 1709.21 503.79 1714.01 494.54 1709.96 483.92 1710.44 481.46 1713.63 478.58 1716.08 466.42 1716.67 400.66 1719 315.29 1720.31 273.67 1721.82 259.13 1721.38 250.56 1721.5 244.06 1717.75 239.38 1713.44 235.12 1711.1 235.12 1653.54 234.09 1633 230.38 1629.84 212.44 1626.06 211.18 1577.44 214.88 1574.09 227.08 1569.17 232 1565.97 234 1561.25 233.67 1549.33 232.94 1510.31 232.75 1497.63 232.94 1487.5 237.66 1480.02 245.06 1476.19"/><path class="cls-1" d="M500.58,1204.08l3.13-.46h17.88l40-1.87,17.92-1.19s16.83-.19,17.08,0,9.42,0,9.42,0l5-.61,3.35.85h10l15.51-1.22,4.1.27,1.9.27,1.13-.72.79-.42H650l4.75.13,4.54-.12,4.85.21,13-.75h7.17l1.71,1,.63,13v23.21l1.56,6.24,1.09.81,7.84.34,3.88-.37,1-2.25-.44-5.38-2.62-.32s-3.16.83-3.25.94-2.84-3.39-2.84-3.39l.37-4.59-.74-27v-13.43l.31-1.17,5.83-.72h33.38l2.06.7.82,3.19.93,7.81-.5,8.19-.06,12.06-.69,9.25-.19,7.56,1.13,3.56,3.52,2.57,3.92.62,7.75-.62h7.67l1.42-3.55,1.65-2.5,3.28-.19-.9-1.71-5.46-2.12-3.23-3.29.06-14.4-1-12.11,1.3-3.55,2.47-1.21,6.87-.42,29.62-.12,4.75,0,1.88.25v9.17l.33,7.67.69,11.31.44,3.78-1.18,2.66-1.32,1.59,1.44,3.06,3,3.11,2.91.31,1.2-1.42v-43l14.78-.62,8.88.25,22.13-1.37,35.19-.58,16.79-.87,25.28-1.47,44.47-3.12,12-.12,10.83-.22,2.34,3.46v21.67l3.78,3.71,3.81,1.16,4.56,2.44,5,5.13,3.8,7.11.62,7v22.19l-1.68,1.88-6,1.29-7.83,2.79-3.18,4.23-.62,10.25.62,30.94.41,25.81,4.06,4.56s7.56,1.88,7.69,2.13,7.13,1.23,7.13,1.23l2.58.52-.58,3.94.06,34.48-1.06,1.46-7.81,3.63-9.31,4.19-2.44,1.14.06,5.86,1.09,18.44-2.59,1.31-14.43.75-44.17,0-38,1.87-9.5,1.09H877.17l-38.32.63-1.62-.15-.19-1.72-.66-3.12-3.25-2.12-15.73-.19-1.71-3.94-.33-4,2.33-3.87.13-3.94-.81-4.37-4.19-1.92-1-3.59L811,1372.5v-9.62l-.48-33.12-.7-19.37-.91-24.12.16-6.8-2.33-3.38-3.19,1-5.94,1.25-3.33,1.17.38,3.13,1.17,1.08,2.42-.46,3.5-.25,2.19,1.83-.65,6.63.27,12,2,74.1-.11,26.22.11,6-.3,4.42-.72,1.8.56,5.72.35,2.5-1.47,1.94h-10.5l-31.31-.31-1.5-1.12.43-12.37-2.73-23.1.58-19.8-.56-39,.34-47.54-.34-3.62-4.11-2.08-7.5-.54-4,1.5-3.25,5.81-.86,5.37-1.11,14.23,1.24,18.84,1.28,26.75-.3,25.38.75,32.82-.13,16.23-.33,4.36-3.17.67-28.79.83H697.83l-1.06-5.86.43-3.54-.65-47.37-.81-39-.44-16.92-1-5.83.41-12.28-.41-7.22,1-3.26,4.59-1.09,3-.87.68-2.52-6.92-1.27-6.12-3.27-3.08,2.25-.21,5,.84,16,.66,10.38L690,1363.5l1.87,31.5.49,13.08-1.08,11.42-2.5,5.5-2,2.94-3.88,1.48h-7.67l-5.95-1.08-3.22-1.92-3.17.5-2.5,2.83-3.25,1.25-13.5.67L602.67,1433l-16.25.55-8.58.78-67.67,2.34h-4.25l-1.64-.36-1.15-3.37-.67-21.73-.58-3.85-2.79-1.17L479,1401.33l-1.49-2.08.91-19.92-.17-11-.27-5.65,2.53-3.45,4.59-.58,4.16-.7,11.5-2.64.91-3.47-.36-28.11V1310.5l-.8-21.67-1.25-5.19L477,1276.75l-1.43-12.25v-24.58l-.44-1.87.75-1.17,2.81-.69,14.26-3.23,6.82-1.79.42-5.25v-16.17Z"/><path class="cls-1" d="M522.48,1186l-6.21-.5-13.33-.41h-3.08l-.56-2.45-2.07-20.33-1-5.92-1.08-6.82-2.65-3.53-8.15-2.6-9.36-.81-.63-3.85v-26.37l.28-7.19-.28-3.31L476,1100l5.61-1.66,7.51-1.55,5.84-1.38,1.65-2,.31-7.25.37-9.58.08-18.22-.08-13.95-.37-5.08-3.54-4.58-8.67-3.87L474.4,1029l-2.22-.49.35-3.53V989.39l.6-2,3-1.51,2.49-.73s4.06-1.59,4.19-1.62,2.75-1,2.75-1l6.44-1.47,3.28-1-.06-6.44-.08-4.21-.33-17.42.21-10.33,3.75-.19,11.08.44,9.83-.08,1-3.83-.59-11.87v-2.76l38-.7V939l1.82,1.94,7.32-.18,19.63.18,5.13-1.4,2.58-.08,2.48,5.14,2.1-.25,3.9-.56,2-3.81,2-4.74,7-2.77,4.26-.31,5.08,1.75,6.17,3.64,7.55,3.51,1.8,3,2.45-2.17,3.62-5.35,6.49,0,5,1.43,2.17,7.85-.61,14.83,1.22,109.29,1.09,36.6,2.75,1.38s6-.82,6.19-.6,8.5-1,8.5-1l8.44-.75,4,.25.44-2.94-.77-1.12-10.29-.57-2.5-.44v-2.5l-.29-20.1-2-117.75.25-14.75L673.94,938l2.9-1.26,16.93-.8,16.58.74,5.79-.09,8.25-.21,5.29.25.29,1.88v4.79l.25,9.21v10.58l.33,16.88.57,34.46,1.25,16.5v30.57l.89,36.68-.89,3-3.11,1.25-2.51.92,4.57-.19,13.23.89,6.77-1.51,2.28.8,1.34-3.75.61-2.67,3-.09,5.33-.16,6.84.63,3.69-.64,6.56-.19,8-.12c.5,0,18.25-.37,18.25-.37l8.31-.27h3.06l1.81,7.3,3.35,10.12,2.71,2.69,1.86,1.35,6.76-2.51,4.06-1.69-1.62-6.12-1.47-3.89-3-1.62-1.58-3.92-3.16-6.58-1.51-3.21-2.84-5.83-.93-8.2-.34-8,1-5.41.81-2.09-1.31-3.73-2.5-2.77-3.42-1.56-1-5.31.33-23.25-.33-14,.06-9.44.22-1.56,1.28-.41,4.59-.47,1.88-.48-.76-7.7L822.23,982l-.17-11.25-.08-5.12,1.49-16.18.13-3.75-5.59-.66h-6l-.34-44.19v-7.62h12.84s1.22-1.53,1.25-1.66,0-6.62,0-6.62L824,881.68l-2-4.41,0-5.09.88-21.17.58-6.71-4.29-.75-5.87-.29.08-3.54-.25-14.37-.86-29.67.62-6.44,2.17-2,4.63-2.6,1-5.31-2.37-6.19-1.31-7.56,3-9.33,6.26-13,2.25-6.87,1.92-2.56.62-6.25-3.16-2.31-5.38-2h-2.14l-3.73,8.56L814,738.24l-1.1,3.06-4.62.87h-45l-11.5.5-2.53.21-2.93-1.94-13.12-.77L729,741l-1.44,1-.16-38.6h13.69s5.44.6,5.63.6,1.67-.5,1.67-.5L748,697.3l-.69-28.73.29-1.9h5.15l27.1-.75,79-2.35,7.75.62.76,3.78.65,6.21,2.4,5.62,4.89-.39,4.16-2.84,2.26-6.36,7-3.52L900,662.5l11.75-1.6,10.25-.4,1.6-.54,40.92-1.44,22.8,1.34,1.13,8.7,1.2,12.73,8.7,1.45,12.75,5.32-.94,3.65.38,21.67-.33,9.53-.33,6.66-9.51,2.71-8.52,3.44-2.18,7.45v14.87l2.83,4.84,9.1,3.44,12.05,4.37-.8,10.86-1.23,24.88-.34,4.19-3.5,1.8-8.62,2.27-4.6,2.83L992,820l.44,25.15.39,18.38,1.65,16.61,4.38,2.45,6.81,3.25,7.25,2.63h3l1.27,1.87,1.52,39.58.4,14.42-21.26,11.46-2.64,4.42v8.63l.42,34.56-.42,3.69,1.64,2.54,20.4,8v7l-.06,32.53-1.25,1.59-16.5,4.81-2.31,4,.71,18.56,1.61,4.25,4.85.74,14.16,6.39.67,7.06v34.42l-5.71,3.17-12.14,2.45-1.56,3.44.39,14.67-.39,4.5-.86,1.58-5.25.66-12.44.67-3.17-1-1.78,2.5s.05,8.58.09,8.71-1,5.58-1,5.58l-45.6,3.77,3.85-2.06-.52-6.44v-7.31l-3.92-1.81-25.86.51-8.38-2.26-2.76-4.37-6.87-6.68-.78-.87-2.29.82-4,4.17-1.69,4.44.38,4.06-1.42,2.77-14.76.85-74,1.27-7.07,1.7-22.47.88-1.81,0,.16-2.6-.59-14.08.44-12.5.06-7.5-8.19.55-18.2.75-.65,1.93s1,1.38,1,1.4S734,1150,734,1150l-1,20,1,8.92.07,1.64-14.22-.22-17.5.37-8.75.71H682.94l-4.31-.71-1.29-7.19.8-9.59-.73-10.09,1.15-4.6,5-.89,7.6-.65-.47-3.48-6.62-1.12-10.42.59-6.12.5-4.67-.21-1.29,1.25-.21,16.21.43,19.29-2.5,2.36-45.1-.36-54.39,1.52-1.19,1.35,1.19,16.45.81,1-11.51.17-13.75.64-12.24.57-.91-18"/><path class="cls-1" d="M520.16,922.61l-1.78-.74H495.75l-.66-2.87V905.44L491.34,897l-14-9.88-7.49-2.77v-8.06l.31-14.81.31-19.25,6.47-2,7.85-1,6.72-.65,1.63-3.79,0-9.69-.46-60.81v-3.06L490,760.06l-2.86-1.25-3.44-1.5-4.56-1.16L469.88,754l-1-.34.27-1.81.88-23.69.06-14.57,5.38-1.87,14.13-5.31,2.13-.62.48-32.91,1.36-1.15,18.13-.5,1.91-2.25-1-4.29-5.39-1.14H496.44l-3.63-.22-.19-6L492,633.9l-5-1.9-6.09-2.62-11-2.12-1.6-1.27.89-4.28-.34-13.9V596.94l-.55-8.5-.38-3.69,11-3.5,9-2.06,2.84-3.2.4-2.8-.4-16.52.59-2.46.59-15.71.68-24-.68-4.37-5.34-4-11.48-4.73-7.92-1.25h-3.58l-.85-2.17V469.88l-.36-7.61.94-.86,16.19-3.51,9.15-2.14,2.11-6.6.52-2.52V427.88l.81-2.46,6.69-1.1,15.63-.31,2.47-3.09L516.47,399l-1.72-2.47-4.08.54-11.41.46-8-1-1.16-1.88v-55.9l.47-12.5.13-10.06-6.06-2.25-13.29.33H461.25l-2.05,2-1.11,8.28-.47,10.67-1,9.17-11,.75-11.92.38-7.25,3.87L420.33,355l-3.5,4.16-2.77,6.92-.39,7.51-1.43,8.55,2.89,6.62-2.4,3.19-3.24,1.13-1.86,7.44-2.42,19.83-1.32,2.58h-35l-1.56-2.58-2.09-8.07-6.19-16.87-3.26-3.64-8.75-.44-1.35-3.19.41-7.94-.41-2.87-4.61.73-2.79,3-.69,8.93-3.07,3.5-24.78.89-2.51,9.7-1.46,13.65-40.31-.33-2.71-2.92-4.41-10.42-7.89-9.48h-4L227.13,394l-4.87-.08-.66-3.75.91-17.75-2.89-3.46-9.66-4.17-6-2.42-2.65-1.82.23-8.13v-6.78l-.23-15.34-.38-8.31v-2.71l4.11-1.79,11.52-2.67,5.14-1.8,1.14-3.09-.6-6.29.09-21,.55-5.92-.17-6.58-.38-27-1.83-2.59-1.62-1.83-15.4-5.51-1.39-.84.06-3.08-.19-32.57.33-5.49,5.33-2.78,9.91-4.61,4-1.36-.62-13.62.9-18h3.94l24.53-.24,4.41-3.16L260.31,132l3.9-3.54,10.46-1.3h19.9l5-.78,1.26-.19,6.43,22.08,4.42,1.69,3.77.71.33,13.58-.46,7.92.93,1.08,2.75.34,2.44-.59.25-1.75-.25-8.64-.62-9.16,3.87-4.19,27.38-1,5.13-3.27,3.77-9.35,2.67-7.68.92-1.16,7-.53,30.75-.37,2.44.37,2.42,6.65s5,11.5,5,11.67,1.08,3.54,1.08,3.54l4.3-.4,5.31.52,11.13-.12,15.29-.29,6,.41,1.79,4.88-.62,27.74.15,6.76.94,2.09,4.25-1.21,1.54-.88-.51-8.12-.37-4.58,2.54-.33,9.46,0,7.25,1,1.55,2.27.16,9,3.46.77,1.38-.77.5-2.2.12-16.69.62-10.17.45-8.58,3.42-2.13,2.25-2.12,1.17-4.3,3.69-8.61,2.5-6.14,1.06-1,5.53.53,31.31-1.65,1.83.46,2.5,9.49,2.29,9.3,4.75,2.8,8.79.68,13.17-.68L587.5,145l21.13-.54,2.92-7.29,4.29-11.46,1.05-2.29,1.61-1.27h28.25l2.34.31,7.59.1,2.15,4.46,3.93,9.83,4.71,8.69-1,8,0,29.64h5.35l-2.62,40.63-1.64,8.66.77,10.57L666,245h-7.16l-4.5,1.2H621.25l-19.87-.67L589,245l-11.75,0h-9l-4.75-.57-11.22,2,1.41,4.67-48.87-1.12-13.42-.67-1.48-16.69.25-3.75-1.83-1.45h-4.12L482,229.33l.68,3.67s1.19,5.38,1.23,5.67a6.72,6.72,0,0,1-.58,1.58l-8.54.63-11,.25-1.22-.56.6-5.23.08-3.47h-5l-.59,8,.1,7.19-.06,7.59-7.81.44-77,.39h-27.5l-17.66-6.46-4.05-2.4L321.41,245l.54-3.78-.46-21.4,1.13-9.37-.06-8.37-1.06-4.56-5.25,5.38-.87,9.75-.19,22.5-.1,16.21s.17,21.17.17,21.42.58,4.5.92,4.5,5.83.83,5.83.83h6.66l7.34-.25,3.58,0,1.74,1.88-.9,51.52.39,11.67-.56,7.25,2.88,0,2.21-1.79.35-6.42.38-11.69.06-8.37-.18-38.85,1.46-3,6.63-2.66,3.34-.31.22-3.94,4-1.56,5.63.13H381l11.81-.37,34.45.33,30.93.61-1,7-.26,7.81,3.45,2.63,6.13-.44,9-.73,14.77-.59.56-11.94L490.63,260l-.19-3.81,1.06-2.29,6.57.48,13.38.13-.31-5.49,41.72.77,7.27,5.09,1.81,41.3-.77,6.17-1.57,9.08,1.09,12.6-.52,18.32,1,14.08.43,22.08-.43,15.08-.36.79-4.54.42-1.42.29-.54,9-.48,16.88,1.24,2.77,3.38-.26,13.5.41,13.38.26,4.57-.23,6.44-6.44,7.85-1.94,8.62.74,6.17,5.21,2.29,1.92,11.75.08,3.92-.71,65.92-1.34,15.24-.31,7,.78s1.35,3.25,1.55,3.42.19,7,.19,7l-.19,49.54V515.1l.86,43.65-.86,9.08.72,63.36-.48,24.09-.51,3.91-4.87.13-32.77.55H661.08l-32.67,1-30.75.62-43.73.62-.76,2.17.63,4.88h4.45l13.25-.3,45.5-1.13,28.16-.4,33.34-.61,22-.34,15.17-.44,8.83-.71,2.5,0,.45,8.42v70.71l1,116.08v56.42l-2.9.58-8.67-1.25H704.5l-11.75,1.08-13.83-.42-15.08.33-12.4-.16-6.94-4.1-2.41-2.4-4.33,3.84-6.21,4.2-4.92,2.74-9.87,3.76-7.37,1.31-4.13-.43L601,921.88l-6.6-1.14H580L565,920l-4.33.74-3.11,2.32-36.69.34Z"/><path class="cls-1" d="M726.61,516l3.41-.19v-7.58l2.94-3.08,2.92-.83,3.25-.21s2.5,7,2.58,7.08,1.54,3.53,1.54,3.53a15.78,15.78,0,0,0,1.71.93c.17,0,1.93-.56,1.93-.56l.82-4.65V455l-.29-33.9,0-7.44,3.92-1h9l35.17-.33,43.16-1.63,7.75,1.88,4.14-1.88,2.28-4L856.6,403l3.83-1,6.58-.46,4.6,1,6.19,4.49,2.15,3.87,1.87,2.41,3-.14,2.24-1.69,2.1-1h3.21l25.53-1.75,2.25-.12.4-11-.4-8.31-2.72-1.31H903.31l-52.82,1.35-14.91,1.25-40,.88L793.1,391l-.52-13.4-.15-15.95L793,340.5l-.51-11.24-.93-44.34.63-16.48-.12-32.81.06-8.87-1-24.25V165.75l.28-20.37.69-2.94,5.06-.44,6.63-.16,1.25-4.4,2.65-6.52,1.5-6.75,3.88-3.67,6-.71,8.71-.09,12.17.88,7.52-.44,3-.1,2.5,7,4,12,45.78-.33,3.33-10.78.88-4.75,1.31-5.46,4.79-.71,34-1.06,10.54,22.13,26.7.63L984,154.38l-.29,26,17.72,7.65,2.41,2.06v21l.32,11.25-.19,7.83L997,231l-10.35,3.2-2.6,2.23-.36,10.4.36,51.33,2.27,4.17,5.42,2.17,9.17,3.8,4.75,1.56,1.21,2.81-.75,23.9s.7,11.25.51,11.44a16.25,16.25,0,0,0,0,3.08l-12.07,1.79-6.31,3-3.45,3.75v26.44H968.33l-6,.56-2,13.28,1,8,21.31.26,2.72,1.67,1.5,14.44,2.38,16,5,3,12.69,3.41.76,3.06-.8,38-.42,2.34-15.67,2.16-3.92,4.25s-.49,18.77.34,19.13,1.7,41.38,1.7,41.38l9.38,4.06,9.38,3.88L1010,567v31.83l-.36,7.08-3.35,3.14-7.24,1.25-4.75,1.78-5.52,1,.25,13.72.1,23.68-.92,1-7.5.63-10-.46-3.62.71-1.3,4.55.34,2-.33,1.05-7.54.26-9.92.35-12.12.42-8.42.3h-2l-.87-.66.38-2.58-.21-4.12-.37-1-11.46.58-23.42.46-14.42.82-10.83.62-23.33.62-13.33.62-72.92.66-4.44-.12-2.56-.19-1.18-20.94.5-8.19.06-28.19,0-13.91-.09-20.41-.5-7.17-3.4,1.67-1.93,5.58L740,567.42l-5.05-.46-1.78-2.5L731.5,560l.21-3-3.77-.06-.58-.59Z"/><path class="cls-1" d="M674.75,161.56l10.75-.72,8.58-.35,9.17-.55h13.33s1.67.34,1.83.34,3.75-3.46,3.75-3.46l1.58-15v-2.15l3.33-1.4,4.57-.45c.09,0,6.31,1.49,6.31,1.49l4.16,6.16,1.75,3.63,2,3.6.73,5.35.1,1.32,5.88.21,16.95-.51,9.34.13,3.75-.94,1.66.69.16,14.69-.57,6,1.25,1.69,2.39-.5,2.93.19.72.31v20.44l.86,22.19-.73.28-3-1.16-2.12.84-1,5.22.29,12.06L784.94,270l.34,10.13-.53,3.08-3.61.67-.44,2.82-.05,2.47,1.56.27,2.54,1.5.31,5.88-.31,11.65-.3,3.86-5.42-.26-19,.26-2.1,1.38-.15,5.73,2.44,10.63-.5,4-1.81,1.38-9.06.46-3.25.82-7.33-1.28H723l-16.21-.23-3.71-.46.33-4.79V320l-3.67-1.54L688.33,318h-13v-8.2l.21-4.75.68-9.52,1.84-2.87s6.19-.5,6.44-.56,6.75-.82,7.06-.69,25.88-.13,26.13,0,35.38-.62,35.38-.62l2.58-2.23v-2.46l-3-1.67-34.08.91-27.17-.46H675.6l-.85-2.08-4.14-.92-1.81,1.83s.6,4,.7,4.13-1,5.25-1,5.25l1.47,3.5-.56,25.7-.9,10.05,1,42.71.18,16.75-.42,2.35-7.52,1.38-8.23,1.69-10.25,2.33L624.71,399l-3.08-.92-1.83-3-6.37-.33-17.85-.12-27.23,0-1.37-.18v-3.83l-.27-12.83-.5-14.37L566,353.5l-.5-5.94L564,337.92l0-4.93,1.08-4.45.67-7.91-1.54-11.75.42-3.71,2-6.41-2-3.19-1.75-.65-1,.47-.24-3.64-1.83-27.34-.38-5.75-.2-3,.88.13a15.23,15.23,0,0,0,1.66,1.25c.16,0,3.46-1,3.46-1l1.06-5.24,4.14-.2,78.72.16,15-.44c.25,0,3.36-.31,3.36-.31l1.25,5.44.86,2.52,4.88-.52.85-9.71.77-10.06.17-5.88-2.62-1.62-.08-2.87L674,224l-4.92-.2.58-9,.78-12.08.83-12.9.37-5.67,2.08-8.22Z"/></g><g id="Layer_1" data-name="Layer 1"><path class="cls-2" d="M37.24,1501c.3,14.36,4.93,35,5.48,49.35.78,20.59-.15,41.26.95,61.82,1.4,26.25.76,52.48,1.1,78.71,0,.42-2.74,28.32-2.54,28.73"/><path class="cls-2" d="M748.68,751.47c-.64-1-1.28-4.43-.62-5.62,1.66-3-.31-5.45-2.5-5.42-6,.08-12.38-1.9-17.48,1.33-.08,58.84.11,117.34,1.2,175.59-3.83,1.5-6.26.44-8.71-.36"/><path class="cls-2" d="M786.78,223.66c3.38-.5,5.13.71,5,4.37-.51,16.86.08,33.72-.36,50.6-.4,15.36-1.14,30.78.68,46.25,1.26,10.65-.29,21.62-.3,32.45,0,9.79.39,19.57.57,29.36.05,3,0,5.88,4.39,5.65,17.9-.95,35.86-.71,53.72-2.53"/><path class="cls-2" d="M459.48,271.76c-11.87,0-23.8.72-35.58-.3-6.12-.53-12.08.33-18.16,0-14.31-.89-28.72-.14-43.08-.37-4.39-.07-6.59,1-5.5,5.71a9.43,9.43,0,0,0-1.37,0c-10,1.61-10,1.61-10,12.48q0,20,0,40c0,7.1-.7,14.05-1.24,21.24"/><path class="cls-2" d="M745.92,557.21c1.39,4.95.79,13.13.82,18.11.15,24.78.06,49.55.07,74.33,0,2.76-.34,5.59,1.24,8.12,24.15,0,48.31.08,72.46-.06,5.41,0,11.4-1.19,17.49-1.19"/><path class="cls-2" d="M655.61,114.35c-7.7,0-15.41.12-23.11,0-6.07-.13-12.13.62-18.2-1.6-2.83-1-6.57-.48-9.91-.46-17.69.11-35.44-.41-53.08,0-15.59.38-31.28-.09-46.86,1.45"/><path class="cls-2" d="M190.27,316.62c.8,33.52.91,79.64.06,112.85h118v35.6"/><path class="cls-2" d="M674.35,947.6c.42,48.72,2.13,104.71,2.55,153.43"/><path class="cls-2" d="M693.09,1461.66c-8.73.9-17.51.55-26.22.93-13.75.6-27.49.74-41.24,1-15.2.26-30.51-.18-45.57,1.51-13.35,1.5-26.7.59-40,1.89a163.82,163.82,0,0,1-32.46-.23c-3.07-.31-6.24.34-9.36.54"/><path class="cls-2" d="M1244.63,943.85c-1.67-5.15-.42-10.43-.51-15.62-.34-21.45.06-42.9-1.28-64.34-.54-8.71-.07-17.48-.1-26.23,0-1.46-.21-2.93-.34-4.64-15.91-1.61-40.28,1.25-55.91.74"/><path class="cls-2" d="M932.32,1187.45c-4,2.43-34,3-38.1,3q-29.7.16-59.35,1.72c-8.87.46-17.89-.55-26.84.38v43.61"/><path class="cls-2" d="M1259,925.11c-.62,8.28,1.1,16.66,1.2,24.36.2,15-.25,30,.89,45.05-26.57,3.08-53.44-3.17-80.34,5.09.69-4.6.17-13.38-.49-25.16"/><path class="cls-2" d="M458.23,231.86v23.66H343.3"/><path class="cls-2" d="M839.25,662.77c-10.2.42-42.89,1.73-53.09,1.8-12.91.09-25.8,1.4-39.43.45,1.08,12.33.57,24.4.72,37.51-6.73-2.15-12.7,0-19.69-.53V665c-17.15,2.33-72.79,1.36-89.63,2.79"/><path class="cls-2" d="M694.34,1316.12c1.38,4.32,1.13,10,1.2,14.37.32,18.94.44,37.89.68,56.84.17,13.33.35,29.78.73,43.1"/><path class="cls-2" d="M491.34,425.41c6.1-2.57,12.51-1.13,18.74-1.09,5,0,6.74-1.39,6.34-6.41a145.32,145.32,0,0,1-.06-15.61c.11-4.1-.41-6-5.69-5.23-6.52,1-13.3.24-20.58.24V315.73c-9.72-3.19-19-.08-28.11-.86-2.64-.23-3.13,1.43-3.16,3.73-.08,5.62-.86,11.28-.47,16.86.56,8-6.63,28.08-11.36,34.38"/><path class="cls-2" d="M738.06,1314.87c.42,3.33,1.78,15.4,1.82,18.74q.45,40.29.67,80.58c0,4.79.82,9.58-.22,14.35-10.14,1.53-33,1.87-43.39,1.89"/><path class="cls-2" d="M802.4,1223.68c.14-5.22-2.34-24.1-.28-29.37-15.75.09-30.53-.43-46.58,1-2.23,3.54-.84,9.15-.85,14,0,5.78.4,11.66.16,17.49-.15,3.49,7.57,5.5,10.08,6.25"/><path class="cls-2" d="M808.65,851.41H748.82c-.46,19.17,1.07,47.06,1.73,65"/><path class="cls-2" d="M856.74,1456c-26.46-.75-52.88,1.29-79.33,1.44-6.41,0-15.54-.28-21.86,1.71"/><path class="cls-2" d="M484.47,758.34c.74,1.17,1.85,1.25,3.12,1.29,4,.12,5.11,2.31,5.08,6.21-.17,22.07-.06,44.14-.09,66.21,0,6.1-.77,7.05-6.85,6.76-3.12-.15-5.78,1.36-8.75,1.36"/><path class="cls-2" d="M1001.65,610.3c-1.87.42-4.12.33-5.53,1.37-2,1.51-4.05,1.8-7.18,1.73,2.34,12.51-1.15,25,.92,37.86-6,2.32-12.16.53-18.2.82-3.88.19-6.71.8-5.08,6.3h22.12c.36,5.78.63,11.64,1.12,17.49.22,2.68,0,6,4.33,5.62"/><path class="cls-2" d="M746.88,412.92c0,30.4-.07,64.54-.09,94.94,0,2.3.45,4.66-.61,6.87"/><path class="cls-2" d="M845.5,412.3c-4.37-2.72-9.2-1.18-13.74-1.05-3.73.11-7.5.37-11.25.41-22.69.24-45.39.42-68.08.66a54.17,54.17,0,0,0-5.55.6"/><path class="cls-2" d="M260.85,1442.92c-17.89,1.23-35.8,1.27-53.72,1.25h-9.56c-1.64,16.83-1,33.1-1.06,49.35"/><path class="cls-2" d="M206.51,1629.68c-1.64,4.2-11,10.5-15,10.59-21,.47-42.11.13-63.06,1.59-10,.7-22-.36-31.88,2.18"/><path class="cls-2" d="M96,1568.47c-2.29-1.71-2.46-4.78-2.44-6.87.12-10.83.8-21.62.08-32.49a121.45,121.45,0,0,1,1.71-29.35,31.89,31.89,0,0,0,0-4.66c-8.74,1.13-16.87.83-25,.94-9.58.13-19.16.57-28.73.52-3.5,0-5,1-4.37,4.46"/><path class="cls-2" d="M660,1025.05c-1.53-12.26-.95-24.54-.83-36.85.08-8.72-.33-17.48-.41-26.23,0-4.37-.14-8.75,0-13.12.4-11.5-2.77-14.46-13.75-12.4-.55.1-5.59,5.35-6,6.18"/><path class="cls-2" d="M688.09,1298.63c1.68,13.29,1.78,27.89,1.93,41.22.16,14.16.75,28.32,1.2,42.47.12,3.75.4,7.5.61,11.24"/><path class="cls-2" d="M995.41,1696.52c-7.45,2-15,.53-22.49.64-11.66.16-23.34.92-35,.48-13.78-.52-27.44,1.49-41.24,1.26-6-.1-11.23,1.17-20,2"/><path class="cls-2" d="M701.21,1241.79c-2.33.54-8.73,0-13,0-3.09-14,.15-28.35-1.7-42.85-3.11-2.95-7-1.23-10.93-1-8.09.47-16.23.08-24.35.19-1.9,0-4.13-.95-5.62,1.2"/><path class="cls-2" d="M661.86,1143.73c0,9.37-.5,23.77.18,33.09.43,5.84-2.64,5.64-6.43,5.64h-50"/><path class="cls-2" d="M1026,827.67c-1.3,4.58-.26,9.16-.88,15,16.07-2.13,31.19-4.07,46.48-3.78s30.85-.33,46.85,2.17c0-3.14,0-5.43,0-7.73,0-7.85-1.71-9.73-9.34-8.55-2.49.38-5.26-.74-7.52,1.06"/><path class="cls-2" d="M1014.15,131.84V104.36H981.67c-10.2,0-20.41.09-30.61-.05-3.31,0-4.77,1.12-4.37,4.43"/><path class="cls-2" d="M981.67,1421.06c.09,7.5,2.13,14.94.79,23.42H937.84c1-5.93,1.07-16.41,1.13-22.66"/><path class="cls-2" d="M315.82,216.79v59.49c9.19,3.45,17.69-.86,25.67,2.15-1.1,2.4-.54,18.5-.69,20.8"/><path class="cls-2" d="M641.33,910.59c7.22,5.62,10.89,7.85,17.4,7.67,10-.28,20.2-1.25,29.94-.62,10.78.69,21.27-2.19,31.9-.64"/><path class="cls-2" d="M726.2,422.92c1.32,2,.58,4.18.58,6.25.07,25.82-.19,59.76-.19,85.57"/><path class="cls-2" d="M190.27,232.41c.21,18.32.5,41,.58,59.34a230.32,230.32,0,0,1-.79,23.09c-.21,2.15,1,2.94,1.46,4.39"/><path class="cls-2" d="M264.54,128.09c-1.43-3.52-4.13-12.3-8.69-12.5-15.44-.68-30.78,2.17-46.22,1.27-6.25-.36-12.49-2.16-18.74.47-.08,14.53-.23,29.52-.95,44.52-.32,6.79-.38,13.73-.32,20.6.06,7.37,0,7.34,7.51,6.91a13,13,0,0,1,3.12.59"/><path class="cls-2" d="M199.64,1673.41c0,6.45,1.56,13.71,1.3,20s-.18,12.49,0,18.74c.34,14.16.81,32.38,1.22,46.53"/><path class="cls-2" d="M1002.9,351.71h13.68c2.62,45.37.11,90.79-.07,136.7-4.61,2.6-16.75.89-24.85,3.84"/><path class="cls-2" d="M1184,896.38c0-3.33-1.23-14.16-1.22-17.49,0-7,3.66-10.62,10.62-10.62h16.39c-.65,26.66.55,53.31,1.9,80.4-7,1.61-13.92.42-20.79.8"/><path class="cls-2" d="M1042.29,1551.68c.24,22.28,2.26,47,2.44,69.26,0,.41-.39.83-.78,1.62-1.87.65-5.23-.7-5.12,4,.06,2.47-3.46.77-6.38-.77"/><path class="cls-2" d="M660,1025.05c.73,5.83-.44,15.42-.38,21.23.09,8.94-.77,17.89.23,26.88.76,6.79.12,13.73.16,20.6,0,4-.46,8,1.13,12.2,9.39,2.06,19-2.88,28.84-1.58"/><path class="cls-2" d="M991.66,492.25c-3.33.77-4.66,2.54-4.47,6.25.67,12.9,1.3,25.82,1.12,38.72-.06,4,.22,7.92.24,11.87,0,9.09.1,9.09,9.35,11.24"/><path class="cls-2" d="M386.44,572.45c-.66,3.26,1.32,3.54,3.71,3.53,22.07-.07,44.14,0,66.21-.07.42,0,.83-.39,1.25-.6"/><path class="cls-2" d="M694.34,1316.12c-.3-7.7.48-15.41-.55-23.12-.5-3.76.75-6.72,5.55-6.26,1.79.17,3.69.15,3.82-2.87-3.66-1.47-8-.53-11.56-3.71-2.45-2.17-4.61,1.14-4.06,4.09.9,4.8.31,9.59.54,14.38"/><path class="cls-2" d="M727.45,557.21c-1.5,8.09-.8,16.29-.42,24.35.57,12.3.3,24.58.36,36.86s-.36,24.57-.56,36.85c0,1.26,0,2.51,0,4.32-13.31.34-28.6-.87-41.22,1.3"/><path class="cls-2" d="M409.51,1441c-49.14.42-99.52,1.46-148.66,1.87"/><path class="cls-2" d="M865.49,1175c-26.23.42-53.72,1.46-80,1.87"/><path class="cls-2" d="M639.37,1433.55c-.26,7.29.62,14.6-.67,22.17H608.13c0-5.51-.59-16.45-2.18-22.17"/><path class="cls-2" d="M1250.25,831.42c.08-3-1-4.49-4.37-4.43q-28.73.49-57.46.61c-2.2,0-1.35,3.93-1.87,5.07"/><path class="cls-2" d="M1031,1097.58c1.75,11.4,1,39.06,1.24,50.52.34,16.24.91,32.48,1.18,48.72.1,5.82.22,11.76-.77,17.46a31.65,31.65,0,0,0,.14,12.54c.94,4.32,3.78,5,3.17,12.48-.41,5.13.64,10-1.25,15.62"/><path class="cls-2" d="M755,284.91c-16.45.21-29.86.36-46.31.6-8.54.12-23.34-.47-31.86.62"/><path class="cls-2" d="M1257.12,856.4c.42,22.49,1.46,46.22,1.87,68.71"/><path class="cls-2" d="M521.95,123.72c-6.22,1-12.45,1.72-19,.46.49-2,1.77-4.21,1.32-6-.54-2.2-.24-7.58-5.41-3.78-2.35,1.73-4-.83-6.26-.8-19.36.28-38.72.17-58.09.14-1.8,0-33.45.29-35,1.27"/><path class="cls-2" d="M1001.65,230.53c-6.71,0-8.32,2.34-11.87,3.1s-5.81,1.82-5.71,6.28c.44,18.73.6,37.47.65,56.21,0,3.94,2,7,5.09,7.2,3.76.18,6.25,2.34,9.35,3.42"/><path class="cls-2" d="M467,1752.11c-26.64,1.22-53.29,1.37-80,1.25"/><path class="cls-2" d="M411,1753.36c-1.25-6.13-13.2-27.42-14-33.73H340.81"/><path class="cls-2" d="M812.39,1045.66c-10.83.43-27.28.83-38.1,1.25"/><path class="cls-2" d="M823,986.32a11.94,11.94,0,0,1,.64,8.07c-2.38.07-4.49,1.48-7.51.08,0,13.49,0,38.27,0,50.56"/><path class="cls-2" d="M1187.17,854.53h35.6q0,13.41,0,26.86c0,21.26.74,42.49,1.88,63.71"/><path class="cls-2" d="M678.1,1709a6.78,6.78,0,0,1-1.87.6c-17.91.24-35.83,0-53.71.78-19.15.89-46.42,2.66-65.59,3"/><path class="cls-2" d="M1127.2,875.14c.62,19.78,1.29,50.18,1.82,70"/><path class="cls-2" d="M51,1574.72c0,15.82-.69,32.9-.6,48.72.05,8.75,1.4,32.28,1.7,41"/><path class="cls-2" d="M839.46,1112.29c-1.38-3.08-1.61-11.35-7.08-11.06-.2,0-.59-.38-.6-.6-.36-9.23-9.43-15.61-8.6-25,.54-6-3.47-12.53,1.44-18.35.11-.12-2.35-6.74-7.24-7.28"/><path class="cls-2" d="M1016.51,488.41c1.3,6,2.62,12.79,2.62,18.83,0,17.49,1.29,35,0,52.47-.14,1.87-1.41,3.88-2.8,5.62"/><path class="cls-2" d="M420.76,505.37V465.47c-14.77-1-29.55-.11-44.37-.86-12.34-.62-24.9-1-37.5.38-10.81,1.22-19.55,1.56-30.56.08"/><path class="cls-2" d="M947.83,105c-12.38,0-51.6,1.6-60.48,1.6-22.72,0-47.87,2.39-70.58,1.69"/><path class="cls-2" d="M270.85,1474.15c-8.26,1.69-16.68-.13-25,1.17-5.62.88-13.8,8.94-13.71,14.45.37,22.9.42,45.82,1.44,68.7.37,8.32-5.71,10-10.83,11.88"/><path class="cls-2" d="M731.82,1018.8c1.45,6.41,1,39.14,1.22,45.6.33,9.78.41,19.57.67,29.36.2,7.41.25,7.4-6.88,8.74"/><path class="cls-2" d="M750.56,111.23c-10.2,0-21.76,1.54-31.83.37-10.65-1.23-26.11-.37-38.13.48"/><path class="cls-2" d="M1013.52,230.53c3,6.44,1.39,13.39,1.63,20,.7,19.34.25,38.72.22,58.08a6.57,6.57,0,0,1-.6,1.87"/><path class="cls-2" d="M814.89,736.48c.17,4.09-2.85,5.72-6.25,5.69-17.07-.15-34.15-.06-51.22-.07-2.78,0-5.55,0-8.12,1.26"/><path class="cls-2" d="M386.14,506c-.26,2.34-1.61,6.25,2.74,6.38,9.26.29,18.34.09,27.52,1s31.91.11,41.21,2"/><path class="cls-2" d="M1175.3,818.93c1.12,7.74,2.8,37.93,1.43,46.22h-60.15"/><path class="cls-2" d="M667.48,145.58c-1.4,11.24-.2,26.23-.69,37.42,5.36.48,4.92.37,5.79-3,1.53-6,1.15-13.71,1.15-20.64"/><path class="cls-2" d="M810.52,1003.81c-17.07.52-34.18-1.13-51.23,1.17-2.84.38-4.55-.37-7.47-.58"/><path class="cls-2" d="M547.55,143.71a59,59,0,0,0,21.85,1.75c12.91-1.23,25.87.62,38.84-1.4l8-21"/><path class="cls-2" d="M261.48,129.34c-2.5,5.83-5.51,11.51-7.29,17.55-1,3.34-2.58,3.69-5.2,3.69H221.47c.31,10-2.14,22.4-.59,31.86"/><path class="cls-2" d="M1114.93,876.53c-.11,20.21,2.57,49.63,3.53,69.82"/><path class="cls-2" d="M512.58,665.27c1.59,4.77-.78,5.83-5,5.67-5-.2-10,0-15.23,0-1.25,11.41.63,22.95-1,34.35"/><path class="cls-2" d="M95.33,1576.59c.45,9.37.15,18.75.27,28.1.13,10.18-.72,20.46,1,30.61"/><path class="cls-2" d="M1034.76,1254.91c1.78,13.91.73,27.91,1.44,41.84.37,7.31.65,49.57,1.06,56.85"/><path class="cls-2" d="M1029.14,1056.91a78.2,78.2,0,0,0-27.58,5.39c-2.78,1.12-3.73,2-3.67,4.6.15,6.25-.1,12.49.51,18.75.28,2.84,1.07,4.26,3.87,4.35,3.58.12,7.52,3.08,10.62,4.38"/><path class="cls-2" d="M919.2,387.94c-19.16.38-49.53,2.33-68.71,1.87"/><path class="cls-2" d="M806.15,793.94c-19.12,1.9-38.31,1-57.47,1.25"/><path class="cls-2" d="M810.94,1058.79l-56.63.62"/><path class="cls-2" d="M222.13,274.26c.28,11.24-1.61,22.48,0,33.74.49,3.55-.64,5.74-4.93,6.4-5.1.78-18.66,5-23.65,6.43"/><path class="cls-2" d="M806.15,778.33c-18.92,1.59-37.89,1.22-56.84,1.25"/><path class="cls-2" d="M157.17,1575.34q.62,25.92,1.27,51.84c0,1.67.39,3.33.6,5"/><path class="cls-2" d="M1186.54,832.67c-.21,3.12-.42,25-.73,29.5,7.58-.51,15.08.67,22.58-.81,6.59-1.3,7.89-.59,8.09,6.29.36,12.28.54,24.57.64,36.85.09,10.63.82,38.75,1.9,49.34"/><path class="cls-2" d="M1253.38,988.82c-11.08-1.69-25.78,1-36.87.19-7.84-.55-15.81.74-23.72,1-2,.06-2.11,5.06-1.73,7.1"/><path class="cls-2" d="M555.05,395.43c-.2,3.33-1,22.9-1.24,26.44.14,1.9,2.46,1.47,3.12,1.5,10.4.45,20.81.59,31.22.79,1.29,0,1.81-1,2.5-1.87,2.14-2.51,4.39-4.9,7.49-6.25"/><path class="cls-2" d="M1021.64,1728.37c-9.84,0-10.92,2.06-15.63,2.25-13.52.56-27.08.32-40.59,1.46-.4,0-34.56,1.49-35,1.28"/><path class="cls-2" d="M104.07,1576v58.09"/><path class="cls-2" d="M681.85,935.11h48.73l1.24,83.7"/><path class="cls-2" d="M810.94,1031.77c-14.56.75-39.56,1-54.14,1.44-2.13.07-5.4-1.25-5,3.09"/><path class="cls-2" d="M760.55,1418.56v8.12c14.16,0,28.32,0,42.47,0,2.25,0,3.06-1.93,3.12-4.39"/><path class="cls-2" d="M710.58,118.1l-8.73,25.1c-9.27,2.24-18.81.22-28.47,1.8-.47,4.74-.8,9.53.35,14.32"/><path class="cls-2" d="M1108.28,877.36c3,30-.59,74-.45,104"/><path class="cls-2" d="M529.44,1747.11c-1.49,1.77-3,2.09-5.62,2.1-16.05.06-40.88.68-56.84,2.9"/><path class="cls-2" d="M638.12,667.77,553.8,669.2c-.26-1.78-.36-4.65-.63-6.43"/><path class="cls-2" d="M999.16,1168.71c-7.08-.74-14.16,1.8-21.47-.06-2.37,5,.09,10.6-1.85,16.3H1001c1.69,8.05,1.49,15.6,1.2,23.11-.14,3.61.45,5.75,4.48,5.63"/><path class="cls-2" d="M808,127.39c0-5.54,4.43-8.15,8.8-8,6.87.18,13.74.47,20.61.59,4.38.08,8.78.36,13.39-1l6.59,19.77"/><path class="cls-2" d="M1149.69,875.77l.79,68.66"/><path class="cls-2" d="M556.92,1713.38l-53.72,1.25"/><path class="cls-2" d="M1014.15,130.75c-1.77,12.08,2,27.81.4,39.79-.79,5.88-.14,13.37-3.27,19"/><path class="cls-2" d="M464.48,1101.61c.21,34.15,2.29,109.16,2.5,143.31"/><path class="cls-2" d="M755,284.91c.3,2.79-.08,5.83-3.84,5.69-5.4-.2-10.82.46-16.24.49-15.2.08-30.4.14-45.6-.06-3.39,0-6.5,1.57-10,.87-1.75-.35-3.62,1.36-3.69,3.59-.35,12.07-2,28.84-.65,40.6,9.24,0,19-.19,28.11-.19V319.23"/><path class="cls-2" d="M808.65,1278.65c.42,12.08.9,24.15,1.23,36.23.42,15.41,1.86,38.31.64,53.72"/><path class="cls-2" d="M670.24,394.18c-.09-15.41-1.52-50.8-1.51-66.21"/><path class="cls-2" d="M1004.15,1283.64c.21,16.66.52,33.31.53,50,0,2.84.92,4.45,3.22,5.62"/><path class="cls-2" d="M806.15,785.82c-18.32.32-36.66-.7-55,.65a8.26,8.26,0,0,0-1.88.6"/><path class="cls-2" d="M811.77,1051.28c-18.75,0-39.38.37-58.1,2"/><path class="cls-2" d="M1257.12,856.4a116.38,116.38,0,0,1-.66-20c.2-5.54,0-11.07-1.82-16.39a151.23,151.23,0,0,1-23.76,1c-12.89-.44-25.81.24-38.72.44-1.46,0-3.59.63-4.26-.1-3.71-4-8.29-2.31-12.6-2.4"/><path class="cls-2" d="M725.57,421.67c-2.33-2.18-5-.58-7.5-.57-18.32.1-65.38,1-83.7,1.19"/><path class="cls-2" d="M1179,956.34c-20-1.48-40,1.47-60.59.47,0,6.81-.09,12.85,0,18.9.12,6.5-1.12,7.9-7.5,6.75-2.42-.44-8.35,3-10.64,3.78"/><path class="cls-2" d="M555.05,395.43h64.34"/><path class="cls-2" d="M527.72,1436.68c-1.41,4.37-.34,15.62-1,20.7,12.12-1.11,23.36-.64,34.6-.68,2.38,0,2.64-1.33,2.5-3.15"/><path class="cls-2" d="M735.57,1741.51c-10.62.42-21.23.9-31.86,1.23-10,.3-20,.24-30,.83-1.82.11-3.77.38-5.63.4-14,.14-27.91-.57-41.85.65"/><path class="cls-2" d="M486.34,1710.88c-1,.21-2.87.19-3,.66-2,6.92-8.18,5.17-12.62,5.39-11.42.57-23-.6-34.32.44-9.2.85-30.3,2.12-39.47,2.25"/><path class="cls-2" d="M454,1733c-3.69,9.12-4.49,10.06-14.49,10.59-10.25.54-22.16.83-32.37-.39"/><path class="cls-2" d="M808.34,835.79c-17.47,1.27-31.54,1.27-49,1.26-2.56,0-5.21-.43-7.5,1.24"/><path class="cls-2" d="M1235.26,840.16c1.29,3.05,1.19,7.5,1.21,10.62.14,21.66-.23,43.32,1.21,65,.51,7.68.82,31.67,1.95,39.35"/><path class="cls-2" d="M1044.47,1621.63c.42,12.7.93,27.22,1.58,39.91s-2.17,27.35.56,40"/><path class="cls-2" d="M1250.25,830.72c0,15,0,34.43.05,49.42"/><path class="cls-2" d="M619.39,395.43c.62.83,1.81,3.58,2.51,3.65,9.56.92,19.47,2.39,28.61-.28,6.25-1.83,13.14-4.26,19.74-4.61"/><path class="cls-2" d="M790.53,1739.62c-13.13,0-26.25.07-39.35,1.21-3.51.3-7.86-.26-15.61.69"/><path class="cls-2" d="M784.29,141.84a20.88,20.88,0,0,1,1.22,3.12c.36,13.41.35,13.47-13.09,13.72-7.7.14-18,.07-25.71.07"/><path class="cls-2" d="M210.88,1576.59c.21,13.95.46,27.9.59,41.85,0,2.7-.38,5.41-.59,8.12"/><path class="cls-2" d="M1229.64,847c1.51,10.18.18,20.41.58,30.61.57,14.57-.77,29.16.67,43.72"/><path class="cls-2" d="M196.52,1493.52c-.38,22.9,2,48.33-.64,71.73-8.72.13-17.45.37-26.21.51-8.28.13-16.71.1-25,1.06-4.18.49-4.49,1.66-13.77,1.66"/><path class="cls-2" d="M581.91,1434.8c-19.58-.13-56.44,1.4-76,2.58"/><path class="cls-2" d="M807.88,820.41c-16.45,2.26-43.26.35-59.71,1"/><path class="cls-2" d="M387,1753.36c-14.37.27-51.3,1.67-65.67,1.88"/><path class="cls-2" d="M491.5,253.9c-2.52,2.84-1.71,4.26-1.25,7.22,1.41,9.07-1.19,17.92.07,26.88H474.47"/><path class="cls-2" d="M1239,975.77c-5.11,3.24-9.62,1.48-15,1-10.87-.93-21.67.55-32.49.16"/><path class="cls-2" d="M1142.07,874.62c1.66,16-1.32,53.9,1.31,69.85"/><path class="cls-2" d="M322.07,1755.23c-25,.43-50,.79-75,1.3-5,.1-15,.79-20,1.2"/><path class="cls-2" d="M1250.3,880.14c.42,20.82,2,47.89,2.45,68.71"/><path class="cls-2" d="M809.27,1024.43c-14.36.56-37.44,2.12-51.85,1.28-3.09-.18-6.59-.58-6.24,4.35"/><path class="cls-2" d="M228.37,1630.31c5.32-.37,6.15,4.35,6.18,7.5.15,16.24.06,32.48.09,48.72"/><path class="cls-2" d="M806.77,770.93c-3.73,2.53-17.94.89-21.87,1-12.06.37-24.15.13-37.13.13,1.81-6.87-1-13.74.91-20.61"/><path class="cls-2" d="M1235.26,840.16h-47.47"/><path class="cls-2" d="M795.53,997.57c-13.74.21-27.49.75-41.22.4-3.68-.09-3.07,1.32-3.13,3.35"/><path class="cls-2" d="M447,1454.79q-.63-3.12-1.25-6.25H404.52"/><path class="cls-2" d="M490.71,552.84a86.61,86.61,0,0,0-.2,18.69c.71,6.91-3.68,8.08-7.33,8.51-6.81.8-12.74,4.05-19.3,5.44-5.48,1.16-6.1,36.78-2.53,41.06"/><path class="cls-2" d="M495.09,922.61h24.36c1.08,5.83.62,11.66.61,18.11-8.09,0-18.09-.62-25.59-.62"/><path class="cls-2" d="M984.81,407.93c2.7,6.52,1.73,15.85,2.5,22.48.24,2.11.07,4.09,1,6.35,1.36,3.41,2.83,5.62,6.51,6.15s17.53,4.86,21.54,4.78"/><path class="cls-2" d="M812.86,1073.63c-17.5,0-41.1-.2-58.56,1.39"/><path class="cls-2" d="M818,1095l-62.46,1.87"/><path class="cls-2" d="M407.64,402.93c-2.52,6-.5,12.57-2.24,18.81-.7,2.53.45,6.38,5.36,6.26,13.12-.32,26.27.37,39.36-1.26,2.43-.3,5,.35,8.3.62.35,8.43,1.27,17,.89,25.53-.36,8.32-.57,8.26,7.66,8.29,4.67,0,8-3.51,12.49-3.29"/><path class="cls-2" d="M498.21,1283.64c.42.62,1.81,2.49,1.82,3.12q.72,31.54,1.27,63.09a29.74,29.74,0,0,1-.73,4.75L485.09,1358"/><path class="cls-2" d="M1190.91,970.08c1.58,2.38-2.06,10.15,0,12.49h21.23c9.16,0,18.33.17,27.48-.12,2.33-.07,6.42,1.38,6.25-3.63"/><path class="cls-2" d="M463.86,1052.53c0,13.74.62,35,.62,49.08l13.74-2.86"/><path class="cls-2" d="M760.55,845.16c11.85-1.44,25-.86,36.85-1.24,3.58-.12,7.22.33,11.36-1.78.4,5.67.94,10.9,1.1,16.14.5,16.24,1.61,32.5,1.07,48.71-.52,15.86,1.21,31.61.57,47.49-.53,13.07-.66,26.22-.86,39.34,0,2.86,2.12,5.7.49,8.74"/><path class="cls-2" d="M786.17,332.34c1.05,8.1.51,16.24.6,24.36.07,6.66,0,13.33,0,20a60.42,60.42,0,0,1-1.42,15.62H759.3"/><path class="cls-2" d="M368.29,115.6c-2.75,3.26-8.88,22.53-10.48,26.29-1.8,4.24-3.89,6.56-8.89,6.29-7.27-.39-14.57-.1-21.86-.1"/><path class="cls-2" d="M605.64,1182.45c-14.94,2.28-31.23,1.47-46.22,1.87"/><path class="cls-2" d="M813,826.42V843h10.2c-.76,9.9-2,19.45-1.54,29"/><path class="cls-2" d="M758.05,1322.37c-.59,22.28,1.07,44.54.28,66.84-.25,7,2.81,20,2.21,29.35"/><path class="cls-2" d="M86,1527.25H49.11c2.42,4.08-4.13,9.29,3.75,9.37"/><path class="cls-2" d="M1161.56,875.77c.21,16.86,1.67,50.59,1.87,67.46"/><path class="cls-2" d="M905.46,660.9c6.17-1.53,12.55.07,19.05-1V653.2c-11.54,1.81-32.82.45-44,2.08"/><path class="cls-2" d="M1006.65,1419.19c-6.45.21-16.76.81-23.22.92q-22.8.39-45.6.63"/><path class="cls-2" d="M1229.64,847c-13.31,1.35-29.78-1-43.1-.65"/><path class="cls-2" d="M808.06,828.29c-13.72,1.13-38.75,1.27-52.5,1.25h-7c.5,3.64-1.09,6.84,2,9.37"/><path class="cls-2" d="M811.69,1038.77c-11.24.28-22.05.34-33.29.69-6,.19-18.68.79-24.72,1.21"/><path class="cls-2" d="M86.32,1518.5H56c-7.25,0-7.73.61-6.87,8.74"/><path class="cls-2" d="M467,1243.35c-1.24,12.06,1.24,59.44,1.28,71.52,0,14.78,1.51,29.56,0,44.35-.06.6.38,16.24.59,16.86"/><path class="cls-2" d="M880.48,655.27,838,656.52"/><path class="cls-2" d="M240.87,1715.26c4.54,4.94,9.56,8.18,16.89,7,4-.64,8.31.48,12.47.41s4.53,2.92,6.39,7.31"/><path class="cls-2" d="M1010.4,948.22c-3.75,1.87-7.7,3.44-11.18,5.72a8.46,8.46,0,0,0-3.93,8c.55,11.23-.37,22.49.68,33.73.17,1.84-.49,9.83-.7,11.71"/><path class="cls-2" d="M1156.44,875.14c1.08,18.94.57,49.14.75,68.08"/><path class="cls-2" d="M201.51,190.56V233"/><path class="cls-2" d="M1026,1343.39v40.82h11.24"/><path class="cls-2" d="M1011,604.16c1.87,2,9.36,6.76,9.43,9.26.34,12.29.75,28.94,1.22,41.23"/><path class="cls-2" d="M340.81,1719.63c-15.4.85-30.79,1.64-46.22,1.25"/><path class="cls-2" d="M1012.9,311.11c-1.35-1.68-3.64.42-5.82-1.25,1.71,13.76-1.82,27.45.2,41.23"/><path class="cls-2" d="M190.27,188.4a301.76,301.76,0,0,0,0,43.38"/><path class="cls-2" d="M460.73,888.88c.42,12.08,1,24.15,1.21,36.23.26,15.41-.28,30.82.61,46.22a22.89,22.89,0,0,1-.44,6.9c-1,4.06,6.74,11,9.81,13.92"/><path class="cls-2" d="M473.22,1100.63c2.48,4.05.34,8.33.64,12.49a170.71,170.71,0,0,1,0,28.73"/><path class="cls-2" d="M1019.77,1096.88v41.22"/><path class="cls-2" d="M918,1453.54c-17.9.55-43.28,3-61.21,2.47"/><path class="cls-2" d="M469.48,843.29c0,11.45,0,22.9,0,34.35,0,2.08-.39,4.16-.6,6.25"/><path class="cls-2" d="M469.48,713.36,468.23,754"/><path class="cls-2" d="M386.4,499.12c-1.11,2.08-.66,4.16-.26,6.87,4.82,0,9.42.21,14,0,14.8-.81,29.53,1.82,44.36.79,3.27-.23,11,1.12,14.36,1.75"/><path class="cls-2" d="M1037.26,1353.6c2.17,7.82,1.15,15.81,1.26,23.74q.27,20.3.62,40.6c.19,11.66.31,23.32.66,35,.19,6.46.37,38.27.79,44.73"/><path class="cls-2" d="M88.72,1671.5c1.19,4.1.23,8.39.69,12.56.26,2.35-3.52,2.47-5.95,2.47-9,0-17.91,0-26.86,0-1,0-2.27-.55-3.75,1.41,0,7.09.32,23.15-.09,31"/><path class="cls-2" d="M192.15,320.48c4,.48,2.4,3.61,2.43,5.62.15,11.66.07,23.32.07,35"/><path class="cls-2" d="M623.13,661.52a615.35,615.35,0,0,1,62.46-.62"/><path class="cls-2" d="M553.18,662.77l70-1.25"/><path class="cls-2" d="M1000.4,731.48c-10.31,2.94-11,3.86-10.65,13.74.1,2.91.81,5.69.2,8.78-.78,3.91.95,7.2,5.45,8.09"/><path class="cls-2" d="M1022.89,762.71c2.65,6.31,1.19,29.35.26,35.55-.79,5.27-1.2,10,.31,15.06.4,1.34.05,2.9.06,4.35,0,8.4.75,9.23,8.74,9.35,7,.1,13.34,3.69,20.64,2.71,6.54-.88,13.3-.1,20-.24,2.1,0,2.42-1.28,8.2-1.82"/><path class="cls-2" d="M809.9,989.45a374.19,374.19,0,0,0-40.6,1.87"/><path class="cls-2" d="M656.24,115.6l1.42,6.25H616.89"/><path class="cls-2" d="M1040.38,1496.64c3.87,18.18,1.52,36.65,1.91,55-4.24.51-4.24.51-4.41-4.52-5.24-2.73-10.16,3.75-15,3.2"/><path class="cls-2" d="M468.85,1101.88c-1.22,10.83.12,21.66.23,32.48,0,2.31-.57,4.58-.23,6.87"/><path class="cls-2" d="M804.27,1287.39c-1.51,6-.16,17.07,0,23.11.15,6.87,0,13.74,0,20.61"/><path class="cls-2" d="M828,735.23a73.28,73.28,0,0,1-9,22.08c-3,4.72-2.95,11.46-.3,17.25a9.13,9.13,0,0,1,1.27,2.51c1,5.46-.54,8.18-5.71,9.32-1,.21-1.48.24-1.23,1.31"/><path class="cls-2" d="M807.11,764.58c-12.91,1-45.93,1-58.84,0"/><path class="cls-2" d="M758.68,1280.16c.18,11-.83,31.17-.62,42.21"/><path class="cls-2" d="M703.29,1735.24c-7.46,1.43-21.52-.26-28.92.78-5.83.82-11.84-.68-17.61,2.14-2.61,1.28-2.33,2.68-2.4,4.57"/><path class="cls-2" d="M1029.14,1010.06l1.25,58.71"/><path class="cls-2" d="M984.81,386.06c-7.21,1.69-15.29-.36-22.47,1.1-1.44,5.73-2,15.14-.66,20.76"/><path class="cls-2" d="M320.82,198.05c3.13,5.2.41,15.4.21,20.6-.33,8.39,1.24,16.69.34,25-.4,3.73,3.12,3.23,4.45,5"/><path class="cls-2" d="M581,1745.24c-4.18,1.93-8.49.85-12.81.7-8.76-.31-31.24,3.21-40,2.36"/><path class="cls-2" d="M958.56,1723.38c-13.53.42-27.07.77-40.6,1.32-1.91.08-4.34,5.47-3.87,8.69"/><path class="cls-2" d="M1006,1461c-3.58-4.36-17.33-10.63-21.86-10.55-13.12.23-26.24.72-39.35,1.2-8.54.32-18.32,1.44-26.86,1.86"/><path class="cls-2" d="M460.69,654c-.39,11.66-.47,44.57-1.74,56.23-.13,1.21,4.9,2.46,7.79,2.46"/><path class="cls-2" d="M810.52,1368.59c.42,7.08.74,14.17,1.31,21.23.18,2.18-1.53,4.81,3,5.94,4.08,1,1.82,5.83,2,9.05"/><path class="cls-2" d="M499.6,1185.51c5.35-1.85,16.9.28,22.65,0v17.56c-5.92,0-11.55-.08-17.18,0-1.9,0-4.13-.95-5.62,1.2"/><path class="cls-2" d="M746.81,158.08c1.36-4.78-2.7-7.87-4-11.79-3.15-9.54-9.68-11.45-19.74-7"/><path class="cls-2" d="M1121.58,875.77c0,20.4,1.48,49.24,1.48,69.65"/><path class="cls-2" d="M1024.77,843.29q.62,9.37,1.24,18.74c.05.83-.24,2.29,0,2.41,5.4,2.18,3.66,6.86,3.62,10.71s2,9.43-5.54,8.88a21.49,21.49,0,0,0-.61,3"/><path class="cls-2" d="M731.82,1461c-6.45-2.61-12.88.58-19.37.1-6-.45-13.32.53-19.36.53"/><path class="cls-2" d="M904.84,1422.92c-11,.23-57.78,1.05-68.81,1.26"/><path class="cls-2" d="M88.46,1648.42H51.61"/><path class="cls-2" d="M791.16,141.84c-1.4,12.26-.25,26.21-.58,38.49"/><path class="cls-2" d="M675.6,231.78c-5.63-1.25-1.17-5-2.07-7.8-5.4-1-5.11,3.16-5.4,6.56-.35,4.15,1.41,8.24.12,12.53-.48,1.6-1.4,1.3-2.22,3.1-2.31-1.1-6.93-.44-9.57.62"/><path class="cls-2" d="M490.71,426.66c0,7.5-.06,15,0,22.49.06,4.76-1.92,7.18-6.9,6.94-1,0-2.08.77-3.12,1.18"/><path class="cls-2" d="M761.18,324.23h24V312.36c-7.6,0-15.51-.11-23.42,0-4.29.08-5.42,2.36-3.79,6.22,2.19,5.18,3.25,10.34,2.16,16.27-1,5.2.21,10.78.37,16.2.09,3.12,0,6.25,0,9.37"/><path class="cls-2" d="M1014.15,311.73c.71,4.79,1.15,9.61,0,14.36-1.79,7.23,3.05,18.57,2.46,25.62"/><path class="cls-2" d="M1169.05,874.52c.42,8.74,1.57,17.53,1.07,26.22-.7,12.32,2,30.82,1.22,43.11"/><path class="cls-2" d="M505.91,1437.38c-2.93.63-4-6.47-4-8.2q0-10.62,0-21.24c-3.06-1.92-16.75-3.78-20-5"/><path class="cls-2" d="M119.69,1575.34c-1.48,12.08.11,46.33,0,58.4"/><path class="cls-2" d="M930.45,1733.37c-19.59-.4-40.4,1.1-60,1.87"/><path class="cls-2" d="M606.89,1199.94c-15.42,0-30.85-.34-46.22,1.25"/><path class="cls-2" d="M457.61,549.71c-8.72-1.38-17.5-.22-26.23-.65-3.12-.15-41.92.69-45-.6"/><path class="cls-2" d="M753.68,1142.48c-8.32.41-16.7-.91-25,.71-1.3.25-.39,2-.76,3.36,4.82.05,6.68,1.66,6,7.2-1,8.22-.3,16.64.77,26.2-9.31,0-18.29.29-27.24-.21a11,11,0,0,0-5.63.84"/><path class="cls-2" d="M308.32,115.6c-8.35,2.72-17.13,1.24-25.65,2-6.16.54-18.13-2.11-25.11-1.51"/><path class="cls-2" d="M1021.64,654.65l-1.25,45.6"/><path class="cls-2" d="M462,462.27c1.37,11.85.31,26.72.68,38.58"/><path class="cls-2" d="M1024.47,1017.59c-2.49,11.71,1.82,27,1.54,38.69"/><path class="cls-2" d="M86.58,1551.61H51"/><path class="cls-2" d="M786.16,224.91c-1.45,9.13-.39,18.32-.58,27.48-.2,9.57-.09,19.15,0,28.73,0,3.32-2.06,3.31-4.4,3.12"/><path class="cls-2" d="M484.47,237.12c-.47-4.71-2.3-5.13-1.58-8.62,1.9-1.07,4.15-1.69,6.56-.31.47,7.39-1.06,15.15,2.52,22.34H510.7"/><path class="cls-2" d="M130.93,1568.47H96"/><path class="cls-2" d="M813,945.1h10.09c-.2,9-2.1,17.88-1.38,26.86.39,4.79-.73,9.71,1.28,14.36"/><path class="cls-2" d="M436.37,345.46c-8.9,1.23-17.48,10.85-21.07,17.58-2.88,5.38-.76,7.33,6.71,7.41"/><path class="cls-2" d="M404.51,125.57c-12.7.44-27.29-.8-40,.66"/><path class="cls-2" d="M88.46,1700.89c-11.66.34-23.34-.73-35,.62"/><path class="cls-2" d="M86,1559.1c-8.76.1-17.52-.34-26.25,1.14-2.8.47-5.81-.31-8.73-.52"/><path class="cls-2" d="M468.85,1376.09c-1.35,16.85-.44,33.73-.4,50.59,0,3.46-.92,8.32,0,11.82"/><path class="cls-2" d="M482,630.91c2.75,2.23,6.3,1.47,10,3V659"/><path class="cls-2" d="M713.08,394.18h-35"/><path class="cls-2" d="M754.93,1140c.59,11.24-1.63,22.51.16,33.7a11.68,11.68,0,0,1-.81,6.19c11.14-3.87,21.43.31,31.26-3"/><path class="cls-2" d="M813,1072.52l1.55,6.22c-2.36,1.71-4.65,1.39-7.17,1.41-17.08.16-34.15.73-51.22,1.08-3,.06-2.44,6.41-2.5,8.18"/><path class="cls-2" d="M485.09,1358c-5.12-.09-8.06,3.73-7.48,8.74,1.19,10.19-.35,24.77-.07,35"/><path class="cls-2" d="M870.48,1735.24c-7.7.42-15.4.9-23.11,1.24-16.87.73-41.06,1.46-57.88,3.14"/><path class="cls-2" d="M462.76,231.86c-.2,3.83.86,6.46-.64,10l22.34-1v-4"/><path class="cls-2" d="M1027.65,1096.88a165.56,165.56,0,0,0-.53,25.62c.49,5.14-.28,10.4-.48,15.6"/><path class="cls-2" d="M661.86,1143.73c8.14.76,16.18-1.28,24.37-.82,3.3.18,5.23.15,5,3.94-2.21,1.06-4.57.52-6.87.62-6.77.29-8.19,1.06-6.62,7.44,1.7,6.93-.82,13.39-.23,20,.15,1.72-.19,5,1.86,6.25"/><path class="cls-2" d="M876.73,1700.89c-20,.42-41.22,1.46-61.21,1.87"/><path class="cls-2" d="M420.13,482.25H385.78"/><path class="cls-2" d="M1012.9,687.76c-3.32.66-1.77,3.3-1.8,5-.15,10-.34,26.08-.34,36.07"/><path class="cls-2" d="M198,1637.73c.36,9.16.29,26.54,1.64,35.67"/><path class="cls-2" d="M675.6,231.78c0,5.62-1.51,16.26-1.16,21.86.26,4.18-1.59,5-4.85,4.32-2-2.61.41-6.17-2.11-8.68"/><path class="cls-2" d="M748.82,851.41c2.08-2.91-1.34-32.06-.72-35.16.54-.31,1.18-1,1.83-1q28.42-.71,56.84-1.3"/><path class="cls-2" d="M140.93,1576.59c1.25,11,.93,45.52,1.07,56.56"/><path class="cls-2" d="M806.15,801.44c-11,0-23.32.62-34.35.62"/><path class="cls-2" d="M1184,896.38c.26,15.61.44,31.23.65,46.85"/><path class="cls-2" d="M1008.52,1499.76c-1.3,17.68-.27,35.4-.57,53.09a12.07,12.07,0,0,0,1.82,3.12"/><path class="cls-2" d="M734.94,1235.55c-.17-13.05,4.06-51.06-1.87-51.06-8.54.3-32.65-.29-41.08.75"/><path class="cls-2" d="M810.52,748.34q-27.48.31-55,.64c-.85,0-6.82-.13-7.45.9"/><path class="cls-2" d="M467.22,987.56c1.73,6.2-.58,15-.3,21.25.29,6.44.06,12.91.06,19.36"/><path class="cls-2" d="M335.64,1719.91c-1.25,2.91-5.64,15.48-6.67,18.47-2.63,7.68-3.82,8.69-11.28,8.73-2.71,0-4.67.32-9.37.63"/><path class="cls-2" d="M902.86,138.72c-7.5.2-38-.19-45.49,0"/><path class="cls-2" d="M497,1041.29v32.48"/><path class="cls-2" d="M475.1,1238q.31,18.74.62,37.48c0,.9-.21,1.94,1.25,1.87"/><path class="cls-2" d="M750.56,916.37c.16,10.83,1.4,21.66,0,32.48-.78,5.89,1.32,14.45.65,22.49"/><path class="cls-2" d="M641.33,910.59c-4.22,7.73-19.84,14.53-26.3,15.22-11.25,5.87-11.25-6.31-20.62-4.44"/><path class="cls-2" d="M932.32,1187.45c1.3-1.07.59-2.52.58-3.75-.1-13.71,2.36-12.4-13.06-11.62-8.46.43-17,.58-24.89-2.64"/><path class="cls-2" d="M464,712.45c-1.4,10.6-.42,30.27-.8,40.89"/><path class="cls-2" d="M413.26,148.08c3.84-2.49,7.8.3,11.92-.27,8.58-1.18,17.45-.11,26.18-.46,4.51-.18,5.84,1.49,5.68,5.72-.37,10-.56,20-.65,30-.06,6.43-.2,6.68,6.39,4.52"/><path class="cls-2" d="M821.76,873.27c.19,3.22-.72,6.33,2.87,9.07,1.51,1.16.25,5.94.25,9.66H811.77"/><path class="cls-2" d="M815.93,108.21c-9.37.35-52.91.37-62.25,1.8a15.24,15.24,0,0,0-3.13,1.22"/><path class="cls-2" d="M485.72,1143.73c10,2.51,10,2.5,10,12.53,0,3.54,3.13,10.16,3.13,13.7"/><path class="cls-2" d="M367,1471.65c-11.43,1.28-24.15.95-35.6,1.25-7.29.19-14.57.41-21.86.62"/><path class="cls-2" d="M489.47,1475.4c-7.21,1.68-9.45.84-13.76-5-.88-1.18-1.71-1.56-3.73-1.49-18.93.59-37.89.47-56.83.9-16,.37-32.07,1.2-48.1,1.82"/><path class="cls-2" d="M1011.65,769c2.72,2,1.56,5.22,1.63,7.5.23,7.89-1,26.45-1.44,34.36"/><path class="cls-2" d="M221.5,391.68c-.43,3.06,1.48,3.49,3.74,3.1,7.92-1.39,15.79.92,23.75.17,5.36-.51,14.26,16.35,14.45,22.47"/><path class="cls-2" d="M1175.92,875.14c.21,10,1.67,58.71,1.87,68.71"/><path class="cls-2" d="M461.58,980.1c0,10,3.09,36.21,1.65,46.2"/><path class="cls-2" d="M1221.52,971.33h-30"/><path class="cls-2" d="M110.94,1602.2c1.38,7.88.83,17.08,1.28,25,.12,2.08-.73,4.28.59,6.25"/><path class="cls-2" d="M1001.65,230.53c3.76-.07,7.54.38,11.5-.88,3.75-3.73-1.32-7.1-1.06-11,.57-8.5,0-17.07.27-25.59.11-3.53-2.81-5.65-4.3-4.74-4.55,2.8-7.25-1.18-10-2.46-3.53-1.65-7-3.5-10.79-3.91-3.94-.42-3.63-4.13-3.73-6.38"/><path class="cls-2" d="M371.53,115c-8.89-1.82-23.64-1-32.6-1.3"/><path class="cls-2" d="M149.67,1575.34c.42,15.82.93,31.65,1.21,47.47.18,10.26,0,10.36-10,11.19-3.72.31-7.49.05-11.24.05"/><path class="cls-2" d="M1244.63,943.85c.09,9.16,3,25.76,1.25,35"/><path class="cls-2" d="M521.95,123.72c6,0,15.6-.62,21.46-.62a24.55,24.55,0,0,0-2.26-6.25c-2.11,0-5.65.62-7.95.62"/><path class="cls-2" d="M87.21,1501c-3.89,2.43-8.37,1.24-12.51,1.68-8.26.87-16.64.61-25,.82"/><path class="cls-2" d="M992.91,861.4c1.39,1.74,1.22,13.77,1.17,15.61-.06,2.09,1,3.67,2.58,3.63,6.39-.16,10.15,6.11,16.24,6.32,1.18,0,10-.7,10.62,0"/><path class="cls-2" d="M808.65,1278.65c-.67-.75-2.43-3.19-3-2.43-2.91,3.66-7.28,1.62-10.7,3-.2,2.79,0,4.44,3.79,3.27s6.25.34,5.58,4.87"/><path class="cls-2" d="M985.41,358c-.21,8.74-.43,19.36-.61,28.11"/><path class="cls-2" d="M815.52,1702.76c-12.48.81-24.91,2.42-37.48,1.94-5.19-.2-41,2.29-46.22,2.43"/><path class="cls-2" d="M474.47,985.07c-3.19.82-2.48,3.41-2.49,5.62,0,8.54,0,28.94,0,37.48"/><path class="cls-2" d="M668.11,1427.93a3.2,3.2,0,0,0-5.47.09c-2.94,4.61-7.28,3.37-11.39,3.68-14.56,1.1-54.82,1-69.34,3.09"/><path class="cls-2" d="M401.86,118.95c-7.91,0-18.17-.21-26.08-.23-1.75,0-7.43.68-8.78-1"/><path class="cls-2" d="M947.94,115.6c2.33-3.62,1.4-6.26-2.5-6.18-11.66.24-23.32.77-35,1.19"/><path class="cls-2" d="M358.29,394.18c3.86,10.3,10.07,21.44,8.91,33.73H350.8"/><path class="cls-2" d="M656.86,246.77c-9.37.42-18.61-.59-28.58.19-11.48-1.19-20.92-.06-33.89-.82-17.33-.28-28.85-3.21-43.1,1.25"/><path class="cls-2" d="M816.77,1088.14c-8.67,1.61-53.72,1.16-63.09,1.27-.08,4.53,1.84,8.6-1,13-5.21-.05-19.44,1.72-25.83.07"/><path class="cls-2" d="M468.48,1438.5c-6.45,0-9.42-.08-15.87.08-13.12.32-30,2-43.1,2.47"/><path class="cls-2" d="M345.18,377.32c1.52,4.73.07,9.59.71,14,3.75,2.83,8.92-1.37,12.41,2.85"/><path class="cls-2" d="M1103.45,997.48c-.21-6.91-.18-11.53-7.48-11.23-8.11.34-27.48.7-35.6.7"/><path class="cls-2" d="M505.08,118.1c9.37-.39,18.77.79,28.11-.62"/><path class="cls-2" d="M399.52,115A121.38,121.38,0,0,0,372,115"/><path class="cls-2" d="M831.76,1729c-10.57,1.63-21.22,1.15-31.86,1.28-2.5,0-10,.39-12.47.6"/><path class="cls-2" d="M467,585.94c2.49,4.11,1.82,9,1.56,13.1-.58,9.19.52,18.36-.32,27.5"/><path class="cls-2" d="M305.2,417.92c-13.95-1.89-27.9,1.17-41.76-.5-1.24,6.59-1.24,6.69,4.9,6.72,12.49.07,25,0,38.19,0-.81-5.45.55-23.63,2.41-29.57"/><path class="cls-2" d="M387,520.06l70.61,2.17"/><path class="cls-2" d="M804.27,1331.11c1.12,18.93,2.07,62.24,1.87,81.2"/><path class="cls-2" d="M691.84,1392.66c.63,10.91,7.5,47.14-23.74,35.27"/><path class="cls-2" d="M328.31,1442.3a24.3,24.3,0,0,0-4.3,3.76c-1.08,7.08-6,4.91-10.68,5.19-10.22.6-20.42.15-30.62.42"/><path class="cls-2" d="M758.05,135.59c1.43,3.75,4.33,6.77,8.76,6.37,5.78-.52,11.65-.13,17.48-.13"/><path class="cls-2" d="M1119.08,982c5,1.81,1.85,6.34,2.82,9.46.51,1.67.08,4.5-.43,7.4-4,0-20.7-1.25-24.88-1.25"/><path class="cls-2" d="M126.72,1575.34c-1.22,3.48-.18,11.46-.11,15,.29,13.54.78,29.88,1.2,43.41"/><path class="cls-2" d="M769.3,808.31c11.87,0,25-.62,36.85-.62"/><path class="cls-2" d="M562.15,298c.84-2.67,2.07-4.26,3.65-.58.61,1.4.79,3.82,0,4.87-5.05,6.53.61,13.38-.8,20.15-.67,3.22.48,7.06-.94,10.56s-.11,7.54.44,10.52c1.86,10,0,20.08,1.6,30.14,1.08,6.93.31,14.51.54,21.79"/><path class="cls-2" d="M52.86,1688c-.1-6.25.39-17.08-.84-23.92H87.83"/><path class="cls-2" d="M744.93,337.34c-7.8-2.46-15.83-1-23.74-1.16-15.41-.32-30.83-.09-46.22-.09,0,18.11,0,35,0,51.84,0,2,.49,5,3.11,6.25"/><path class="cls-2" d="M1022.89,1229.93c.69,8.73-1,22.59.6,31.3"/><path class="cls-2" d="M475.33,382.62c1.11,7.32-6.23,12.47-10.26,17.15-7.53,8.75-17.74,8.77-28.07,8.15"/><path class="cls-2" d="M309.57,1473.53c-8.74.68-30,3.22-38.73.62"/><path class="cls-2" d="M210.51,236c5.3,2,11.71,3.68,11.4,7.71-.48,6.34.39,12.86-.33,19.34-.27,2.45,1.17,6.55.55,13.21"/><path class="cls-2" d="M1031.64,1343c1.61,8.71,3,31.8,1.87,40.58"/><path class="cls-2" d="M808,126.85c-.27,4.77-3.5,8.55-4.38,13.11-.42,2.16-2.13,1.92-3.74,1.89-2.71,0-6,0-8.74,0"/><path class="cls-2" d="M759.3,392.31c-.88-4.1-4.37-10.88-7.48-10.47-10.22,1.37-20.42-.71-30.64.36-6.77.71-6.9.25-6.79,7,0,1.38.27,3.88-.69,5"/><path class="cls-2" d="M650,1710.88c3,5.24,1.66,11.73,5,16.87,1.63,2.52,3.24,5.07,3.76,8.11"/><path class="cls-2" d="M584.41,1713.38c.07,4.44-.5,9-3.27,12.37-3.17,3.82-1.73,9.17-5.29,12.8-.71.73,1,3.88,3.56,4.19"/><path class="cls-2" d="M919.83,407.93c-8.54.42-23.32,1.46-31.86,1.87"/><path class="cls-2" d="M468.85,1373.74c8.66,1.09,4.86,10.57,5.25,15.15.34,3.93-.88,8.22-.88,12.18"/><path class="cls-2" d="M110.32,1576.59l.62,25.61"/><path class="cls-2" d="M1046.92,1728.37h-25.28"/><path class="cls-2" d="M1135.32,888.26c.23,12.28-.16,43.9,1,56.17"/><path class="cls-2" d="M387,535.35h71.57"/><path class="cls-2" d="M458.57,541.59H387"/><path class="cls-2" d="M475.72,502.24a27.49,27.49,0,0,0-16.86-.14c0,22,0,43.86,0,65.72,0,6.48-1.23,14.91,1.24,21.24"/><path class="cls-2" d="M1017.27,888.26c1.2,8.72,1.66,36.85,1.9,45.6.08,3.12-.63,6.32.6,9.37"/><path class="cls-2" d="M985.41,138.09c-9.14-1.07-18.32-.48-27.48-.62"/><path class="cls-2" d="M460.11,817.68c1.85,8.26-.6,16.73,1.25,25"/><path class="cls-2" d="M494.46,940.1v39.1c-2.38,1.49-4.38.61-6.25.88"/><path class="cls-2" d="M1230.89,921.36c1.39,9.76,1.37,31.45,1.87,41.22"/><path class="cls-2" d="M234.65,1686.52c-.45,7.84.58,16.07-.12,21.85-.46,3.85,3.16,4.21,6.34,6.88"/><path class="cls-2" d="M420.13,490.37c-8.12,0-24.81.24-32.93.24"/><path class="cls-2" d="M191.83,1573.89c-6.87,1.26-16.08.53-27.17.83"/><path class="cls-2" d="M86,1527.25c1.27,2.29.3,5.85.62,8.51-11.52.32-22.85,1.77-33.73.86"/><path class="cls-2" d="M1006,1461c.62,10.83,1.87,27.9,2.5,38.73"/><path class="cls-2" d="M814.57,1078.74c2.5,8.33,6.82,24.11,9,32.53,1.16,4.57,4.1,4.89,7.58,4.27,2.36-.42,6.05-2.42,8.34-3.25"/><path class="cls-2" d="M301.32,125c-7.12,3.37-16.33.57-23.61,1.25-4,.37-12.48.84-16.24,3.12"/><path class="cls-2" d="M1013.46,1684c-5.22,4.5-9.7,12.49-18.05,12.56"/><path class="cls-2" d="M1018,562.89c.88,7.91,4.64,42.12,2.31,50"/><path class="cls-2" d="M784.29,317.35c-7.93.08-17.77-.36-25.61,1.35"/><path class="cls-2" d="M715.58,337.34v23.74"/><path class="cls-2" d="M754.93,336.72c1.38,7.88.25,15.83.62,23.74"/><path class="cls-2" d="M996.66,815.8c-3.41,1.11-4.5,2.6-4,6.9,1,8.85.29,17.88.29,26.83V861.4"/><path class="cls-2" d="M808.65,757.09c-20,.23-40-.47-60,.62"/><path class="cls-2" d="M577.43,940.1c7.18.62,11.15-.81,16.35-1.22,1.19-.09,2.08.1,2.6,1.81,1.77,5.86,4.65,3.45,7.4.65"/><path class="cls-2" d="M279,1754.61c1.08-5.15,5-6,9.37-6.25,6.66-.34,13.36.76,20-.62"/><path class="cls-2" d="M748.68,802.69c7.71-.15,15.43.54,23.11-.62"/><path class="cls-2" d="M575,1738.37c-10.2-1-26,2.92-36.24,1.34-1.36-.21-7.9,7-9.36,7.41"/><path class="cls-2" d="M738.69,1287.39a5.15,5.15,0,0,1-.05,1.91c-.3,11.42-.89,17-.57,25.57"/><path class="cls-2" d="M1027.89,1016.93c-8.39,2.35-25.38-6.66-32.61-9.53"/><path class="cls-2" d="M749.31,337.34c.37,7.7-.76,15.44.62,23.11"/><path class="cls-2" d="M86.58,1566.6l-35.6.62"/><path class="cls-2" d="M488.84,165.57c-1.38,7-.26,14.16-.62,21.24"/><path class="cls-2" d="M334.56,394.18c-7.5,0-18.11.42-25.61.42"/><path class="cls-2" d="M753.06,1043.79c-.21.21,0,11.7,0,11.86.79,3.72-1.57,8.1.77,11.12,2.86,3.69,7.35-.3,11.09.7a17.41,17.41,0,0,0,4.36.06"/><path class="cls-2" d="M87.83,1640.3l-36.23.62"/><path class="cls-2" d="M676.23,362.33c9.35-1.3,25.61-.46,35-.64,6.25-.12,12.49-.56,18.74-.58,17.7-.06,39.15-.55,56.84.54"/><path class="cls-2" d="M701.84,325.48l-25.61.62"/><path class="cls-2" d="M1010.4,1613.44c1.2,8.09.34,16.24.6,24.36.3,9.37,1.91,37.08,2.12,46.45"/><path class="cls-2" d="M947.94,115.6c-10.62.21-29.2,1.06-39.82,1.22"/><path class="cls-2" d="M1004.78,189.93l-.62,21.86"/><path class="cls-2" d="M1037.88,1628c0,6.45-.3,35.6-.19,42.05"/><path class="cls-2" d="M1009.77,1556c-.93,10.41-.14,48.93,1.16,59.34"/><path class="cls-2" d="M350.8,427.91H329.56"/><path class="cls-2" d="M682.16,112c-7.08,0-19.47,2.31-26.55,2.31"/><path class="cls-2" d="M483.22,175.57c-6.79-2.79-13.74-.43-21.47-1.51.59,4,.35,10.19,1,13.53"/><path class="cls-2" d="M480.72,888.26c5.42,2.36,12.82,10,13.51,13.78,1.13,6.09-.45,14.36.85,20.57"/><path class="cls-2" d="M72.22,1574.72H51"/><path class="cls-2" d="M438.36,377.32c-6.44.93-16,2.43-22.59,2.47-4.37,0-2.81,3.26-2.5,5.65"/><path class="cls-2" d="M734.94,1235.55c2.16,3.53,5.06,5,9.38,4.46,4.53-.6,9.15-.51,13.73-.71"/><path class="cls-2" d="M96.58,1644c-1.45,6.41-.14,17.29-.62,23.74"/><path class="cls-2" d="M657.66,121.85a75.93,75.93,0,0,0,9.82,23.74"/><path class="cls-2" d="M667.48,249.27c-3.87,2.59-97.8-.36-101.27.85-2.64,2,1.19,7.1-4.29,6.65"/><path class="cls-2" d="M1104.55,855.7c1.26,4.76.61,9.46.85,13.19.19,2.94-1.38,6.25,2.89,8.47"/><path class="cls-2" d="M709.33,337.34v24.15"/><path class="cls-2" d="M769.3,808.31c-6.78,1.9-13.8-.08-20.61,1.25"/><path class="cls-2" d="M778,1704.71c2.29,6.66,10.2,28.25,12.49,34.91"/><path class="cls-2" d="M711.83,1709c.18,5.29-3.57,9.34-4.63,14.31-.32,1.51-3,10.36-3.9,11.92"/><path class="cls-2" d="M457,345.46H437"/><path class="cls-2" d="M751.18,971.33c0,5.21.41,10.45-.14,15.6-.38,3.56.72,4.47,3.89,4.41,4.79-.09,9.58,0,14.37,0"/><path class="cls-2" d="M457.61,345.78c3.91,5.81,13.18,10.6,14.37,18.43"/><path class="cls-2" d="M498.21,1283.64c-6.41-2.77-24.51-6.76-31.13-8.76"/><path class="cls-2" d="M340.81,299.24v51.22"/><path class="cls-2" d="M1077.23,997.48c-11,1.07-22.07.5-33.1.71"/><path class="cls-2" d="M491.34,705.24c-7.87,2.07-17.22,7.67-25.61,7.46"/><path class="cls-2" d="M1189.66,944.79c1.76,3.34-1,8.41,1.87,11.56,7.05,1.13,14.19-1,21.25.59,2.78.63,4.51-1.35,6.24-3.09"/><path class="cls-2" d="M1002.9,1143.73c-2.65.62-2.91,2.25-2.78,4.39.39,6.4,1.11,12.93-.34,19.35"/><path class="cls-2" d="M492,659c-.1,1.48.61,5.73,2.49,5.55,6.05-.56,12.08-1.19,18.12.07"/><path class="cls-2" d="M905.46,660.9c-6.69.41-15.15,4.47-21.24,6.87"/><path class="cls-2" d="M308.95,429.16a67,67,0,0,0,20.61-1.25"/><path class="cls-2" d="M435.12,381.07c-6.45,1.67-13.53,4.58-20,6.25"/><path class="cls-2" d="M1025.39,944.47c7.66,4.24,5.3,11.6,5.62,18.11"/><path class="cls-2" d="M884,1156.74c-3.32,4-9.86,8.52-6,15.11-3.17,3.48-7.19,3.11-12.5,3.11"/><path class="cls-2" d="M472,364.2a33,33,0,0,1,3.35,18.42c-7,1.53-14.24-3.73-20.84-3.43"/><path class="cls-2" d="M460.73,848.91c-.81.47,0,38.1,0,40"/><path class="cls-2" d="M723.07,139.34c-.41,3.07,1.87,23.36-7.34,20-4.38-.85-37.59,1.71-42,1.51"/><path class="cls-2" d="M227.12,1757.73c-6.25-1-18.74-.1-25,.94"/><path class="cls-2" d="M461.36,627.79c-1.18,8.72-.43,17.49-.67,26.23"/><path class="cls-2" d="M774.29,1046.91c-6.25,0-13.74.62-20,.62"/><path class="cls-2" d="M496.34,1091.26c-1.66,6.05-7.43,3.94-11.3,5.49-1.68.67-5.12.8-6.82,2"/><path class="cls-2" d="M1101.59,825.8c-6.25,0-15,1.87-21.24,1.87"/><path class="cls-2" d="M97.14,1701.16c-.1,3.32-3.88,8.27,2.48,10,2.17.59,1.25,5.85.08,8.46"/><path class="cls-2" d="M727.62,336.39l-.8,24.07"/><path class="cls-2" d="M870.48,679c0-2.08-3.78-10.28-3.06-11.84,1.3-2.78.07-5.06-3.19-5-8.33.14-16.66.39-25,.6"/><path class="cls-2" d="M738,131.17c-2.15,2.09-12.15,1.63-14.95-.58l-.42-8.74"/><path class="cls-2" d="M470.49,1237.28c-2.48,8.6,1.9,28.43.84,37"/><path class="cls-2" d="M755.55,1459.16c-2-.73-3.32-1.44-4.59,1.79-1.75,4.46-14.15,7-19.15.08"/><path class="cls-2" d="M1008.05,446.19l-.84,43.9"/><path class="cls-2" d="M1010.93,1618.88l22,7.06"/><path class="cls-2" d="M1046.61,1701.52c.46,5.61-1.14,21.28.31,26.86"/><path class="cls-2" d="M884.23,667.77c-2.87,0-3.95,2.84-4.17,4.4-.86,6-5.32,6.09-9.57,6.84"/><path class="cls-2" d="M463.23,1026.3c.47,8.74-.86,17.52.62,26.23"/><path class="cls-2" d="M997.91,560.33c5.3,2,11.48,5.89,17.33,5,.59,8.77-2.41,33.49-1,41.58"/><path class="cls-2" d="M72.49,1574.72c5.31-.28,11.19-2.11,16.82.81,4,2.08,10.18-.09,15.39-.16,20-.26,40-.44,60-.65"/><path class="cls-2" d="M439.5,383.2A38.09,38.09,0,0,0,422,397.31"/><path class="cls-2" d="M1016.32,690.25c0,5.83,2.2,26,2.2,31.86"/><path class="cls-2" d="M1030.39,963.84l-3.62,2.71c.36,4.36,2,13.94,2.37,18.53"/><path class="cls-2" d="M594.4,921.36c-5.83,0-22.9-.62-28.73-.62"/><path class="cls-2" d="M1037,1344.23c-3.31-2.35-9.43-.57-12.89-.83-5.34-.4-11-1-16.21-4.17"/><path class="cls-2" d="M811.14,1005.06c2,2.3-.74,4.13-.69,6.25h-58"/><path class="cls-2" d="M565.67,920.74c-3.08-.92-6.46.58-7.19,2.61-1,2.66-.4,3.17-.25,10.56"/><path class="cls-2" d="M294.58,1720.88c-7.57,1.41-17.28.06-23,1.87"/><path class="cls-2" d="M579.41,1742.74c1.29,3.24,5.36,4.22,8.1,3.67,4-.79,7.93-.37,11.88-.55"/><path class="cls-2" d="M305.2,140.59c1.57,7.8,2.56,9.37,10.62,9.37v18.11"/><path class="cls-2" d="M758.68,1280.16c-4.77-4.41-8.79-2.59-14.37-2.76"/><path class="cls-2" d="M1017.89,1017.59v40.29"/><path class="cls-2" d="M692,1185.24c.21,9.16-.17,39.3,1.1,48.44"/><path class="cls-2" d="M491.34,519.11c1.06,10.83.43,22.9-.62,33.73"/><path class="cls-2" d="M1031,1139.36c-9.93-2.16-18.75,2.86-28.11,4.37"/><path class="cls-2" d="M403.89,1447.29c-1.81,5.37-7.44,16.39-6.87,22.49"/><path class="cls-2" d="M206.51,1629.68c3.29-4.86,8.19-2.17,11.8-1.5,3.27.6,6.83.88,10.06,2.13"/><path class="cls-2" d="M99.7,1719.63H42.23"/><path class="cls-2" d="M194.64,191.18c0,6.25.72,35,.73,41.29"/><path class="cls-2" d="M1022.89,728.83c-5.79-.31-17,.69-22.49,2.65"/><path class="cls-2" d="M470.73,364.83c-5.53,1.81-9.94,7.56-16.94,4.54-.93-.4-2.84,1.5-4.3,2.33"/><path class="cls-2" d="M320.82,198.05c-6.29,3.45-4.52,13.35-5,18.74"/><path class="cls-2" d="M221.5,391.68c.36-3.53-.35-14.55.44-18.15.38-1.73.28-3.08-4.82-5"/><path class="cls-2" d="M73.47,1679l-19.36.62"/><path class="cls-2" d="M859.24,401.68a13,13,0,0,0-8.75,7.49c-.74,1.65-2.72,2.55-5,3.13"/><path class="cls-2" d="M984.81,407.93H961.68"/><path class="cls-2" d="M811.77,1065.65c-5.42.31-37.19-.26-42.47,1.87"/><path class="cls-2" d="M739.31,121.22c4-1.84,8.5-.14,12.93-2.31l5.81,16.68"/><path class="cls-2" d="M327.06,148.08c-4.21.8-7.06,3.91-6.27,8.12.89,4.75-.75,9.58.54,14.39.45,1.67-.87,3-3,2.47"/><path class="cls-2" d="M1018.13,769.89c2.34,5.27-2.69,35.62-.86,40.93"/><path class="cls-2" d="M1118.46,841c.4,5.41-3.3,18.76-1.87,24.13"/><path class="cls-2" d="M823,723.36c-1.67-1.15-2.47-.81-3.19,1.23-1.44,4-3.26,7.94-4.93,11.89"/><path class="cls-2" d="M576.91,940.1H560.67"/><path class="cls-2" d="M1010.4,586.57c.21,4.16.57,8.33.59,12.49.05,8.74-1.27,9.37-9.34,11.24"/><path class="cls-2" d="M610,415.42c4.16,0,10.36,7.53,11.87,7.46,4.16-.21,8.39.75,12.49-.59"/><path class="cls-2" d="M459.48,271.76c-1.25,3.51-1.8,7.57-2.56,11.87.07,3.94,1.48,6.07,5.68,5.62L474.47,288"/><path class="cls-2" d="M200.92,332.34c1.38,4.32-.35,21.87-.06,26.24.11,1.6-.24,3.26,1.91,3.75"/><path class="cls-2" d="M86.58,1542.86l-15.62.62"/><path class="cls-2" d="M1104.09,840.79c.35,5.2-.74,10.46.62,15.62"/><path class="cls-2" d="M872.41,402c1.4.87,6.09,4.09,7,6.48,2.27,5.82,3.77,5.82,8.55,1.33"/><path class="cls-2" d="M89.08,1686.52a7.46,7.46,0,0,1-.31,6.87H54.1"/><path class="cls-2" d="M458.86,1718.38l-5,15"/><path class="cls-2" d="M1007.28,351.71c-7.77-.5-17.2,2.5-21.86,5.88"/><path class="cls-2" d="M721.82,337.34v23.11"/><path class="cls-2" d="M196.52,1566c4.18,2.36,9.31,3.3,11.37,8.7.68,1.8,4,1.26,5.5-.58"/><path class="cls-2" d="M1021.64,810.18c-2.66.83-5.16,1.79-8.16.73-2.57-.91-14.77,3.43-16.83,4.89"/><path class="cls-2" d="M910.46,106.86c-3,4.55-4.6,27.3-7.6,31.86"/><path class="cls-2" d="M1034.13,1259.91c-3.44,1.3-6.76,2.9-10.65,1.32-1.66-.67-14.42,3-15.59,4.3"/><path class="cls-2" d="M499.54,133.15c-1.89,4.33-4,6.42-4,9.31,0,3.34-3.49,4.3-6.07,5.62"/><path class="cls-2" d="M809.27,1017.55H752.76"/><path class="cls-2" d="M670.61,296.12c-1.77,4.93-.39,26.91-1.87,31.86"/><path class="cls-2" d="M420.13,497.87H387"/><path class="cls-2" d="M540.84,113c1.59,4.88,6.12,25.57,6.71,30.66"/><path class="cls-2" d="M503.21,1714.63c-3.62-4.86-11.47-4.55-17.33-3.67"/><path class="cls-2" d="M701.84,1180.58c-5,0-17.49.62-22.49.62"/><path class="cls-2" d="M368.91,422.92c6-.24,30.3,1.45,36.3.11"/><path class="cls-2" d="M490.71,509.11c-3.58-4.28-10.54-4.5-15-6.87"/><path class="cls-2" d="M442.3,384.81c-1,5.8-11.62,13-14.61,17.49"/><path class="cls-2" d="M937.84,1420.73c-4.82.06-28.32.5-33,2.19"/><path class="cls-2" d="M1224.64,945.1c.77,2.08,1.57,15.41.48,17.54-6.41,1.73-25.47-.37-33.9.57"/><path class="cls-2" d="M87.83,1655.92c-8.94.55-26.82-.54-35.75.83"/><path class="cls-2" d="M1011.65,769c-4.58-1.87-11.66-5-16.24-6.87"/><path class="cls-2" d="M758.68,335.47c-.83,0-1.67-.06-2.5,0-12.07,1.09-12.05,1.09-11.28,13.73a8.89,8.89,0,0,1-.59,2.5"/><path class="cls-2" d="M462.61,589.07c1,4.58,3.12,32.9,2.08,37.48"/><path class="cls-2" d="M985.41,138.09c0,7-2.91,32.9-1.87,37.48"/><path class="cls-2" d="M836.59,1702.16c-3,4.11-.5,22.13-3.58,26.21"/><path class="cls-2" d="M850.5,108.73c.48,2.94-1.08,4.44-3.75,4.32-10-.46-20,.83-30-.57"/><path class="cls-2" d="M475.34,375.41c-4.46-2-20.7-.59-25.6.27"/><path class="cls-2" d="M1022.27,740.22c0,4.58.62,17.91.62,22.49"/><path class="cls-2" d="M1022.89,1229.93c-2.28-7.54-10.31-15.62-16.24-16.24"/><path class="cls-2" d="M299.58,117.48c1.25,5.62,2.77,11.2,3.62,16.88a22.42,22.42,0,0,0,2,6.23"/><path class="cls-2" d="M1026,1384.21c-4.28,2.34-16.17,7.6-20.61,9.37"/><path class="cls-2" d="M489.47,148.08c-1,4.58-.67,10.77-.62,17.49"/><path class="cls-2" d="M1031,1097.58c-6.49-2.53-12.93-.09-18.14-3.2"/><path class="cls-2" d="M1109.43,947.19c18.26-2.45,61.88-2.61,80.23-2.4"/><path class="cls-2" d="M413.26,385.44c1,2.74,5.35,5.73-1.82,7.16-3.6.72-2.69,7.23-3.81,10.33"/><path class="cls-2" d="M1239.63,955.09c-.31,4.37.68,16.36-.62,20.68"/><path class="cls-2" d="M1004.15,211.79c0,4.37.62,13.74.62,18.11"/><path class="cls-2" d="M322.69,114.35c-4.36.38-10-.13-14.37,1.25"/><path class="cls-2" d="M378.28,464.69v16.94"/><path class="cls-2" d="M764.92,1233c-4-.68-5.61,2.09-6.87,6.25"/><path class="cls-2" d="M1020.39,700.25c1.22,5.16,2.13,23.38,2.5,28.58"/><path class="cls-2" d="M645.62,1199.32c-4.16-1-17.07-.37-21.24.62"/><path class="cls-2" d="M1096.6,997.57c-4.16,0-15.2-.09-19.36-.09"/><path class="cls-2" d="M1005.4,1393.58c0,4.16,1.25,21.45,1.25,25.61"/><path class="cls-2" d="M723.07,121.22c-4.16-.42-8.33-2.71-12.49-3.12"/><path class="cls-2" d="M1030.39,1068.77c.65,5,2,25.11,1,29.28"/><path class="cls-2" d="M1022.89,1550.36c-4,1.87-7.73,4.63-12.49,4.37"/><path class="cls-2" d="M441.9,1439.06c3,3.65,7.84,25.42,9.46,29.48"/><path class="cls-2" d="M563,1435c1.33,4.11.45,14.36.77,18.52"/><path class="cls-2" d="M994.16,681.51c4.84,0,9.09,3.34,13.12,4.37"/><path class="cls-2" d="M626.26,1744.61c-4,0-22.9,1.25-26.86,1.25"/><path class="cls-2" d="M469.83,358.7c-5.43,2.42-11.49,7.75-15.34,9.8"/><path class="cls-2" d="M87.83,1708.39H53"/><path class="cls-2" d="M457.61,527.85c-10.62,1.12-60.43-.48-71-1"/><path class="cls-2" d="M1134.7,875.77c.21,3.12.67,9.37.62,12.49"/><path class="cls-2" d="M477.36,840.16c-5.47,0-6.9,2.75-9.09,2.29-5.88-1.23-7.28,1.68-7.54,6.45"/><path class="cls-2" d="M422,370.45c4.27,0,13.12,2.72,16.86,4.58"/><path class="cls-2" d="M87.83,1679H73.47"/><path class="cls-2" d="M1007.9,1265.53c-5.36,2.09-3.48,14.23-3.75,18.11"/><path class="cls-2" d="M733.07,337.34v22.49"/><path class="cls-2" d="M134.68,1575.34v31.86"/><path class="cls-2" d="M134.68,1607.2v11.24"/><path class="cls-2" d="M88.68,1648.76a13.42,13.42,0,0,0,1-2.22c.66-2.56-2.53-4.67-.66-7.52,2-3.07,6.42-3.37,8.15-3.27,9.46.54,15.13-1.69,32.51-1.69"/><path class="cls-2" d="M488.22,980.08c-3.75,1.25-10,3.75-13.74,5"/><path class="cls-2" d="M463.69,352.07c-3,3.15-9.94,13-10.46,17.13"/><path class="cls-2" d="M610.64,415.42c-3.75-.93-8.74-.31-12.49.62"/><path class="cls-2" d="M1009.77,565.33c.87,4.55-1.08,16.72.62,21.24"/><path class="cls-2" d="M345.18,377.32c-4.25,0-7.16,1.62-6.37,5.93a10.73,10.73,0,0,1-4.25,10.93"/><path class="cls-2" d="M51,1544.73c3.74-.4,16.31.19,20-1.25"/><path class="cls-2" d="M462,883.89a81.08,81.08,0,0,1,18.74,4.37"/><path class="cls-2" d="M919.44,387.94c1.38,2.83.35,17.08.39,20"/><path class="cls-2" d="M443.28,385.36v22.35"/><path class="cls-2" d="M681.85,935.11c-2.29.23-5.83,1.08-9.12,1.41,2.19,2.19,1.82,8.46,1.64,12.33"/><path class="cls-2" d="M466.35,1141.23c6.23,2.58,13.14-.09,19.36,2.5"/><path class="cls-2" d="M96.58,1672.16c0,3.75,1.23,10.31,0,13.74"/><path class="cls-2" d="M1232.76,962.59c0,1.87,0,3.75,0,5.62.06,2.65-10.2,3.39-12.5,3.16"/><path class="cls-2" d="M811.77,798.31c.36,3.53-.14,24.64,1.25,28.11"/><path class="cls-2" d="M1060.37,986.95c-6.51.44-12.85,2.62-19.5-1-3.14-1.71-7.77-.67-11.73-.88"/><path class="cls-2" d="M281.47,1454.79c-.29,2.16-9.79,17.28-10.62,19.36"/><path class="cls-2" d="M401.08,114.68c1.46,6.25,10.72,27.16,12.18,33.41"/><path class="cls-2" d="M731.33,557.21c-1,3.2,1,12.28,9.44,10.62"/><path class="cls-2" d="M760.55,845.16h-10"/><path class="cls-2" d="M1029.14,985.07c-1,3.33-1,21.65,0,25"/><path class="cls-2" d="M276.47,1729.62c1.25,3.33,3.47,8.6,4.72,11.93"/><path class="cls-2" d="M639,942.63c-2.5-2.9-11.5-6.89-14.62-8.77"/><path class="cls-3" d="M806.15,1422.31a17.33,17.33,0,0,1,0-10"/><path class="cls-2" d="M88.94,1670.91H53"/><path class="cls-2" d="M561.92,256.77c-1.29-2.77-9.76-5.62-10.62-9.37"/><path class="cls-2" d="M446.16,384.09c1.11,3.15,11,18,12.08,21.13"/><path class="cls-2" d="M202.76,362.33c6.44,3.12,11.36,4.14,14.37,6.25"/><path class="cls-2" d="M735.88,503.75c7.18-3.59,4.44,11.24,9.68,11.36"/><path class="cls-2" d="M802.4,1223.68c1.05,2.38,1.15,4.48-1.22,6.29-1.15.87-1,1.07.59,3.71"/><path class="cls-2" d="M497,1073.77c0,3.33-.62,14.16-.62,17.49"/><path class="cls-2" d="M89.08,1692.74c.21,5.62.42,20.64.62,26.26"/><path class="cls-2" d="M624.38,1199.94h-10"/><path class="cls-2" d="M731.82,1707.14c-3.33,0-50.39,1.87-53.72,1.87"/><path class="cls-2" d="M191.83,1630.82c-3.33,0-18.84,2-22.17,2"/><path class="cls-2" d="M147.56,1633.15a89.93,89.93,0,0,0,22.1-.34"/><path class="cls-2" d="M465.73,842.19c-1.09,2.84,1.37,40-3.75,41.7"/><path class="cls-2" d="M222.75,1570.34c-2.71,2.28-6.4,2.11-9.37,3.75"/><path class="cls-2" d="M744.31,1277.4c-3.92,2.42-2.76,5.22-5.62,10"/><path class="cls-2" d="M497,1467.91l-6.25,6.87"/><path class="cls-2" d="M808.76,842.14c-1.54-16.85-.78-60.7-1.69-78.18"/><path class="cls-2" d="M1044.75,988.82c-1.29,3.05-.33,6.25-.62,9.37"/><path class="cls-2" d="M372.66,466c-1.23,3.05-.37,6.25-.62,9.37"/><path class="cls-2" d="M693.09,1233.67c2.15,5.16,5.4.74,8.12.94"/><path class="cls-2" d="M1038.51,829.54c.8,3.12-1.82,6.25,0,9.37"/><path class="cls-2" d="M497,1041.29c-1-7-7.45-10.14-17.49-11.24"/><path class="cls-2" d="M502.94,124.18c-1.25,2.91-2.85,7.8-4.1,10.72"/><path class="cls-2" d="M190.9,233c6.86-.24,13.65,0,20,3.12"/><path class="cls-2" d="M968.54,1697.24c-2.1,2.55-5.69,20-8.11,22.39"/><path class="cls-2" d="M526.42,1714.09c.88,3,6.22,25.69,8.9,28"/><path class="cls-2" d="M1037.69,1670.08c-2.71,1.73-21.86,4.42-24.17,7.07"/><path class="cls-2" d="M97.2,1692.15c1.62,2.91-.44,5.83,0,8.74"/><path class="cls-2" d="M500.08,1230.55c-3.75,1.25-28.73,6.25-32.48,7.5"/><path class="cls-2" d="M670,286.75c1.25,2.58-3.71,7.27.62,9.37"/><path class="cls-2" d="M813,787.69c-1.31,2.41-1.1,8.12-1.25,10.62"/><path class="cls-2" d="M385.15,465.07c.09,5.47-.46,18.81,1.79,24.09.35.82-1,9,.08,8.71"/><path class="cls-2" d="M1025.39,943.23c-4.79.81-9.84.78-13.74,4.37"/><path class="cls-2" d="M813,741.37c-1.65.07-1.61,5.29-1.89,7.58-.57,4.61-3.16,10.42-4,15"/><path class="cls-2" d="M1179,956.34c0,2.08,1.4,16,1.21,18.11"/><path class="cls-2" d="M1029.14,1000.69c4.16.47,10.83-.57,15-2"/><path class="cls-2" d="M670,286.75c-.31-1.67-2.11-6,4-4.15.51.51.71,2.87,2.89,3.53"/><path class="cls-2" d="M499.46,1204.32c2.17,2.89-1.68,23.36.62,26.23"/><path class="cls-2" d="M134.68,1617.19c.21,2.71.42,12.91.62,15.62"/><path class="cls-2" d="M469.48,1401.7a22.75,22.75,0,0,1,12.49,1.25"/><path class="cls-2" d="M809.9,995.69c-2.71.42-11.66,1.46-14.37,1.87"/><path class="cls-2" d="M86.58,1537.24c1.74,9.54-.12,19.17.64,28.73.1,1.26.4,2.5.61,3.75"/><path class="cls-2" d="M624.38,933.86c-5.15-4.58-19.36-2.19-20.61,7.5"/><path class="cls-2" d="M280.84,1740.87l3.75,7.5"/><path class="cls-2" d="M325.81,248.65c5.09,2.68,15.39,4.83,17.49,6.87"/><path class="cls-2" d="M322,1450.31l7.32,22"/><path class="cls-2" d="M372,475.38c-1.25,9.32,4.14,5.91,6.25,6.25"/><path class="cls-2" d="M1041.62,1503.92c-2.5-.41-29.82-5.91-32.47-5.41"/><path class="cls-2" d="M220.88,182.44c-2.5.83-16.86,7.29-19.36,8.12"/><path class="cls-2" d="M200.27,319.23c.21,3.12.33,10,.65,13.11"/><path class="cls-2" d="M747.77,772.08c-.21,8.54-.15,22.69-.33,31.23-.08,3.59-.4,9.48.66,12.94"/><path class="cls-2" d="M1018.52,722.11c1.73,5.94,3.92,11.78,3.75,18.11"/><path class="cls-2" d="M88.46,1648.42c2,2.71.19,6.61.51,9.38.45,3.9.11,7.9.11,11.85"/><path class="cls-2" d="M823,723.36c1.57,2.11,6,.88,7.48,3.1.1,3.2.32,6.41-2.48,8.77"/><path class="cls-2" d="M1182.17,873.89c-9.19-1.17-18.32.49-27.48.69-11,.25-22.14-1-33.11,1.18"/><path class="cls-2" d="M1011.18,311.11c-1.31,2.41.81,38.11.52,40.6"/><path class="cls-2" d="M49,1535.33c0,9.16.69,25.23.69,34.39"/><path class="cls-2" d="M947.94,115.6c.83,2.29,9.16,19.57,10,21.86"/><path class="cls-2" d="M454.49,379.19c-3.12-.62-4.28,1.7-5.62,3.75,2.26,3.31,19.44,6.41,21.86,9.37"/><path class="cls-2" d="M460.11,754c5.27.06,19.36,2.05,24.36,4.37"/><path class="cls-2" d="M744.31,351.71a12,12,0,0,0-.62,8.12"/><path class="cls-2" d="M859.24,401.68c4.31-1,9.76-1.65,13.74.62"/><path class="cls-2" d="M423.26,399.18c1.62,2.52,10,7,13.12,8.53"/><path class="cls-2" d="M837.38,1735.87c-.8-2-2.11-8-5.62-6.87"/><path class="cls-2" d="M420.76,536c.45,4,0,5,.47,13.14"/><path class="cls-2" d="M1252.75,948.85c.88,8.33,1.48,31.65.62,40"/><path class="cls-2" d="M462.6,626.54c3.4,1.43,16.1,2.22,19.37,4.37"/><path class="cls-2" d="M1190.91,957.59c-1.74,4.16.75,8.33,0,12.49"/><path class="cls-2" d="M884,1156.74c1.12,2.36,10.84,9.43,10.93,12.7"/><path class="cls-2" d="M498.83,1170c.21,2.71.46,12.85.77,15.54"/><path class="cls-2" d="M739.31,121.22H723.07"/><path class="cls-2" d="M1037.69,1670.08c.22,3.36,5.44,2.84,7.06,4"/><path class="cls-2" d="M384.53,481.63c-1.92,1.21-4.07.06-6.25,0"/><path class="cls-2" d="M439.5,374.2c-2.38,4.39-1,8.82,3.79,11.16"/><path class="cls-2" d="M558.17,933.23c.38,2.09-.46,5.16,1.82,6.87"/><path class="cls-2" d="M786.17,332.34c-2.08-1-22.29-2.24-24.37-1.25"/><path class="cls-2" d="M1019.77,690.25c-1.87-.62-10.62-3.75-12.49-4.37"/><path class="cls-2" d="M398.27,1442.92c.42,3.33,5.72.38,5.62,4.37"/><path class="cls-2" d="M464.48,1028.8c5,.08,10.1-.45,15,1.25"/><path class="cls-2" d="M48.48,1497.89c-.59,4.88.22,18.07.56,22.87"/><path class="cls-2" d="M459,710.25c.21,5,.95,102.43,1.16,107.42"/><path class="cls-2" d="M738.56,121.22c-.72,1.45,1,8.57-.54,9.95"/><path class="cls-2" d="M999.16,306.74c2.89,1.56,4,1.53,7.92,3.12"/><path class="cls-2" d="M338.93,113.68c-8.22-1.3-12.9.74-16.24.67"/><path class="cls-2" d="M735.88,503.75c-6.25-.39-7.18,7.7-6.56,11"/><path class="cls-2" d="M812.39,1062.84c0,2.31,0,9,.94,11.09"/><path class="cls-2" d="M281.47,1454.79c-.14-2.62.47-10.07-3-11.87"/><path class="cls-2" d="M812.39,1045.66l-.62,5.62"/><path class="cls-2" d="M801.78,1233.67c.85,2,3.79,4.84,6.25,3.12"/><path class="cls-2" d="M816.14,1045c1.7,1.35-.45,3.65,1.25,5"/><path class="cls-2" d="M614.39,1199.94c-1.67-1-5.83-1-7.5,0"/><path class="cls-2" d="M754.3,1067.52c-1,1.67-.32,12.52.71,14.19"/><path class="cls-2" d="M703.09,319.23c-1.67-1-26.45-1-28.11,0"/><path class="cls-2" d="M96.58,1685.9c-1,1.67-.4,4.58.62,6.25"/><path class="cls-2" d="M415.14,391c1.67.83,6.45,7.34,8.12,8.17"/><path class="cls-2" d="M490.71,509.11c1,1.67,2.34,4.53.62,10"/><path class="cls-2" d="M192.15,361.7h8.12"/><path class="cls-2" d="M738.69,336.72c1,1.67,1,22.59,0,24.25"/><path class="cls-2" d="M960.43,1719.63c-1.75,3.05.62,9.34,2.5,12.57"/><path class="cls-2" d="M96,1667.79c.33,1.44-.72,3.08.62,4.37"/><path class="cls-2" d="M559.42,1184.33c-1,1.46.23,15.41,1.25,16.86"/><path class="cls-2" d="M1121.58,875.77c-2.5-.27-10.8.32-13.3,1.59"/><path class="cls-2" d="M811.77,1051.28c.35,1.73-1.21,9.32.62,11.24"/><path class="cls-2" d="M752.43,1037.54c1.17,2,1.8,4,.62,6.25"/><path class="cls-2" d="M1016.61,1219.7c3.12-2.92,11.28.06,14.4.24"/><path class="cls-2" d="M437.62,379.82l-2.5,1.25"/><path class="cls-2" d="M752.43,1030.67c1,.63.5,1.65.62,2.5"/><path class="cls-2" d="M815.52,109.25v8.29"/><path class="cls-2" d="M849.23,112.51c0,1.31,1.79,5.68,1.79,7"/><path class="cls-2" d="M784.44,156.39v23.94"/><path class="cls-2" d="M784.44,180.33h6.14"/><path class="cls-2" d="M483.22,175.57c0,2.27.16,5.7.16,8v3.27"/><path class="cls-2" d="M483.37,186.81h4.84"/><path class="cls-2" d="M315.82,162.61c0,4.68-.95,9.81-.23,10.45.48.43,2.46,0,2.73,0"/><path class="cls-2" d="M262.79,422.5c.1,1.08.14,5.27.25,6.35"/><path class="cls-2" d="M306.54,424.17c0,.87,1.79,4.44,1.79,5.31"/><path class="cls-2" d="M386.32,511.37c0,1.31.24,9.55.24,10.89,0,7,0,8.08,0,9.76,0,7.07-.11,12-.16,15.2-.09,5.78-.14,14.23,0,25.62"/><path class="cls-2" d="M474.63,1376.24l2.19.78"/><path class="cls-2" d="M87.63,1496.64c0,9.79-1.3,21.07-1.3,30.87"/><path class="cls-2" d="M324.17,1747.27c0,2.18,2.5,5.15,2.5,7.34"/><path class="cls-2" d="M447.44,1742.41c2.48,2.48,5,6.57,7.43,9.05"/><path class="cls-2" d="M703.29,1735.24c.45,1.63,1.82,5.81,2.27,7.44"/><path class="cls-2" d="M905.66,1698.77c3,5.88,6.29,12.83,9,19.45.65,1.57,2.12,5.1,2.73,6.65"/><path class="cls-2" d="M1190.92,982.58c0,1.63.62,6.79.62,8.42"/><path class="cls-2" d="M1013.68,769.89a29.19,29.19,0,0,0,10.3-2.1"/><path class="cls-2" d="M836.34,1423.56c.37-1.51.69-3.91-.62-5.41-1.16-1.33-3-1.34-7.08-1.25-9.6.2-11.91.5-12.49-.62-.88-1.71-.53-3.51-1.25-7.29-.29-1.5,2.73-4.48,1.9-5.2"/><path class="cls-2" d="M701.21,1234.61v7.18"/><path class="cls-2" d="M676.9,1101c2.39,0,7-.08,9.4-.08H690"/><path class="cls-2" d="M690,1100.94c0,.63,0,2.81,0,3.44"/><path class="cls-2" d="M809.9,1012.35a42.46,42.46,0,0,0,0,6.66c.13,1.65.23,1.62.62,5.41.28,2.71.38,4.13.42,5.62,0,.78,0,1.47,0,2.91,0,1.84,1.58,9.59,1.46,12.7"/><path class="cls-2" d="M751.18,1001.31c.9,2.54,1.17,9.84,1.25,11.24.15,2.61-.26,4-.42,7.91-.08,2.15,0,3.9,0,5"/><path class="cls-2" d="M751.56,990.38c-.1.21-1.18,3-.23,4.7.43.78.12,3.6.48,3.81"/><path class="cls-2" d="M727.45,557.21h3.65"/><path class="cls-2" d="M740.77,567.83a24.47,24.47,0,0,0,2-4c.66-1.51.28-1.56.94-3.07a4.05,4.05,0,0,0,.47-1.82c0-.46,1.86-1.52,1.77-1.77"/><path class="cls-2" d="M726.59,515.1c.54,0,2.3,0,2.83,0"/><path class="cls-2" d="M562.15,298a121,121,0,0,0-1.9,12.28c-.31,5.67.13,8.71.42,13.74.72,12.49-.87,13.44,0,26.23.39,5.71.64,4.58,1,10.62.53,8,.39,14.45.21,22.28-.06,2.77-.18,6.7-.42,11.45"/><path class="cls-2" d="M785.22,324.23c.36,2.29.58,5.83.95,8.12"/><path class="cls-2" d="M784.75,289.14a30.74,30.74,0,0,1,.94,10.41,58.37,58.37,0,0,0-.31,8.9c0,1-.2,2.63-.16,3.18"/><path class="cls-2" d="M784.75,289.14c-.87-.07-2.72.07-3.59,0"/><path class="cls-2" d="M781.16,284.25c.05.94-.05,4,0,4.89"/><path class="cls-2" d="M491.5,253.9c3.6.17,9.64-.28,13.43-.25,1.53,0,4.28.16,5.78.14"/><path class="cls-2" d="M510.7,250.52v3.27"/><path class="cls-2" d="M458.23,231.86h4.53"/><path class="cls-2" d="M340.81,350.46h3.75"/><path class="cls-2" d="M443.28,385.36a24.41,24.41,0,0,0,2.88-1.27,7.7,7.7,0,0,0,3.44-4.58c.33-1.42.07-2.48-.42-4.48-.57-2.33-.85-3.49-1.87-4.06-1.38-.77-3.24,0-4.79.62-1,.41-2.49,2.23-3,2.6"/><path class="cls-2" d="M414.06,368.26c0,1.41-.27,3.67-.39,5.31-.13,1.86-.67,4.71-.94,6.25"/></g></svg>