<svg id="Layer_2" data-name="Layer 2" xmlns="http://www.w3.org/2000/svg" viewBox="0 0 2480 3508"><defs><style>.cls-1,.cls-3{fill:#6899d1;}.cls-2{fill:none;}.cls-2,.cls-3{stroke:#010101;stroke-linecap:round;stroke-linejoin:round;stroke-width:3.3px;}</style></defs><title>stueplan</title><g id="Layer_2-2" data-name="Layer 2"><polygon class="cls-1" points="636.27 2343.45 657.94 2342.62 672.03 2341.72 680.51 2343.04 691.3 2343.04 706.71 2342.28 743.28 2339.95 794.86 2338.3 807.53 2338.3 872.12 2335 937.53 2335 947.75 2343.45 961.42 2341.59 967.35 2335 976.25 2332.21 999.64 2332.54 1066.7 2330.68 1145.13 2327.38 1195.21 2326.24 1273.13 2323.21 1277.53 2324.64 1290.32 2329.8 1295.87 2329.1 1302.13 2325.96 1304.77 2322.11 1306.46 2321.2 1309.42 2321.82 1321.57 2320.19 1342.11 2319.48 1402.15 2318.16 1478.47 2316.96 1561.54 2311.9 1607.92 2310.42 1616.82 2312.15 1625.56 2315.28 1637.5 2322.61 1639.26 2336.69 1642.08 2371.87 1640.95 2444.44 1642.62 2448.26 1643.23 2452.6 1644.69 2528.23 1648 2615.27 1643.84 2621.53 1636.26 2628.66 1630.33 2632.41 1623.3 2633.28 1613.52 2634.81 1513.1 2635.65 1412.9 2640.86 1209.59 2649.5 1178.18 2650.58 977.29 2656.91 965.1 2651.57 951.1 2652.2 947.86 2656.41 944.06 2659.64 928.03 2660.41 841.36 2663.49 728.84 2665.21 673.98 2667.2 654.81 2666.62 643.52 2666.78 634.95 2661.84 628.78 2656.16 623.17 2653.07 623.17 2577.21 621.81 2550.13 616.92 2545.97 593.27 2540.99 591.61 2476.9 596.49 2472.49 612.57 2466 619.05 2461.78 621.69 2455.56 621.26 2439.85 620.29 2388.42 620.04 2371.71 620.29 2358.36 626.51 2348.5 636.27 2343.45"/><path class="cls-1" d="M973.06,1984.8l4.13-.61h23.57l52.72-2.46,23.62-1.57s22.18-.25,22.51,0,12.42,0,12.42,0l6.59-.8,4.42,1.12h13.18l20.44-1.61,5.4.36,2.5.36,1.49-.95,1-.55H1170l6.26.17,6-.16,6.39.28,17.13-1h9.45l2.25,1.32.83,17.13v30.59l2.06,8.22,1.44,1.07,10.33.45,5.11-.49,1.32-3-.58-7.09-3.45-.42s-4.16,1.09-4.28,1.24-3.74-4.47-3.74-4.47l.49-6-1-35.59v-17.7l.41-1.54,7.68-.95h44l2.72.92,1.08,4.2,1.23,10.29-.66,10.79-.08,15.9-.91,12.19-.25,10,1.49,4.69,4.64,3.39,5.17.82,10.21-.82h10.11l1.87-4.68,2.17-3.3,4.32-.25L1320,2022l-7.2-2.79-4.26-4.34.08-19-1.32-16,1.71-4.68,3.26-1.59,9.05-.55,39-.16h6.26l2.48.33v12.09l.43,10.11.91,14.91.58,5-1.56,3.51-1.74,2.1,1.9,4,4,4.1,3.84.41,1.58-1.87V1971l19.48-.82,11.7.33,29.17-1.81,46.38-.76,22.13-1.15,33.32-1.94,58.61-4.11,15.82-.16,14.27-.29,3.08,4.56v28.56l5,4.89,5,1.53,6,3.22,6.59,6.76,5,9.37.82,9.23v29.25l-2.21,2.48-7.91,1.7-10.32,3.68-4.19,5.58-.82,13.51.82,40.78.54,34,5.35,6s10,2.48,10.14,2.81,9.4,1.62,9.4,1.62l3.4.69-.76,5.19.08,45.45-1.4,1.92-10.29,4.78-12.27,5.52-3.22,1.5.08,7.72,1.44,24.3-3.41,1.73-19,1h-58.22l-50.09,2.46L1496,2273.5h-26.61l-50.51.83-2.14-.2-.25-2.27-.87-4.11-4.28-2.79-20.73-.25-2.25-5.19-.43-5.27,3.07-5.1.17-5.19-1.07-5.76-5.52-2.53-1.32-4.73-1.08-24.15V2194.1l-.63-43.65-.92-25.53-1.2-31.79.21-9-3.07-4.46-4.2,1.32-7.83,1.65-4.39,1.54.5,4.13,1.54,1.42,3.19-.61,4.61-.33,2.89,2.41L1372,2100l.36,15.82,2.64,97.67-.14,34.56.14,7.91-.4,5.83-.95,2.37.74,7.54.46,3.3-1.94,2.56h-13.84l-41.27-.41-2-1.48.57-16.3-3.6-30.45.76-26.1-.74-51.4.45-62.66-.45-4.77-5.42-2.74-9.89-.71-5.27,2-4.28,7.66-1.13,7.08-1.46,18.76,1.63,24.83,1.69,35.26-.4,33.45,1,43.26-.17,21.39-.43,5.75-4.18.88-37.95,1.09H1233l-1.4-7.72.57-4.67-.86-62.44-1.07-51.4-.58-22.3-1.32-7.68.54-16.19-.54-9.52,1.32-4.3,6-1.44,4-1.15.9-3.32-9.12-1.67-8.07-4.31-4.06,3-.28,6.59,1.11,21.09.87,13.68,1.66,66.81,2.46,41.52.65,17.24-1.42,15.05-3.3,7.25-2.64,3.87-5.11,2h-10.11l-7.84-1.42-4.24-2.53-4.18.66-3.3,3.73-4.28,1.65-17.79.88-54,1.75-21.42.72-11.31,1-89.19,3.08h-5.6l-2.16-.47-1.52-4.44-.88-28.64-.76-5.07-3.68-1.54-26.48-6.41-2-2.74,1.2-26.26-.22-14.5-.36-7.45,3.33-4.55,6-.76,5.48-.92,15.16-3.48,1.2-4.57L974,2142.5v-17.44L973,2096.5l-1.65-6.84L942,2080.58l-1.88-16.15V2032l-.58-2.46,1-1.54,3.7-.91,18.8-4.26,9-2.36.55-6.92v-21.31Z"/><path class="cls-1" d="M1001.92,1961l-8.19-.66-17.57-.54h-4.06l-.74-3.23-2.73-26.8-1.32-7.8-1.42-9-3.49-4.65-10.74-3.43-12.34-1.07-.83-5.07V1864l.37-9.48-.37-4.36,2.16-2.52,7.39-2.19,9.9-2,7.7-1.82,2.17-2.64.41-9.56.49-12.63.11-24-.11-18.39-.49-6.7-4.67-6-11.43-5.1L938.55,1754l-2.93-.65.46-4.65v-46.91l.79-2.64,4-2,3.28-1s5.35-2.1,5.52-2.14,3.62-1.32,3.62-1.32l8.49-1.94,4.32-1.32L966,1681l-.11-5.55-.43-23,.28-13.62,4.94-.25,14.6.58,13-.11,1.32-5-.78-15.65v-3.64l50.09-.92v21.52l2.4,2.56,9.65-.24,25.87.24,6.76-1.85,3.4-.11,3.27,6.77,2.77-.33,5.14-.74,2.64-5,2.64-6.25,9.23-3.65,5.61-.41,6.7,2.31,8.13,4.8,10,4.63,2.37,4,3.23-2.86,4.77-7.05h8.55l6.59,1.88,2.86,10.35-.8,19.55,1.61,144,1.44,48.24,3.62,1.82s7.91-1.08,8.16-.79,11.2-1.32,11.2-1.32l11.12-1,5.27.33.58-3.87-1-1.48-13.56-.75-3.3-.58v-3.3l-.38-26.49-2.64-155.2.33-19.44-1.48-10.08,3.82-1.66,22.31-1.05,21.85,1,7.63-.12L1268,1632l7,.33.38,2.48v6.31l.33,12.14v13.94l.43,22.25.75,45.42,1.65,21.75v40.29l1.17,48.35-1.17,4-4.1,1.65-3.31,1.21,6-.25,17.44,1.17,8.92-2,3,1.05,1.77-4.94.8-3.52,4-.12,7-.21,9,.83,4.86-.84,8.65-.25,10.54-.16c.66,0,24.05-.49,24.05-.49l11-.36h4l2.39,9.62,4.42,13.34,3.57,3.55,2.45,1.78,8.91-3.31,5.35-2.23-2.14-8.07-1.94-5.13-4-2.14-2.08-5.17-4.16-8.67-2-4.23-3.74-7.68-1.23-10.81-.45-10.54,1.32-7.13,1.07-2.75-1.73-4.92-3.3-3.65-4.51-2.06-1.32-7,.43-30.64-.43-18.45.08-12.44.29-2.06,1.69-.54,6-.62,2.48-.63-1-10.15-1.73-7.14-.22-14.83-.11-6.75,2-21.33.17-4.94-7.37-.87h-7.91l-.45-58.24v-10H1400s1.61-2,1.65-2.19,0-8.73,0-8.73l-2.32-4.31-2.64-5.81v-6.71l1.16-27.9.76-8.84-5.65-1-7.74-.38.11-4.67-.33-18.94-1.13-39.11.82-8.49,2.86-2.64,6.1-3.43,1.32-7-3.12-8.16-1.73-10,4-12.3,8.25-17.13,3-9.05,2.53-3.37.82-8.24-4.16-3-7.09-2.64h-2.82l-4.92,11.28-3.49,8.46-1.45,4-6.09,1.15h-59.31l-15.16.66-3.33.28-3.86-2.56-17.29-1-5.54,1.09-1.9,1.32-.21-50.88h18s7.17.79,7.42.79,2.2-.66,2.2-.66l-.51-8.17-.91-37.87.38-2.5h6.79l35.72-1,104.13-3.1,10.21.82,1,5,.86,8.19,3.16,7.41,6.45-.51,5.48-3.74,3-8.38,9.23-4.64,14.87-5.52,15.49-2.11,13.51-.53,2.11-.71,53.93-1.9,30.05,1.77,1.49,11.47,1.58,16.78,11.47,1.91,16.81,7-1.24,4.81.5,28.56-.43,12.56-.43,8.78-12.53,3.57-11.23,4.53-2.87,9.82v19.6l3.73,6.38,12,4.53,15.88,5.76-1.05,14.31-1.62,32.79-.45,5.52-4.61,2.37-11.36,3-6.06,3.73-3.37,3.27.58,33.15.51,24.23,2.17,21.89,5.77,3.23,9,4.28,9.56,3.47h4l1.67,2.46,2,52.17.53,19-28,15.1-3.48,5.83v11.37l.55,45.55-.55,4.86,2.16,3.35,26.89,10.54v9.23l-.08,42.88-1.65,2.1-21.75,6.34-3,5.27.94,24.46,2.12,5.6,6.39,1,18.66,8.42.88,9.31V1899l-7.53,4.18-16,3.23-2.06,4.53.51,19.34-.51,5.93-1.13,2.08-6.92.87-16.4.88-4.18-1.32L1600,1942s.07,11.31.12,11.48-1.32,7.35-1.32,7.35l-60.1,5,5.07-2.72-.69-8.49V1945l-5.17-2.39-34.08.67-11-3-3.64-5.76-9.05-8.8-1-1.15-3,1.08-5.27,5.5-2.23,5.85.5,5.35-1.87,3.65-19.45,1.12-97.54,1.67-9.32,2.24-29.62,1.16h-2.39l.21-3.43-.78-18.56.58-16.48.08-9.89-10.79.72-24,1-.86,2.54s1.32,1.82,1.32,1.85,6.1,3.55,6.1,3.55l-1.32,26.36,1.32,11.76.09,2.16-18.74-.29L1239,1954l-11.53.94h-14.05l-5.68-.94-1.7-9.48,1.05-12.64-1-13.3,1.52-6.06,6.59-1.17,10-.86-.62-4.59-8.73-1.48-13.73.78-8.07.66-6.16-.28-1.7,1.65-.28,21.37.57,25.43-3.3,3.11-59.44-.47-71.69,2-1.57,1.78,1.57,21.68,1.07,1.32-15.17.22-18.12.84-16.13.75-1.2-23.72"/><path class="cls-1" d="M998.86,1613.81l-2.35-1H966.69l-.87-3.78v-17.87l-4.94-11.12-18.45-13-9.87-3.65v-10.62l.41-19.52.41-25.37,8.53-2.64,10.35-1.32,8.86-.86,2.15-5v-12.77l-.61-80.15v-4l-3.53-1.54-3.77-1.65-4.53-2-6-1.53-12.21-2.83-1.32-.45.36-2.39,1.16-31.22.08-19.2,7.09-2.46,18.62-7,2.81-.82.63-43.38,1.79-1.52,23.9-.66,2.52-3-1.32-5.65-7.1-1.5H967.6l-4.78-.29-.25-7.91-.82-30.88-6.59-2.5-8-3.45-14.5-2.79-2.11-1.67,1.17-5.64-.45-18.32v-14.33l-.72-11.2-.5-4.86,14.5-4.61,11.86-2.72,3.74-4.22.53-3.69-.53-21.77.78-3.24.78-20.71.9-31.63-.9-5.76-7-5.27-15.13-6.23L929.07,1057h-4.72l-1.12-2.86v-37l-.47-10,1.24-1.13,21.34-4.63,12.06-2.82,2.78-8.7.69-3.32V961.73l1.07-3.24,8.82-1.45,20.6-.41,3.26-4.07L994,923.66l-2.27-3.26-5.38.71-15,.61-10.54-1.32-1.53-2.48V844.25l.62-16.48.17-13.26-8-3-17.52.43H921.22l-2.7,2.64-1.46,10.91-.62,14.06-1.32,12.09-14.5,1-15.71.5-9.56,5.1-8.07,7.39-4.61,5.48L859,880.27l-.51,9.9-1.88,11.27,3.81,8.73-3.16,4.2L853,915.86l-2.45,9.81-3.19,26.14-1.74,3.4H799.48l-2.06-3.4-2.75-10.64-8.16-22.24-4.3-4.8-11.53-.58-1.78-4.2.54-10.47-.54-3.78-6.08,1-3.68,4-.91,11.77-4,4.61-32.66,1.17-3.31,12.79-1.92,18-53.13-.43-3.57-3.85-5.81-13.73-10.4-12.5h-5.27l-25.48-.76-6.42-.11-.87-4.94,1.2-23.4-3.81-4.56L590,878.57l-7.91-3.19L578.6,873l.3-10.72v-8.94l-.3-20.22-.5-11v-3.57l5.42-2.36,15.18-3.52,6.77-2.37,1.5-4.07-.79-8.29.12-27.68.72-7.8-.22-8.67-.5-35.59-2.41-3.41-2.14-2.41-20.3-7.26L579.63,704l.08-4.06L579.46,657l.43-7.24,7-3.66L600,640.07l5.27-1.79-.82-18,1.19-23.72h5.19l32.33-.32,5.81-4.17,7.41-20.38,5.14-4.67,13.79-1.71h26.23l6.59-1,1.66-.25,8.48,29.1,5.83,2.23,5,.94.43,17.9-.61,10.44,1.23,1.42,3.62.45,3.22-.78.33-2.31-.33-11.39L736.12,600l5.1-5.52,36.09-1.32,6.76-4.31,5-12.32,3.52-10.12,1.21-1.53,9.23-.7,40.53-.49,3.22.49,3.19,8.77s6.59,15.16,6.59,15.38S858,593,858,593l5.67-.53,7,.69,14.67-.16,20.15-.38,7.91.54,2.36,6.43-.82,36.56.2,8.91,1.24,2.75,5.6-1.59,2-1.16-.67-10.7-.49-6,3.35-.43h12.47l9.56,1.32,2,3,.21,11.86,4.56,1,1.82-1,.66-2.9.16-22,.82-13.4.59-11.31,4.51-2.81,3-2.79,1.54-5.67,4.86-11.35,3.3-8.09,1.4-1.32,7.29.7,41.27-2.17,2.41.61,3.3,12.51,3,12.26,6.26,3.69,11.59.9,17.36-.9,17.53-1.13,27.85-.71,3.85-9.61,5.65-15.1,1.38-3,2.12-1.67h37.23l3.08.41,10,.13,2.83,5.88,5.18,13,6.21,11.45-1.32,10.54V639.2h7.05l-3.45,53.55-2.16,11.41,1,13.93-3.07,2.58h-9.44l-5.93,1.58H1132.1l-26.19-.88-16.32-.7h-27.35l-6.26-.75-14.79,2.64,1.86,6.16-64.41-1.48L961,726.37l-2-22,.33-4.94-2.41-1.91h-5.43L948.57,700l.9,4.84s1.57,7.09,1.62,7.47a8.86,8.86,0,0,1-.76,2.08l-11.26.83-14.5.33-1.61-.74.79-6.89.11-4.57h-6.59l-.78,10.54.13,9.48-.08,10-10.29.58-101.49.51H768.51L745.23,726l-5.34-3.16-3-2.14.71-5L737,687.5l1.49-12.35-.08-11-1.4-6-6.92,7.09L729,678l-.25,29.66-.13,21.37s.22,27.9.22,28.23.76,5.93,1.21,5.93,7.68,1.09,7.68,1.09h8.78l9.67-.33h4.72l2.29,2.48L762,834.38l.51,15.38-.74,9.56h3.8l2.91-2.36.46-8.46.5-15.41.08-11-.24-51.21,1.92-4,8.74-3.51,4.4-.41.29-5.19,5.27-2.06,7.42.17h18.14l15.57-.49,45.41.43,40.77.8-1.32,9.23-.34,10.29,4.55,3.47,8.08-.58,11.86-1,19.47-.78.74-15.74-.28-21.13-.25-5,1.4-3,8.66.63,17.64.17L987,726l55,1,9.58,6.71,2.39,54.44-1,8.13-2.07,12,1.44,16.61L1051.6,849l1.32,18.56.57,29.1-.57,19.88-.47,1-6,.55-1.87.38-.71,11.86-.63,22.25,1.63,3.65,4.46-.34,17.79.54,17.64.34,6-.3,8.49-8.49,10.35-2.56,11.36,1,8.13,6.87,3,2.53,15.49.11,5.17-.94,86.89-1.77,20.09-.41,9.23,1s1.78,4.28,2,4.51.25,9.23.25,9.23l-.25,65.3v43.8l1.13,57.53-1.13,12,.95,83.51-.63,31.75-.67,5.15-6.42.17-43.19.72H1184.6l-43.06,1.32-40.53.82-57.64.82-1,2.86.83,6.43h5.87l17.46-.4,60-1.49,37.12-.53,43.94-.8,29-.45,20-.58,11.64-.94h3.3l.59,11.1v93.2l1.32,153v74.36l-3.82.76-11.43-1.65h-16.32l-15.49,1.42-18.23-.55-19.88.43-16.34-.21-9.15-5.4-3.18-3.16-5.71,5.06-8.19,5.54-6.48,3.61-13,5-9.71,1.73-5.44-.57-5.61-5.35-8.7-1.5h-19l-19.77-1-5.71,1-4.1,3.06-48.36.45Z"/><path class="cls-1" d="M1271,1077.88l4.49-.25v-10l3.88-4.06,3.85-1.09,4.28-.28s3.3,9.23,3.4,9.33,2,4.65,2,4.65a20.8,20.8,0,0,0,2.25,1.23c.22,0,2.54-.74,2.54-.74l1.08-6.13V997.47l-.38-44.68V943l5.17-1.32h11.86l46.36-.43,56.89-2.15,10.21,2.48,5.46-2.48,3-5.27,5-4.88,5-1.32L1456,927l6.06,1.32,8.16,5.92,2.83,5.1,2.46,3.18,4-.18,3-2.23,2.77-1.32h4.23l33.65-2.31,3-.16.53-14.5-.53-11-3.59-1.73h-18.61l-69.62,1.78-19.65,1.65-52.72,1.16-3.27-.62-.69-17.66-.2-21,.75-27.88-.67-14.81-1.23-58.44.83-21.72-.16-43.25.08-11.69-1.32-32V616.23l.37-26.85.91-3.88,6.67-.58,8.74-.21,1.65-5.8,3.49-8.59,2-8.9,5.11-4.84,7.91-.94,11.48-.12,16,1.16,9.91-.58,4-.13,3.3,9.23,5.27,15.82,60.34-.43,4.39-14.21,1.16-6.26,1.73-7.2,6.31-.94,44.81-1.4,13.89,29.17,35.19.83-.4,20.65-.38,34.27,23.36,10.08,3.18,2.72V676l.42,14.83-.25,10.32-9.19,1.09-13.64,4.22-3.43,2.94-.47,13.71.47,67.66,3,5.5,7.14,2.86,12.09,5,6.26,2.06,1.59,3.7-1,31.5s.92,14.83.67,15.08a21.41,21.41,0,0,0,0,4.06l-15.91,2.36-8.32,4-4.55,4.94v34.85h-21.71l-7.91.74-2.64,17.5,1.32,10.54,28.09.34L1612,938l2,19,3.14,21.09,6.59,4,16.73,4.49,1,4-1.05,50.09-.55,3.08-20.65,2.85-5.17,5.6s-.65,24.74.45,25.21,2.24,54.54,2.24,54.54l12.36,5.35,12.36,5.11,3.06,2.7v42l-.47,9.33-4.42,4.14-9.54,1.65-6.26,2.35-7.28,1.32.33,18.08.13,31.21-1.21,1.32-9.89.83-13.18-.61-4.77.94-1.71,6,.45,2.64-.43,1.38-9.94.34-13.08.46-16,.55-11.1.4h-2.64l-1.15-.87.5-3.4-.28-5.43-.49-1.32-15.1.76-30.87.61-19,1.08-14.27.82-30.75.82-17.57.82-96.11.87-5.85-.16-3.37-.25-1.56-27.6.66-10.79.08-37.16v-18.33l-.12-26.9-.66-9.45-4.48,2.2-2.54,7.35-2,2.61L1282,1145l-2.35-3.3-2.2-5.88.28-4-5-.08-.76-.78Z"/><path class="cls-1" d="M1202.62,610.71l14.17-.95,11.31-.46,12.09-.72h17.57s2.2.45,2.41.45,4.94-4.56,4.94-4.56l2.08-19.77v-2.83l4.39-1.85,6-.59c.12,0,8.32,2,8.32,2l5.48,8.12,2.31,4.78,2.64,4.74,1,7.05.13,1.74,7.75.28,22.34-.67,12.31.17,4.94-1.24,2.19.91.21,19.36-.75,7.91,1.65,2.23,3.15-.66,3.86.25.95.41v26.94l1.13,29.25-1,.37-4-1.53-2.79,1.11-1.32,6.88.38,15.9-.67,38,.45,13.35-.7,4.06-4.76.88-.58,3.72-.07,3.26,2.06.36,3.35,2L1348,789l-.41,15.36-.4,5.09-7.14-.34-25,.34-2.77,1.82-.2,7.55,3.22,14-.66,5.27-2.39,1.82-11.94.61-4.28,1.08-9.66-1.69h-20.13l-21.37-.3L1240,839l.43-6.31V819.54l-4.84-2-15-.61h-17.13V806.09l.28-6.26.9-12.55,2.43-3.78s8.16-.66,8.49-.74,8.9-1.08,9.31-.91,34.11-.17,34.44,0,46.63-.82,46.63-.82l3.4-2.94v-3.24l-4-2.2-44.92,1.2-35.81-.61h-20.83l-1.12-2.74-5.46-1.21-2.39,2.41s.79,5.27.92,5.44-1.32,6.92-1.32,6.92l1.94,4.61-.74,33.87-1.19,13.25,1.32,56.29.24,22.08-.55,3.1-9.91,1.82-10.85,2.23-13.51,3.07-24.46-.72-4.06-1.21-2.41-4-8.4-.43-23.53-.16h-35.89l-1.81-.24v-5l-.36-16.91-.66-18.94-.28-13.08-.66-7.83-2-12.71v-6.5l1.42-5.87.88-10.43-2-15.49.55-4.89,2.64-8.45-2.64-4.2-2.31-.86-1.32.62-.32-4.8-2.41-36-.5-7.58-.26-4,1.16.17a20.08,20.08,0,0,0,2.19,1.65c.21,0,4.56-1.32,4.56-1.32l1.4-6.91,5.46-.26,103.76.21,19.77-.58c.33,0,4.43-.41,4.43-.41l1.65,7.17,1.13,3.32,6.43-.69,1.12-12.8,1-13.26.22-7.75-3.45-2.14-.11-3.78.54-4.36-6.48-.26.76-11.86,1-15.92,1.09-17,.49-7.47,2.74-10.83Z"/></g><g id="Layer_1" data-name="Layer 1"><path class="cls-2" d="M362.35,2376.15c.4,18.93,6.5,46.13,7.22,65,1,27.14-.2,54.38,1.25,81.48,1.85,34.6,1,69.17,1.45,103.74,0,.55-3.61,37.33-3.35,37.87"/><path class="cls-2" d="M1300.06,1388.24c-.84-1.32-1.69-5.84-.82-7.41,2.19-4-.41-7.18-3.3-7.14-7.91.11-16.32-2.5-23,1.75-.11,77.55.14,154.66,1.58,231.44-5,2-8.25.58-11.48-.47"/><path class="cls-2" d="M1350.28,692.56c4.46-.66,6.76.94,6.59,5.76-.67,22.22.11,44.44-.47,66.69-.53,20.25-1.5,40.57.9,61,1.66,14-.38,28.5-.4,42.77,0,12.9.51,25.79.75,38.7.07,4,0,7.75,5.79,7.45,23.59-1.25,47.27-.94,70.81-3.33"/><path class="cls-2" d="M918.88,756c-15.65,0-31.37.95-46.9-.4-8.07-.7-15.92.43-23.94,0-18.86-1.17-37.85-.18-56.78-.49-5.79-.09-8.69,1.32-7.25,7.53a12.43,12.43,0,0,0-1.81,0C769,764.72,769,764.72,769,779v52.72c0,9.36-.92,18.52-1.63,28"/><path class="cls-2" d="M1296.43,1132.19c1.83,6.52,1,17.31,1.08,23.87.2,32.66.08,65.31.09,98,0,3.64-.45,7.37,1.63,10.7,31.83,0,63.67.11,95.51-.08,7.13,0,15-1.57,23.05-1.57"/><path class="cls-2" d="M1177.39,548.48c-10.15,0-20.31.16-30.46,0-8-.17-16,.82-24-2.11-3.73-1.32-8.66-.63-13.06-.61-23.32.14-46.71-.54-70,0-20.55.5-41.23-.12-61.76,1.91"/><path class="cls-2" d="M564.05,815.08c1.05,44.18,1.2,105,.08,148.74H719.66v46.92"/><path class="cls-2" d="M1202.09,1646.74c.55,64.22,2.81,138,3.36,202.23"/><path class="cls-2" d="M1226.79,2324.3c-11.51,1.19-23.08.72-34.56,1.23-18.12.79-36.23,1-54.36,1.32-20,.34-40.21-.24-60.06,2-17.6,2-35.19.78-52.72,2.49a215.92,215.92,0,0,1-42.78-.3c-4-.41-8.22.45-12.34.71"/><path class="cls-2" d="M1953.75,1641.8c-2.2-6.79-.55-13.75-.67-20.59-.45-28.27.08-56.54-1.69-84.8-.71-11.48-.09-23-.13-34.57,0-1.92-.28-3.86-.45-6.12-21-2.12-53.09,1.65-73.69,1"/><path class="cls-2" d="M1542.11,1962.88c-5.27,3.2-44.81,4-50.22,4q-39.15.21-78.23,2.27c-11.69.61-23.58-.72-35.38.5v57.48"/><path class="cls-2" d="M1972.69,1617.1c-.82,10.91,1.45,22,1.58,32.11.26,19.77-.33,39.54,1.17,59.38-35,4.06-70.44-4.18-105.89,6.71.91-6.06.22-17.64-.65-33.16"/><path class="cls-2" d="M917.24,703.37v31.19H765.75"/><path class="cls-2" d="M1419.44,1271.33c-13.44.55-56.53,2.28-70,2.37-17,.12-34,1.85-52,.59,1.42,16.25.75,32.16.95,49.44-8.87-2.83-16.74,0-26-.7v-48.77c-22.6,3.07-95.94,1.79-118.14,3.68"/><path class="cls-2" d="M1228.44,2132.47c1.82,5.69,1.49,13.18,1.58,18.94.42,25,.58,49.94.9,74.92.22,17.57.46,39.25,1,56.81"/><path class="cls-2" d="M960.88,958.47c8-3.39,16.49-1.49,24.7-1.44,6.59,0,8.88-1.83,8.36-8.45a191.52,191.52,0,0,1-.08-20.57c.14-5.4-.54-7.91-7.5-6.89-8.59,1.32-17.53.32-27.13.32V813.91c-12.81-4.2-25-.11-37.05-1.13-3.48-.3-4.13,1.88-4.17,4.92-.11,7.41-1.13,14.87-.62,22.22.74,10.54-8.74,37-15,45.31"/><path class="cls-2" d="M1286.07,2130.82c.55,4.39,2.35,20.3,2.4,24.7q.59,53.1.88,106.21c0,6.31,1.08,12.63-.29,18.91-13.37,2-43.5,2.46-57.19,2.49"/><path class="cls-2" d="M1370.87,2010.63c.18-6.88-3.08-31.76-.37-38.71-20.76.12-40.24-.57-61.39,1.32-2.94,4.67-1.11,12.06-1.12,18.45,0,7.62.53,15.37.21,23.05-.2,4.6,10,7.25,13.29,8.24"/><path class="cls-2" d="M1379.11,1520h-78.86c-.61,25.27,1.41,62,2.28,85.67"/><path class="cls-2" d="M1442.49,2316.84c-34.88-1-69.7,1.7-104.56,1.9-8.45,0-20.48-.37-28.81,2.25"/><path class="cls-2" d="M951.82,1397.29c1,1.54,2.44,1.65,4.11,1.7,5.27.16,6.74,3,6.7,8.19-.22,29.09-.08,58.18-.12,87.27,0,8-1,9.29-9,8.91-4.11-.2-7.62,1.79-11.53,1.79"/><path class="cls-2" d="M1633.49,1202.17c-2.46.55-5.43.43-7.29,1.81-2.64,2-5.34,2.37-9.46,2.28,3.08,16.49-1.52,33,1.21,49.9-7.91,3.06-16,.7-24,1.08-5.11.25-8.84,1.05-6.7,8.3h29.16c.47,7.62.83,15.34,1.48,23.05.29,3.53,0,7.91,5.71,7.41"/><path class="cls-2" d="M1297.69,942c0,40.07-.09,85.07-.12,125.14,0,3,.59,6.14-.8,9.06"/><path class="cls-2" d="M1427.68,941.19c-5.76-3.59-12.13-1.56-18.11-1.38-4.92.14-9.89.49-14.83.54-29.91.32-59.83.55-89.73.87a71.4,71.4,0,0,0-7.32.79"/><path class="cls-2" d="M657.08,2299.6c-23.58,1.62-47.19,1.67-70.81,1.65h-12.6c-2.16,22.18-1.32,43.63-1.4,65"/><path class="cls-2" d="M585.46,2545.76c-2.16,5.54-14.5,13.84-19.77,14-27.68.62-55.5.17-83.12,2.1-13.18.92-29-.47-42,2.87"/><path class="cls-2" d="M439.8,2465.08c-3-2.25-3.24-6.3-3.22-9.05.16-14.27,1.05-28.5.11-42.82a160.08,160.08,0,0,1,2.25-38.68,42,42,0,0,0,0-6.14c-11.52,1.49-22.24,1.09-33,1.24-12.63.17-25.25.75-37.87.69-4.61,0-6.59,1.32-5.76,5.88"/><path class="cls-2" d="M1183.18,1748.83c-2-16.16-1.25-32.34-1.09-48.57.11-11.49-.43-23-.54-34.57,0-5.76-.18-11.53,0-17.29.53-15.16-3.65-19.06-18.12-16.34-.72.13-7.37,7.05-7.91,8.15"/><path class="cls-2" d="M1220.2,2109.42c2.21,17.52,2.35,36.76,2.54,54.33.21,18.66,1,37.33,1.58,56,.16,4.94.53,9.89.8,14.81"/><path class="cls-2" d="M1625.26,2633.86c-9.82,2.64-19.77.7-29.64.84-15.37.21-30.76,1.21-46.13.63-18.16-.69-36.17,2-54.36,1.66-7.91-.13-14.8,1.54-26.36,2.64"/><path class="cls-2" d="M1237.5,2034.5c-3.07.71-11.51,0-17.13,0-4.07-18.45.2-37.37-2.24-56.48-4.1-3.89-9.23-1.62-14.41-1.32-10.66.62-21.39.11-32.09.25-2.5,0-5.44-1.25-7.41,1.58"/><path class="cls-2" d="M1185.63,1905.25c0,12.35-.66,31.33.24,43.61.57,7.7-3.48,7.43-8.48,7.43h-65.9"/><path class="cls-2" d="M1665.58,1488.67c-1.71,6-.34,12.07-1.16,19.77,21.18-2.81,41.11-5.36,61.26-5s40.66-.43,61.75,2.86v-10.19c0-10.35-2.25-12.82-12.31-11.27-3.28.5-6.93-1-9.91,1.4"/><path class="cls-2" d="M1650,571.53V535.31h-42.81c-13.44,0-26.9.12-40.35-.07-4.36,0-6.29,1.48-5.76,5.84"/><path class="cls-2" d="M1607.15,2270.79c.12,9.89,2.81,19.69,1,30.87h-58.81c1.32-7.82,1.41-21.63,1.49-29.87"/><path class="cls-2" d="M729.53,683.5v78.41c12.11,4.55,23.32-1.13,33.83,2.83-1.45,3.16-.71,24.38-.91,27.42"/><path class="cls-2" d="M1158.57,1598c9.52,7.41,14.35,10.35,22.93,10.11,13.18-.37,26.62-1.65,39.46-.82,14.21.91,28-2.89,42-.84"/><path class="cls-2" d="M1270.43,955.19c1.74,2.64.76,5.51.76,8.24.09,34-.25,78.77-.25,112.79"/><path class="cls-2" d="M564.05,704.09c.28,24.15.66,54,.76,78.21a303.57,303.57,0,0,1-1,30.43c-.28,2.83,1.32,3.88,1.92,5.79"/><path class="cls-2" d="M661.94,566.59c-1.88-4.64-5.44-16.21-11.45-16.48-20.35-.9-40.57,2.86-60.92,1.67-8.24-.47-16.46-2.85-24.7.62-.11,19.15-.3,38.91-1.25,58.68-.42,8.95-.5,18.1-.42,27.15.08,9.71,0,9.67,9.9,9.11a17.13,17.13,0,0,1,4.11.78"/><path class="cls-2" d="M576.4,2603.4c0,8.5,2.06,18.07,1.71,26.36s-.24,16.46,0,24.7c.45,18.66,1.07,42.68,1.61,61.33"/><path class="cls-2" d="M1635.14,861.33h18c3.45,59.8.14,119.67-.09,180.18-6.08,3.43-22.08,1.17-32.75,5.06"/><path class="cls-2" d="M1873.84,1579.23c0-4.39-1.62-18.66-1.61-23.05,0-9.23,4.82-14,14-14h21.6c-.86,35.14.72,70.27,2.5,106-9.23,2.12-18.35.55-27.4,1.05"/><path class="cls-2" d="M1687.06,2443c.32,29.37,3,61.95,3.22,91.29,0,.54-.51,1.09-1,2.14-2.46.86-6.89-.92-6.75,5.27.08,3.26-4.56,1-8.41-1"/><path class="cls-2" d="M1183.18,1748.83c1,7.68-.58,20.32-.5,28,.12,11.78-1,23.58.3,35.43,1,8.95.16,18.1.21,27.15,0,5.27-.61,10.54,1.49,16.08,12.38,2.72,25-3.8,38-2.08"/><path class="cls-2" d="M1620.32,1046.57c-4.39,1-6.14,3.35-5.89,8.24.88,17,1.71,34,1.48,51-.08,5.27.29,10.44.32,15.65,0,12,.13,12,12.32,14.81"/><path class="cls-2" d="M822.61,1152.28c-.87,4.3,1.74,4.67,4.89,4.65,29.09-.09,58.18,0,87.27-.09.55,0,1.09-.51,1.65-.79"/><path class="cls-2" d="M1228.44,2132.47c-.4-10.15.63-20.31-.72-30.47-.66-5,1-8.86,7.32-8.25,2.36.22,4.86.2,5-3.78-4.82-1.94-10.54-.7-15.24-4.89-3.23-2.86-6.08,1.5-5.35,5.39,1.19,6.33.41,12.64.71,19"/><path class="cls-2" d="M1272.08,1132.19c-2,10.66-1.05,21.47-.55,32.09.75,16.21.4,32.4.47,48.58s-.47,32.38-.74,48.57v5.69c-17.54.45-37.7-1.15-54.33,1.71"/><path class="cls-2" d="M853,2297.07c-64.77.55-131.17,1.92-195.94,2.46"/><path class="cls-2" d="M1454,1946.47c-34.57.55-70.81,1.92-105.44,2.46"/><path class="cls-2" d="M1156,2287.25c-.34,9.61.82,19.24-.88,29.22h-40.29c0-7.26-.78-21.68-2.87-29.22"/><path class="cls-2" d="M1961.16,1493.61c.11-4-1.32-5.92-5.76-5.84q-37.87.65-75.73.8c-2.9,0-1.78,5.18-2.46,6.68"/><path class="cls-2" d="M1672.17,1844.43c2.31,15,1.32,51.48,1.63,66.59.45,21.41,1.2,42.81,1.56,64.22.13,7.67.29,15.5-1,23a41.72,41.72,0,0,0,.18,16.53c1.24,5.69,5,6.59,4.18,16.45-.54,6.76.84,13.18-1.65,20.59"/><path class="cls-2" d="M1308.39,773.29c-21.68.28-39.36.47-61,.79-11.26.16-30.76-.62-42,.82"/><path class="cls-2" d="M1970.21,1526.54c.55,29.64,1.92,60.92,2.46,90.56"/><path class="cls-2" d="M1001.22,560.83c-8.2,1.32-16.41,2.27-25,.61.65-2.64,2.33-5.55,1.74-7.91-.71-2.9-.32-10-7.13-5-3.1,2.28-5.27-1.09-8.25-1.05-25.52.37-51,.22-76.57.18-2.37,0-44.09.38-46.13,1.67"/><path class="cls-2" d="M1633.49,701.61c-8.84,0-11,3.08-15.65,4.09s-7.66,2.4-7.53,8.28c.58,24.69.79,49.39.86,74.09,0,5.19,2.64,9.23,6.71,9.49,5,.24,8.24,3.08,12.32,4.51"/><path class="cls-2" d="M928.8,2707.13c-35.11,1.61-70.24,1.81-105.44,1.65"/><path class="cls-2" d="M855,2708.77c-1.65-8.08-17.4-36.14-18.45-44.46H762.47"/><path class="cls-2" d="M1384,1776c-14.27.57-36,1.09-50.22,1.65"/><path class="cls-2" d="M1398,1697.78a15.74,15.74,0,0,1,.84,10.64c-3.14.09-5.92,2-9.9.11v66.64"/><path class="cls-2" d="M1878,1524.07h46.92v35.4c0,28,1,56,2.48,84"/><path class="cls-2" d="M1207,2650.31a8.94,8.94,0,0,1-2.46.79c-23.61.32-47.23,0-70.79,1-25.24,1.17-61.18,3.51-86.45,4"/><path class="cls-2" d="M1799,1551.24c.82,26.07,1.7,66.14,2.4,92.26"/><path class="cls-2" d="M380.49,2473.32c0,20.85-.91,43.36-.79,64.22.07,11.53,1.85,42.55,2.24,54"/><path class="cls-2" d="M1419.72,1863.81c-1.82-4.06-2.12-15-9.33-14.58a1.16,1.16,0,0,1-.79-.79c-.47-12.17-12.43-20.57-11.34-33,.71-7.91-4.57-16.52,1.9-24.19.14-.16-3.1-8.88-9.54-9.6"/><path class="cls-2" d="M1653.08,1041.51c1.71,7.91,3.45,16.86,3.45,24.82,0,23.05,1.7,46.13,0,69.16-.18,2.46-1.86,5.11-3.69,7.41"/><path class="cls-2" d="M867.85,1063.86v-52.59c-19.47-1.32-38.95-.14-58.48-1.13-16.26-.82-32.82-1.32-49.43.5-14.25,1.61-25.77,2.06-40.28.11"/><path class="cls-2" d="M1562.55,536.16c-16.32,0-68,2.11-79.72,2.11-29.95,0-63.09,3.15-93,2.23"/><path class="cls-2" d="M670.26,2340.76c-10.89,2.23-22-.17-33,1.54-7.41,1.16-18.19,11.78-18.07,19,.49,30.18.55,60.39,1.9,90.55.49,11-7.53,13.18-14.27,15.66"/><path class="cls-2" d="M1277.84,1740.59c1.91,8.45,1.32,51.59,1.61,60.1.43,12.89.54,25.79.88,38.7.26,9.77.33,9.75-9.07,11.52"/><path class="cls-2" d="M1302.54,544.37c-13.44,0-28.68,2-42,.49-14-1.62-34.41-.49-50.26.63"/><path class="cls-2" d="M1649.13,701.61c4,8.49,1.83,17.65,2.15,26.36.92,25.49.33,51,.29,76.55a8.66,8.66,0,0,1-.79,2.46"/><path class="cls-2" d="M1387.33,1368.48c.22,5.39-3.76,7.54-8.24,7.5-22.5-.2-45-.08-67.51-.09-3.66,0-7.32,0-10.7,1.66"/><path class="cls-2" d="M822.22,1064.69c-.34,3.08-2.12,8.24,3.61,8.41,12.21.38,24.17.12,36.27,1.32s42.06.14,54.32,2.64"/><path class="cls-2" d="M1862.37,1477.15c1.48,10.2,3.69,50,1.88,60.92H1785"/><path class="cls-2" d="M1193,589.64c-1.85,14.81-.26,34.57-.91,49.32,7.06.63,6.48.49,7.63-4,2-7.91,1.52-18.07,1.52-27.2"/><path class="cls-2" d="M1381.57,1720.83c-22.5.69-45.05-1.49-67.52,1.54-3.74.5-6-.49-9.85-.76"/><path class="cls-2" d="M1035,587.18a77.76,77.76,0,0,0,28.8,2.31c17-1.62,34.1.82,51.19-1.85L1125.5,560"/><path class="cls-2" d="M657.91,568.24c-3.3,7.68-7.26,15.17-9.61,23.13-1.32,4.4-3.4,4.86-6.85,4.86H605.18c.41,13.18-2.82,29.52-.78,42"/><path class="cls-2" d="M1782.8,1553.07c-.14,26.64,3.39,65.41,4.65,92"/><path class="cls-2" d="M988.87,1274.62c2.1,6.29-1,7.68-6.59,7.47-6.59-.26-13.18,0-20.07,0-1.65,15,.83,30.25-1.32,45.27"/><path class="cls-2" d="M438.92,2475.78c.59,12.35.2,24.71.36,37,.17,13.42-.95,27,1.32,40.35"/><path class="cls-2" d="M1677.13,2051.79c2.35,18.33,1,36.79,1.9,55.15.49,9.64.86,65.34,1.4,74.93"/><path class="cls-2" d="M1669.72,1790.82a103.07,103.07,0,0,0-36.35,7.1c-3.66,1.48-4.92,2.64-4.84,6.06.2,8.24-.13,16.46.67,24.71.37,3.74,1.41,5.61,5.1,5.73,4.72.16,9.91,4.06,14,5.77"/><path class="cls-2" d="M1524.82,909.09c-25.25.5-65.28,3.07-90.56,2.46"/><path class="cls-2" d="M1375.81,1444.21c-25.2,2.5-50.49,1.32-75.75,1.65"/><path class="cls-2" d="M1382.12,1793.3l-74.64.82"/><path class="cls-2" d="M606,759.25c.37,14.81-2.12,29.63,0,44.47.65,4.68-.84,7.57-6.5,8.44-6.72,1-24.59,6.59-31.17,8.48"/><path class="cls-2" d="M1375.81,1423.64c-24.94,2.1-49.94,1.61-74.92,1.65"/><path class="cls-2" d="M520.43,2474.14q.82,34.16,1.67,68.33a53.49,53.49,0,0,0,.79,6.59"/><path class="cls-2" d="M1877.18,1495.26c-.28,4.11-.55,33-1,38.88,10-.67,19.88.88,29.76-1.07,8.69-1.71,10.4-.78,10.66,8.29.47,16.19.71,32.38.84,48.57.12,14,1.08,51.07,2.5,65"/><path class="cls-2" d="M1965.28,1701.07c-14.6-2.23-34,1.32-48.6.25-10.33-.72-20.84,1-31.26,1.32-2.64.08-2.78,6.67-2.28,9.36"/><path class="cls-2" d="M1044.85,919c-.26,4.39-1.32,30.18-1.63,34.85.18,2.5,3.24,1.94,4.11,2,13.71.59,27.43.78,41.15,1,1.7,0,2.39-1.32,3.3-2.46,2.82-3.31,5.79-6.46,9.87-8.24"/><path class="cls-2" d="M1659.84,2675.84c-13,0-14.39,2.72-20.6,3-17.82.74-35.69.42-53.5,1.92-.53,0-45.55,2-46.13,1.69"/><path class="cls-2" d="M450.44,2475v76.57"/><path class="cls-2" d="M1212,1630.28h64.23l1.63,110.32"/><path class="cls-2" d="M1382.12,1757.68c-19.19,1-52.14,1.32-71.36,1.9-2.81.09-7.12-1.65-6.59,4.07"/><path class="cls-2" d="M1315.71,2267.49v10.7h56c3,0,4-2.54,4.11-5.79"/><path class="cls-2" d="M1249.85,553.42l-11.51,33.08c-12.22,3-24.79.29-37.52,2.37-.62,6.25-1.05,12.56.46,18.87"/><path class="cls-2" d="M1774,1554.16c4,39.54-.78,97.54-.59,137.08"/><path class="cls-2" d="M1011.09,2700.54c-2,2.33-4,2.75-7.41,2.77-21.15.08-53.88.9-74.92,3.82"/><path class="cls-2" d="M1154.34,1277.92l-111.14,1.88c-.34-2.35-.47-6.13-.83-8.48"/><path class="cls-2" d="M1630.21,1938.18c-9.33-1-18.66,2.37-28.3-.08-3.12,6.59.12,14-2.44,21.48h33.16c2.23,10.61,2,20.56,1.58,30.46-.18,4.76.59,7.58,5.9,7.42"/><path class="cls-2" d="M1378.25,565.67c0-7.3,5.84-10.74,11.6-10.54,9.05.24,18.11.62,27.16.78,5.77.11,11.57.47,17.65-1.32l8.69,26.06"/><path class="cls-2" d="M1828.61,1552.07l1,90.5"/><path class="cls-2" d="M1047.31,2656.08l-70.81,1.65"/><path class="cls-2" d="M1650,570.1c-2.33,15.92,2.64,36.65.53,52.45-1,7.75-.18,17.62-4.31,25"/><path class="cls-2" d="M925.47,1849.74c.28,45,3,143.88,3.3,188.89"/><path class="cls-2" d="M1308.39,773.29c.4,3.68-.11,7.68-5.06,7.5-7.12-.26-14.26.61-21.41.65-20,.11-40.07.18-60.1-.08-4.47,0-8.57,2.07-13.18,1.15-2.31-.46-4.77,1.79-4.86,4.73-.46,15.91-2.64,38-.86,53.51,12.18,0,25-.25,37.05-.25v-22"/><path class="cls-2" d="M1379.11,2083.08c.55,15.92,1.19,31.83,1.62,47.75.55,20.31,2.45,50.49.84,70.81"/><path class="cls-2" d="M1196.68,917.31c-.12-20.31-2-67-2-87.27"/><path class="cls-2" d="M1636.78,2089.66c.28,22,.69,43.9.7,65.9,0,3.74,1.21,5.87,4.24,7.41"/><path class="cls-2" d="M1375.81,1433.51c-24.15.42-48.32-.92-72.49.86a10.89,10.89,0,0,0-2.48.79"/><path class="cls-2" d="M1383.22,1783.4c-24.71,0-51.9.49-76.58,2.64"/><path class="cls-2" d="M1970.21,1526.54a153.39,153.39,0,0,1-.87-26.36c.26-7.3,0-14.59-2.4-21.6a199.34,199.34,0,0,1-31.32,1.32c-17-.58-34,.32-51,.58-1.92,0-4.73.83-5.61-.13-4.89-5.27-10.93-3-16.61-3.16"/><path class="cls-2" d="M1269.6,953.54c-3.07-2.87-6.59-.76-9.89-.75-24.15.13-86.17,1.32-110.32,1.57"/><path class="cls-2" d="M1867.25,1658.26c-26.36-2-52.72,1.94-79.86.62,0,9-.12,16.94,0,24.91.16,8.57-1.48,10.41-9.89,8.9-3.19-.58-11,4-14,5"/><path class="cls-2" d="M1044.85,919h84.8"/><path class="cls-2" d="M1008.83,2291.38c-1.86,5.76-.45,20.59-1.32,27.28,16-1.46,30.79-.84,45.6-.9,3.14,0,3.48-1.75,3.3-4.15"/><path class="cls-2" d="M1282.78,2693.16c-14,.55-28,1.19-42,1.62-13.18.4-26.36.32-39.54,1.09-2.4.14-5,.5-7.42.53-18.45.18-36.79-.75-55.16.86"/><path class="cls-2" d="M954.29,2652.78c-1.32.28-3.78.25-4,.87-2.64,9.12-10.78,6.81-16.63,7.1-15.05.75-30.32-.79-45.24.58-12.13,1.12-39.94,2.79-52,3"/><path class="cls-2" d="M911.66,2681.94c-4.86,12-5.92,13.26-19.1,14-13.51.71-29.21,1.09-42.67-.51"/><path class="cls-2" d="M1378.7,1499.37c-23,1.67-41.57,1.67-64.58,1.66-3.37,0-6.87-.57-9.89,1.63"/><path class="cls-2" d="M1941.4,1505.13c1.7,4,1.57,9.89,1.59,14,.18,28.55-.3,57.1,1.59,85.67.67,10.12,1.08,41.74,2.57,51.87"/><path class="cls-2" d="M1689.93,2535.15c.55,16.74,1.23,35.88,2.08,52.6s-2.86,36,.74,52.72"/><path class="cls-2" d="M1961.16,1492.69c0,19.77,0,45.38.07,65.14"/><path class="cls-2" d="M1129.65,919c.82,1.09,2.39,4.72,3.31,4.81,12.6,1.21,25.66,3.15,37.71-.37,8.24-2.41,17.32-5.61,26-6.08"/><path class="cls-2" d="M1355.22,2690.66c-17.31,0-34.6.09-51.87,1.59-4.63.4-10.36-.34-20.57.91"/><path class="cls-2" d="M1347,584.71a27.52,27.52,0,0,1,1.61,4.11c.47,17.68.46,17.75-17.25,18.08-10.15.18-23.72.09-33.89.09"/><path class="cls-2" d="M591.22,2475.78c.28,18.39.61,36.77.78,55.16,0,3.56-.5,7.13-.78,10.7"/><path class="cls-2" d="M1934,1514.15c2,13.42.24,26.9.76,40.35.75,19.2-1,38.43.88,57.62"/><path class="cls-2" d="M572.29,2366.29c-.5,30.18,2.64,63.7-.84,94.54-11.49.17-23,.49-34.55.67-10.91.17-22,.13-33,1.4-5.51.65-5.92,2.19-18.15,2.19"/><path class="cls-2" d="M1080.25,2288.9c-25.81-.17-74.39,1.85-100.17,3.4"/><path class="cls-2" d="M1378.09,1479.1c-21.68,3-57,.46-78.7,1.32"/><path class="cls-2" d="M823.35,2708.77c-18.94.36-67.62,2.2-86.56,2.48"/><path class="cls-2" d="M961.09,732.42c-3.32,3.74-2.25,5.61-1.65,9.52,1.86,12-1.57,23.62.09,35.43H938.64"/><path class="cls-2" d="M1946.33,1683.87c-6.74,4.27-12.68,2-19.77,1.32-14.33-1.23-28.56.72-42.82.21"/><path class="cls-2" d="M1818.57,1550.55c2.19,21.09-1.74,71,1.73,92.07"/><path class="cls-2" d="M737.77,2711.24c-33,.57-65.9,1-98.85,1.71-6.59.13-19.77,1-26.36,1.58"/><path class="cls-2" d="M1961.22,1557.83c.55,27.44,2.64,63.12,3.23,90.56"/><path class="cls-2" d="M1379.92,1748c-18.93.74-49.35,2.79-68.34,1.69-4.07-.24-8.69-.76-8.22,5.73"/><path class="cls-2" d="M614.27,2546.59c7-.49,8.11,5.73,8.15,9.89.2,21.41.08,42.81.12,64.22"/><path class="cls-2" d="M1376.63,1413.89c-4.92,3.33-23.65,1.17-28.83,1.32-15.9.49-31.83.17-48.94.17,2.39-9.05-1.32-18.11,1.2-27.16"/><path class="cls-2" d="M1941.4,1505.13h-62.57"/><path class="cls-2" d="M1361.81,1712.61c-18.11.28-36.23,1-54.33.53-4.85-.12-4,1.74-4.13,4.42"/><path class="cls-2" d="M902.43,2315.25q-.83-4.11-1.65-8.24H846.44"/><path class="cls-2" d="M960,1126.43a114.16,114.16,0,0,0-.26,24.63c.94,9.11-4.85,10.65-9.66,11.22-9,1.05-16.79,5.34-25.44,7.17-7.22,1.53-8,48.48-3.33,54.12"/><path class="cls-2" d="M965.82,1613.81h32.11c1.42,7.68.82,15.37.8,23.87-10.66,0-23.84-.82-33.73-.82"/><path class="cls-2" d="M1611.29,935.43c3.56,8.59,2.28,20.89,3.3,29.63.32,2.78.09,5.39,1.32,8.37,1.79,4.49,3.73,7.41,8.58,8.11s23.11,6.41,28.39,6.3"/><path class="cls-2" d="M1384.66,1812.86c-23.07,0-54.17-.26-77.18,1.83"/><path class="cls-2" d="M1391.43,1841l-82.33,2.46"/><path class="cls-2" d="M850.56,928.84c-3.32,7.91-.66,16.57-3,24.79-.92,3.33.59,8.41,7.06,8.25,17.29-.42,34.63.49,51.88-1.66,3.2-.4,6.59.46,10.94.82.46,11.11,1.67,22.41,1.17,33.65-.47,11-.75,10.89,10.1,10.93,6.16,0,10.54-4.63,16.46-4.34"/><path class="cls-2" d="M969.93,2089.66c.55.82,2.39,3.28,2.4,4.11q.95,41.57,1.67,83.16a39.2,39.2,0,0,1-1,6.26l-20.4,4.48"/><path class="cls-2" d="M1882.94,1676.37c2.08,3.14-2.72,13.38,0,16.46h28c12.07,0,24.16.22,36.22-.16,3.07-.09,8.46,1.82,8.24-4.78"/><path class="cls-2" d="M924.66,1785c0,18.11.82,46.13.82,64.69l18.11-3.77"/><path class="cls-2" d="M1315.71,1511.72c15.62-1.9,33-1.13,48.57-1.63,4.72-.16,9.52.43,15-2.35.53,7.47,1.24,14.37,1.45,21.27.66,21.41,2.12,42.84,1.41,64.2-.69,20.9,1.59,41.66.75,62.59-.7,17.23-.87,34.56-1.13,51.85,0,3.77,2.79,7.51.65,11.52"/><path class="cls-2" d="M1349.48,835.8c1.38,10.68.67,21.41.79,32.11.09,8.78,0,17.57,0,26.36a79.64,79.64,0,0,1-1.87,20.59h-34.34"/><path class="cls-2" d="M798.69,550.13c-3.62,4.3-11.7,29.7-13.81,34.65-2.37,5.59-5.13,8.65-11.72,8.29-9.58-.51-19.2-.13-28.81-.13"/><path class="cls-2" d="M1111.53,1956.29c-19.69,3-41.16,1.94-60.92,2.46"/><path class="cls-2" d="M1384.84,1487v21.85h13.44c-1,13-2.64,25.64-2,38.22"/><path class="cls-2" d="M1312.41,2140.71c-.78,29.37,1.41,58.71.37,88.1-.33,9.23,3.7,26.36,2.91,38.68"/><path class="cls-2" d="M426.62,2410.75H378c3.19,5.38-5.44,12.24,4.94,12.35"/><path class="cls-2" d="M1844.26,1552.07c.28,22.22,2.2,66.68,2.46,88.92"/><path class="cls-2" d="M1506.71,1268.86c8.13-2,16.54.09,25.11-1.32v-8.83c-15.21,2.39-43.26.59-58,2.74"/><path class="cls-2" d="M1640.08,2268.32c-8.5.28-22.09,1.07-30.61,1.21q-30.05.51-60.1.83"/><path class="cls-2" d="M1934,1514.15c-17.54,1.78-39.25-1.32-56.81-.86"/><path class="cls-2" d="M1378.33,1489.49c-18.08,1.49-51.07,1.67-69.2,1.65h-9.23c.66,4.8-1.44,9,2.64,12.35"/><path class="cls-2" d="M1383.11,1766.91c-14.81.37-29.06.45-43.88.91-7.91.25-24.62,1-32.58,1.59"/><path class="cls-2" d="M427,2399.22h-40c-9.56,0-10.19.8-9.05,11.52"/><path class="cls-2" d="M928.8,2036.56c-1.63,15.9,1.63,78.34,1.69,94.27,0,19.48,2,39,0,58.46-.08.79.5,21.41.78,22.22"/><path class="cls-2" d="M1473.78,1261.44l-56,1.65"/><path class="cls-2" d="M630.75,2658.56c6,6.51,12.6,10.78,22.26,9.23,5.27-.84,11,.63,16.44.54s6,3.85,8.42,9.64"/><path class="cls-2" d="M1645,1647.56c-4.94,2.46-10.15,4.53-14.74,7.54a11.15,11.15,0,0,0-5.18,10.54c.72,14.8-.49,29.64.9,44.46.22,2.43-.65,13-.92,15.43"/><path class="cls-2" d="M1837.51,1551.24c1.42,25,.75,64.77,1,89.73"/><path class="cls-2" d="M578.87,648.93v55.94"/><path class="cls-2" d="M1665.58,2168.41v53.8h14.81"/><path class="cls-2" d="M1645.81,1194.07c2.46,2.64,12.34,8.91,12.43,12.21.45,16.2,1,38.14,1.61,54.34"/><path class="cls-2" d="M762.47,2664.32c-20.3,1.12-40.58,2.16-60.92,1.65"/><path class="cls-2" d="M1648.32,807.82c-1.78-2.21-4.8.55-7.67-1.65,2.25,18.14-2.4,36.18.26,54.34"/><path class="cls-2" d="M564.05,646.08a397.73,397.73,0,0,0,0,57.18"/><path class="cls-2" d="M920.53,1569.35c.55,15.92,1.32,31.83,1.59,47.75.34,20.31-.37,40.62.8,60.92a30.17,30.17,0,0,1-.58,9.09c-1.32,5.35,8.88,14.5,12.93,18.35"/><path class="cls-2" d="M937,1848.45c3.27,5.34.45,11,.84,16.46a225,225,0,0,1,0,37.87"/><path class="cls-2" d="M1657.37,1843.5v54.33"/><path class="cls-2" d="M1523.23,2313.6c-23.59.72-57,4-80.68,3.26"/><path class="cls-2" d="M932.06,1509.26v45.27c0,2.74-.51,5.48-.79,8.24"/><path class="cls-2" d="M932.06,1338l-1.65,53.57"/><path class="cls-2" d="M822.56,1055.63c-1.46,2.74-.87,5.48-.34,9.05,6.35,0,12.42.28,18.45,0,19.51-1.07,38.92,2.4,58.47,1,4.31-.3,14.5,1.48,18.93,2.31"/><path class="cls-2" d="M1680.43,2181.87c2.86,10.31,1.52,20.84,1.66,31.29q.36,26.76.82,53.51c.25,15.37.41,30.74.87,46.13.25,8.51.49,50.44,1,59"/><path class="cls-2" d="M430.2,2600.88c1.57,5.4.3,11.06.91,16.55.34,3.1-4.64,3.26-7.84,3.26h-35.4c-1.32,0-3-.72-4.94,1.86,0,9.34.42,30.51-.12,40.86"/><path class="cls-2" d="M566.53,820.17c5.27.63,3.16,4.76,3.2,7.41.2,15.37.09,30.74.09,46.13"/><path class="cls-2" d="M1134.58,1269.68a811.07,811.07,0,0,1,82.33-.82"/><path class="cls-2" d="M1042.38,1271.33l92.26-1.65"/><path class="cls-2" d="M1631.84,1361.89c-13.59,3.88-14.5,5.09-14,18.11.13,3.84,1.07,7.5.26,11.57-1,5.15,1.25,9.49,7.18,10.66"/><path class="cls-2" d="M1661.48,1403.05c3.49,8.32,1.57,38.68.34,46.86-1,6.95-1.58,13.18.41,19.85.53,1.77.07,3.82.08,5.73,0,11.07,1,12.17,11.52,12.32,9.23.13,17.58,4.86,27.2,3.57,8.62-1.16,17.53-.13,26.36-.32,2.77,0,3.19-1.69,10.81-2.4"/><path class="cls-2" d="M1380.75,1701.9a493.2,493.2,0,0,0-53.51,2.46"/><path class="cls-2" d="M1178.22,550.13l1.87,8.24h-53.74"/><path class="cls-2" d="M1684.54,2370.41c5.1,24,2,48.31,2.52,72.49-5.59.67-5.59.67-5.81-6-6.91-3.6-13.39,4.94-19.77,4.22"/><path class="cls-2" d="M931.23,1850.09c-1.61,14.27.16,28.55.3,42.81,0,3-.75,6-.3,9.05"/><path class="cls-2" d="M1373.33,2094.6c-2,7.91-.21,22.5,0,30.46.2,9.05,0,18.11,0,27.16"/><path class="cls-2" d="M1404.61,1366.83a96.59,96.59,0,0,1-11.86,29.1c-4,6.22-3.89,15.1-.4,22.74A12,12,0,0,1,1394,1422c1.32,7.2-.71,10.78-7.53,12.28-1.32.28-2,.32-1.62,1.73"/><path class="cls-2" d="M1377.08,1405.52c-17,1.32-60.54,1.32-77.55,0"/><path class="cls-2" d="M1313.24,2085.07c.24,14.5-1.09,41.08-.82,55.63"/><path class="cls-2" d="M1240.24,2684.89c-9.83,1.88-28.36-.34-38.12,1-7.68,1.08-15.61-.9-23.21,2.82-3.44,1.69-3.07,3.53-3.16,6"/><path class="cls-2" d="M1669.72,1729.07l1.65,77.38"/><path class="cls-2" d="M1611.29,906.61c-9.5,2.23-20.15-.47-29.62,1.45-1.9,7.55-2.64,20-.87,27.36"/><path class="cls-2" d="M736.12,658.8c4.13,6.85.54,20.3.28,27.15-.43,11.06,1.63,22,.45,33-.53,4.92,4.11,4.26,5.87,6.59"/><path class="cls-2" d="M1079.05,2698.07c-5.51,2.54-11.19,1.12-16.88.92-11.55-.41-41.18,4.23-52.72,3.11"/><path class="cls-2" d="M1576.69,2669.26c-17.83.55-35.68,1-53.51,1.74-2.52.11-5.72,7.21-5.1,11.45"/><path class="cls-2" d="M1639.22,2323.43c-4.72-5.75-22.84-14-28.81-13.91-17.29.3-34.59.95-51.87,1.58-11.26.42-24.15,1.9-35.4,2.45"/><path class="cls-2" d="M920.48,1259.77c-.51,15.37-.62,58.75-2.29,74.11-.17,1.59,6.46,3.24,10.27,3.24"/><path class="cls-2" d="M1381.57,2201.63c.55,9.33,1,18.68,1.73,28,.24,2.87-2,6.34,4,7.83,5.38,1.32,2.4,7.68,2.64,11.93"/><path class="cls-2" d="M971.76,1960.32c7.05-2.44,22.27.37,29.85,0v23.14c-7.8,0-15.22-.11-22.64,0-2.5,0-5.44-1.25-7.41,1.58"/><path class="cls-2" d="M1297.6,606.12c1.79-6.3-3.56-10.37-5.27-15.54-4.15-12.57-12.76-15.09-26-9.23"/><path class="cls-2" d="M1791.56,1552.07c0,26.89,2,64.9,2,91.8"/><path class="cls-2" d="M1664,1509.26l1.63,24.7c.07,1.09-.32,3,0,3.18,7.12,2.87,4.82,9,4.77,14.12s2.64,12.43-7.3,11.7a28.32,28.32,0,0,0-.8,4"/><path class="cls-2" d="M1277.84,2323.43c-8.5-3.44-17,.76-25.53.13-7.91-.59-17.56.7-25.52.7"/><path class="cls-2" d="M1505.89,2273.24c-14.5.3-76.16,1.38-90.69,1.66"/><path class="cls-2" d="M429.86,2570.46H381.29"/><path class="cls-2" d="M1356.05,584.71c-1.85,16.16-.33,34.55-.76,50.73"/><path class="cls-2" d="M1203.74,703.26c-7.42-1.65-1.54-6.59-2.73-10.28-7.12-1.32-6.74,4.17-7.12,8.65-.46,5.47,1.86,10.86.16,16.52-.63,2.11-1.85,1.71-2.93,4.09-3-1.45-9.13-.58-12.61.82"/><path class="cls-2" d="M960,960.12c0,9.89-.08,19.77,0,29.64.08,6.27-2.53,9.46-9.09,9.15-1.32,0-2.74,1-4.11,1.56"/><path class="cls-2" d="M1316.54,825.11h31.63V809.47c-10,0-20.44-.14-30.87,0-5.65.11-7.14,3.11-5,8.2,2.89,6.83,4.28,13.63,2.85,21.44-1.32,6.85.28,14.21.49,21.35.12,4.11,0,8.24,0,12.35"/><path class="cls-2" d="M1650,808.64c.94,6.31,1.52,12.67,0,18.93-2.36,9.53,4,24.48,3.24,33.77"/><path class="cls-2" d="M1854.13,1550.42c.55,11.52,2.07,23.11,1.41,34.56-.92,16.24,2.64,40.62,1.61,56.82"/><path class="cls-2" d="M980.08,2292.3c-3.86.83-5.27-8.53-5.27-10.81v-28c-4-2.53-22.08-5-26.36-6.59"/><path class="cls-2" d="M471,2474.14c-2,15.92.14,61.07,0,77"/><path class="cls-2" d="M1539.64,2682.43c-25.82-.53-53.25,1.45-79.08,2.46"/><path class="cls-2" d="M1113.18,1979.34c-20.32,0-40.66-.45-60.92,1.65"/><path class="cls-2" d="M916.42,1122.31c-11.49-1.82-23.07-.29-34.57-.86-4.11-.2-55.25.91-59.31-.79"/><path class="cls-2" d="M1306.65,1903.61c-11,.54-22-1.2-33,.94-1.71.33-.51,2.64-1,4.43,6.35.07,8.8,2.19,7.91,9.49-1.32,10.83-.4,21.93,1,34.53-12.27,0-24.11.38-35.9-.28a14.5,14.5,0,0,0-7.42,1.11"/><path class="cls-2" d="M719.65,550.13c-11,3.59-22.58,1.63-33.81,2.64-8.12.71-23.9-2.78-33.1-2"/><path class="cls-2" d="M1659.84,1260.62l-1.65,60.1"/><path class="cls-2" d="M922.21,1007.06c1.81,15.62.41,35.22.9,50.85"/><path class="cls-2" d="M1663.57,1739c-3.28,15.43,2.4,35.59,2,51"/><path class="cls-2" d="M427.38,2442.86h-46.9"/><path class="cls-2" d="M1349.46,694.21c-1.91,12-.51,24.15-.76,36.22-.26,12.61-.12,25.24,0,37.87,0,4.38-2.72,4.36-5.8,4.11"/><path class="cls-2" d="M951.82,710.3c-.62-6.21-3-6.76-2.08-11.36,2.5-1.41,5.47-2.23,8.65-.41.62,9.74-1.4,20,3.32,29.45h24.69"/><path class="cls-2" d="M485.84,2465.08h-46"/><path class="cls-2" d="M1384.84,1643.45h13.3c-.26,11.86-2.77,23.57-1.82,35.4.51,6.31-1,12.8,1.69,18.93"/><path class="cls-2" d="M888.42,853.1c-11.73,1.62-23,14.3-27.77,23.17-3.8,7.09-1,9.66,8.84,9.77"/><path class="cls-2" d="M846.43,563.27c-16.74.58-36-1.05-52.72.87"/><path class="cls-2" d="M429.86,2639.62c-15.37.45-30.76-1-46.13.82"/><path class="cls-2" d="M426.62,2452.73c-11.55.13-23.09-.45-34.6,1.5-3.69.62-7.66-.41-11.51-.69"/><path class="cls-2" d="M931.23,2211.51c-1.78,22.21-.58,44.46-.53,66.68,0,4.56-1.21,11,0,15.58"/><path class="cls-2" d="M948.57,1229.33c3.62,2.94,8.3,1.94,13.18,4v33.07"/><path class="cls-2" d="M1253.14,917.31H1207"/><path class="cls-2" d="M1308.3,1900.34c.78,14.81-2.15,29.67.21,44.42a15.39,15.39,0,0,1-1.07,8.16c14.68-5.1,28.25.41,41.2-4"/><path class="cls-2" d="M1384.84,1811.4l2,8.2c-3.11,2.25-6.13,1.83-9.45,1.86-22.51.21-45,1-67.51,1.42-4,.08-3.22,8.45-3.3,10.78"/><path class="cls-2" d="M952.64,2187.67c-6.75-.12-10.62,4.92-9.86,11.52,1.57,13.43-.46,32.65-.09,46.13"/><path class="cls-2" d="M1460.6,2684.89c-10.15.55-20.3,1.19-30.46,1.63-22.24,1-54.12,1.92-76.29,4.14"/><path class="cls-2" d="M923.21,703.37c-.26,5,1.13,8.51-.84,13.18l29.45-1.32V710"/><path class="cls-2" d="M1667.76,1843.5a218.23,218.23,0,0,0-.7,33.77c.65,6.77-.37,13.71-.63,20.56"/><path class="cls-2" d="M1185.63,1905.25c10.73,1,21.33-1.69,32.12-1.08,4.35.24,6.89.2,6.59,5.19-2.91,1.4-6,.69-9.05.82-8.92.38-10.79,1.4-8.73,9.81,2.24,9.13-1.08,17.65-.3,26.36.2,2.27-.25,6.59,2.45,8.24"/><path class="cls-2" d="M1468.84,2639.62c-26.36.55-54.33,1.92-80.68,2.46"/><path class="cls-2" d="M867,1033.39H821.74"/><path class="cls-2" d="M1648.32,1304.26c-4.38.87-2.33,4.35-2.37,6.59-.2,13.18-.45,34.37-.45,47.54"/><path class="cls-2" d="M574.24,2556.37c.47,12.07.38,35,2.16,47"/><path class="cls-2" d="M1203.74,703.26c0,7.41-2,21.43-1.53,28.81.34,5.51-2.1,6.59-6.39,5.69-2.64-3.44.54-8.13-2.78-11.44"/><path class="cls-2" d="M1300.25,1520c2.74-3.84-1.77-42.26-.95-46.34.71-.41,1.56-1.32,2.41-1.32q37.46-.94,74.92-1.71"/><path class="cls-2" d="M499,2475.78c1.65,14.5,1.23,60,1.41,74.55"/><path class="cls-2" d="M1375.81,1454.1c-14.5,0-30.74.82-45.27.82"/><path class="cls-2" d="M1873.84,1579.23c.34,20.57.58,41.16.86,61.75"/><path class="cls-2" d="M1642.54,2374.52c-1.71,23.3-.36,46.66-.75,70a15.91,15.91,0,0,0,2.4,4.11"/><path class="cls-2" d="M1282,2026.28c-.22-17.2,5.35-67.3-2.46-67.3-11.26.4-43-.38-54.15,1"/><path class="cls-2" d="M1381.57,1384.11l-72.49.84c-1.12,0-9-.17-9.82,1.19"/><path class="cls-2" d="M929.09,1699.41c2.28,8.17-.76,19.77-.4,28,.38,8.49.08,17,.08,25.52"/><path class="cls-2" d="M755.66,2664.69c-1.65,3.84-7.43,20.4-8.79,24.34-3.47,10.12-5,11.45-14.87,11.51-3.57,0-6.16.42-12.35.83"/><path class="cls-2" d="M1503.28,580.6c-9.89.26-50.09-.25-60,0"/><path class="cls-2" d="M968.34,1770.23V1813"/><path class="cls-2" d="M939.47,2029.51l.82,49.4c0,1.19-.28,2.56,1.65,2.46"/><path class="cls-2" d="M1302.54,1605.58c.21,14.27,1.85,28.55,0,42.81-1,7.76,1.74,19,.86,29.64"/><path class="cls-2" d="M1158.57,1598c-5.56,10.19-26.15,19.15-34.66,20.06-14.83,7.74-14.83-8.32-27.18-5.85"/><path class="cls-2" d="M1542.11,1962.88c1.71-1.41.78-3.32.76-4.94-.13-18.07,3.11-16.34-17.21-15.32-11.15.57-22.41.76-32.81-3.48"/><path class="cls-2" d="M924.84,1336.81c-1.85,14-.55,39.9-1.05,53.89"/><path class="cls-2" d="M858,592.94c5.06-3.28,10.28.4,15.71-.36,11.31-1.56,23-.14,34.51-.61,5.94-.24,7.7,2,7.49,7.54-.49,13.18-.74,26.36-.86,39.54-.08,8.48-.26,8.8,8.42,6"/><path class="cls-2" d="M1396.39,1548.77c.25,4.24-.95,8.34,3.78,12,2,1.53.33,7.83.33,12.73h-17.28"/><path class="cls-2" d="M1388.7,540.39c-12.35.46-69.74.49-82,2.37a20.09,20.09,0,0,0-4.13,1.61"/><path class="cls-2" d="M953.47,1905.25c13.18,3.31,13.18,3.3,13.18,16.52,0,4.67,4.13,13.39,4.13,18.06"/><path class="cls-2" d="M797,2337.47c-15.07,1.69-31.83,1.25-46.92,1.65-9.61.25-19.2.54-28.81.82"/><path class="cls-2" d="M958.41,2342.41c-9.5,2.21-12.46,1.11-18.14-6.59-1.16-1.56-2.25-2.06-4.92-2-25,.78-49.94.62-74.9,1.19-21.09.49-42.27,1.58-63.4,2.4"/><path class="cls-2" d="M1646.67,1411.34c3.59,2.64,2.06,6.88,2.15,9.89.3,10.4-1.32,34.86-1.9,45.29"/><path class="cls-2" d="M605.22,914c-.57,4,2,4.6,4.93,4.09,10.44-1.83,20.81,1.21,31.3.22,7.06-.67,18.8,21.55,19,29.62"/><path class="cls-2" d="M1863.19,1551.24c.28,13.18,2.2,77.38,2.46,90.56"/><path class="cls-2" d="M921.65,1689.58c0,13.18,4.07,47.73,2.17,60.89"/><path class="cls-2" d="M1923.29,1678h-39.54"/><path class="cls-2" d="M459.49,2509.54c1.82,10.39,1.09,22.51,1.69,33,.16,2.74-1,5.64.78,8.24"/><path class="cls-2" d="M1633.49,701.61c5-.09,9.94.5,15.16-1.16,4.94-4.92-1.74-9.36-1.4-14.5.75-11.2,0-22.5.36-33.73.14-4.65-3.7-7.45-5.67-6.25-6,3.69-9.56-1.56-13.18-3.24-4.65-2.17-9.23-4.61-14.22-5.15-5.19-.55-4.78-5.44-4.92-8.41"/><path class="cls-2" d="M803,549.34c-11.72-2.4-31.16-1.32-43-1.71"/><path class="cls-2" d="M510.54,2474.14c.55,20.85,1.23,41.72,1.59,62.57.24,13.52,0,13.65-13.18,14.75-4.9.41-9.87.07-14.81.07"/><path class="cls-2" d="M1953.75,1641.8c.12,12.07,4,34,1.65,46.13"/><path class="cls-2" d="M1001.22,560.83c7.91,0,20.56-.82,28.29-.82a32.36,32.36,0,0,0-3-8.24c-2.78,0-7.45.82-10.48.82"/><path class="cls-2" d="M428.21,2376.15c-5.13,3.2-11,1.63-16.49,2.21-10.89,1.15-21.93.8-33,1.08"/><path class="cls-2" d="M1622,1533.13c1.83,2.29,1.61,18.15,1.54,20.57-.08,2.75,1.32,4.84,3.4,4.78,8.42-.21,13.38,8.05,21.41,8.33,1.56,0,13.18-.92,14,0"/><path class="cls-2" d="M1379.11,2083.08c-.88-1-3.2-4.2-4-3.2-3.84,4.82-9.6,2.14-14.1,4-.26,3.68,0,5.85,5,4.31s8.24.45,7.35,6.42"/><path class="cls-2" d="M1612.08,869.62c-.28,11.52-.57,25.52-.8,37.05"/><path class="cls-2" d="M1388.16,2642.08c-16.45,1.07-32.83,3.19-49.4,2.56-6.84-.26-54,3-60.92,3.2"/><path class="cls-2" d="M938.64,1696.13c-4.2,1.08-3.27,4.49-3.28,7.41v49.4"/><path class="cls-2" d="M1193.87,2279.84a4.22,4.22,0,0,0-7.21.12c-3.88,6.08-9.6,4.44-15,4.85-19.19,1.45-72.26,1.32-91.39,4.07"/><path class="cls-2" d="M842.94,554.54c-10.43,0-23.95-.28-34.37-.3-2.31,0-9.79.9-11.57-1.32"/><path class="cls-2" d="M1562.7,550.13c3.07-4.77,1.85-8.25-3.3-8.15-15.37.32-30.74,1-46.13,1.57"/><path class="cls-2" d="M785.51,917.31c5.09,13.58,13.27,28.26,11.74,44.46H775.64"/><path class="cls-2" d="M1179,723c-12.35.55-24.53-.78-37.67.25-15.13-1.57-27.57-.08-44.67-1.08-22.84-.37-38-4.23-56.81,1.65"/><path class="cls-2" d="M1389.81,1832c-11.43,2.12-70.81,1.53-83.16,1.67-.11,6,2.43,11.34-1.32,17.13-6.87-.07-25.62,2.27-34,.09"/><path class="cls-2" d="M930.75,2293.77c-8.5,0-12.42-.11-20.92.11-17.29.42-39.54,2.64-56.81,3.26"/><path class="cls-2" d="M768.23,895.09c2,6.23.09,12.64.94,18.45,4.94,3.73,11.76-1.81,16.36,3.76"/><path class="cls-2" d="M1767.67,1712.49c-.28-9.11-.24-15.2-9.86-14.8-10.69.45-36.22.92-46.92.92"/><path class="cls-2" d="M979,553.42c12.35-.51,24.74,1,37.05-.82"/><path class="cls-2" d="M839.85,549.34a160,160,0,0,0-36.27,0"/><path class="cls-2" d="M1409.57,2676.67c-13.93,2.15-28,1.52-42,1.69-3.3,0-13.18.51-16.44.79"/><path class="cls-2" d="M928.8,1170.06c3.28,5.42,2.4,11.86,2.06,17.27-.76,12.11.69,24.2-.42,36.25"/><path class="cls-2" d="M715.54,948.6c-18.39-2.49-36.77,1.54-55-.66-1.63,8.69-1.63,8.82,6.46,8.86,16.46.09,33,0,50.34,0-1.07-7.18.72-31.15,3.18-39"/><path class="cls-2" d="M823.35,1083.23l93.07,2.86"/><path class="cls-2" d="M1373.33,2152.23c1.48,25,2.73,82,2.46,107"/><path class="cls-2" d="M1225.15,2233.35c.83,14.38,9.89,62.13-31.29,46.49"/><path class="cls-2" d="M746,2298.78a32,32,0,0,0-5.67,5c-1.42,9.33-7.91,6.47-14.08,6.84-13.47.79-26.91.2-40.36.55"/><path class="cls-2" d="M1312.41,576.48c1.88,4.94,5.71,8.92,11.55,8.4,7.62-.69,15.36-.17,23-.17"/><path class="cls-2" d="M1788.27,1692.09c6.59,2.39,2.44,8.36,3.72,12.47.67,2.2.11,5.93-.57,9.75-5.27,0-27.28-1.65-32.79-1.65"/><path class="cls-2" d="M480.29,2474.14c-1.61,4.59-.24,15.1-.14,19.77.38,17.85,1,39.38,1.58,57.22"/><path class="cls-2" d="M1327.24,1463.15c15.65,0,33-.82,48.57-.82"/><path class="cls-2" d="M1054.21,790.54c1.11-3.52,2.73-5.61,4.81-.76.8,1.85,1,5,0,6.42-6.66,8.61.8,17.64-1.05,26.56-.88,4.24.63,9.31-1.24,13.92s-.14,9.94.58,13.87c2.45,13.18,0,26.47,2.11,39.73,1.42,9.13.41,19.12.71,28.72"/><path class="cls-2" d="M382.94,2622.63c-.13-8.24.51-22.51-1.11-31.53H429"/><path class="cls-2" d="M1295.12,842.39c-10.28-3.24-20.86-1.32-31.29-1.53-20.31-.42-40.64-.12-60.92-.12v68.33c0,2.64.65,6.59,4.1,8.24"/><path class="cls-2" d="M1661.48,2018.87c.91,11.51-1.32,29.77.79,41.25"/><path class="cls-2" d="M939.77,902.07c1.46,9.65-8.21,16.44-13.52,22.6-9.92,11.53-23.38,11.56-37,10.74"/><path class="cls-2" d="M721.3,2339.95c-11.52.9-39.54,4.24-51,.82"/><path class="cls-2" d="M590.73,708.82c7,2.64,15.43,4.85,15,10.16-.63,8.36.51,17-.43,25.49-.36,3.23,1.54,8.63.72,17.41"/><path class="cls-2" d="M1673,2167.9c2.12,11.48,4,41.91,2.46,53.49"/><path class="cls-2" d="M1378.25,565c-.36,6.29-4.61,11.27-5.77,17.28-.55,2.85-2.81,2.53-4.93,2.49H1356"/><path class="cls-2" d="M1314.06,914.85c-1.16-5.4-5.76-14.34-9.86-13.8-13.47,1.81-26.91-.94-40.38.47-8.92.94-9.09.33-8.95,9.23,0,1.82.36,5.11-.91,6.59"/><path class="cls-2" d="M1170,2652.78c4,6.91,2.19,15.46,6.59,22.24,2.15,3.32,4.27,6.68,5,10.69"/><path class="cls-2" d="M1083.55,2656.08c.09,5.85-.66,11.86-4.31,16.3-4.18,5-2.28,12.09-7,16.87-.94,1,1.32,5.11,4.69,5.52"/><path class="cls-2" d="M1525.65,935.43c-11.26.55-30.74,1.92-42,2.46"/><path class="cls-2" d="M931.23,2208.42c11.41,1.44,6.41,13.93,6.92,20,.45,5.18-1.16,10.83-1.16,16.05"/><path class="cls-2" d="M458.67,2475.78l.82,33.76"/><path class="cls-2" d="M1693.16,2675.84h-33.32"/><path class="cls-2" d="M1809.67,1568.53c.3,16.19-.21,57.86,1.32,74"/><path class="cls-2" d="M823.35,1103.38h94.33"/><path class="cls-2" d="M917.68,1111.6H823.35"/><path class="cls-2" d="M940.29,1059.74a36.23,36.23,0,0,0-22.22-.18v86.62c0,8.54-1.62,19.65,1.63,28"/><path class="cls-2" d="M1654.08,1568.53c1.58,11.49,2.19,48.57,2.5,60.1.11,4.11-.83,8.33.79,12.35"/><path class="cls-2" d="M1612.08,579.77c-12-1.41-24.15-.63-36.22-.82"/><path class="cls-2" d="M919.71,1475.5c2.44,10.89-.79,22.05,1.65,33"/><path class="cls-2" d="M965,1636.86v51.54c-3.14,2-5.77.8-8.24,1.16"/><path class="cls-2" d="M1935.64,1612.16c1.83,12.86,1.81,41.45,2.46,54.33"/><path class="cls-2" d="M622.55,2620.68c-.59,10.33.76,21.18-.16,28.8-.61,5.07,4.17,5.55,8.36,9.07"/><path class="cls-2" d="M867,1044.09c-10.7,0-32.7.32-43.4.32"/><path class="cls-2" d="M566.11,2472.22c-9.05,1.66-21.19.7-35.81,1.09"/><path class="cls-2" d="M426.62,2410.75c1.67,3,.4,7.71.82,11.22-15.18.42-30.12,2.33-44.46,1.13"/><path class="cls-2" d="M1639.22,2323.43c.82,14.27,2.46,36.77,3.3,51"/><path class="cls-2" d="M1386.91,1819.59c3.3,11,9,31.78,11.86,42.88,1.53,6,5.4,6.45,10,5.63,3.11-.55,8-3.19,11-4.28"/><path class="cls-2" d="M710.42,562.52c-9.38,4.44-21.52.75-31.12,1.65-5.27.49-16.45,1.11-21.41,4.11"/><path class="cls-2" d="M1649.06,2617.35c-6.88,5.93-12.79,16.46-23.79,16.55"/><path class="cls-2" d="M1655,1139.68c1.16,10.43,6.12,55.52,3,65.9"/><path class="cls-2" d="M1347,816c-10.45.11-23.42-.47-33.76,1.78"/><path class="cls-2" d="M1256.44,842.39v31.29"/><path class="cls-2" d="M1308.3,841.58c1.82,10.39.33,20.86.82,31.29"/><path class="cls-2" d="M1626.91,1473c-4.49,1.46-5.93,3.43-5.27,9.09,1.32,11.66.38,23.57.38,35.36v15.65"/><path class="cls-2" d="M1379.11,1395.64c-26.36.3-52.72-.62-79.08.82"/><path class="cls-2" d="M1074.35,1636.86c9.46.82,14.7-1.07,21.55-1.61,1.57-.12,2.74.13,3.43,2.39,2.33,7.72,6.13,4.55,9.75.86"/><path class="cls-2" d="M681,2710.42c1.42-6.79,6.59-7.91,12.35-8.24,8.78-.45,17.61,1,26.36-.82"/><path class="cls-2" d="M1300.06,1455.75c10.16-.2,20.34.71,30.46-.82"/><path class="cls-2" d="M1071.14,2689c-13.44-1.32-34.27,3.85-47.77,1.77-1.79-.28-10.41,9.23-12.34,9.77"/><path class="cls-2" d="M1286.9,2094.6a6.79,6.79,0,0,1-.07,2.52c-.4,15.05-1.17,22.41-.75,33.7"/><path class="cls-2" d="M1668.08,1738.12c-11.06,3.1-33.45-8.78-43-12.56"/><path class="cls-2" d="M1300.89,842.39c.49,10.15-1,20.35.82,30.46"/><path class="cls-2" d="M427.38,2462.62l-46.92.82"/><path class="cls-2" d="M957.58,616c-1.82,9.23-.34,18.66-.82,28"/><path class="cls-2" d="M754.23,917.31c-9.89,0-23.87.55-33.76.55"/><path class="cls-2" d="M1305.84,1773.53c-.28.28,0,15.42,0,15.63,1,4.9-2.07,10.68,1,14.66,3.77,4.86,9.69-.4,14.62.92a23,23,0,0,0,5.75.08"/><path class="cls-2" d="M429,2559.76l-47.75.82"/><path class="cls-2" d="M1204.57,875.33c12.32-1.71,33.76-.61,46.13-.84,8.24-.16,16.46-.74,24.7-.76,23.33-.08,51.6-.72,74.92.71"/><path class="cls-2" d="M1238.33,826.76l-33.76.82"/><path class="cls-2" d="M1645,2524.35c1.58,10.66.45,21.41.79,32.11.4,12.35,2.52,48.87,2.79,61.22"/><path class="cls-2" d="M1562.7,550.13c-14,.28-38.49,1.4-52.48,1.61"/><path class="cls-2" d="M1637.62,648.1l-.82,28.81"/><path class="cls-2" d="M1681.24,2543.54c0,8.5-.4,46.92-.25,55.42"/><path class="cls-2" d="M1644.19,2448.64c-1.23,13.72-.18,64.49,1.53,78.21"/><path class="cls-2" d="M775.64,961.77h-28"/><path class="cls-2" d="M1212.39,545.38c-9.33,0-25.66,3-35,3"/><path class="cls-2" d="M950.17,629.17c-8.95-3.68-18.11-.57-28.3-2,.78,5.27.46,13.43,1.32,17.83"/><path class="cls-2" d="M946.88,1568.53c7.14,3.11,16.9,13.18,17.81,18.16,1.49,8-.59,18.93,1.12,27.11"/><path class="cls-2" d="M408.46,2473.32h-28"/><path class="cls-2" d="M891,895.09c-8.49,1.23-21.09,3.2-29.77,3.26-5.76,0-3.7,4.3-3.3,7.45"/><path class="cls-2" d="M1282,2026.28c2.85,4.65,6.67,6.59,12.36,5.88,6-.79,12.06-.67,18.1-.94"/><path class="cls-2" d="M440.56,2564.63c-1.91,8.45-.18,22.79-.82,31.29"/><path class="cls-2" d="M1180.09,558.37A100.08,100.08,0,0,0,1193,589.66"/><path class="cls-2" d="M1193,726.31c-5.1,3.41-128.91-.47-133.48,1.12-3.48,2.64,1.57,9.36-5.65,8.77"/><path class="cls-2" d="M1769.12,1525.62c1.66,6.27.8,12.47,1.12,17.39.25,3.88-1.82,8.24,3.81,11.16"/><path class="cls-2" d="M1248.2,842.39v31.83"/><path class="cls-2" d="M1327.24,1463.15c-8.94,2.5-18.19-.11-27.16,1.65"/><path class="cls-2" d="M1338.71,2644.65c3,8.78,13.44,37.23,16.46,46"/><path class="cls-2" d="M1251.49,2650.31c.24,7-4.71,12.31-6.1,18.86-.42,2-4,13.65-5.14,15.71"/><path class="cls-2" d="M915.62,853.1H889.25"/><path class="cls-2" d="M1303.36,1678c0,6.87.54,13.77-.18,20.56-.5,4.69.95,5.89,5.13,5.81,6.31-.12,12.63,0,18.94,0"/><path class="cls-2" d="M916.42,853.52c5.15,7.66,17.37,14,18.94,24.29"/><path class="cls-2" d="M969.93,2089.66c-8.45-3.65-32.31-8.91-41-11.55"/><path class="cls-2" d="M762.47,792.18v67.51"/><path class="cls-2" d="M1733.11,1712.49c-14.5,1.41-29.09.66-43.63.94"/><path class="cls-2" d="M960.88,1327.3c-10.37,2.73-22.7,10.11-33.76,9.83"/><path class="cls-2" d="M1881.3,1643c2.32,4.4-1.32,11.08,2.46,15.24,9.29,1.49,18.7-1.32,28,.78,3.66.83,5.94-1.78,8.22-4.07"/><path class="cls-2" d="M1635.14,1905.25c-3.49.82-3.84,3-3.66,5.79.51,8.44,1.46,17-.45,25.5"/><path class="cls-2" d="M961.75,1266.36c-.13,2,.8,7.55,3.28,7.32,8-.74,15.92-1.57,23.88.09"/><path class="cls-2" d="M1506.71,1268.86c-8.82.54-20,5.89-28,9.05"/><path class="cls-2" d="M720.48,963.42a88.31,88.31,0,0,0,27.16-1.65"/><path class="cls-2" d="M886.78,900c-8.5,2.2-17.83,6-26.36,8.24"/><path class="cls-2" d="M1664.78,1642.62c10.1,5.59,7,15.29,7.41,23.87"/><path class="cls-2" d="M1478.42,1922.4c-4.38,5.27-13,11.23-7.91,19.92-4.18,4.59-9.48,4.1-16.48,4.1"/><path class="cls-2" d="M935.39,877.8a43.5,43.5,0,0,1,4.42,24.28c-9.23,2-18.77-4.92-27.47-4.52"/><path class="cls-2" d="M920.53,1516.67c-1.07.62,0,50.22,0,52.72"/><path class="cls-2" d="M1266.31,581.42c-.54,4,2.46,30.79-9.67,26.36-5.77-1.12-49.55,2.25-55.36,2"/><path class="cls-2" d="M612.62,2714.53c-8.24-1.32-24.7-.13-33,1.24"/><path class="cls-2" d="M921.36,1225.22c-1.56,11.49-.57,23.05-.88,34.57"/><path class="cls-2" d="M1333.82,1777.64c-8.24,0-18.11.82-26.36.82"/><path class="cls-2" d="M967.47,1836.1c-2.19,8-9.79,5.19-14.89,7.24-2.21.88-6.75,1.05-9,2.64"/><path class="cls-2" d="M1765.22,1486.21c-8.24,0-19.77,2.46-28,2.46"/><path class="cls-2" d="M441.3,2640c-.13,4.38-5.11,10.9,3.27,13.18,2.86.78,1.65,7.71.11,11.15"/><path class="cls-2" d="M1272.31,841.14l-1.05,31.73"/><path class="cls-2" d="M1460.6,1292.72c0-2.74-5-13.55-4-15.61,1.71-3.66.09-6.67-4.2-6.59-11,.18-22,.51-33,.79"/><path class="cls-2" d="M1286,570.65c-2.83,2.75-16,2.15-19.7-.76l-.55-11.52"/><path class="cls-2" d="M933.4,2028.56c-3.27,11.34,2.5,37.47,1.11,48.77"/><path class="cls-2" d="M1309.12,2321c-2.64-1-4.38-1.9-6,2.36-2.31,5.88-18.65,9.23-25.24.11"/><path class="cls-2" d="M1641.93,985.86l-1.11,57.86"/><path class="cls-2" d="M1645.72,2531.52l29,9.31"/><path class="cls-2" d="M1692.75,2640.45c.61,7.39-1.5,28,.41,35.4"/><path class="cls-2" d="M1478.72,1277.92c-3.78,0-5.21,3.74-5.5,5.8-1.13,7.91-7,8-12.61,9"/><path class="cls-2" d="M923.83,1750.47c.62,11.52-1.13,23.09.82,34.57"/><path class="cls-2" d="M1628.56,1136.3c7,2.64,15.13,7.76,22.84,6.59.78,11.56-3.18,44.14-1.32,54.8"/><path class="cls-2" d="M408.81,2473.32c7-.37,14.75-2.78,22.17,1.07,5.27,2.74,13.42-.12,20.28-.21,26.36-.34,52.72-.58,79.08-.86"/><path class="cls-2" d="M892.55,902.84a50.2,50.2,0,0,0-23.07,18.6"/><path class="cls-2" d="M1652.83,1307.55c0,7.68,2.9,34.27,2.9,42"/><path class="cls-2" d="M1671.37,1668.15l-4.77,3.57c.47,5.75,2.64,18.37,3.12,24.42"/><path class="cls-2" d="M1096.71,1612.16c-7.68,0-30.18-.82-37.87-.82"/><path class="cls-2" d="M1680.08,2169.52c-4.36-3.1-12.43-.75-17-1.09-7-.53-14.5-1.32-21.37-5.5"/><path class="cls-2" d="M1382.39,1722.48c2.64,3-1,5.44-.91,8.24H1305"/><path class="cls-2" d="M1058.85,1611.34c-4.06-1.21-8.51.76-9.48,3.44-1.32,3.51-.53,4.18-.33,13.92"/><path class="cls-2" d="M701.54,2666c-10,1.86-22.78.08-30.32,2.46"/><path class="cls-2" d="M1077,2694.78c1.7,4.27,7.06,5.56,10.68,4.84,5.27-1,10.45-.49,15.66-.72"/><path class="cls-2" d="M715.54,583.07c2.07,10.28,3.37,12.35,14,12.35v23.87"/><path class="cls-2" d="M1313.24,2085.07c-6.29-5.81-11.59-3.41-18.94-3.64"/><path class="cls-2" d="M1654.89,1739v53.1"/><path class="cls-2" d="M1225.36,1960c.28,12.07-.22,51.8,1.45,63.85"/><path class="cls-2" d="M960.88,1082c1.4,14.27.57,30.18-.82,44.46"/><path class="cls-2" d="M1672.17,1899.49c-13.09-2.85-24.71,3.77-37.05,5.76"/><path class="cls-2" d="M845.61,2305.36c-2.39,7.08-9.81,21.6-9.05,29.64"/><path class="cls-2" d="M585.46,2545.76c4.34-6.41,10.79-2.86,15.55-2,4.31.79,9,1.16,13.26,2.81"/><path class="cls-2" d="M444.68,2664.32H368.93"/><path class="cls-2" d="M569.81,649.75c0,8.24.95,46.13,1,54.42"/><path class="cls-2" d="M1661.48,1358.4c-7.63-.41-22.41.91-29.64,3.49"/><path class="cls-2" d="M933.71,878.63c-7.29,2.39-13.1,10-22.33,6-1.23-.53-3.74,2-5.67,3.07"/><path class="cls-2" d="M736.12,658.8c-8.29,4.55-6,17.6-6.59,24.7"/><path class="cls-2" d="M605.22,914c.47-4.65-.46-19.18.58-23.92.5-2.28.37-4.06-6.35-6.59"/><path class="cls-2" d="M410.1,2610.76l-25.52.82"/><path class="cls-2" d="M1445.79,927.2a17.13,17.13,0,0,0-11.53,9.87c-1,2.17-3.59,3.36-6.59,4.13"/><path class="cls-2" d="M1611.29,935.43h-30.49"/><path class="cls-2" d="M1383.22,1802.34c-7.14.41-49-.34-56,2.46"/><path class="cls-2" d="M1287.71,557.54c5.27-2.43,11.2-.18,17-3l7.66,22"/><path class="cls-2" d="M744.35,592.94c-5.55,1.05-9.31,5.15-8.26,10.7,1.17,6.26-1,12.63.71,19,.59,2.2-1.15,4-4,3.26"/><path class="cls-2" d="M1655.21,1412.51c3.08,6.95-3.55,46.95-1.13,53.95"/><path class="cls-2" d="M1787.45,1506.24c.53,7.13-4.35,24.73-2.46,31.8"/><path class="cls-2" d="M1398,1351.19c-2.2-1.52-3.26-1.07-4.2,1.62-1.9,5.27-4.3,10.47-6.5,15.67"/><path class="cls-2" d="M1073.66,1636.86h-21.41"/><path class="cls-2" d="M1645,1170.89c.28,5.48.75,11,.78,16.46.07,11.52-1.67,12.35-12.31,14.81"/><path class="cls-2" d="M1117.28,945.31c5.48,0,13.65,9.92,15.65,9.83,5.48-.28,11.06,1,16.46-.78"/><path class="cls-2" d="M918.88,756c-1.65,4.63-2.37,10-3.37,15.65.09,5.19,2,8,7.49,7.41l15.65-1.65"/><path class="cls-2" d="M578.09,835.8c1.82,5.69-.46,28.83-.08,34.59.14,2.11-.32,4.3,2.52,4.94"/><path class="cls-2" d="M427.38,2431.33l-20.59.82"/><path class="cls-2" d="M1768.51,1506c.46,6.85-1,13.79.82,20.59"/><path class="cls-2" d="M1463.15,927.62c1.85,1.15,8,5.39,9.23,8.54,3,7.67,5,7.67,11.27,1.75"/><path class="cls-2" d="M430.68,2620.68a9.83,9.83,0,0,1-.41,9.05h-45.7"/><path class="cls-2" d="M918.07,2662.67l-6.59,19.77"/><path class="cls-2" d="M1640.91,861.33c-10.24-.66-22.67,3.3-28.81,7.75"/><path class="cls-2" d="M1264.66,842.39v30.46"/><path class="cls-2" d="M572.29,2461.83c5.51,3.11,12.27,4.35,15,11.47.9,2.37,5.27,1.66,7.25-.76"/><path class="cls-2" d="M1659.84,1465.62c-3.51,1.09-6.8,2.36-10.76,1-3.39-1.2-19.47,4.52-22.18,6.45"/><path class="cls-2" d="M1513.3,538.61c-4,6-6.06,36-10,42"/><path class="cls-2" d="M1676.3,2058.38c-4.53,1.71-8.91,3.82-14,1.74-2.19-.88-19,4-20.55,5.67"/><path class="cls-2" d="M971.68,573.26c-2.49,5.71-5.27,8.46-5.27,12.27,0,4.4-4.6,5.67-8,7.41"/><path class="cls-2" d="M1379.92,1738.94h-74.48"/><path class="cls-2" d="M1197.16,788.06c-2.33,6.5-.51,35.47-2.46,42"/><path class="cls-2" d="M867,1054H823.35"/><path class="cls-2" d="M1026.12,546.7c2.1,6.43,8.07,33.7,8.84,40.41"/><path class="cls-2" d="M976.52,2657.73c-4.77-6.41-15.12-6-22.84-4.84"/><path class="cls-2" d="M1238.33,1953.82c-6.59,0-23.05.82-29.64.82"/><path class="cls-2" d="M799.51,955.19c7.91-.32,39.94,1.91,47.85.14"/><path class="cls-2" d="M960,1068.79c-4.72-5.64-13.89-5.93-19.77-9.05"/><path class="cls-2" d="M896.24,905C894.92,912.61,880.92,922.1,877,928"/><path class="cls-2" d="M1549.39,2270.35c-6.35.08-37.33.66-43.5,2.89"/><path class="cls-2" d="M1927.4,1643.45c1,2.74,2.07,20.31.63,23.12-8.45,2.28-33.57-.49-44.68.75"/><path class="cls-2" d="M429,2580.34c-11.78.72-35.35-.71-47.12,1.09"/><path class="cls-2" d="M1646.67,1411.34c-6-2.46-15.37-6.59-21.41-9.05"/><path class="cls-2" d="M1313.24,839.93c-1.09,0-2.2-.08-3.3,0-15.91,1.44-15.88,1.44-14.87,18.1a11.72,11.72,0,0,1-.78,3.3"/><path class="cls-2" d="M923,1174.19c1.32,6,4.11,43.36,2.74,49.4"/><path class="cls-2" d="M1612.08,579.77c0,9.23-3.84,43.36-2.46,49.4"/><path class="cls-2" d="M1415.93,2641.29c-4,5.42-.66,29.17-4.72,34.55"/><path class="cls-2" d="M1434.27,541.07c.63,3.88-1.42,5.85-4.94,5.69-13.18-.61-26.36,1.09-39.54-.75"/><path class="cls-2" d="M939.79,892.57c-5.88-2.64-27.28-.78-33.74.36"/><path class="cls-2" d="M1660.67,1373.41c0,6,.82,23.61.82,29.64"/><path class="cls-2" d="M1661.48,2018.87c-3-9.94-13.59-20.59-21.41-21.41"/><path class="cls-2" d="M708.13,552.61c1.65,7.41,3.65,14.76,4.77,22.25a29.55,29.55,0,0,0,2.64,8.21"/><path class="cls-2" d="M1665.58,2222.22c-5.64,3.08-21.31,10-27.16,12.35"/><path class="cls-2" d="M958.41,592.94c-1.32,6-.88,14.2-.82,23.05"/><path class="cls-2" d="M1672.17,1844.43c-8.55-3.33-17-.12-23.91-4.22"/><path class="cls-2" d="M1775.55,1646.2c24.07-3.23,81.56-3.44,105.75-3.16"/><path class="cls-2" d="M858,905.79c1.32,3.61,7.05,7.55-2.4,9.44-4.74.95-3.55,9.53-5,13.62"/><path class="cls-2" d="M1947.16,1656.62c-.41,5.76.9,21.56-.82,27.26"/><path class="cls-2" d="M1636.78,676.91c0,5.76.82,18.11.82,23.87"/><path class="cls-2" d="M738.59,548.48c-5.75.5-13.18-.17-18.94,1.65"/><path class="cls-2" d="M811.86,1010.25v22.33"/><path class="cls-2" d="M1321.47,2022.92c-5.27-.9-7.39,2.75-9.05,8.24"/><path class="cls-2" d="M1658.19,1320.73c1.61,6.8,2.81,30.82,3.3,37.67"/><path class="cls-2" d="M1164.23,1978.52c-5.48-1.32-22.5-.49-28,.82"/><path class="cls-2" d="M1758.64,1712.61c-5.48,0-20-.12-25.52-.12"/><path class="cls-2" d="M1638.43,2234.57c0,5.48,1.65,28.27,1.65,33.76"/><path class="cls-2" d="M1266.31,557.54c-5.48-.55-11-3.57-16.46-4.11"/><path class="cls-2" d="M1671.37,1806.45c.86,6.59,2.64,33.1,1.32,38.59"/><path class="cls-2" d="M1661.48,2441.21c-5.27,2.46-10.19,6.1-16.46,5.76"/><path class="cls-2" d="M895.71,2294.51c4,4.81,10.33,33.5,12.47,38.86"/><path class="cls-2" d="M1055.33,2289.16c1.75,5.42.59,18.93,1,24.41"/><path class="cls-2" d="M1623.62,1296c6.38,0,12,4.4,17.29,5.76"/><path class="cls-2" d="M1138.71,2697.24c-5.27,0-30.18,1.65-35.4,1.65"/><path class="cls-2" d="M932.53,870.55c-7.16,3.19-15.14,10.21-20.22,12.92"/><path class="cls-2" d="M429,2649.5H383.12"/><path class="cls-2" d="M916.42,1093.49c-14,1.48-79.65-.63-93.58-1.32"/><path class="cls-2" d="M1808.86,1552.07c.28,4.11.88,12.35.82,16.46"/><path class="cls-2" d="M942.45,1505.13c-7.21,0-9.09,3.62-12,3-7.75-1.62-9.6,2.21-9.94,8.5"/><path class="cls-2" d="M869.48,886c5.63,0,17.29,3.59,22.22,6"/><path class="cls-2" d="M429,2610.76H410.1"/><path class="cls-2" d="M1641.73,2065.79c-7.06,2.75-4.59,18.76-4.94,23.87"/><path class="cls-2" d="M1279.49,842.39V872"/><path class="cls-2" d="M490.78,2474.14v42"/><path class="cls-2" d="M490.78,2516.13v14.81"/><path class="cls-2" d="M430.15,2570.91a17.69,17.69,0,0,0,1.32-2.93c.87-3.37-3.33-6.16-.87-9.91,2.64-4,8.46-4.44,10.74-4.31,12.47.71,19.94-2.23,42.85-2.23"/><path class="cls-2" d="M956.76,1689.55c-4.94,1.65-13.18,4.94-18.11,6.59"/><path class="cls-2" d="M924.43,861.81c-4,4.15-13.1,17.13-13.79,22.58"/><path class="cls-2" d="M1118.12,945.31c-4.94-1.23-11.52-.41-16.46.82"/><path class="cls-2" d="M1644.19,1142.89c1.15,6-1.42,22,.82,28"/><path class="cls-2" d="M768.23,895.09c-5.6,0-9.44,2.14-8.4,7.82a14.14,14.14,0,0,1-5.6,14.41"/><path class="cls-2" d="M380.49,2433.79c4.93-.53,21.5.25,26.36-1.65"/><path class="cls-2" d="M922.21,1562.77a106.87,106.87,0,0,1,24.7,5.76"/><path class="cls-2" d="M1525.13,909.09c1.82,3.73.46,22.51.51,26.36"/><path class="cls-2" d="M897.53,905.69v29.46"/><path class="cls-2" d="M1212,1630.28c-3,.3-7.68,1.42-12,1.86,2.89,2.89,2.4,11.15,2.16,16.25"/><path class="cls-2" d="M927.94,1902c8.21,3.4,17.32-.12,25.52,3.3"/><path class="cls-2" d="M440.56,2601.75c0,4.94,1.62,13.59,0,18.11"/><path class="cls-2" d="M1938.1,1666.5v7.41c.08,3.49-13.44,4.47-16.48,4.16"/><path class="cls-2" d="M1383.22,1450c.47,4.65-.18,32.48,1.65,37.05"/><path class="cls-2" d="M1710.89,1698.61c-8.58.58-16.94,3.45-25.7-1.32-4.14-2.25-10.24-.88-15.46-1.16"/><path class="cls-2" d="M684.26,2315.25c-.38,2.85-12.9,22.78-14,25.52"/><path class="cls-2" d="M841.91,548.92c1.92,8.24,14.13,35.8,16.05,44"/><path class="cls-2" d="M1277.2,1132.19c-1.32,4.22,1.32,16.19,12.44,14"/><path class="cls-2" d="M1315.71,1511.72h-13.18"/><path class="cls-2" d="M1669.72,1696.13c-1.32,4.39-1.32,28.54,0,33"/><path class="cls-2" d="M677.67,2677.48c1.65,4.39,4.57,11.34,6.22,15.72"/><path class="cls-2" d="M1155.5,1640.19c-3.3-3.82-15.16-9.08-19.27-11.56"/><path class="cls-3" d="M1375.81,2272.43a22.84,22.84,0,0,1,0-13.18"/><path class="cls-2" d="M430.49,2600.1H383.12"/><path class="cls-2" d="M1053.9,736.2c-1.7-3.65-12.86-7.41-14-12.35"/><path class="cls-2" d="M901.33,904c1.46,4.15,14.5,23.72,15.92,27.85"/><path class="cls-2" d="M580.51,875.33c8.49,4.11,15,5.46,18.94,8.24"/><path class="cls-2" d="M1283.19,1061.73c9.46-4.73,5.85,14.81,12.76,15"/><path class="cls-2" d="M1370.87,2010.63c1.38,3.14,1.52,5.9-1.61,8.29-1.52,1.15-1.32,1.41.78,4.89"/><path class="cls-2" d="M968.34,1813c0,4.39-.82,18.66-.82,23.05"/><path class="cls-2" d="M430.68,2628.87c.28,7.41.55,27.2.82,34.61"/><path class="cls-2" d="M1136.23,1979.34H1123"/><path class="cls-2" d="M1277.84,2647.85c-4.39,0-66.42,2.46-70.81,2.46"/><path class="cls-2" d="M566.11,2547.26c-4.39,0-24.83,2.64-29.22,2.64"/><path class="cls-2" d="M507.76,2550.33a118.54,118.54,0,0,0,29.13-.45"/><path class="cls-2" d="M927.12,1507.81c-1.44,3.74,1.81,52.72-4.94,55"/><path class="cls-2" d="M606.86,2467.55c-3.57,3-8.44,2.78-12.35,4.94"/><path class="cls-2" d="M1294.3,2081.44c-5.17,3.19-3.64,6.88-7.41,13.18"/><path class="cls-2" d="M968.34,2332.54l-8.24,9.05"/><path class="cls-2" d="M1379.25,1507.74c-2-22.21-1-80-2.23-103"/><path class="cls-2" d="M1690.3,1701.07c-1.7,4-.43,8.24-.82,12.35"/><path class="cls-2" d="M804.45,1012c-1.62,4-.49,8.24-.82,12.35"/><path class="cls-2" d="M1226.79,2023.8c2.83,6.8,7.12,1,10.7,1.24"/><path class="cls-2" d="M1682.07,1491.14c1.05,4.11-2.4,8.24,0,12.35"/><path class="cls-2" d="M968.34,1770.23c-1.32-9.23-9.82-13.37-23.05-14.81"/><path class="cls-2" d="M976.17,561.44c-1.65,3.84-3.76,10.28-5.4,14.13"/><path class="cls-2" d="M564.88,704.87c9-.32,18,0,26.36,4.11"/><path class="cls-2" d="M1589.85,2634.81c-2.77,3.36-7.5,26.36-10.69,29.51"/><path class="cls-2" d="M1007.11,2657c1.16,4,8.2,33.86,11.73,36.91"/><path class="cls-2" d="M1681,2599c-3.57,2.28-28.81,5.83-31.86,9.32"/><path class="cls-2" d="M441.38,2628.1c2.14,3.84-.58,7.68,0,11.52"/><path class="cls-2" d="M972.4,2019.69c-4.94,1.65-37.87,8.24-42.81,9.89"/><path class="cls-2" d="M1196.36,775.71c1.65,3.4-4.89,9.58.82,12.35"/><path class="cls-2" d="M1384.84,1436c-1.73,3.18-1.45,10.7-1.65,14"/><path class="cls-2" d="M820.91,1010.75c.12,7.21-.61,24.79,2.36,31.75.46,1.08-1.32,11.86.11,11.48"/><path class="cls-2" d="M1664.78,1641c-6.31,1.07-13,1-18.11,5.76"/><path class="cls-2" d="M1384.84,1374.92c-2.17.09-2.12,7-2.49,10-.75,6.08-4.16,13.73-5.27,19.77"/><path class="cls-2" d="M1867.25,1658.26c0,2.74,1.85,21.09,1.59,23.87"/><path class="cls-2" d="M1669.72,1716.72c5.48.62,14.27-.75,19.77-2.64"/><path class="cls-2" d="M1196.36,775.71c-.41-2.2-2.78-7.91,5.27-5.47.67.67.94,3.78,3.81,4.65"/><path class="cls-2" d="M971.58,1985.11c2.86,3.81-2.21,30.79.82,34.57"/><path class="cls-2" d="M490.78,2529.3c.28,3.57.55,17,.82,20.59"/><path class="cls-2" d="M932.06,2245.27a30,30,0,0,1,16.46,1.65"/><path class="cls-2" d="M1380.75,1710.13c-3.57.55-15.37,1.92-18.94,2.46"/><path class="cls-2" d="M427.38,2423.92c2.29,12.57-.16,25.27.84,37.87.13,1.66.53,3.3.8,4.94"/><path class="cls-2" d="M1136.23,1628.63c-6.79-6-25.52-2.89-27.16,9.89"/><path class="cls-2" d="M683.43,2692.31l4.94,9.89"/><path class="cls-2" d="M742.7,725.5c6.71,3.53,20.28,6.37,23.05,9.05"/><path class="cls-2" d="M737.68,2309.34l9.65,29"/><path class="cls-2" d="M803.58,1024.34c-1.65,12.28,5.46,7.79,8.24,8.24"/><path class="cls-2" d="M1686.17,2380c-3.3-.54-39.3-7.79-42.8-7.13"/><path class="cls-2" d="M604.4,638.23c-3.3,1.09-22.22,9.61-25.52,10.7"/><path class="cls-2" d="M577.23,818.52c.28,4.11.43,13.18.86,17.28"/><path class="cls-2" d="M1298.86,1415.4c-.28,11.26-.2,29.91-.43,41.16-.11,4.73-.53,12.5.87,17.06"/><path class="cls-2" d="M1655.73,1349.54c2.28,7.83,5.17,15.53,4.94,23.87"/><path class="cls-2" d="M429.86,2570.46c2.64,3.57.25,8.71.67,12.36.59,5.14.14,10.41.14,15.62"/><path class="cls-2" d="M1398,1351.19c2.07,2.78,7.91,1.16,9.86,4.09.13,4.22.42,8.45-3.27,11.56"/><path class="cls-2" d="M1871.42,1549.59c-12.11-1.54-24.15.65-36.22.91-14.5.33-29.18-1.32-43.64,1.56"/><path class="cls-2" d="M1646.05,807.82c-1.73,3.18,1.07,50.23.69,53.51"/><path class="cls-2" d="M377.85,2421.4c0,12.07.91,33.25.91,45.33"/><path class="cls-2" d="M1562.7,550.13c1.09,3,12.07,25.79,13.18,28.81"/><path class="cls-2" d="M912.31,897.55c-4.11-.82-5.64,2.24-7.41,4.94,3,4.36,25.62,8.45,28.81,12.35"/><path class="cls-2" d="M919.71,1391.57c6.95.08,25.52,2.7,32.11,5.76"/><path class="cls-2" d="M1294.3,861.33a15.82,15.82,0,0,0-.82,10.7"/><path class="cls-2" d="M1445.79,927.2c5.68-1.32,12.86-2.17,18.11.82"/><path class="cls-2" d="M871.14,923.9c2.14,3.32,13.18,9.23,17.29,11.24"/><path class="cls-2" d="M1417,2685.72c-1.05-2.64-2.78-10.54-7.41-9.05"/><path class="cls-2" d="M867.85,1104.24c.59,5.27,0,6.59.62,17.32"/><path class="cls-2" d="M1964.45,1648.39c1.16,11,2,41.72.82,52.72"/><path class="cls-2" d="M923,1223.57c4.48,1.88,21.22,2.93,25.53,5.76"/><path class="cls-2" d="M1882.94,1659.91c-2.29,5.48,1,11,0,16.46"/><path class="cls-2" d="M1478.42,1922.4c1.48,3.11,14.29,12.43,14.41,16.74"/><path class="cls-2" d="M970.75,1939.88c.28,3.57.61,16.94,1,20.48"/><path class="cls-2" d="M1287.71,557.54h-21.41"/><path class="cls-2" d="M1681,2599c.29,4.43,7.17,3.74,9.31,5.27"/><path class="cls-2" d="M820.1,1032.57c-2.53,1.59-5.36.08-8.24,0"/><path class="cls-2" d="M892.55,891c-3.14,5.79-1.32,11.63,5,14.71"/><path class="cls-2" d="M1049,1627.8c.5,2.75-.61,6.8,2.4,9.05"/><path class="cls-2" d="M1349.48,835.8c-2.74-1.32-29.38-3-32.12-1.65"/><path class="cls-2" d="M1657.37,1307.55c-2.46-.82-14-4.94-16.46-5.76"/><path class="cls-2" d="M838.21,2299.6c.55,4.39,7.54.5,7.41,5.76"/><path class="cls-2" d="M925.47,1753.77c6.59.11,13.31-.59,19.77,1.65"/><path class="cls-2" d="M377.17,2372.05c-.78,6.43.29,23.82.74,30.14"/><path class="cls-2" d="M918.25,1333.91c.28,6.59,1.25,135,1.53,141.58"/><path class="cls-2" d="M1286.72,557.54c-.95,1.91,1.32,11.3-.71,13.11"/><path class="cls-2" d="M1630.21,802.06c3.81,2.06,5.27,2,10.44,4.11"/><path class="cls-2" d="M760,547.6c-10.83-1.71-17,1-21.41.88"/><path class="cls-2" d="M1283.19,1061.73c-8.24-.51-9.46,10.15-8.65,14.5"/><path class="cls-2" d="M1384,1798.64c0,3,0,11.86,1.24,14.62"/><path class="cls-2" d="M684.26,2315.25c-.18-3.45.62-13.27-4-15.65"/><path class="cls-2" d="M1384,1776l-.82,7.41"/><path class="cls-2" d="M1370.05,2023.8c1.12,2.64,5,6.38,8.24,4.11"/><path class="cls-2" d="M1389,1775.12c2.24,1.78-.59,4.81,1.65,6.59"/><path class="cls-2" d="M1123.06,1979.34c-2.2-1.32-7.68-1.32-9.89,0"/><path class="cls-2" d="M1307.47,1804.8c-1.32,2.2-.42,16.5.94,18.7"/><path class="cls-2" d="M1240,818.52c-2.2-1.32-34.86-1.32-37.05,0"/><path class="cls-2" d="M440.56,2619.86c-1.32,2.2-.53,6,.82,8.24"/><path class="cls-2" d="M860.44,913.12c2.2,1.09,8.5,9.67,10.7,10.77"/><path class="cls-2" d="M960,1068.79c1.32,2.2,3.08,6,.82,13.18"/><path class="cls-2" d="M566.53,874.5h10.7"/><path class="cls-2" d="M1286.9,841.58c1.32,2.2,1.32,29.77,0,32"/><path class="cls-2" d="M1579.16,2664.32c-2.31,4,.82,12.31,3.3,16.57"/><path class="cls-2" d="M439.8,2596c.43,1.9-.95,4.06.82,5.76"/><path class="cls-2" d="M1050.61,1958.77c-1.32,1.92.3,20.31,1.65,22.22"/><path class="cls-2" d="M1791.56,1552.07c-3.3-.36-14.23.42-17.53,2.1"/><path class="cls-2" d="M1383.22,1783.4c.46,2.28-1.59,12.28.82,14.81"/><path class="cls-2" d="M1305,1765.29c1.54,2.64,2.37,5.27.82,8.24"/><path class="cls-2" d="M1653.21,2005.39c4.11-3.85,14.87.08,19,.32"/><path class="cls-2" d="M890.07,898.38l-3.3,1.65"/><path class="cls-2" d="M1305,1756.23c1.32.83.66,2.17.82,3.3"/><path class="cls-2" d="M1388.16,541.76v10.93"/><path class="cls-2" d="M1432.59,546.06c0,1.73,2.36,7.49,2.36,9.23"/><path class="cls-2" d="M1347.2,603.89v31.55"/><path class="cls-2" d="M1347.2,635.45h8.09"/><path class="cls-2" d="M950.17,629.17c0,3,.21,7.51.21,10.54V644"/><path class="cls-2" d="M950.37,644h6.38"/><path class="cls-2" d="M729.53,612.09c0,6.17-1.25,12.93-.3,13.77.63.57,3.24,0,3.6,0"/><path class="cls-2" d="M659.64,954.64c.13,1.42.18,6.95.33,8.37"/><path class="cls-2" d="M717.3,956.84c0,1.15,2.36,5.85,2.36,7"/><path class="cls-2" d="M822.46,1071.77c0,1.73.32,12.59.32,14.35V1099c0,9.32-.14,15.82-.21,20-.12,7.62-.18,18.76,0,33.77"/><path class="cls-2" d="M938.85,2211.71l2.89,1"/><path class="cls-2" d="M428.77,2370.41c0,12.9-1.71,27.77-1.71,40.69"/><path class="cls-2" d="M740.54,2700.75c0,2.87,3.3,6.79,3.3,9.67"/><path class="cls-2" d="M903,2694.34c3.27,3.27,6.59,8.66,9.79,11.93"/><path class="cls-2" d="M1240.24,2684.89c.59,2.15,2.4,7.66,3,9.81"/><path class="cls-2" d="M1507,2636.82c4,7.75,8.29,16.91,11.86,25.64.86,2.07,2.79,6.72,3.6,8.77"/><path class="cls-2" d="M1883,1692.85c0,2.15.82,8.95.82,11.1"/><path class="cls-2" d="M1649.35,1412.51a38.47,38.47,0,0,0,13.58-2.77"/><path class="cls-2" d="M1415.6,2274.08c.49-2,.91-5.15-.82-7.13-1.53-1.75-4-1.77-9.33-1.65-12.65.26-15.7.66-16.46-.82-1.16-2.25-.7-4.63-1.65-9.61-.38-2,3.6-5.9,2.5-6.85"/><path class="cls-2" d="M1237.5,2025v9.46"/><path class="cls-2" d="M1205.45,1848.93c3.15,0,9.23-.11,12.39-.11h4.88"/><path class="cls-2" d="M1222.72,1848.85v4.53"/><path class="cls-2" d="M1380.75,1732.09a56,56,0,0,0,0,8.78c.17,2.17.3,2.14.82,7.13.37,3.57.5,5.44.55,7.41v3.84c0,2.43,2.08,12.64,1.92,16.74"/><path class="cls-2" d="M1303.36,1717.54c1.19,3.35,1.54,13,1.65,14.81.2,3.44-.34,5.27-.55,10.43-.11,2.83,0,5.14,0,6.59"/><path class="cls-2" d="M1303.86,1703.13c-.13.28-1.56,4-.3,6.19.57,1,.16,4.74.63,5"/><path class="cls-2" d="M1272.08,1132.19h4.81"/><path class="cls-2" d="M1289.64,1146.19a32.25,32.25,0,0,0,2.64-5.27c.87-2,.37-2.06,1.24-4a5.34,5.34,0,0,0,.62-2.4c0-.61,2.45-2,2.33-2.33"/><path class="cls-2" d="M1270.95,1076.69h3.73"/><path class="cls-2" d="M1054.21,790.54a159.48,159.48,0,0,0-2.5,16.19c-.41,7.47.17,11.48.55,18.11.95,16.46-1.15,17.71,0,34.57.51,7.53.84,6,1.32,14,.7,10.54.51,19,.28,29.37-.08,3.65-.24,8.83-.55,15.09"/><path class="cls-2" d="M1348.22,825.11c.47,3,.76,7.68,1.25,10.7"/><path class="cls-2" d="M1347.61,778.86a40.52,40.52,0,0,1,1.24,13.72,76.93,76.93,0,0,0-.41,11.73c0,1.32-.26,3.47-.21,4.19"/><path class="cls-2" d="M1347.61,778.86c-1.15-.09-3.59.09-4.73,0"/><path class="cls-2" d="M1342.87,772.42c.07,1.24-.07,5.27,0,6.45"/><path class="cls-2" d="M961.09,732.42c4.74.22,12.71-.37,17.7-.33,2,0,5.64.21,7.62.18"/><path class="cls-2" d="M986.39,728v4.31"/><path class="cls-2" d="M917.24,703.37h6"/><path class="cls-2" d="M762.47,859.69h4.94"/><path class="cls-2" d="M897.53,905.69a32.18,32.18,0,0,0,3.8-1.67,10.15,10.15,0,0,0,4.53-6c.43-1.87.09-3.27-.55-5.9-.75-3.07-1.12-4.6-2.46-5.35-1.82-1-4.27,0-6.31.82-1.32.54-3.28,2.94-4,3.43"/><path class="cls-2" d="M859,883.15c0,1.86-.36,4.84-.51,7-.17,2.45-.88,6.21-1.24,8.24"/></g></svg>