<svg id="Layer_4" data-name="Layer 4" xmlns="http://www.w3.org/2000/svg" viewBox="0 0 2480 3508"><defs><style>.cls-1{fill:#f36e53;}.cls-2{fill:none;stroke:#000;stroke-linecap:round;stroke-linejoin:round;stroke-width:4.13px;}</style></defs><title>2 sal</title><polygon class="cls-1" points="592.24 688.67 679.69 689.84 982.46 687.33 1247.35 685.76 1485.82 684.77 1635.77 682.82 1651.69 683.79 1654.12 686.33 1654.12 697.62 1654.16 756.74 1654.44 828.97 1657.72 926.42 1656.93 1040.33 1657.15 1054.47 1657.25 1058.91 1591.77 1058.91 1558.39 1059.47 1478.67 1058.91 1455.7 1060.96 1357.47 1060.96 1337.32 1061.82 1084.58 1065.36 1054.08 1065.13 1034.9 1065.36 933.51 1063.14 748.88 1062.05 605.75 1062.91 592.24 1062.06 587.65 1061.82 592.24 688.67"/><polyline class="cls-1" points="934.68 1062.31 1034.11 1064.35 1031.47 1077.87 1038.85 1696.14 1039.95 1785.03 1045.41 2124.33 1046.55 2242.82 1046.55 2249.11 934.68 2256.09 934.23 1063.15"/><polygon class="cls-1" points="1562.17 1058.52 1656.01 1057.62 1657.63 1147.33 1659.92 1253.67 1658.77 1330.12 1659.92 1414.66 1659.79 1495.65 1659.92 1598.04 1661.68 1635.15 1663.5 1692.5 1663.5 1703.98 1669.82 2231.38 1668.1 2240.05 1571.61 2241.01 1565.92 1903.55 1562.17 1575.65 1558.42 1448.57 1561.37 1184.53 1560.46 1096.47 1561.37 1067.66 1562.17 1058.52"/><polygon class="cls-1" points="584.5 2261.99 685.54 2259.62 856.85 2257.39 901.44 2257.14 932.07 2257.14 936.43 2255.98 940.98 2254.92 1046.55 2247.76 1078.55 2248.49 1133.25 2246.23 1201.28 2246.23 1288.74 2244.43 1372.23 2243.31 1443.49 2243.31 1537.78 2240.05 1556.14 2240.05 1569.28 2239.61 1571.07 2238.21 1661.95 2239.03 1669.54 2239.26 1670.13 2274.41 1673.62 2422.41 1675.7 2459.58 1676.93 2498.45 1677.1 2555.09 1677.07 2594.92 1676.16 2606.44 1667.17 2607.81 1600.99 2607.65 1525.1 2608.99 1491.66 2613.25 1331.55 2616.03 1088.08 2624.71 804.14 2628.78 623.82 2632.75 584.5 2632.66 582.25 2625.91 582.25 2471.13 580.64 2401.67 582.25 2308.17 581.75 2280.18 582.25 2267.14 584.01 2263.31 584.5 2261.99"/><path class="cls-2" d="M1560.46,1083.79c0,35.23.09,70.45,0,105.68-.17,51.36,1.46,102.75-1.34,154.06-1.27,23.42-.44,46.79-.32,70.13.13,25-1.5,50.18,1.08,75,2.1,20.18,1.19,40.21,1.57,60.29,1,54,.84,108,2.59,162,.77,23.76-2.34,47.61.21,71.07,3.15,29-.47,58,2.46,87,1.15,11.39-.83,23-.76,34.55.21,35.23,3.22,70.41,2.16,105.68-.53,17.77-.32,35.62.38,53.32q1.67,42.49,1.7,85c.05,29.3,0,63.24,0,92.54"/><path class="cls-2" d="M1037.88,1601.33c0,33.58,2,165.93,2.2,199.51q.25,46.92,1.07,93.83c.56,33.25.35,66.56,2.5,99.73,1.39,21.43.43,42.88.88,64.23.53,25.58,1.84,51.31.42,77-.75,13.59,1.55,27.6,1.57,41.45q0,33.58,0,67.16c0,1,.46,2,1,4.19,21.29-1.83,42.38.64,63.84-1.53,13.6-1.37,28-.38,42-.61,49.66-.84,99.35-.83,149-2.28,24.85-.72,49.68-.28,74.51-.75"/><path class="cls-2" d="M1560.46,1083.79c.8-7.56.12-16.58.91-24.08-12.84-1.28-17.93.89-30.06.94-25.18.1-50.43-4.16-75.61.31-4.51.8-9.33.11-14,.11-24.83,0-49.73-1-74.48.3-22.33,1.17-44.66,2.38-67,1.5-32.45-1.28-64.79,2.57-97.18,1.09-32.11-1.46-64.06,2.8-96.09,1.87-22-.64-43.91-.69-65.87-.74-2.49,0-5.3-1.1-8.64,1.75,0,21.55-.93,44,.27,66.32,1.15,21.43.11,42.82.83,64.21.94,28-.59,56,.73,84,1,21.33,1.34,42.79-.54,64.2-.57,6.47,1,13.07,1.13,19.74.6,46.43,2.18,92.84,2.89,139.26.49,32.26.09,64.53.09,96.79"/><path class="cls-2" d="M934.23,1196.39c-2-14.49.05-29,0-43.46-.07-30,0-59.93,0-89.78-115.89-1-230.69-1.89-346.58,0,0-14.94-.14-28.77,0-42.61.14-10.87-.2-79,0-89.88"/><path class="cls-2" d="M1158.81,686.75c-46.07-.33-185,.13-231.06.07-31,0-62,1.89-92.84.56-31.44-1.35-62.63,1.4-94,1.42-34.19,0-68.38.81-102.57.81-14,0-28.07-1.25-42.11-1.83-2.32-.1-5.54-1-5.4,2.92"/><path class="cls-2" d="M979.58,2626.53c-25.19.52-50.49,1.13-75.56.4-29.65-.87-59,1.46-88.55,1.73-44.27.4-88.54,1.83-132.8,2.81q-45.35,1-90.7,2c-3.55.07-7.46.76-9.72-2.94"/><path class="cls-2" d="M1651.15,682.8c-73.42,0-315.27,2-388.69,2h-15.12"/><path class="cls-2" d="M922.36,2257.14c-12.24-2.34-24.47,0-36.71,0q-49.67.31-99.33,1-98.79,1.37-197.59,2.89c-5.48.08-6.88.61-7,7-.26,23,.88,46.06-.95,69.19-1.28,16.17-.77,32.88-.32,49.35.33,12-.14,24.54.41,36.5.6,13.15.44,26.38,1.33,39.54"/><path class="cls-2" d="M1670.59,2344.05c.4,9.14,1.88,24.39,2,32.59.29,22.74.67,45.44,2.25,68.15,3.28,47.36,2.1,94.8,2.24,142.22,0,6.6,0,13.2,0,20.74-17.26,0-33.5.61-49.66-.14-24.58-1.14-49,1.68-73.41,2.47-11.16.36-22.27-1.18-33.51.5-32.56,4.87-65.46,2.42-98.23,3.19-41,1-82.21.95-123.05,4.25-56.12,4.54-112.31,3.89-168.46,5.73-25.21.83-126,2.33-151.17,2.77"/><path class="cls-2" d="M1659.79,1372.19c0,29.63-.14,59.26,0,88.89.15,24.69.69,49.38,1,74.08.18,12.84-.66,25.65-.21,38.53,1,29.94.83,59.91,1.39,89.87.12,6.26,1.35,12.51,2.07,18.77"/><path class="cls-2" d="M1651.15,682.8c2.58,1.29,3.92,1.93,3.64,5.95-1.27,18.71-2.36,37.57-1.23,56.26,2.49,41.16.36,82.36,2.32,123.45,1.3,27.35,2.5,54.7,1.42,82-1.06,27-.24,54-.39,81-.09,16.09.55,32.26.72,48.39"/><path class="cls-2" d="M1668.43,2045.78c-1.08,25.51.95,60.24.05,85.93-1,27.68.73,55.32,2,83,.81,17.12-3.24,34.1-1.2,51.37,3.06,25.91.86,52,1.27,78"/><path class="cls-2" d="M1664.11,1682.32V1860.1"/><path class="cls-2" d="M1657.63,1079.84c1.48,21.73.44,38.84.23,56.3-.26,21.72,1.28,43.45,1.89,65.18.24,8.55-.07,17.12.13,25.68,0,1.67.08,7.63-.09,14.82"/><path class="cls-2" d="M1659.79,1241.82c-.36,32.59-.82,65.19-1,97.78-.05,8.89.66,23.7,1,32.59"/><path class="cls-2" d="M1570.19,2240.76q-29.83-1.37-58.31-.16c-25.58,1-109.42,2.23-135,2.71"/><path class="cls-2" d="M931,1721.82c.85,7.71,1,67.16,1,75.06q.2,36.54,0,73.09c-.16,33.93,1.1,67.83,1.62,101.74.21,13.68-.36,27.66-1.19,41.5-1,16.7,1.48,33.56,1.65,50.35.33,31.93-.81,63.9.38,95.79,1,26-.14,52,.88,78,.25,6.27-3.3,12.51,1,19.76H924.52"/><path class="cls-2" d="M588.73,827l-1.08,104.69"/><path class="cls-2" d="M934.18,1303.79c-.36,18.77-2.12,38.77-2,57.53.12,20.76,1.85,41.39-.71,62.27-2,16.22.34,32.87.59,49.34.65,41.48,1.12,83,.43,124.44-.63,37.9,2,75.73.67,113.59.38,3.89-2.16,7.35-2.16,10.86"/><path class="cls-2" d="M582.25,2453.68v176.79"/><path class="cls-2" d="M1664.11,1859.85c.36,23.37,2.86,157.62,3.28,181a26.26,26.26,0,0,0,1,4.94"/><path class="cls-2" d="M590.89,690.7c0,25-2.16,111.28-2.16,136.3"/><path class="cls-2" d="M934.23,1196.39c-.61,20.08.08,102.35-.57,122.47"/><path class="cls-2" d="M1247.35,684.78c-47.33,2-72.7,1.37-88.54,2"/></svg>