<svg xmlns="http://www.w3.org/2000/svg" viewBox="0 0 1288 1980"><defs><style>.cls-1{fill:#f36e53;}.cls-2{fill:none;stroke:#000;stroke-linecap:round;stroke-linejoin:round;stroke-width:2px;}</style></defs><title>kælder</title><g id="Layer_2" data-name="Layer 2"><polygon class="cls-1" points="407.13 296.47 447.63 297.06 587.83 295.79 710.5 295 820.94 294.5 890.38 293.51 897.75 294 898.88 295.29 898.88 301 898.89 330.93 899.02 367.5 900.54 416.83 900.18 474.5 900.28 481.66 900.32 483.91 870 483.91 854.54 484.19 817.63 483.91 806.99 484.94 761.5 484.94 752.17 485.38 635.12 487.17 621 487.05 612.12 487.17 565.17 486.05 479.67 485.49 413.38 485.93 407.13 485.5 405 485.38 407.13 296.47"/><polyline class="cls-1" points="565.71 485.63 611.75 486.66 610.53 493.5 613.95 806.5 614.46 851.5 616.98 1023.27 617.51 1083.25 617.51 1086.44 565.71 1089.97 565.5 486.05"/><polygon class="cls-1" points="856.29 483.71 899.75 483.25 900.5 528.67 901.56 582.5 901.03 621.2 901.56 664 901.5 705 901.56 756.83 902.37 775.62 903.22 804.66 903.22 810.47 906.15 1077.46 905.35 1081.85 860.67 1082.33 858.03 911.5 856.29 745.5 854.56 681.17 855.92 547.5 855.5 502.92 855.92 488.33 856.29 483.71"/><polygon class="cls-1" points="403.54 1092.96 450.33 1091.76 529.66 1090.63 550.31 1090.5 564.5 1090.5 566.52 1089.91 568.63 1089.38 617.51 1085.75 632.33 1086.12 657.66 1084.98 689.17 1084.98 729.67 1084.07 768.33 1083.5 801.33 1083.5 845 1081.85 853.5 1081.85 859.58 1081.63 860.42 1080.92 902.5 1081.33 906.01 1081.45 906.29 1099.24 907.9 1174.17 908.87 1192.99 909.44 1212.66 909.52 1241.33 909.5 1261.5 909.08 1267.33 904.92 1268.03 874.27 1267.94 839.13 1268.63 823.64 1270.78 749.5 1272.18 636.75 1276.58 505.25 1278.64 421.75 1280.65 403.54 1280.6 402.5 1277.19 402.5 1198.83 401.75 1163.67 402.5 1116.33 402.27 1102.17 402.5 1095.56 403.31 1093.63 403.54 1092.96"/></g><g id="Layer_1" data-name="Layer 1"><path class="cls-2" d="M855.5,496.5c0,17.83,0,35.67,0,53.5-.08,26,.67,52-.62,78-.59,11.85-.2,23.69-.15,35.51.06,12.66-.7,25.4.5,38,1,10.21.55,20.36.73,30.52.48,27.33.39,54.68,1.2,82,.36,12-1.09,24.1.1,36,1.46,14.7-.22,29.38,1.14,44,.53,5.77-.39,11.66-.35,17.49.1,17.84,1.49,35.65,1,53.5-.25,9-.15,18,.18,27q.77,21.51.79,43c0,14.83,0,32,0,46.85"/><path class="cls-2" d="M613.5,758.5c0,17,.94,84,1,101q.12,23.75.5,47.5c.26,16.83.16,33.7,1.16,50.49.64,10.85.2,21.71.41,32.52.25,12.95.85,26,.19,39-.35,6.88.72,14,.72,21q0,17,0,34a13.11,13.11,0,0,0,.46,2.12c9.86-.93,19.63.32,29.57-.78,6.3-.7,13-.19,19.46-.31,23-.42,46-.42,69-1.15,11.51-.37,23-.14,34.5-.38"/><path class="cls-2" d="M855.5,496.5c.37-3.83.05-8.4.42-12.19-5.95-.65-8.3.45-13.92.48-11.66.05-23.35-2.11-35,.16-2.09.41-4.32.06-6.49.06-11.5,0-23-.51-34.49.15-10.34.59-20.68,1.2-31,.76-15-.65-30,1.3-45,.55s-29.67,1.42-44.5.95c-10.17-.32-20.33-.35-30.5-.37-1.16,0-2.46-.56-4,.88,0,10.91-.43,22.27.12,33.58.53,10.85.05,21.68.38,32.51.44,14.16-.27,28.33.34,42.51a263.93,263.93,0,0,1-.25,32.5c-.26,3.27.48,6.62.52,10,.28,23.5,1,47,1.34,70.5.23,16.33,0,32.67,0,49"/><path class="cls-2" d="M565.5,553.5c-.91-7.33,0-14.67,0-22q0-22.75,0-45.45c-53.67-.52-106.83-1-160.5,0,0-7.56-.06-14.57,0-21.57.07-5.5-.09-40,0-45.5"/><path class="cls-2" d="M669.5,295.5c-21.33-.17-85.67.07-107,0-14.33,0-28.7,1-43,.28-14.56-.69-29,.71-43.51.72-15.83,0-31.67.41-47.5.41-6.5,0-13-.63-19.5-.93-1.07,0-2.57-.52-2.5,1.48"/><path class="cls-2" d="M586.5,1277.5c-11.67.26-23.38.57-35,.2-13.73-.44-27.34.74-41,.87-20.5.2-41,.93-61.5,1.42q-21,.51-42,1c-1.65,0-3.46.38-4.5-1.49"/><path class="cls-2" d="M897.5,293.5c-34,0-146,1-180,1h-7"/><path class="cls-2" d="M560,1090.5c-5.67-1.18-11.33,0-17,0q-23,.16-46,.49c-30.5.46-61,1-91.5,1.46-2.54,0-3.19.31-3.22,3.52-.12,11.66.41,23.32-.44,35-.59,8.18-.36,16.64-.15,25,.15,6.09-.06,12.42.19,18.48.28,6.66.2,13.35.62,20"/><path class="cls-2" d="M906.5,1134.5c.19,4.63.87,12.35.92,16.5.14,11.51.31,23,1,34.5,1.52,24,1,48,1,72,0,3.34,0,6.68,0,10.5-8,0-15.51.31-23-.07-11.38-.58-22.67.85-34,1.25-5.17.18-10.32-.6-15.52.25-15.08,2.47-30.32,1.23-45.49,1.61-19,.48-38.07.48-57,2.15-26,2.3-52,2-78,2.9-11.68.42-58.34,1.18-70,1.4"/><path class="cls-2" d="M901.5,642.5c0,15-.06,30,0,45,.07,12.5.32,25,.48,37.5.08,6.5-.31,13-.1,19.5.48,15.16.38,30.33.64,45.5.05,3.17.63,6.33,1,9.5"/><path class="cls-2" d="M897.5,293.5c1.19.65,1.81,1,1.69,3a243.2,243.2,0,0,0-.57,28.48c1.16,20.84.17,41.69,1.07,62.5.6,13.85,1.16,27.69.66,41.5s-.11,27.34-.18,41c0,8.15.26,16.33.33,24.5"/><path class="cls-2" d="M905.5,983.5c-.5,12.92.44,30.5,0,43.5-.45,14,.34,28,.94,42,.37,8.67-1.5,17.26-.56,26,1.42,13.12.4,26.32.59,39.49"/><path class="cls-2" d="M903.5,799.5v90"/><path class="cls-2" d="M900.5,494.5c.69,11,.2,19.66.11,28.5-.12,11,.59,22,.87,33,.11,4.33,0,8.67.06,13,0,.85,0,3.86,0,7.5"/><path class="cls-2" d="M901.5,576.5c-.17,16.5-.38,33-.47,49.5,0,4.5.3,12,.47,16.5"/><path class="cls-2" d="M860,1082.21c-9.21-.46-18.2-.47-27-.08-11.84.53-50.67,1.13-62.51,1.37"/><path class="cls-2" d="M564,819.5c.39,3.9.46,34,.48,38q.09,18.5,0,37c-.08,17.18.51,34.34.75,51.5.1,6.92-.16,14-.55,21-.47,8.46.69,17,.77,25.49.15,16.17-.37,32.35.18,48.5.45,13.18-.07,26.34.41,39.5.11,3.18-1.53,6.33.48,10H561"/><path class="cls-2" d="M405.5,366.5l-.5,53"/><path class="cls-2" d="M565.48,607.88c-.17,9.5-1,19.63-.93,29.12.06,10.51.85,21-.33,31.52-.92,8.21.16,16.64.28,25,.3,21,.52,42,.2,63-.29,19.19.92,38.34.31,57.5.17,2-1,3.72-1,5.5"/><path class="cls-2" d="M402.5,1190v89.5"/><path class="cls-2" d="M903.5,889.38c.17,11.83,1.32,79.79,1.52,91.62a14.38,14.38,0,0,0,.48,2.5"/><path class="cls-2" d="M406.5,297.5c0,12.67-1,56.33-1,69"/><path class="cls-2" d="M565.5,553.5c-.28,10.16,0,51.81-.26,62"/><path class="cls-2" d="M710.5,294.5c-21.92,1-33.67.69-41,1"/></g></svg>