<?xml version="1.0" encoding="utf-8"?>
<!-- Generator: Adobe Illustrator 21.0.0, SVG Export Plug-In . SVG Version: 6.00 Build 0)  -->
<svg version="1.1" xmlns="http://www.w3.org/2000/svg" xmlns:xlink="http://www.w3.org/1999/xlink" x="0px" y="0px"
	 viewBox="0 0 1288 1980" style="enable-background:new 0 0 1288 1980;" xml:space="preserve">
<style type="text/css">
	.st0{fill:#5BC2A7;}
	.st1{fill:none;stroke:#000000;stroke-width:2;stroke-linecap:round;stroke-linejoin:round;}
</style>
<g id="Layer_2">
	<polyline class="st0" points="369,1418 399,1418 405,1441 366,1440 	"/>
	<polyline class="st0" points="365,1440 418,1440 418,1495.5 418,1513 365,1513 	"/>
	<polyline class="st0" points="340.2,1450 347.8,1450 349,1465 339,1465 	"/>
	<polyline class="st0" points="337.2,1464 347.3,1464 354,1468.5 338.4,1470 335,1467 	"/>
	<polyline class="st0" points="354.9,1466.1 363.1,1466.1 364.3,1463 369,1468.2 369,1490 343.2,1490 335,1476.5 338.5,1469.2 	"/>
	<polyline class="st0" points="360.8,1462 365,1463.7 363.6,1467 358,1467 	"/>
	<polyline class="st0" points="322,1473.1 322,1490 344,1490 336.3,1476.8 322,1472 	"/>
	<polyline class="st0" points="322,1490 362,1490 361.5,1514 354.4,1513 343.3,1513 334.2,1508.8 322,1504.6 	"/>
	<polyline class="st0" points="339,1517 384,1517 385,1524 385,1542 385,1553 340,1553 	"/>
	<polyline class="st0" points="384,1524.7 388.4,1524.2 388.4,1516 395,1516 395,1524.2 395,1552 389,1553 389.5,1548.9 
		389.5,1543.8 384,1541.7 	"/>
	<polyline class="st0" points="340,1558 359,1557 397,1556 423,1571 421,1631 416,1635 413,1642 409,1652 378,1652 372,1633 
		340,1632 339,1615 335,1604 319,1600 319,1568 	"/>
	<polyline class="st0" points="395,1512 418,1511 421,1550 411.2,1556.9 404,1562 395,1559 394,1554 	"/>
	<polyline class="st0" points="413.5,1562.1 414.5,1562.1 423,1571 405.3,1561.1 	"/>
	<path class="st0" d="M404,1562c0.3-1.1,6.1-5.9,7-6c1.3-0.2,1.9,4.1,2,6"/>
	<path class="st0" d="M413,1562c0.5-0.2,3.2-1.5,4-2c1.3-0.7,4.5-2.1,5-2c1.1,0.1,1.8,11.9,2,13c0.2,0.9-1.9-3.7-2-2
		c0,1.3,0,0.3,0,1"/>
	<polyline class="st0" points="414,1562 414,1559 421,1557 422,1559 	"/>
	<polyline class="st0" points="425,1440 454,1440 470,1439 502,1440 535,1440 534,1485 535,1551.6 536,1630 478,1632 424,1631 
		427,1523.4 	"/>
	<polyline class="st0" points="414,1499 428,1496 429,1543 418,1544 	"/>
	<polyline class="st0" points="425,1443 425.2,1447.4 427,1496 425,1497 	"/>
	<polyline class="st0" points="425,1467.5 425,1495 423,1467.5 425,1441 	"/>
	<polyline class="st0" points="448,1417 472,1417 478,1437 481,1441 466,1441 454,1441 455,1439 	"/>
	<polyline class="st0" points="477,1631 522,1629 510,1659 487,1660 	"/>
	<polyline class="st0" points="531,1462 566,1461 568,1485 533,1486 	"/>
	<polyline class="st0" points="531,1519 566,1519 566,1548 534,1548 	"/>
	<polyline class="st0" points="564,1436 636,1434 712.6,1433.1 795,1431 863.5,1429.1 865,1482.7 868.5,1601.1 868,1622 830,1625 
		757,1626 688,1626 599.4,1630.4 565.8,1629.2 	"/>
	<polygon class="st0" points="581,1630 597,1628 609,1629 625,1628 624,1637 620,1648 616,1657 614,1658 611,1658 596,1658 
		588,1661 	"/>
	<polyline class="st0" points="686,1624 732,1624 730,1635 729,1646 726,1658 716,1659 695,1658 	"/>
	<path class="st0" d="M795,1625l15-1h11h12h4c0,0-4,10-4,11s-2,6-2,6l-20,2l-7.4,0.7l-4-1"/>
	<polyline class="st0" points="865,1483 866,1491 866,1503 866,1512 865.6,1509.1 	"/>
	<polygon class="st0" points="900,1603 937,1602 937,1621 939,1633 939,1640 923,1640 911,1640 907,1634 904,1623 900,1621 	"/>
	<polyline class="st0" points="946,1551 974,1550 976,1570 983,1575 967,1577 959,1579 945,1579 	"/>
	<polyline class="st0" points="900,1580 909,1579 945,1579 946,1551 926,1552 904,1553 	"/>
	<polyline class="st0" points="976,1569 996,1573 997,1602 990,1604 978,1607 976,1604 974,1598 	"/>
	<polyline class="st0" points="901,1578 936,1578 977,1575 977,1602 937,1602 928,1604 902,1604 894,1604 874,1604 874,1589 
		874,1579 	"/>
	<polyline class="st0" points="874,1565 901,1565 902,1573 902,1579 874,1579 	"/>
	<path class="st0" d="M904,1493l13-2l8,1h18c0,0,10-1,11-1s19,0,19,0v10l1,7l2,32l1.8,7.7L953,1548h-25h-25"/>
	<polyline class="st0" points="972,1503 995,1506 995,1539 992,1541 978,1547 976,1537 979,1535 975,1539 975.4,1529.8 	"/>
	<polyline class="st0" points="873,1545 904,1545 903,1550 903,1555 902,1562 901,1565 899,1565 893,1566 887,1566 880,1565 
		880,1561 874,1560 	"/>
	<polygon class="st0" points="873,1492 900,1492 900,1534 903,1534 904,1536 904,1541 903,1545 873,1545 	"/>
	<path class="st0" d="M868.3,1430.4l9.7-0.4l23.7-1.9l9.3-0.1h14h7h7h9l11-1l11-1l2,4l1,7l7,2c0,0,11,0,12,1s7,0,7,0l-1,12v15l2,4
		l-3,1l-21,4l-2,11l-9-1h-19l-21,1c0,0-7,0-8,0s-8,0-9,0s-8,0-8,0l-1,3l-1,4l-9-1l-11,1l-2-5l-3-3l-4-44L868.3,1430.4z"/>
	<polyline class="st0" points="862,1445 875,1439 875,1460 876,1472 870,1472 863,1475 862,1471 	"/>
	<polyline class="st0" points="864,1474 866,1473 866,1482 866,1491 865,1487 	"/>
	<polyline class="st0" points="866,1493 866,1493 868,1501 866,1510 865,1507 	"/>
	<polygon class="st0" points="874,1398 900,1397 900,1431 874,1430 875,1414 	"/>
	<polyline class="st0" points="819,1346 837,1345 844,1339 854,1332 890,1333 951,1334 972,1335 973,1344 975,1347 980,1348 
		992,1350 992,1366 993,1380 982,1384 973,1385 973,1391 972,1395 954,1396 911,1397 900,1397 881,1398 863,1398 847,1398 829,1398 
		820,1399 820,1365 	"/>
	<path class="st0" d="M831,1213l84-2l17-1l22-1l16,1l1,7l3,2l16,3v12v9l1,12l-12,3l-8,6c0,0,0.3,5.2,0,9c-0.2,2.2-0.4,3.6,0,4
		c0.5,0.5-0.3,2.5,1,4c1.5,1.8,5,3,5,3s10,1,10,2s10,2,10,2l-1,20v9l-8,2l-15,2l-1,14l-26,3l-40-1l-35-2l-17-1l-6-9l-21-20l-5-3
		l-12,11l-4,4l-5,4l-3,10h-9h-16l-2-10h-9l-6-6l-10-3l-8,5l-6-1l0-4l2-22v-10l-1-24v-10v-13v-7v-11L831,1213z"/>
	<polyline class="st0" points="695,1215 714,1215 730,1215 729,1223 730,1237 729,1254 730,1263 730,1272 730,1280 729,1282 
		727,1284 726,1286 728,1287 729,1290 734,1291 736,1294 735,1297 734,1304 734,1309 732,1313 732,1322 731,1328 731,1333 733,1340 
		733,1344 726,1345 717,1345 713,1347 715,1352 717,1355 714,1358 709,1359 697,1360 698,1356 697,1306 696,1292 696.9,1288.8 
		698,1285 694,1277 693,1252 	"/>
	<polyline class="st0" points="564,1371 596,1370 597,1406 596,1426 596,1436 580.5,1435.6 569,1438 565,1436 564.5,1424.3 	"/>
	<polyline class="st0" points="544,1372 564,1371 569,1368 584,1368 605,1368 650,1367 655,1364 667,1363 680,1362 691,1360 
		695,1361 699,1360 703,1360 708,1359 709,1372 710,1385 710,1392 710,1399 710,1402 691,1403 676,1403 661,1403 617,1404 595,1405 
		564,1404 559,1404 545,1402 545,1400 	"/>
	<polygon class="st0" points="563,1220 566,1218 608,1217 618,1218 649,1215 661,1194 661,1182 672,1184 677,1183 698,1172 
		697,1181 690,1190 689,1201 688.5,1211.8 692,1218 691,1246 689,1282 691,1286 698,1287 703,1300 703,1307 698,1313 706,1337 
		708,1356 697,1366 673,1374 644,1378 616,1376 596,1376 582,1369 591.2,1368 564,1371 564,1366 564.5,1311.5 564,1281 	"/>
	<path class="st0" d="M543,1249l4-2l6-1l2,1l1-1h2l3-2h1l2-7c0,0,7.2,16.6,7,17s-6,32-6,32l-1,1l-3-1l-4-1l-5-2l-4-2h-1l0,0h-3"/>
	<path class="st0" d="M580,1002l25-2h7h13h13h19l13-1c0,0,9-1,11-1s12,0,12,0h15h29h18l14-1l13,1c0,0,18-3,20-2s20-2,22-1s33,1,33,1
		l-1,36l1,36l1,10l-1,23v11l1,19l-1,21l2,11v18h-14h-7l-19,1c0,0-17,1-19,0s-38,1-38,1s-20-1-21,0s-30-1-33,0s-35,1-35,1l-33.2,1.3
		L562,1187v-9v-25l-5-16l5-20l-1-49v-13l-1-38l15-8L580,1002z"/>
	<polyline class="st0" points="543,1127 562,1118 558,1136 565,1160 562,1165 551,1161 547,1160 543,1158 	"/>
	<path class="st0" d="M542,1033l6-3l5-1l3-1l2-1l3-3v13c0,0,0,22.2,0,22.6s0,8.4,0,8.4v2l-6.3-1.2l-3-2l-5.7-1.8l-2-1h-2"/>
	<polyline class="st0" points="682,970 708,968 707,980 709,999 696.3,998 688,998 682,998 681,979 680.6,974.6 680,970 	"/>
	<path class="st0" d="M560,896h20c0,0,21-1,22,0c0.7,0.7,16,0,16,0l20-1l15-1l20,1l21-1l16,1h21l12-1l10-2l2,3l-2,10l1,18l1,13v7v14
		v8v3l-30,1h-5l-7,1h-6l-13,1l-10.1-1l-10.9,0.1c0,0-11-0.1-12-0.1s-31,0-31,0h-21l-7,2l-3-1l-24,1l-1-3l-14-17v-5l-8-3l-8-1h-2
		l-1-6v-8l1-5l-1-2l1-7l2-8l15-6"/>
	<path class="st0" d="M864,1118h56h25h10l10-1l2,2l3,6l4,2l9,2l11,4c1,2,0,29,0,29l-4,2l-18,5l-2,10h-17l-16-1l-20,2h-29h-17h-7
		l-1-7l-1-11h-5v-10l0.5-10.8l-2.5-8.2h8l1.5-8.2L864,1118z"/>
	<path class="st0" d="M862,996l18-1l17-1l17-1h14h14h6h5h9h4c0,0-1,8,0,8s2,20,2,20l-1,8v9h-2l-27.1-7.7l-0.9-0.3l-18.4-1.5
		L897,1029l-26,4l-2-2h-6l-1-8V996z"/>
	<polyline class="st0" points="889,1029 891,1032 894,1033 894,1041 894,1077 895,1079 896,1086 896,1114 884,1114 864,1114 
		863,1075 863,1070 863,1065 863,1060 863,1054 862,1049 862,1044 862,1038 863,1033 869,1033 870,1032 	"/>
	<path class="st0" d="M937,1030l12,1l6,3h3h2l8,2v3l-1,10l2,8l10,4c0,0,5,0,6,1s3,1,3,1v14v17l-7,2l-5,1h-4l-2,2l-3,2l1,11v2h-12
		l-14.3-0.4l-8-1l0.3-3.6v-11v-23l1-24v-8v-5L937,1030z"/>
	<polyline class="st0" points="899,1033 905,1033 913,1033 917,1033 923,1033 926,1033 930,1033 936,1036 937,1037 935,1049.1 
		936,1058 935,1082 933,1111 928,1113 917,1114 904,1114 900,1114 900,1112 899,1108 895,1107 895,1095 898,1076 	"/>
	<polyline class="st0" points="894,1077 899,1077 897,1089 893,1088 	"/>
	<polyline class="st0" points="916,963 941,963 941,993 923.8,993 914,993 	"/>
	<path class="st0" d="M835,780l53-2l22-2l10,2l17-1l15,1l11-1l1,9l25,6l-1.7,14.8L988,820l-12,3l-12,4v19l2,8c0,0,1,1,2,1s12,3,12,3
		l4,1v6c0,0,0,24,0,25s-3,1-3,1l-10,2l-5,1v10v58l-33,2v-1h-14.8l-4.2,1l-20-1c0,0-2.3,0.3-3,1c-2,2-57,1-57,1l-1-1v-1l-2-72
		l0.4-7.8L831,843v-30l-1-26v-6"/>
	<polyline class="st0" points="769.7,779.5 789,780 799,778 800,780 803,781 809,781 820,781 821,798 821,816 828,816 831,812 
		831,832.8 831,848 823,846 821,856 821,868 821.5,881.2 822,893 823,904 822,931 822,949 823,965 819,966 814,968 800,968 773,967 
		773,963 773,940.5 769,849 764,849 754,850 752,837 752,820 769,818 769.7,779.5 	"/>
	<path class="st0" d="M560,787l42-2v-31l21,1l-1,30c0,0,94-2,96-2s36-2,36-2l0,0c0,0-1,0,0,0s-1,4,0,4s0-4,0-4v33v12l2,24l-2,34
		c0,0-1,2-2,3s-10,2-10,2h-23h-17h-29l-9,1h-16h-11h-25l-32,1c0,0-20,0-20,1s1-11,1-11l-1-22l-1-4l-18.4-5.2L541,835l-1-18l12-4l8-3
		V787z"/>
	<polygon class="st0" points="602,754 560,754 559,734 543,730 540,728 540,697 552,693 558,689 561,669 570,669 583,669 599,668 
		603,665 602,663 588,663 562,662 560,658 559,644 540,637 541,619 539,607 559,600 560,595 558,591 545,592 545,576 546,574 
		559,575 560,548 581,550 581,573 607,574 636,574 647,574 669,573 669,586 670,595 675,596 674,616 669.7,614.3 668.7,641.3 
		668,662 621,662 623,666 645,667 653,667 668,668 669,689 669,705 669,724 669,753 633,753 621,756 617.5,754.7 605.9,754.2 
		604,755 	"/>
	<polygon class="st0" points="674,572 717,572 717,584 725,586 726,585 729,580 727,571 732,572 745,572 753,571 766,571 781,571 
		792,570 788,585 793,586 799,584 801,579 799,571 846,570 881,569 906,570 909,570 909,534 934,533 937,566 960,568 961,572 
		982,577 982,607 963,612 962,624 963,634 983,641 983,670 963,677 962,699 989,705 988,735 965,739 963,748 938,749 937,777 
		920,778 909,778 911,754 911,748 895,748 873,748 844,749 818,750 799,751 799,765 798,780 789,780 770,780 769,750 764,750 
		728,752 686,752 674,752 673,734 673,724 674,675 673,663 674,640 675,610 675,596 	"/>
	<polyline class="st0" points="674,597 678,597 675,616 671,612 	"/>
	<path class="st0" d="M669,634"/>
	<path class="st0" d="M900,321h16h21l7,16l3,2l11,1l3,10l9,3l10,3c0,0-1,16-1,17s1,7,0,7v8l-18,4l-2,7c0,0-1,3,0,4s1,14,1,14l3,3
		l4,1l4,1l10,2v32l-12,3l-8,3l-2,4c0,0-24-1-24,0s-4,0-4,0l-1,3v3l-14-1l-7,2l1-6h-26l-2-6l1-22l1-8v-24v-22l-1-21l-1-13l2-10h12
		l5-18"/>
	<path class="st0" d="M613,456h16l11,1l1,16l1,2h7h8h6h3h16l14-1l18,1l7-1c0.9,0.1,13,0,16,1c0.9,0.3,7-1,7-1l2-14l15-1h8
		c0,0,0,0,1,0s-1,16-1,16h12h12c0,0,11,0,12,0s27-2,27-2v-15l24,3c0,0-2,12-1,12s17-1,17-1s10,1,11,0s17,0,17,0l7.2-2.3l24,1
		L942,471l18-1c0,0-1,12-1,13s14,4,14,4l11,2l2,26v6l-21,1l-5,11l-30,1h-21h-13l-16-1l-18,1l-39,1h-52l-49,2h-34h-60h-18h-8l3-20
		l-2-3l-3,3l1,11c0,0-3,8-4,9s-5,9-5,9s-13,8-14,6s-17-3-17-3l-4-5l3-13v-13l1-11l3-3l6-2h16l1-3l-2-42l7-1H613z"/>
	<path class="st0" d="M829,324h5l20-1l4,7l3,10l16,2l1,32v41h4l2-33l3,52l-8,5l-1,28c0.8,0.8-6.1,0.8-9,0c-1.4-0.4-13,3-13,3h-31
		l-21-1l1-33l-1-46l-2.2-24.3v-15.5l0.2-6.2l9-2l5-11l1-6h2l4-1H829z"/>
	<path class="st0" d="M716,362"/>
	<path class="st0" d="M706,344h18l5-11l3-7l21-1l18-1c0,0,7,22,4,19c-1.6-1.6,0,0,0,0l21,2c0,0,1,10,1,11s-1,43,0,46s0,67,0,67
		l-16,1l-10-1h-4l-24,1l-18-2l-9-10l-9-6v-3v-52l-1-23.2v-17L706,344z"/>
	<path class="st0" d="M562,328h14h11h9l8,18h9l13-1h20h1h6l0,0v-3l2-6l5-11l11,1h7c0,0,15,0,16,0s1,5,1,5l4,16v21v33l1.4,11.2
		L701,429v21l-10,1h-17l-18-1l-33,1h-11l1,5l-9.5,1H593l-1-5l-4-29l-1-5h-10h-17v-36l-0.4-22l1.4-21l0.6-6.7L562,328z"/>
	<path class="st0" d="M560,421l11,1l4-1l4,1h4l3,12l1,17h-6v5l4,1l0.5,5.6c0,0,0.6,23.4,1.1,24.9C587,489,588,499,588,499l-11-3
		l-7.1,0.8L560,499v-7l-12,1l-14,1l-1,8l-1,1l-5,4l-6,4l-1,4l4,12l-1,9l-1,7l8,6l-13,4l-7-3l-12-7l-2-2l-8,1l-2,6l-3,7l-2,3l-2,2h-8
		h-24l-1.8-7.4L441,544l-1-10v-13c0,0-1-16,0-17s1-10,1-10l-5-2l-2-3l4-16l3-24l21,1l1-20l24-2l-1,20l43,2l2,5l18,2h11l3-2l-2-5
		l-1-4V421z"/>
	<polygon class="st0" points="453,329 487,328 491,345 499,346 514,347 527,346 527,426 528,429 524,431 470,431 458,432 447,431 
		448,427 448,406 448,383 448,361 448.5,343.2 	"/>
	<polygon class="st0" points="357,452 384,451 383,419 399,418 413,449 436,451 436,466 438,472 435,499 435,539 434,542 410,542 
		407,560 398,560 378,560 368,560 361,543 352,541 341,542 340,534 339,519 329,517 315,514 312,512 313.6,506.8 314,499 314,486 
		313,482 338,476 339.5,470.3 339,464 339,458 340,453 342,452 346.6,451.4 353.6,451.6 	"/>
	<polyline class="st0" points="369,331 378,330 395,330 404,330 409,351 417,350 418,356 417,362 422,363 424,361 423,357 423,350 
		433,349 441,349 442,350 442,357 443,378 443,379 432,379 427,379 424,380 421,382 421,384 421,386 421,387 425,386 428,385 
		428.9,388.9 429,391 430,392 433,392 435,391 436,387 436,386 440,385 443,386 443,391 442,401 442,407 442,425 442,430 441,431 
		439,431 438,430 438,428 438,424 438,418 432,418 431.6,427.1 432,430 430,431 426,431 424,431 422,429 422.4,424.1 423,420 
		423,415 422,410 421,409 418,408 418,410 418,416 418,432 414,434 411,435 411,443 403,442 383,432 365,432 362,427 362,404 
		357,404 356,407 356,424 356,432 348,432 340,432 340,425 339.5,415.2 337.2,413 324,411 321.8,409.8 322.5,389.2 322.5,377.5 
		323,375 329.5,373.5 336,371 339,370 339,363 339,353 340,351 341,350 344.9,349.9 353,350 356,350 356.8,352.7 356.8,367.4 
		356.8,377.8 360.6,377.9 362,378 362,372 361,360 362,353 363,346 368,332 	"/>
</g>
<g id="Layer_1">
	<title>Artboard 1</title>
	<path class="st1" d="M920,1105.4c2.8,0.3,10.2-0.2,13-0.4"/>
	<path class="st1" d="M581.5,1630c-6.1,1.7-8.3-1.8-14.3-0.9c-1.7-3-1.8-6-1.8-9.1c0-22.5,0-45,0-67.5c0-1.8,0.3-3.7-0.5-5.5
		c-8.5,0-17,0.2-25.5-0.1c-3.7-0.1-4.6,1.4-4.5,4.6c0.2,8.8,0.5,17.7,0.5,26.5c0.1,15.5-0.1,35.9-0.1,51.4"/>
	<path class="st1" d="M1060.5,945.4c17.8,0,37.7,0.2,55.5,0c3.9,0,5.1,1.3,5.1,5.1c-0.1,14.8,0,29.7-0.1,44.5c0,2.8,1.5,5.8-0.8,8.5
		h-57.7c0.2,10-1.1,20,0,30.4c-3.6,0.2-7.9,0.2-11,1.6"/>
	<path class="st1" d="M1165.4,923.5c1.3,3.5-1.2,8.1-0.8,11.5c0.1,0.6,1.1,1,0.9,2c-1.5,9.2,0.5,18.3,0.1,27.5
		c-0.5,9.5-0.1,19-0.1,28.5c0,9.3,0,18.7,0,28c0,0.8,0.4,1.8-1.1,3H1132"/>
	<path class="st1" d="M845.5,1181c-4.3,0.3-8.7,1-13,0.9c-23.7-0.6-47.3,0.8-71,1.2c-18.7,0.4-39.8,0-58.5,0.4"/>
	<path class="st1" d="M796.5,346.5c0.2,3-0.1,8,0,11c0.2,13.8,0.8,27.7,0.4,41.5c-0.4,12.9,1.3,25.7,0.5,38.5
		c-0.6,10-0.2,21.5-0.6,31.5"/>
	<path class="st1" d="M971.5,1395c-5,1.4-36,1.5-41,1.8c-10.1,0.6-20.3,0.2-30.7,0.2v31.5c10.7-1.3,21.2-0.9,31.8-1"/>
	<path class="st1" d="M477.5,1437c2.4,2.3,5.3,3,8.5,3c15-0.1,30-0.3,45-0.4c1.1,0,1.8-1.5,3.5,0.4v21.8c10.2-0.9,19.8,1.4,29.5-0.4
		c0-14.9,0-30.1,0-45.2c0-1.8,0.3-9,0.5-10.9"/>
	<path class="st1" d="M851.5,1429c-9.5,0.3-19,0.8-28.5,1c-19.7,0.4-39.3,0.6-59,1.1c-7.5,0.2-15,0.6-22.5,1"/>
	<path class="st1" d="M821.5,892.5c0-12.7,0.1-25.3,0-38c0-8.4-0.3-8.2,7.7-8c2.4,3.2,1.2,6.7,1.3,10c0.2,8.2,1.8,16.3,1.1,24.5
		c-0.6,7.9,1.3,15.7,0.9,23.5c-1.1,20.2,0.8,40.3,0,60.7c2.8,0.7,5.5,1.9,8.1-0.2"/>
	<path class="st1" d="M884.5,747.5c-5,0.7-17.6,1.5-20.5,1.5c-16,0.3-32,0.7-48,1c-4.3,0.1-8.7-0.2-13-0.5c-2.9-0.2-4.1,0.9-4.1,4
		c0.2,8.2,0.1,16.3,0,24.5c0,1.8,1.6,2.2,5.3,2.2"/>
	<path class="st1" d="M857.5,534.5l-101,1"/>
	<path class="st1" d="M306.5,1639.5v27c9.3,0,17.9,1.2,26-0.3c10.9-2,21.7-0.3,32.6-1.1c12-0.9,24,0.4,36-0.5
		c3.6-0.3,7.3,0.5,11,0.4c18.2-0.7,36.3,0.1,54.5,0c2.4,0,5.8-0.3,8-1.5"/>
	<path class="st1" d="M897.5,1211.5l-100,1"/>
	<path class="st1" d="M724.5,969c-4.6,1.7-9.3,0-14,0.7c-3.3,0.5-4,2.6-3.8,4.3c0.9,7.8-0.5,15.8,1.4,23.5c12,0,24,0.3,36-0.1
		c11.7-0.3,23.3-1.4,35-0.5c4.9,0.4,9.8-0.1,14.5-1.4"/>
	<path class="st1" d="M529.8,571.9c-11.2,1-33.6,1.4-44.8,0.7c-6.8-0.4-13.7,0.3-20.5,0.4c-12.5,0.1-25,0-37.5,0H314.5
		c-7.5,0-7.5,0-7.5-7.5c0.1-16.3,0.3-67.7,0.5-84"/>
	<path class="st1" d="M637.5,895.5h-77.1c0.3,7.3-5.3,7.3-9,8.8c-1.4,0.6-4.2,1.9-5.9,1.7"/>
	<path class="st1" d="M971.5,458.5c-4.7,1.4-10.4,1-12.5,7c-0.4,1.2-1.7,0.4-2.5,0.5c-7.3,0.2-14.7-0.8-22,0.1
		c-1.2,0.1-2.3-0.4-3.5,0.4s-1,1.5-1,2.5c-0.1,1.5,1,1.5,2,1.5c9,0,18,0,27.5,0v7c0,6.5,0,6.5,6,7.5"/>
	<path class="st1" d="M792,570.5c1.8-6.1-1.5-11.2-3.5-16.5c-0.7-2-2.2-1.5-3.5-1.5c-16.2,0-32.3,0-48.5,0c-4.8,0-5.7,4.1-7,7.5
		c-2.5,6.4-3.9,12.8-1,19.5c1,2.5-1.8,3.8-2,6"/>
	<path class="st1" d="M658.5,1198.5c3.7-4.1,2.4-8.8,2-14c-25-0.1-51,2-76,1.5"/>
	<path class="st1" d="M556.5,733c3.2,0.2,3.5,3.1,3.5,5c0,5.2,0,10.3,0,16h41.8v30.9c-6.9,1.1-13.1,0.4-19.2,0.6
		c-6.3,0.2-12.7,0.6-19,0.4c-2.8-0.1-3.6,0.6-3.5,3.1c0.1,4.7,0,16.9,0.5,21.5"/>
	<path class="st1" d="M742.4,1432c-29,0.9-61.9,2.3-90.9,2.1"/>
	<path class="st1" d="M532.8,1404.5c-2.5,1.4-4,1.5-6.8,1.5l-78.5,0.5"/>
	<path class="st1" d="M729.5,1215.5c0,20.5,0,41,0,61.5c0,2.1,1.2,4.9-2.5,5.5c-0.2,0-0.5,0.7-0.5,1c0.2,0.9-0.8,2.1,1,2.6
		c2.6,0.6,0.9,7.2,6.3,4.4c-0.3-5.9-0.7-11.9-0.8-17.9c-0.1-14.7,0-29.3,0-44c0-4.5,1.6-9,0-13.5"/>
	<path class="st1" d="M884,466.5c-2.6-2.3-1.7-5.3-1.4-8c0.9-7.5,1.1-15.1,0.7-22.6c-4.5,1.7-5.7,5.3-5.3,11.6
		c0.4,6.5,0.1,13,0.1,20.5c-7,0-13.5,0-20,0c-1.4,0-3.5-1-3.5,2c0,3.6,3.2,3.1,4.5,2.8c9.3-1.7,18.7-0.6,28-0.8
		c7.4-0.2,14.8,0.1,22.3-1.7l0.7-3.7c-8.5-0.6-17,0.1-25.5,0.8"/>
	<path class="st1" d="M1173.5,913.5c1,6.7,1.3,26.4,1.9,33c1,10.8,0.4,21.7,1.1,32.5c0.4,6.5-0.1,13,0.3,19.5
		c0.3,5,0.6,10.3,0.7,15.3"/>
	<path class="st1" d="M563.5,1286.5c0.2,16,0,32,0.6,48c0.4,10.3,0,20.7,0.3,31c0.1,4.4-1.1,5.7-5.5,5.4c-3.8-0.3-22.7,2.4-26.2,2.8
		"/>
	<path class="st1" d="M752.5,892.5c-5.9,2.2-41,1.3-47,1.4c-15.7,0.3-31.3,0-47,0.2c-6.7,0.1-14.3,1.1-21,1.5"/>
	<path class="st1" d="M669,698.5c1.1,11.6,1.1,23.4,0.1,35c-0.6,6.3-0.8,12.7-0.6,19h-32"/>
	<path class="st1" d="M756.5,535.5c-6.6,0.4-10.7,1-15.5,1.3c-11,0.7-22,0.6-33,0.7c-24.3,0.1-48.7,0-73,0h-32.5"/>
	<path class="st1" d="M750,888.5c-7.5,1-15,0.1-22.5,0c-8.5-0.1-17,0.3-25.5,0.5c-28.7,0.6-57.3,1-86,1.2c-7.5,0-20.3,1.4-27.8,1.3"
		/>
	<path class="st1" d="M1016,907.5c1,2.8,0.6,5.7,0.1,8.4c-4.9,0.9-9.8,0.6-14.6,0.6c-3.6,0-5.2,1-5.1,5c0.5,13.7,0.8,27.3,1,41
		c0,1.3,0.7,9.7,0.5,11"/>
	<path class="st1" d="M530.3,727.2c-2.2,30.6,1.2,61-0.4,91.1c4.7,1,8.1-0.8,11.6-2.3"/>
	<path class="st1" d="M974,1485.5c-0.8,0.3-0.7,1.6-2,1.5c-23.2-1.5-46.3,0.7-69.5,0.4c-1.5,0-4.1-1.3-3.6,3.1"/>
	<path class="st1" d="M705,370.5c0.3,7.7,0.7,15.3,1,23c0.4,10.3,0.8,20.7,1,31c0.1,7.5-0.3,15-0.4,22.5c0,1.7-0.3,3.4,0.5,5"/>
	<path class="st1" d="M858.1,1078c-0.2-7-1-20.5-1-27.5c-0.1-15.7,0-31.3,0-47c0-2.5-0.3-5-0.5-8c-21-1.4-42,0.5-63,0"/>
	<path class="st1" d="M977.5,1219c-7.1-0.2-8.4-1.7-6.9-9.4c-5.7-1.4-11.6-1-17-0.4c-7.9,1-15.7,0.4-23.5,0.7
		c-10.5,0.5-17.2,1.1-32.5,1.5"/>
	<path class="st1" d="M586,573.5c25.8-0.2,56.7-0.4,82.6-0.4c1.8,0,0.9,18.2,1,22.2"/>
	<path class="st1" d="M669,638.5c0.3,7.4-1.6,15.7-0.8,23h-17.7c-8.5,0-17,0.1-25.5,0c-3.1,0-4.3,1-3,4"/>
	<path class="st1" d="M728.5,782.5c-23.7,0-82.3,2.5-106,2"/>
	<path class="st1" d="M687.5,1659c-3.3,0.8-6.6,1.2-10,1c-19.3-0.8-38.6,2.3-58,1.1c-1.5-0.1-2.4-1.7-3.5-3.8"/>
	<path class="st1" d="M771,894.5c0.6,14,0.6,29,1.1,43c0.3,9.2,1.9,21,0.1,30.3"/>
	<path class="st1" d="M857.3,309c-31.3,0.3-98,1.3-129.3,1.7"/>
	<path class="st1" d="M801.8,370.2c2.1,22.8,2.1,75.8,2.1,98.8"/>
	<path class="st1" d="M483.9,317.5c2.9,3.1,2.1,9.4,3.8,13.1s2.3,7.8,2.9,11.9c0.3,2.3,1.4,4.4,5.4,3.8c5.8-0.9,11.7-0.9,17.4,0
		c4.8,0.7,9.4-1.2,14,0.2c1.5,27.7-1,55.4,0.8,82.8c-8.4,3.9-16.9,1.8-25.3,2.2c-5.1,0.3-10.3,0-15.5,0"/>
	<path class="st1" d="M1185,901.6c-3.2-1.6-7.4-0.8-10.5-0.7c-10.3,0.3-20.7,0.7-31,0.6c-6.3,0-12.7,0.9-18.6-2.9
		c-2.8-1.8-4.5-0.2-4.4,2.9c0.2,5-0.4,10,0.4,15c0.9,5.6-1.8,14.2-0.4,20"/>
	<path class="st1" d="M720.5,474c-7.5,1-15,1-22.5,0.2c-4.5-0.4-8.7,0.6-13,0.5c-13.5-0.3-27-0.9-40.5,0.3c-3.4,0.3-4-0.9-4.2-4
		c-0.3-4.5-0.3-9,0.2-13.5"/>
	<path class="st1" d="M441,449.5c-2.3,7.1,0.5,16-2.8,23.1c-2-3-2.8-6.6-2.4-10.1c1.3-12.9,2.6-12.9-10.4-13c-4,0-9,0-13,0"/>
	<path class="st1" d="M801.1,570.6c-21.7,0-51.8,0.9-73.1,0.9"/>
	<path class="st1" d="M1002.5,1282.5h40.7c0.9,11.3,1,22.7,0.5,34c-0.1,1.9-0.7,3.1-1.7,2.8c-3.5-0.9-6.5,1.2-10.1,0.9
		c-8.6-0.7-17.3-0.3-26-0.2c-2.5,0-2.7,2.1-2.5,4c0.4,4.5,0.5,9,0.3,13.5c-0.6,14-0.5,28.1-0.3,42c0.2,18.3,0.8,36.7,1.1,55.5h40.5"
		/>
	<path class="st1" d="M686.2,1626.3c-8.3,1.7-22.4,1.6-30.7,1.7c-8.8,0.1-17.7,0.1-26.5,0c-2,0-3.4,0.6-3.4,2.6
		c0,3.7-2.9,8.1-3.7,11.5"/>
	<path class="st1" d="M873,1492.5c-1.3,5.2,0,10.3,0,15.5c-0.1,10.8-0.4,21.7-0.4,32.5c0,5.7,0.3,14.2,0.5,19.9"/>
	<path class="st1" d="M531,941.5c-1.1,8.5-0.3,17-0.4,25.5c0,0.8,0.3,2,0.3,3c0.2,13.5,0.5,27,0.5,40.5c0,14.7-0.3,29.3-0.5,44"/>
	<path class="st1" d="M798,1212.5c-18.8,0.2-41.2,1.3-60,1.5c-8.2,0.1-34.6,1.1-42.8,1.5"/>
	<path class="st1" d="M699,344.5c0.2,1.8,1,4.7,1,6.5c0,15.7,0.2,31.3-0.1,47c-0.1,3.6,3.4,41.8,1.1,45.5"/>
	<path class="st1" d="M804.5,469c8,0.3,16,0.8,24,0.9c2.5,0,3.6,0.5,2.9,3.1c-2.6,1.2-5.5,0.9-8.4,0.9c-16.7,0.2-33.3,0.4-50,0.4
		c-1.5,0-5.4,1.6-4.5-3.9"/>
	<path class="st1" d="M908.6,569.8c-3.1,0.8-17.4-0.3-20.6-0.3c-17.5,0-35,0.2-52.5,0.9"/>
	<path class="st1" d="M674,751.5c8.8,1.5,17.7,0.6,26.5,0.3c12-0.4,24-0.1,36-0.3"/>
	<path class="st1" d="M267,1568c0.3-2.7-1.1-5.3-0.1-8.5h-74.4"/>
	<path class="st1" d="M736.5,751.5c7-1.1,15-0.7,22-1c3.3-0.1,6.7,0.2,10.2-0.7c1.7,3.3,0.8,6.9,0.6,10.2c-0.2,4-0.4,8-0.3,12
		c0.3,14.2-0.5,28.3,0.4,42.5c0.1,1.3,0.6,2.8-0.5,4"/>
	<path class="st1" d="M424.5,1406.5c-8.1,0.9-62.3,2-70.5,1.1c-2.6-0.3-5.3,0.3-8,0.4c-11.8,0.6-23.6-1.3-35.5-0.1
		c-2.9,0.3-3.7,0.6-3.7,4.1c0.4,19.3,0.2,38.7,0.1,58c0,5.5-0.3,30.9-0.5,36.4"/>
	<path class="st1" d="M877.5,351.5c1,5.5,0.3,11,0.2,16.5c-0.1,9.2-0.2,18.4-0.1,27.5c0.1,5.3-0.4,10.6,0.1,16c0.3,3.1,0.8,4.2,4,4
		c1.7-5.9,0.4-12,0.7-18c0.4-9.7,0.5-19.3,0.5-29c0-6-0.3-12-0.5-18c-0.1-2.8,0.1-6.5,1.5-9"/>
	<path class="st1" d="M1048.5,903.8c4.1-1.7,18.3-0.6,22.7-0.9c0.4,2.5,0.6,5,0.7,7.6c0,1.5,1.2,3.8-1.9,4.1c-0.4,0-1,1.2-1,1.9
		c-0.1,6.7,0,13.3,0,20c9.5,0,28.2-0.5,37.1,0"/>
	<path class="st1" d="M610.5,1657.5L594,1658c-0.7,0-1.8-0.2-1.9,0c-2.3,4.9-6.6,2.9-10.1,2.9c-8.5-0.2-17,1.5-25.5,0.1
		c-1.4-0.2-3.8,0.7-5,1.5"/>
	<path class="st1" d="M596,1409.5c0,6.7,0.1,13.3,0,20c-0.1,4.7,0.8,6,5.5,6c8.3-0.1,16.7-0.2,25-0.5c8.7-0.3,17.3-0.7,26-1"/>
	<path class="st1" d="M996,903.5c-1.6-6.5-0.3-13-0.5-19.5c-0.2-7.7-0.4-15.3-0.5-23c-0.1-12.2,0-24.3,0-37h14v-28c0-1.5,0-3,0-4.5
		c0.2-6.2,0.2-6.1-6-6.6c-1.7-0.1-3.1,0.8-5,0.2c-4.9-0.6-3,1.8-3,3.9"/>
	<path class="st1" d="M1181,967.5c-0.8-8.7-0.3-17.3-0.5-26c-0.2-8-0.7-16-1-24c-0.1-3.3,0-6.7,0-10.6c-15.7,0.9-30.8-1.3-46,1
		c-1.4,0.2-3-0.3-4.5-0.5"/>
	<path class="st1" d="M557.5,313.5c-16.8,0-33.7-0.4-50.5,0.2c-7.8,0.3-15.7,0.1-23.5,1c-3.8,0.4-8.3-0.6-12.5-0.6
		c-3,0-6.2-0.8-9,0.9c-2.6,1.6-4.9-0.7-7.5-0.6c-9,0.3-19,0.6-28,0.6"/>
	<path class="st1" d="M1046,1450.5c0.1-3.6,0.2-7.4-0.8-11c-10.5,0-20.8,0.1-31.2,0c-9.2-0.1-31.9,0.3-41-2"/>
	<path class="st1" d="M965.5,894.2V962c-4.3,0-9.2-0.1-14,0c-3,0-6,0.3-9,0.5c-0.8-0.1-1.5,0.5-1.6,1.3c0,0.2,0,0.5,0.1,0.7"/>
	<path class="st1" d="M710,1402c-6.2,0.3-14.8,0.8-21,1c-14.2,0.3-28.3,0.4-42.5,0.5c-13.3,0.2-26.7,0.5-40,0.4
		c-3.7,0-9.8-1.4-10.5,5.6"/>
	<path class="st1" d="M978.1,1165.9c-8.4,0.6-7.9,6.9-8.2,12.6c-15.8,0-38.1,1-53.4,1"/>
	<path class="st1" d="M903.5,1621.5c-8.5-1.3-16.9,1.7-25.5,0.8c-4-0.4-4.5-1.7-4.5-4.8c0.3-16.3-1.5-32.7,0-49c0.1-1.2,0-2.3,0-3.5
		c2-1.8,6.2,1.6,7.2-3c-2.6-2-4.9-1.5-7.7-1.6"/>
	<path class="st1" d="M866.5,1540.8c0.3,8.7,2,19.1,1.3,27.7c-0.8,11,1,22-0.3,33c-0.7,6.3,1.6,13.7,0.7,20.1"/>
	<path class="st1" d="M565,1518.5c0-1.7-0.5-31.3-0.5-32.9c-9.5-1.9-19,1.4-28.2-0.7c-1.9,1.2-1.3,2.8-1.2,4.1
		c0.6,9.7-1.8,19.4,0.6,29.5h28.9"/>
	<path class="st1" d="M770,688.5c-4.8-8-11.9-8.8-17-2c-2,2.7-2,7.8,0,11c1.7,2.8,4,4.6,7.5,4c4.8-0.9,7.7-3.8,8.5-8
		c0.3-1.5,0.7-3,1-4.5"/>
	<path class="st1" d="M834.5,779.5c-1.2,0.3-3.3,1.2-4.5,1.5c0,9.3-0.3,18.7,0.1,28c0.3,6.9-1.8,9.4-9.1,7c0-10.2,0-20.3,0-30.5
		c0-4.8-0.5-5.2-5.5-5c-4,0.1-5.5,0-12.2-0.3"/>
	<path class="st1" d="M371.7,318.6c-2.8-1.9-7.3-2.4-10.2-2.4c-10.2,0-20.3,0.8-30.5,0.5c-8.1-0.2-16.4-1.3-24.5,0.8"/>
	<path class="st1" d="M988,793.5c0-6,11.8-3.5,16.5-4.2c0,10.2,0.1,19.8-0.1,29.2c0,2-1.3,2-3.4,2.2c-7.3,0.6-14.7-0.2-22,1.1
		c-4.7,0.9-8.9,3.1-13.5,4.1c-1.9,0.5-1.5,1.8-1.5,3c0.1,7.5,0.5,15,0.4,22.5c0,2.5,0.5,1.7,3.1,4c4.5,0.8,4.4,1.6,6.5,1.4
		c5.2-0.6,9.3,3.4,14.5,2.7c3.4-0.5,2.8,2.8,2.9,4.4c0.4,6.2-0.7,12.3-0.6,18.5c0.1,2.4,0,4.8-0.4,7.1l-24.9,4.5"/>
	<path class="st1" d="M941.5,747.5c-2.4,0.1-4.1,1-4.1,3.5c0.2,8.5,0.1,17,0.1,25.7c7.8,0.8,15.2,0.2,22.5-0.4
		c3.3-0.3,3.7,0.7,3.5,3.2c0,0.7,0,1.3,0,2c-0.4,3.7,1.1,5.5,5,5c0.9-0.1,19.2,4,20,5.1"/>
	<path class="st1" d="M1169.5,965.1c0.5,11.8,0.8,19.8,0.9,28.9c0.1,8.5-0.3,18.8-0.1,27.2"/>
	<path class="st1" d="M476.5,1630.5c-8.6,1.5-17.3,1.1-26,1s-17.3-0.6-26-1"/>
	<path class="st1" d="M529.9,818.3c0.4,14-0.1,31.2-0.1,45.2c0,14.7,0.8,29.3,0.7,44"/>
	<path class="st1" d="M1011,306.5c-17.2-0.1-34.3,0.8-51.5-0.5"/>
	<path class="st1" d="M530.5,634.5c-1.3,13.3-0.1,26.7-0.5,40c-0.2,6.3,0.1,19.1-0.1,25.4"/>
	<path class="st1" d="M767,633c-0.2-5-3.2-8.7-8-9.5c-3.8-0.8-7.7,1.3-9,5c-1.8,4.6-0.3,11,3.5,12.9c3.3,1.7,6.6,0.4,9.4-1.5
		c2.2-1.6,3.8-3.8,4.5-6.4"/>
	<path class="st1" d="M1131.1,1045.5c-2.3,0.2-10,3.2-8.3-3c-0.1-4.7,0.8-9.4,0.5-14c-0.4-5.7,0.6-11.4-1.2-17.5
		c-12.6,0-25.6-0.1-38.6,1"/>
	<path class="st1" d="M266.5,1507c-0.1,1.2,1.4,10.4-0.5,10.7c-1,0-2-0.1-3-0.2c-15.2-0.6-34.3,1.7-49.5,1"/>
	<path class="st1" d="M684.5,310.5c-6.3,0.7-20.7,1-27,1.2c-13.3,0.4-34.7,1.2-48,1.8"/>
	<path class="st1" d="M941,964.5c0,7.2,0.1,17.3-0.1,24.5c-0.1,3.1,0.9,4.3,4.1,4c5.7-0.4,11.3,0.5,17-0.5c1.2-0.2,2.7,0.6,3.9,0.9
		c0.8,4.3,0.6,8.7,0.6,13"/>
	<path class="st1" d="M1181.5,981.1c0,5,0.5,12.8,0.3,16.4c-0.9,12.2,0.9,24.3,0.3,36.5c-0.3,5.6-0.8,5.4-6.5,5.7
		c-12.2,0.6-24.3,0-36.5,0.5c-2.3,0.1-4.7,0.1-7,0.4"/>
	<path class="st1" d="M988.5,1649.5c-13.1,1.2-27.3,2.8-40.5,2.4c-12.5-0.4-28,2.8-40.5,1.6"/>
	<path class="st1" d="M821.5,892.1c0.7,4.1,1,8.3,1,12.4c0.1,16-0.2,32,0.2,48c0.1,4.3,0.2,8.7,0.4,12.7c-4.3,2.7-8.9,3.1-13.7,2.3"
		/>
	<path class="st1" d="M608.5,1217c-1.8,1.3-4,1-6,1H570c-1.9,0-3.7,0.3-5.5,0.8c-2.8,0.7-2,2-1.5,3.7"/>
	<path class="st1" d="M853.5,314.5c-2.3-2.5-4.7,0.1-7,0.1c-8.9,0.1-20.2-0.9-29.2-1.2c-0.8,2.6-0.8,4.8-0.8,8.4
		c0,1.6-1,2.8,0.5,2.6c11.2-1.1,25.3-0.8,36.5-1.4c0.3,0,0.7-0.3,1.3-0.6c0.3-2.2,0.5-4.6-0.8-6.8"/>
	<path class="st1" d="M993.1,734.1c1.1,10,1.1,22.4,1.5,32.4c0.2,6-0.7,12,0.5,18"/>
	<path class="st1" d="M907.5,1653.5c-25.7,0.3-52.8,1.2-78.4,1.5"/>
	<path class="st1" d="M1170.4,1019.3c-0.1,2.5,0.1,6.7,0.1,10.2h-39"/>
	<path class="st1" d="M959.5,306c-7.1,1.2-23.3,1-30.5,0.6c-6.7-0.3-13.4-0.2-20,0.5c-4.8,0.5-9.7,0.8-14.5,0.9
		c-12,0.1-24,0.3-36,0.5c-1.3,0-5.3,3.6-4.9,6.5"/>
	<path class="st1" d="M960.5,392c-2,2.8-0.8,6-1,9c-0.2,3.6,0,7.3,0,11c0,7.2,0.6,7.6,8,9.1c6.6,1.3,15.3,3.2,21.8,4.9"/>
	<path class="st1" d="M829.5,1655c-8.7,0.3-17.4,0.3-26,1.1c-13,1.1-26-0.4-39,0.9"/>
	<path class="st1" d="M887.5,778c-15.3-0.5-37.7,1.2-53,1.5"/>
	<path class="st1" d="M559.6,417.6c7.3,0,15.2,0,22.4-0.1c3.6-0.1,5.3,1.3,5,5c0.5,3.4,5.4,24.7,4.5,28"/>
	<path class="st1" d="M844.5,1338.6c-3.5,3.2-7.5,7.2-12,6.9s-9-0.1-13.5-0.1c-0.2,18-0.4,35.5,0.7,53.8c12.2-1.6,24-0.2,35.8-1.3"
		/>
	<path class="st1" d="M442.5,349.5c-3.2-2.4-16.3-0.2-19.3-0.7c-1.3,4.2-0.6,8.2-0.1,12.1c-1.6,2-3.4,0.6-5.6,1.5
		c0.2-4.9,2.3-9-0.3-12.9c-2,0-6.2,0.4-8.6,0.4"/>
	<path class="st1" d="M248.5,1568.5c-6.3,0-22.2,0.2-29,0.2c0,8.5,0.7,18.8,0.5,26.8c-0.1,3.8-0.3,7.6-0.8,11.4"/>
	<path class="st1" d="M604.5,1000.5c22-1.2,44-1,66-1"/>
	<path class="st1" d="M1177.5,1027.5c0.5,7.1,1.3,6.5-4,6.5c-11.3-0.1-22.7,0-34,0h-7"/>
	<path class="st1" d="M793.5,1625.5c-18.2,0.2-40.3,0.4-58.5,0.4c-3.6,0-4.7,1.4-4.5,4.6"/>
	<path class="st1" d="M983.6,1503.8c-3.4,0-6.8-0.3-10.1-1.1v-11.9c-2.9,0.8-6,1.1-9,0.6c-14-1.4-28,0.5-42-0.4
		c-1.3-0.1-2.5,0-3.8,0.3"/>
	<path class="st1" d="M1169.5,965.5c0-15.7,0-31.3-0.8-47h-38.2"/>
	<path class="st1" d="M836.5,1625.5c-1.6,6.6-4.6,12.7-5.8,19.5c-0.3,1.7-0.1,3.9-1.2,6c-9.2,1.3-18.5-0.2-27.6,1.2
		c-1.8-8-3.8-15.8-5.4-23.7c-0.4-2-0.7-3.4-3.1-3"/>
	<path class="st1" d="M394.3,1556.2c-16.1,2.1-35.7-0.6-51.8,0.8"/>
	<path class="st1" d="M694.5,1215.5c1.5,1.1,0.2,11,0.1,13c-0.2,5.3-0.1,10.7-0.1,16c0,4.1-2.5,7.8-1.5,12c0.3,1.5,0.2,3,0.5,4.5
		c1.3,5.8,1,9.4,0,16"/>
	<path class="st1" d="M1185,901.6c0.2,16.3,1.3,47.6,1.5,63.9"/>
	<path class="st1" d="M561,1074.5c1.1,12.8,0.1,29.7,0.6,42.5"/>
	<path class="st1" d="M1130.5,930h27.3c1.1,11.6,1.4,35.3,1.7,46.5"/>
	<path class="st1" d="M404,329.7c0.1-3.6-2.6-8.9-3.4-12.2c-8.1,0-16.1,0.1-24.1,0c-4.1-0.1-7.1,1.9-7.3,5.6
		c-0.4,6.5-3.3,12.1-5.2,18c-3.9,12-3.5,24.2-2,36.5c0,0.3-5.1,0.7-5.2,1"/>
	<path class="st1" d="M973,1437.5c0.2-1.9-0.6-11.6-2.5-11.5c-12.7,0.5-22.9,2.5-39.6,1.5"/>
	<path class="st1" d="M1042.5,1286c-12.2,0.2-30.8,1.2-43,1.5"/>
	<path class="st1" d="M434.5,540.5c1.2-11.5,0.5-36,1.1-47.7c1.4-0.8,2.9-0.3,4.4,0.2c0,12,0,24,0,36c0,2.2,0.3,4.3,0.5,6.5"/>
	<path class="st1" d="M602.5,662.5c1.3,3.6-2.6,5.4-4,5.5c-7.8,0.1-15.7,0-23.5,0h-14.9c-0.5,7.1,0.3,13.9-0.6,20.5"/>
	<path class="st1" d="M559.5,643.5c1,5,0.5,10,0.4,15c0,3.1,1,4.2,4.1,4.1c6.5-0.2,13-0.1,19.5-0.1"/>
	<path class="st1" d="M1186.5,964.5v79.8c-13,0.4-26.5,1.5-40,1.2"/>
	<path class="st1" d="M531,1054.5c0.4,4,0.6,7.7,0.7,9.5c0.2,15.5-2.1,31,0.3,46.5"/>
	<path class="st1" d="M174.6,1448h45"/>
	<path class="st1" d="M410.5,544.5c-0.5,5-5.6,20.4-7,24.5h-33"/>
	<path class="st1" d="M967,1117l-102.5,0.5"/>
	<path class="st1" d="M989,357.5c0.9,9.3,1,18.6,1,28c0,5.7,0.2,11.3,0.3,17c0.2,7.8-0.1,15.7-1.1,23.5c-0.3,2.3,1.4,3.2,1.3,5
		c-0.2,7.5,0.4,17-0.6,24.5"/>
	<path class="st1" d="M321,1505.3v-33c-1.9,0.3-3.2,0.4-4.5,0.8c-5.8,1.4-6.5,2.3-6.5,8c0,5.5,0,11,0,16.2"/>
	<path class="st1" d="M595,541.5c-1.6,3.1-4.1,5.2-6.9,7.2c-0.6,0.5-1.3,0.8-2.1,0.8c-4.5-0.4-4.2,1.8-4.3,5.5c-0.2,6,0.1,12-0.3,18
		c1.1,1,2.4,0.3,3.6,0.5"/>
	<path class="st1" d="M767,1656.8c-13,0.4-29.5,2.1-42.5,1.7"/>
	<path class="st1" d="M998,973.5c0.8,13,2.3,49,1.5,62"/>
	<path class="st1" d="M704.9,1183.5c-4.1,0.1-12-0.2-14.5,5c-0.6,1.1-0.9,2.3-0.9,3.5c-0.3,6.5-0.6,13-1,19.5c-0.1,1.5,2,5.1,3.1,6"
		/>
	<path class="st1" d="M908.6,569.8c1.2-7,0.3-17.3,0.2-24.2c0-4,0.1-8,0.1-11.9c-2.2-1.2-11.7,0.1-13.3,0.4"/>
	<path class="st1" d="M448,345.5c-1.3,8.3-1,17.7-1,26c0,13.8-0.4,27.7,0.2,41.5c0.3,6.2-0.7,12.4,0.2,18.5c4.9,0,9.7,2.2,14.8,0.1
		v18h-20.7"/>
	<path class="st1" d="M480,560c-7.7,1.4-15.3-0.4-23,0c-3.2,0.2-6.4,0-10,0v13"/>
	<path class="st1" d="M423,1567.5c1.1,6.5-0.6,13-0.5,19.5c0,6.8-1,17.4-1,24.2"/>
	<path class="st1" d="M895.5,534c-12.3-2-25.7-0.5-38,0.5"/>
	<path class="st1" d="M308,421.5c0,12.3-0.5,47.7-0.5,60"/>
	<path class="st1" d="M968.1,520.9c-9.4,2-5.7,8.7-7.8,12c-8.8,0.7-17.8-0.5-26.8,0.7"/>
	<path class="st1" d="M681.5,982.5c-1-3.5-0.7-8-1.2-12h-20.8c-7.2,0-14.4-0.4-21.5,0.1c-10.7,0.7-21.3,0.2-32,0.4
		c-1.6-0.1-3.1,0.2-4.5,1"/>
	<path class="st1" d="M816.9,1314.6c-1.3-1.4-3.4-4.9-1.5-6.6c2.4-2.1,4.7-4.3,6.8-6.3c6.8,4.6,11.7,11.3,18,16.6
		c3.8,3.2,7.1,7.2,11.2,10.3c1.4,1.1,2.3,2.9-0.4,4.5s-5.1,4.2-7.6,6.4"/>
	<path class="st1" d="M858,1077.5c0.8,5.2-1.2,10.3-1.1,15.5c0.3,10,0.9,26.5,0.1,36.5"/>
	<path class="st1" d="M640.5,345.5h-37"/>
	<path class="st1" d="M835.5,570.5c-10.5,0-21,0-31.5,0c-5.2-0.9-3.7,2.5-4.5,5.3"/>
	<path class="st1" d="M809.5,967.5c-10.3,0-27,0.3-37.3,0.3"/>
	<path class="st1" d="M695.5,1311.5c1,1.7,1.5,3.6,1.6,5.5c0,12-0.4,24,0.4,36c0.1,1.8-0.8,4.5-0.6,7"/>
	<path class="st1" d="M409,1652.3c-8.8-1.2-19.5-0.2-28.5-0.4c-3,0-3.2,2.7-2.4,3.4c3.2,2.6,1.5,5.8,1.9,8.7"/>
	<path class="st1" d="M994,1163c1.5-0.5,4-1.5,6-0.3c1.5,13.7-0.4,27.8,1,41.8"/>
	<path class="st1" d="M442.5,349.5c0.5,11.8,2.4,27.4,0.5,39.2"/>
	<path class="st1" d="M405.9,561.6c-2.7-2.1-7.1-1-9.9-1.1c-7.2-0.3-14.3-0.4-21.5-0.5c-1.8,0.1-3.7,0.2-5.5,0.5"/>
	<path class="st1" d="M728.5,782.5c8-1.9,17-1.1,25.5-1.6c-0.4,12.6,1.2,26.8-0.1,38.8"/>
	<path class="st1" d="M809.5,342c-2.3,1.9-6.1-0.6-8,2.5c-1.5,2.6,0,5.3,0,8c0,6.3-0.7,12.7,0.4,19"/>
	<path class="st1" d="M937,321c-8.5-1-17-0.2-25.5,0c-3.2,0.1-8.1,0-11.2,0"/>
	<path class="st1" d="M306.5,1529.8v28.5H301c-1.8,3.3-0.5,6.3-1.3,10.2c8.6-0.6,14.2,1.2,20.8-1"/>
	<path class="st1" d="M1003.4,1350.5h-11c0.6,10.2-0.8,19.9,1.1,29.5"/>
	<path class="st1" d="M736,312l0.4,1.8c10.8,0.9,21.5,0.7,32.1,0.7"/>
	<path class="st1" d="M934,1064.5c0.5,5.3-1.3,10.5,0.1,16.1c0.7,2.5-0.3,6.2-0.7,9.4c-0.8,6.2-0.3,12.3-0.4,18.5
		c-0.1,4.9,0.4,4.8,5.5,5.1c9.5,0.6,19-0.4,28.5-0.1"/>
	<path class="st1" d="M992.5,547.5l1,110"/>
	<path class="st1" d="M770,852.5c-0.2-1.3,0.7-3-1.5-3.5c-1.9-0.5-12.5,0.5-14.5,1.3v15.2c0,6.2-0.1,12.3,0,18.5
		c0,1.8-2.5,3.7-4,4.5"/>
	<path class="st1" d="M700,441.5c-0.6,1.9,1.2,6,1.5,7.6c-9.3,1.8-18.7,1.3-28,1.4"/>
	<path class="st1" d="M886.1,994c-3,0.2-15.6,0.9-18.6,1c-5.7,0.2-6.5,0.8-5.9,6.5c0.8,7.2,0.3,14.3,0.4,21.5
		c0.1,12.7,0,25.3,0.1,38c0,2.5,0.3,5,0.5,7.5"/>
	<path class="st1" d="M528.5,449.5h-34"/>
	<path class="st1" d="M938,1621.5c0.8,5.8,2,12,1.3,18h-28.8"/>
	<path class="st1" d="M551.5,1662.5c-13.2-0.6-26.3,2.1-39.5,0.5"/>
	<path class="st1" d="M1147.5,936.5c2.9,0,4-1.3,5.2-0.4c-0.7,9.6,1.1,19.2,0.8,28.9s0.9,19.4-0.4,29c-0.4,2.7,0.2,5.4,0.3,8
		c0.2,3.5,0,7.1-0.6,10.5"/>
	<path class="st1" d="M993.5,657.5c-0.5,8-0.5,19.7-0.1,27c0.3,7.1-0.4,14.3-0.3,21.5c0,8.3,0.2,16.7,0.5,25c0.1,3.4-1,4.8-4.5,5.1
		c-6.9,0.5-13.7,1.6-20.5,2.4"/>
	<path class="st1" d="M1007,1474c-1.2,0.9-1,1.7-1,3c0.3,17.8-0.3,35.7,0.3,53.5c0.2,6.3,0.1,12.7,0.2,19"/>
	<path class="st1" d="M723.5,1360.5c-3.3-0.1-6.7-0.5-7.5,4c-0.7,3.7,2.6,6.4,6.5,5.5c1.5-0.3,3-0.5,4.6-0.8
		C728.1,1365.8,726.6,1362.2,723.5,1360.5"/>
	<path class="st1" d="M562.5,313.7c-0.8,11-4.3,45.8-3.5,56.8"/>
	<path class="st1" d="M874.5,1399.5v30.1c-7-0.4-16.9-0.6-24.2-0.6"/>
	<path class="st1" d="M1033,1649l-44.5,0.5"/>
	<path class="st1" d="M898,1045c5.8-1.7,14.2,1.4,20,0c0.3-1.7,1.1-3.3,0.1-5.6c-3.9,0.4-8.2-0.1-12.6,0.4c-2.5,0.1-5,0.5-7.5,1.1"
		/>
	<path class="st1" d="M932.5,1111c-3.8,4.1-8.9,2.8-13.5,2.9c-6.2,0-21.3,1.5-27.5,0.3"/>
	<path class="st1" d="M1005,1506.5c-3.2,0-2.8,2.3-3,4.5c-0.8,8.9,1.3,17.7,1.5,26.5"/>
	<path class="st1" d="M532.5,1322.8c0.2,19.7,0.1,41.1,0.2,60.8c0,7,0,14,0,21"/>
	<path class="st1" d="M660,324.5c7.8,0.3,15.6,1.6,23.5,0.6c2.8-0.4,7.3-0.1,10.1-0.1"/>
	<path class="st1" d="M603.5,345.5c-1-3.7-6.7-18.3-7.5-22c-1-4.7-2.6-6.5-7-6.5c-8.2,0-17.8,0.5-26.5,0.5"/>
	<path class="st1" d="M1159.5,976.5c0.2,12.2,0.3,24.3,0.5,36.5c0.1,3.2-0.9,4.7-4.5,4.6c-7.4-0.2-16.6,0.2-24,0.4"/>
	<path class="st1" d="M214.2,1455c-9.2-0.2-21.8-0.3-31-0.6"/>
	<path class="st1" d="M532.5,1126.6c3.1,3.3,6.1-2.5,9.5,0.3v31.1"/>
	<path class="st1" d="M674.5,572.5v23.6c-1.8-0.3-3.2,0.4-4.9-0.8"/>
	<path class="st1" d="M659.5,322.5c-1,4.9-3.2,9.4-5,14c-1,2.4-2.4,4.7-1.9,7.7c-3.7,1.1-8.5,0-12.1,1.3"/>
	<path class="st1" d="M770,852.5c0.3,13.3,0.7,28.7,1,42"/>
	<path class="st1" d="M542,1032.5c0,8.5,0,17,0,25.5c0,1.8-0.3,3.7-0.5,5.5"/>
	<path class="st1" d="M529.8,572.2c1.5,8.5-0.3,17.3,0,25.8c0.1,1.8,0.7,3.7,0.2,5.5"/>
	<path class="st1" d="M307,1568.7c3,21.4-1.9,52-0.6,73.3"/>
	<path class="st1" d="M1000.9,1203.7c0.3,24.7,1.2,54.1,1.6,78.8"/>
	<path class="st1" d="M979.5,356c-1,3.8-0.8,7.7-0.4,11.5c0.6,6.4,0,12.7,0.4,19"/>
	<path class="st1" d="M195,1559.5c-5.3,0.4-8.5,0.4-16.5,0.5c-0.4,10.2,0.6,21.3-0.6,31.5"/>
	<path class="st1" d="M559,370.5c0,10,0.6,37.1,0.6,47.1"/>
	<path class="st1" d="M213,1618.9c-10.2,0.2-18.2,1.7-28.4,1.2"/>
	<path class="st1" d="M981,424.4c0,1.5-1.1,29.7,0,31.1"/>
	<path class="st1" d="M1129,942.6c4,0.6,10.5,0,14.5,0.4c1.6,0.2,3.8-1.6,3.8,2.9c0,10.5,0.1,21,0.2,31.5c0.1,9.3,0,18.7,0,28
		c-4.8,2.5-10,1.1-15,1.5"/>
	<path class="st1" d="M831,1642l-31,1.6"/>
	<path class="st1" d="M984,859.2c0.3,9.8-0.6,21,0.5,30.8"/>
	<path class="st1" d="M322,375.5c0.8,9.7,0.3,25.3-0.5,35"/>
	<path class="st1" d="M981.5,577c0.3,9.7-0.6,19.3,0.5,29"/>
	<path class="st1" d="M319.3,1567.8c0,6.7,0,13.3,0,20c0,2.2-0.3,10.8-0.5,12.9"/>
	<path class="st1" d="M1007.5,1600.5c0,10.3-0.4,24.2-0.4,34.5"/>
	<path class="st1" d="M560.5,891.5c0-5.5,0-30,0-35.5c-3.5-2.8-9.1-2.9-13-4.5"/>
	<path class="st1" d="M963,677c-1.2,7.3-0.1,14.7-0.6,21.9c2.1,2,5.1,0.2,7.1,2.1"/>
	<path class="st1" d="M983,641.5c-0.6,9.5-1.2,19,0,28.5"/>
	<path class="st1" d="M219.5,1448c0.1,7.8,0,21.2,0.3,29c0.3,6.6-0.7,13.3-0.8,20c-0.1,3.5,0.6,8,0.9,11.5"/>
	<path class="st1" d="M752.5,892.5c1.6-0.3,0.8,1.8,2,2c-1.7,10.6,1.1,21.3-0.4,32c-0.4,2.9,1.4,10,1.4,13"/>
	<path class="st1" d="M726.9,571.5c-9.5,1.2-42.9,0.7-52.4,1"/>
	<path class="st1" d="M306.5,317.5c-0.2,16.7,2.1,76.2,2,92.9"/>
	<path class="st1" d="M755.5,939.5c0,7.7,0,15.3,0,23c0,1.7,0.5,3.6-1,5"/>
	<path class="st1" d="M640.4,457c5.3-2.2,12.2-1,17.6-1.3c10.1-0.5,20.3,0.2,30.5,0.3c2,0,4.1-0.4,6-0.3c4.9,0.3,10.2-1.3,13.8,4.7
		c2.2,3.6,6.8,5.8,10.3,8.6c0.5,0.4,1.4,0.6,1.4,1c0.8,6.1,5.5,4.5,9.1,4.4c5.2-0.1,17.9,1.7,15.5-3.4"/>
	<path class="st1" d="M859,1162.8v17.7c-4.5,0-9.5,0.5-13.5,0.5"/>
	<path class="st1" d="M650.5,666.5h-28"/>
	<path class="st1" d="M540,817.5c1.1,9.3,0.3,22.9,0.6,32.2"/>
	<path class="st1" d="M533,819.5c-0.2,9.3,0.5,18.7-0.5,28"/>
	<path class="st1" d="M995.2,1505.8c-0.8,8.2-0.4,21,0.2,29.2c0.1,1.6,1.3,3.7-0.9,5"/>
	<path class="st1" d="M990.5,487c-0.2-2.5,0.8-4,3.5-4h12c0,11.8,0.1,23.2-0.1,34.5c0,3.3-3.3,4.9-7.9,4.5c-5.1-0.5-6.5,0.7-6.5,6
		c0,2.2-0.7,4.4,0.5,6.5"/>
	<path class="st1" d="M587.5,450.5c-2.4-4.7-1.8-9.6-1-14.5c0.1-0.8,1.2-1.6,0-2.5c-4.2-3-1.7-7.8-3.4-12h-23
		c-0.3,7.3,0.4,14.2-0.6,21"/>
	<path class="st1" d="M543,1249c0.9,10.3,0.5,32,0.5,31.8"/>
	<path class="st1" d="M639.5,457c-8.9-2.1-18-0.4-27-1"/>
	<path class="st1" d="M434.5,540.5c-0.6,2.3-2.6,1.4-4,1.5c-5.3,0.1-10.7,0-16,0.1c-1.8,0-4.2-0.8-4,2.5"/>
	<path class="st1" d="M1000.5,1049.5c-1,6.5-1.5,13-1.5,19.5c0.2,6.3,0.8,12.7,0,19c-0.3,2.1,0.3,4.3,0.4,6.5"/>
	<path class="st1" d="M988,793.5V820"/>
	<path class="st1" d="M803.5,1319.5c-3.4,0-4.5,1.9-4.5,5c0,8,0,16,0,24c-7.7,0.6-15.3,0.8-23,0.5c-1.5,0-4.6,0.8-4-1.8"/>
	<path class="st1" d="M673,664.5c0.8,8.8,1.8,36.2,1,45"/>
	<path class="st1" d="M560,499.1v-7.4c-8.8,2.2-17.8,0.3-26.5,2.2"/>
	<path class="st1" d="M339.1,1511.9c0,11.3,0.7,34.3,0.7,45.6"/>
	<path class="st1" d="M560.5,891.5h28"/>
	<path class="st1" d="M1006.5,1573.5c-3.5-0.2-3,2.4-3,4.5c0,7.7,0,15.3,0,23"/>
	<path class="st1" d="M694.9,1658.4c7.5-0.3,22.2,1.2,29.6,0.1"/>
	<path class="st1" d="M975.5,1603.6c0.8,1.2,2.1,3.9,1.4,4.8c-2.6,3.5-1.2,7.4-1.4,11.1c-5,1.5-10.2,2.2-15.5,2"/>
	<path class="st1" d="M990.5,1222c-1.9,2.2-0.5,4.7-0.5,7c-0.2,8.5,0.2,17,1,25.5"/>
	<path class="st1" d="M731,1333.5c0,4.8,2.3,7.6,1.6,10.6c-5.6,2.1-14.5,0.2-20,2.5"/>
	<path class="st1" d="M650.5,666.5c2.7,1.4,14.8,0.1,17.2,1.4c2.5,8.9,2.1,21.8,1.3,30.6"/>
	<path class="st1" d="M691,315.5c-9.8,1.1-19.7-0.9-29.5,0.5"/>
	<path class="st1" d="M910.5,747.5h-26"/>
	<path class="st1" d="M477,1631.5c3.9,8,6.2,20.7,9.8,28.8"/>
	<path class="st1" d="M581.5,1630c2.7,7.5,2.4,15.6,5.5,23c0.3,0.7,0.1,7.5,0.1,8.3"/>
	<path class="st1" d="M383.5,451c-3.9,1.7-35,0.3-39,0.4c-4.9,0.1-5.6,0.4-5.5,5.1c0.2,5.8-1.2,11.6-0.1,17.5
		c0.4,2.2-1.4,3.1-6.4,3.5"/>
	<path class="st1" d="M213.5,1467l-29,1"/>
	<path class="st1" d="M917.5,1179.5l-49,1"/>
	<path class="st1" d="M405.5,1440c14.3,0,28.7-0.1,43,0.1c1.8,0,4.3,1.1,5.3-0.2s-1.4-6.1-1.9-7.9"/>
	<path class="st1" d="M939.5,1492c0,7.2,0,14.3,0,21.5c0,1.4,0.7,3-1,4"/>
	<path class="st1" d="M407.3,1660.9c-8.5-0.8-18.3-0.8-26.8-0.9"/>
	<path class="st1" d="M604.5,1000.5c-4.2,2-9.7,1.2-14,1.5c-3.8,0.2-7.7,0-11.6,0c-0.9,3.9-1.9,7.3-6.4,7.5"/>
	<path class="st1" d="M560.5,506.5c-5,2.5-6.5,6.1-5.8,12c0.9,7.1,0.8,14.4-0.2,21.5"/>
	<path class="st1" d="M213.5,1518.5h-36"/>
	<path class="st1" d="M798,1331h-25"/>
	<path class="st1" d="M727.5,336.5c-2.3,8.1-2.3,8.1-10.5,8c-3.7,0-7.3,0-11.3,0c-0.8,5.6,0.5,20.4-0.7,26"/>
	<path class="st1" d="M674,616.5c0.8,8.3,0.8,16.7,0,25"/>
	<path class="st1" d="M762.3,1320.5c-4.3-5.2-9.8-8.7-16.8-7.6c-5.2,0.8-7.5,2.9-7.5,8.1c0,4.2-0.4,8.5,1.5,12.5"/>
	<path class="st1" d="M528.5,449.5c0.3,4.4,3.2,6.6,7.5,6.6c6.5,0.1,13,0.6,19.5,1.5c1.7,0.2,3.4-0.1,5-0.8c2.3-0.8,3.3-3.1,1-4.7
		c-2-1.3-1.9-7.8-1.9-9.6"/>
	<path class="st1" d="M967,1028.5c1.1,8.3,0.1,20.8,2,29"/>
	<path class="st1" d="M398.1,1411.7c-8.2,0.1-20.5-0.7-28.6,0.3"/>
	<path class="st1" d="M864.5,1113.5c7.8,0.3,15.7,0.8,23.5,0.8c1.4,0,3.5-0.3,4.7,0.1"/>
	<path class="st1" d="M900.5,1621v-16.9c-9-0.4-17.5,1.2-26-0.1"/>
	<path class="st1" d="M985,491.5c1.1,6.3,0.2,12.7,0.5,19c0.1,1.8,0.5,9.6,1,11.7"/>
	<path class="st1" d="M1033.5,1634.5h-0.2c-8.7,0.6-17.5,0.7-26.1,0.5"/>
	<path class="st1" d="M995,1065c-5.3-1.5-10.6-3.3-16-4.4c-3.4-0.8-6.7-1.9-10-3.1"/>
	<path class="st1" d="M183.5,1606.5c-0.3,4.6-0.3,2.7,0.1,6c8.4,0,22.2-0.1,30.7,0"/>
	<path class="st1" d="M495.5,541l-8.6,1.7c-1.6,4.7-1.8,10.1-5.4,14.3c-2.2,2.5,0.1,6-2.3,8.7c-1.1,1.2-1.6,1.9-3.2,1.9
		c-3.8,0-25.2,0-29,0"/>
	<path class="st1" d="M993.2,1380.2c-8.4,3.4-13.6,5.4-18.2,4.9c-3.1-0.3-1.8,2.5-2.1,4.3s1.4,4.3-1.4,5.5"/>
	<path class="st1" d="M997.5,1317c9.3-0.2,18.7-0.3,28-0.5c2.3-0.1,3.1-1,9.2-1"/>
	<path class="st1" d="M426.5,315c-6.3,1.1-12.7,0.2-19,0.5c-2.4,0.2-4.8,0.9-6.9,2"/>
	<path class="st1" d="M694.5,1215.5c-1.4,0-2.9,0.5-3,2c-0.3,9.7-2,57.6-2,67.2"/>
	<path class="st1" d="M539.5,540.5c-3.4,5.7-16.1,12.5-22,12.1c-2.7-0.2-5.1-0.5-7-2.6"/>
	<path class="st1" d="M543.5,1158.5c0.8,0.2,9.7,3.4,10.5,3.5c6.7,1.1,8.2,2.6,8.5,9c0.2,5.2,0,10.3,0,16l22-1"/>
	<path class="st1" d="M796.8,469c-7.1,1.5-18.6,0.9-25.8,1c-0.8,0.1-1.7,0.2-2.5,0.5"/>
	<path class="st1" d="M487.5,430.5c-2.2,4.6-0.8,11.7-1.9,16.5c-0.4,1.7,0.7,1.3,2.9,1.6c2.1,0.4,4.2,0.7,6.3,0.9"/>
	<path class="st1" d="M1006.5,1549.5c1.1,12.7,0.8,26.3,0.9,39c0.3,4.5,0.3,8.9,0.1,13.4"/>
	<path class="st1" d="M252.5,1508c-7.7-0.8-17.6-0.3-25.2,0.5"/>
	<path class="st1" d="M533.5,910.5c0,6.3,0,18.6,0,25c0,1.6,0.7,3.6-1.5,4.5"/>
	<path class="st1" d="M205.5,1633c-8.7,0.1-19.4,0.1-28,1"/>
	<path class="st1" d="M311.5,381.5v28"/>
	<path class="st1" d="M989.5,578.5v24.9"/>
	<path class="st1" d="M770.7,324c-9.3,1.5-22.9,0.9-32.2,1c-7.6,0.1-7.6,0-9.5,7.5c-0.3,1-1.2,3-1.5,4"/>
	<path class="st1" d="M174.6,1448c0.1,4.1-0.9,3.9,2,7.5c0.8,1,0.5,2.1,0.4,3c-1.1,12.2,1.1,24.3,0.5,36.5
		c-0.4,7.8-0.4,15.7,0.1,23.5"/>
	<path class="st1" d="M451.5,331.5c0.1-2.6,1.6-3.1,4-3.1c8.3,0.1,16.7,0.1,25,0c1.8,0,3.7-0.3,5.5-0.5"/>
	<path class="st1" d="M987.5,1062.8c0.3,4,0.2,26.7,0,30.8"/>
	<path class="st1" d="M361,350.5c-6.4-2.2-13-0.3-19.5-0.9c-1.6-0.1-2.6,1.3-2.6,3.4c0,5.8-0.3,11.7-0.4,17.5"/>
	<path class="st1" d="M530.9,909.1c1.1,5.6-0.8,18.3-0.4,23.9c0.1,1.8-0.6,7.2,0.4,9"/>
	<path class="st1" d="M583.5,503c-7.7-1.5-16.5-3.6-23,3.5"/>
	<path class="st1" d="M732.5,1344.5c1.1,2.7,0.7,6.3,1,8.9c-4.9,2-9.6,0.4-14,1.6"/>
	<path class="st1" d="M674,641.5c-0.2,7.3-0.8,15.7-1,23"/>
	<path class="st1" d="M910.3,776c-7.3,0-15.5,1.2-22.8,2"/>
	<path class="st1" d="M855,323.5c4.1,3.8,3.7,9.3,4.7,14.1c0.9,4.2,14.4,5.1,17.3,4.9"/>
	<path class="st1" d="M936.5,566c6.3,0.8,12.6,1.2,19,1.1c4.8-0.2,5.8,0.8,5.5,5l16.5,2.9"/>
	<path class="st1" d="M472.8,1417c-7.2,0.6-15.7-0.2-22.9,0.3c-4.6,0.3-3.5-3.3-3.5-10.8"/>
	<path class="st1" d="M862.4,1067.6c0.8,7.3,0,25.8,0.1,33.3"/>
	<path class="st1" d="M1011,322.4c-7.3,0-13.7,1.8-21,1.8"/>
	<path class="st1" d="M443,389.5c-1.1,5.6-0.4,11.3-0.5,17c-0.1,8.2,0,16.3,0,24.5c-3.2,0.4-2.7,0.7-5.5-0.8"/>
	<path class="st1" d="M313,482.4c0.8,7.7,0.8,15.4,0,23.1"/>
	<path class="st1" d="M362,404c-0.1,6.9,0.1,12.8-0.4,20.4c0.7,5.8,2.2,7.9,8.3,8.1c3.7,0.1,5.4-0.4,9.1-0.5c1.5,0,3,0.2,4.5,0.4
		V451"/>
	<path class="st1" d="M915.5,963.5c-0.2,8.5-0.5,21-1.5,29.5"/>
	<path class="st1" d="M674,709.5c0.6,4.7,0.3,9.4-0.7,14.1c-1.3,5.9-0.5,12.3-0.2,18.4c0.1,1.5,0.6,8,0.8,9.5"/>
	<path class="st1" d="M868.2,1621.6c-6,1.8-13.7,0.5-19.7,0.9"/>
	<path class="st1" d="M959.5,1603c0.4,2.3-1.2,5.3,1.1,6.9c2.7,1.8,6.2,1.2,9.4,1.1c2.3-0.1,2-7.4,2-8.9"/>
	<path class="st1" d="M509.5,1659.5c-5.7,0.2-11.3,0.3-17,0.5c-2.7,0.1-6-1.2-7,3c-0.3,1.2-1.4,0.4-2,0.5c-3,0.1-6,0-9,0"/>
	<path class="st1" d="M746.5,1319c-2.8,1.5-4.6,3.8-4.5,6.5c0.1,3.1,0.7,6.5,4,7.3c3,0.7,6.6,2.4,9.4-0.9c0.9-1.1,3.7-4.3,3-6.5"/>
	<path class="st1" d="M966.5,1006c0.8,7,1.3,15.5,0.5,22.5"/>
	<path class="st1" d="M962.5,747.5h-21"/>
	<path class="st1" d="M530,603.5c-0.3,8.3,0.5,24.1,0.5,32.6"/>
	<path class="st1" d="M357,1513.5c11.9,0.5,26.5-0.3,37.3,0"/>
	<path class="st1" d="M973.5,1321c-2.3,3-1,6.4-0.9,9.5c0.2,5.2-1.4,10.5,0.9,15.5"/>
	<path class="st1" d="M532.5,1063c10.1,0,18.9,5.1,28.5,7c0.6,1.8,0,3.7,0,5.5"/>
	<path class="st1" d="M535,1034c-0.2,7.5-0.4,15-0.5,22.5c0,2.2,0.3,4.3,0.5,6.5"/>
	<path class="st1" d="M899,331.5c-0.8,2.8-2.2,6.7-3.2,10h-11.3"/>
	<path class="st1" d="M673.5,615.5c-0.5-2-2.2-1.4-3.8-1.5c-1.1,8.2,0.7,16.4-0.8,24.5"/>
	<path class="st1" d="M647.5,1215.5c-6.6,1.6-32.3,1.3-39,1.5"/>
	<path class="st1" d="M1000.2,1471.4c-3.3,0.8-19.2,5-22.8,4.7c-2.1-0.2-2.2,1.2-2.6,2.9c-0.5,1.9-0.1,3.7-0.4,5.5"/>
	<path class="st1" d="M1129.1,913c7.7-1.4,16.8-1.8,24.4,0"/>
	<path class="st1" d="M422,408.5c0.7,5.8,0.8,11.7,0.1,17.5c-0.2,1.5-0.3,4.3,1.4,5.5"/>
	<path class="st1" d="M585.5,498c-6.7-2.1-18.8-1.2-25.5,1.1"/>
	<path class="st1" d="M990,456.5c0.2,5.8,0.4,11.7,0.5,17.5c0.1,3.1-0.1,6.2,1.5,9"/>
	<path class="st1" d="M965.5,611.5c-2.4-0.4-3,0.8-3,3c0.1,6,0.2,12,0,18c-0.1,3.4,10.9,6.1,13.1,6"/>
	<path class="st1" d="M362.5,543.5c-5.3-2.4-11.3-2.4-16.4-1.2c-5.7,1.4-6.1-2.3-6.6-5.8"/>
	<path class="st1" d="M564.9,1013.3c-2.8,1-5.5,3.5-5,6.7c0.4,2.2,0.2,4.4-0.5,6.5c-1.8-0.7-9.5,3.3-13,4"/>
	<path class="st1" d="M424,1441c-0.1,8.3-0.5,16.2-0.5,25c0,0.5,0.3,31.1,0.5,31.6"/>
	<path class="st1" d="M544,1372.3c0.3,7.5,1,22.2,0,29.7"/>
	<path class="st1" d="M772.2,967.8c-7.7,0.2-40,1-47.7,1.2"/>
	<path class="st1" d="M348.5,1451c0,3.2,0,6.3,0,9.5c0,4.6,2.4,6.3,8,5.4c3.8-0.6,3.2-3.3,2.5-6c-0.9-3.2,0.9-6.3,0.5-9.5"/>
	<path class="st1" d="M971,1264.5c1.2,4.5,0.2,9,0.5,13.5c0.1,2-0.1,3.9,2,5"/>
	<path class="st1" d="M898.2,1073.7c-0.9-1.6,0.1-4.4,0.3-6.2c0.4-3,1.2-5.8,0.7-9c-0.4-2.1,1-4.1,3.1-4.4c0.2,0,0.5-0.1,0.7-0.1
		c8-0.5,16-1.6,24-1c3.7,0.3,7.1,0.2,6.6-5l-35,0.5"/>
	<path class="st1" d="M369.5,1417c9.8-0.1,19.7,1,30-0.1c-0.5,5.3,5.1,18.7,6,23.1"/>
	<path class="st1" d="M470.8,1410.4l-24.3,0.7"/>
	<path class="st1" d="M298.5,1508c7.2-1.9,21.4-3.8,28.5-2c3.6,0.9,11.3,6.2,15,7"/>
	<path class="st1" d="M1049.5,1045.5c3-0.8,7.8-1.6,8.7-0.3c3.8,5.6,8.9,2.4,13.3,3.3c1.4,0.3,2.6-0.3,2.4-1.5
		c-0.6-4.2,2.1-8.9-1.9-12.5c-1.4-1.2-0.9-2.7-0.9-4c-0.2-3.5,0.6-10.1-0.3-13.5"/>
	<path class="st1" d="M1017.7,1035.9c-7-0.9-11.2-0.3-18.2-0.4"/>
	<path class="st1" d="M725,468c-6-4.1-11.6-12.4-18-16"/>
	<path class="st1" d="M469.6,1406.4c1.8,7.6,7.9,22.5,7.9,30.6"/>
	<path class="st1" d="M365,1436.4c-1,1.8-4,3.9-6.5,3.8c-4.3-0.2-13.5,3.2-17.5,6.3"/>
	<path class="st1" d="M744.5,471c-6.1-1.3-13.5-0.5-19.5-3"/>
	<path class="st1" d="M983,717.5c-0.8,6.1-3.8,9.4-3,15.5"/>
	<path class="st1" d="M437.3,430c1.9-3.2,0.6-9.2,0.3-12.3H432c0.1,3.1-1,9.6,0.2,12.5"/>
	<path class="st1" d="M636.5,752.5c-2.5,1.3-10.6-0.2-13,2.5c-0.5,8.5,0.1,20.5-1,29.5"/>
	<path class="st1" d="M532.5,1278.5v48.9"/>
	<path class="st1" d="M859.3,1162.8c2.2-0.2,4.7-0.8,4.3,2.7c-0.3,4.2-0.3,8.3,0,12.5c0.1,2.1,1.3,2.7,5.4,2.5"/>
	<path class="st1" d="M933,1036c-2.2-4.7-6.6-3.1-10-2.8s-6.4-1.7-11.8-0.8"/>
	<path class="st1" d="M867,1493.5c1.2,5.8-1,27.2-0.5,33"/>
	<path class="st1" d="M341,1446.5c-1.9,4.9-1.5,10-1.5,15c-0.1,5.3-13.1,10.4-18.5,10.8"/>
	<path class="st1" d="M301.3,1568.5c-7.7,0.2-45.1-0.2-52.8,0"/>
	<path class="st1" d="M394.5,329c2.9,1.4,6-0.1,9.5,0.7c0.9,6.9,2.4,13.6,4.7,20.2"/>
	<path class="st1" d="M940,327.5c0.4,3.2,3.9,11.6,7,11.6c3.5-0.1,7.2-0.6,10.5,1.4"/>
	<path class="st1" d="M999.5,1093.6c1,10.4-0.8,23.3,0.9,33.4c0.2,1.1-1.9,3.7-6.4,5.6"/>
	<path class="st1" d="M1148.5,936.5c-6,0.3-13.5-0.5-19.5,0.5"/>
	<path class="st1" d="M915.5,963.5c-1.1,0.7-2.2,0.6-3.5,0.6c-6.5-0.1-19-0.8-25.5,0.4"/>
	<path class="st1" d="M974,1551.5c3.1,3.9,0.5,8.3,0.9,12.5c0.2,1.8,0.1,3.7,1.3,5.2"/>
	<path class="st1" d="M998,1064.5c-2.6-0.3-4.1,1-3.4,3.5c2,7.8,0.3,15.7,0.9,23.5"/>
	<path class="st1" d="M1001.5,1507c-5.7-1-12.2-2.6-18.8-3.2"/>
	<path class="st1" d="M864,1116.5c1,3-0.8,13-0.4,16c-3.6,1.2-5.8,0.5-6.6-3"/>
	<path class="st1" d="M1173.5,913.5c-3.1-3.2-8-0.6-11.5-0.9c-2.8-0.2-5.6,0.7-8.5,0.4"/>
	<path class="st1" d="M532,1125.5v120"/>
	<path class="st1" d="M339.5,432.5c0-4.3,0-11.7,0-16c0-1.4-0.6-3.6-3-3.5"/>
	<path class="st1" d="M903.8,1030c10.9-0.8,21.8-0.8,32.7,0"/>
	<path class="st1" d="M177.5,1606.5c0,5.7,0,21.8,0,27.5"/>
	<path class="st1" d="M539.5,540.5c2.3,0.7,4.4-0.6,6.5-1.1c7.6-1.6,10.3,4.3,13.9,8.7c0.6,0.7,0.1,2.3,0.1,3.4
		c-0.2,8.7-0.3,14.5-0.4,23.2"/>
	<path class="st1" d="M591.6,449.9c-0.7,2,1.9,3.7,0.8,6.1h-11.9"/>
	<path class="st1" d="M962.5,351c8.2,2.3,17.8,5.5,26.5,4.8"/>
	<path class="st1" d="M975.5,1603.5c0.2-1.6-1.4-1.4-2-1.4c-11.8-0.1-23.7-0.1-36.1-0.1c0.6,6.8-1.4,13.2,0.6,19.5"/>
	<path class="st1" d="M732.5,1311.5c-1.8,3.2-1,6.6-1,10c-0.1,4,0.7,8-0.5,12"/>
	<path class="st1" d="M394.5,329c-5.4,1.6-20.1-0.3-25.5,1"/>
	<path class="st1" d="M213.5,1626.5c-6.1-0.6-12.3-0.7-18.5-0.4c-3.8,0.2-7.7,0.2-11.5,0.4"/>
	<path class="st1" d="M418.5,408.5c-0.1,6.3,0.2,16.8-0.6,23.1"/>
	<path class="st1" d="M694.5,328.5c0.7,5.5,2.2,10.9,4.5,16"/>
	<path class="st1" d="M998,1460.5c0,3.7-0.5,6.9,1.5,10c2.2,1.5,2.4,0.4,8,0.2"/>
	<path class="st1" d="M421.7,1608.5c-0.6,7.7,0,16.6-0.3,22"/>
	<path class="st1" d="M272.5,1507c-6.7-0.1-13.4,0.2-20,1"/>
	<path class="st1" d="M622,1641.5c-1.3,4.3-2.8,8.6-4,13c-1.1,3.9-2.8,2.7-8.8,3"/>
	<path class="st1" d="M1129.8,924.7c3.8,0.6,7.3,0,10.8-0.7"/>
	<path class="st1" d="M709.5,1382.5c0.8,5.3,1.3,14.2,0.5,19.5"/>
	<path class="st1" d="M762.5,1320.5h9.5v27"/>
	<path class="st1" d="M898,1033.5c0,3.7,0,13.3,0,17c0,1.8-0.4,4,2.5,4"/>
	<path class="st1" d="M758.5,1325.5c-1.4-6.8-5-9.1-12-6.5"/>
	<path class="st1" d="M1048.5,915c2.8,2,6,0.7,9,1s3,2.1,3,6.1"/>
	<path class="st1" d="M933,1098.8c-4.5,0.5-9,0.7-13.5,0.6c-2.2,0-4.1-0.1-4,3c0,3.5,2.8,2.7,4.6,2.9c2.8,0.3,10.2-0.2,13-0.4"/>
	<path class="st1" d="M768.5,310.5c1.2,10,3.4,19.9,6.5,29.5"/>
	<path class="st1" d="M933,1068.5c-3.9,3.1-8.5,2.6-13,2.5c-5.7,0-11.4,0.3-17,1c-4.6,0.5-5.8,0.2-4.1,5"/>
	<path class="st1" d="M339.5,520.5v16"/>
	<path class="st1" d="M673.5,450.5h-20"/>
	<path class="st1" d="M974.8,1166.5l19.2-3.5"/>
	<path class="st1" d="M540,518.5c-3.3,1.7-6.6,3.4-10,5c-2.3,1.1-4.3,0.5-6.7-1.6c3.7-2,10.8-5.5,14.2-8.2"/>
	<path class="st1" d="M562.5,1239.5c-0.2,2.8-1.9,5.6-4.5,6.1c-3.8,0.7-8.8,0.2-12.5,1.9"/>
	<path class="st1" d="M447.5,1416.8c0.8,5.3,3.2,11.6,5,16.7"/>
	<path class="st1" d="M903.9,1092h28.6"/>
	<path class="st1" d="M989.5,641.5V670"/>
	<path class="st1" d="M969.5,1098.5c-1.9,0.6-1.5,2.2-1.5,3.5c0.1,6.7-0.2,13.3,0.4,20c0.2,2.5,1.8,2.9,3.6,3.5
		c3.2,1.1,6.3,2.3,9.5,3.5"/>
	<path class="st1" d="M901.9,1560.4c-0.5,5.1,0,10.3,1.4,15.2c0.8,2.4,1.8,2.6,3.7,2.4"/>
	<path class="st1" d="M911.5,747.5c-2.5,4.5-1,9.4-1.2,14s0.3,9.7,0,14.5"/>
	<path class="st1" d="M560.5,506.5c1.6,5.2-1.4,11.9-1,17c0.2,3.7-0.5,8.3-0.5,12"/>
	<path class="st1" d="M952.5,1550.5c-5.8-0.4-11.7-0.2-17.5,0.7c-6.9,0.8-13.7,0.7-20.5,0.8c-3.3,0-7.7,2-11,0"/>
	<path class="st1" d="M602.5,662.5h-19"/>
	<path class="st1" d="M545.5,1247.5c-1,0.5-2,0.8-3,1c-7,0.4-7.1,0.4-7,7c0.1,3.3-0.6,6.7,0.5,10"/>
	<path class="st1" d="M927.5,1553v23.5"/>
	<path class="st1" d="M1177.5,1012.5v15"/>
	<path class="st1" d="M1165.4,923.5c-5,0-19.9,0.5-24.9,0.5"/>
	<path class="st1" d="M866.5,1526.5v15"/>
	<path class="st1" d="M214.4,1461.4c-9.3,0.9-21.8,0.1-31.1,0.4"/>
	<path class="st1" d="M904.5,1030c-4.6,0-9.6-0.5-13.6-0.7c-1.2-0.1-0.6,3-0.4,4.2"/>
	<path class="st1" d="M874.5,1398.4c-5.7-0.1-11.5,0.4-19-0.4"/>
	<path class="st1" d="M985.5,1095c-4.8,1.8-11.2,1.4-16,3.5"/>
	<path class="st1" d="M596,327c-4.8,1.1-29,0.3-33.8,0.6"/>
	<path class="st1" d="M709,1375.8c9.2-0.3,29.4-0.8,38.5-1.1"/>
	<path class="st1" d="M531.8,1109.5c0.4,4.5-0.9,11.5,0.2,16"/>
	<path class="st1" d="M533,699.5v28"/>
	<path class="st1" d="M560.5,952.5c2.7,5,8.6,11.5,12,16"/>
	<path class="st1" d="M990,324.5c-0.3,6.3-0.7,26.7-1,33"/>
	<path class="st1" d="M298,1506.5c0,2.5,0.5,6.5,0.5,9l8,1"/>
	<path class="st1" d="M532,1245.5c-0.5,6.5-0.5,26.5,0.5,33"/>
	<path class="st1" d="M987.1,425.4c-1.1,4.6-0.8,25.4-1.1,30.1"/>
	<path class="st1" d="M459,316c-3.7,3.1-6.4,6.7-5.5,12"/>
	<path class="st1" d="M537.2,1373.5c-0.5,3,0.8,15.2-0.6,26.8"/>
	<path class="st1" d="M561.6,1117.4c-4.4,2.3-15,7.1-19.6,8.7"/>
	<path class="st1" d="M559.5,574.7c-3.3-1.9-11.7-0.3-15.5,0.2v7.7"/>
	<path class="st1" d="M339.5,1616.5v14"/>
	<path class="st1" d="M336.5,413l-14-2"/>
	<path class="st1" d="M914,993c-10.3,0.3-18.2,0-28.5,1"/>
	<path class="st1" d="M599.5,516.8c2.5,4.6,2.2,13.2,0,18"/>
	<path class="st1" d="M762,1335.5c-2.8,3.4-6.3,9.3-10.1,11.8"/>
	<path class="st1" d="M1152.7,1012.5h-21.2"/>
	<path class="st1" d="M993.7,522.3c-4.7,1-21.6-2.3-26.2-1.3"/>
	<path class="st1" d="M559,590.2c0.3,2.8,0.5,5.5,1,8.2c0.6,3.1-29.1,10.8-29.9,12.4"/>
	<path class="st1" d="M389.4,1553.1c0.2-3.5-0.9-4.9,0-8.1c0.1-2-2.5-2.7-4.9-2"/>
	<path class="st1" d="M364.9,1436.6c1.8-0.1,1.7,1.2,1.6,2.4c-0.3,3.7-0.9,7.5-1.4,11.1c-0.6,4.8-0.6,9.6,0,14.4
		c0.2,1.1,0.3,2.2,0.3,3.3"/>
	<path class="st1" d="M609.5,313.5c-4.5,0.3-12.3-1.3-16.8-0.1"/>
	<path class="st1" d="M533,609.5c0.1,7.2,0,19.4,0,26.6"/>
	<path class="st1" d="M903.9,1492.7c-0.8,8.3-0.9,16.6-0.2,24.8c0.2,3.4-0.1,7.3-0.1,11c0,1.7,0,0.7,0,4.3"/>
	<path class="st1" d="M547,529.5c0.2-2.8,0.4-5.7,0.5-8.5c0-2,0.3-3.8,3-4.7v22.8"/>
	<path class="st1" d="M515.5,1643.5c-1.5,4.3-3.5,9.7-5,14"/>
	<path class="st1" d="M417.9,431.6c-0.5,3.7-7.2,2.4-7,4.4c0.6,4.3-1,9.4,1.6,13.5"/>
	<path class="st1" d="M219.5,1630c0.3,2.3-0.6,3-3,3c-2.6,0-9.3,0-12-0.1"/>
	<path class="st1" d="M627.5,451c-5,1-10,0.4-15,0.5"/>
	<path class="st1" d="M886.5,964.5h-13"/>
	<path class="st1" d="M556.5,733c-4.3-1-21.9-4.8-26.2-5.8"/>
	<path class="st1" d="M602.5,514c4.5,4.5,1.1,19.2,0,23.5"/>
	<path class="st1" d="M1181,967.5c0,4.3,0.5,9.7,0.5,14"/>
	<path class="st1" d="M601.5,972h-26"/>
	<path class="st1" d="M338.5,370.5c-4.5,0.2-9.4,3.6-14,3"/>
	<path class="st1" d="M1046.1,1449.8c0,4.3,0.4,10.4,0.4,14.7"/>
	<path class="st1" d="M451.5,331.5c-1,4.3-2.5,9.7-3.5,14"/>
	<path class="st1" d="M1060.5,921.5v23.9"/>
	<path class="st1" d="M543,518c0.8,4.2-0.3,17.8-1.1,22"/>
	<path class="st1" d="M997,1224c0,7.5,0,22.5,0,30"/>
	<path class="st1" d="M585,437c-7.9-1.1-8.2-0.9-7,5.5"/>
	<path class="st1" d="M654,451c-5,0.4-21.5,1.1-26.5,0"/>
	<path class="st1" d="M775,340c1.2,3.9,3.4,3.5,5.5,3.5c4.7,0.1,9.3-0.1,14,0.4c2,0.2,2,1.2,2,2.6"/>
	<path class="st1" d="M741,1365.5c2.8,3.4,3.1,6.3,6.5,9.2"/>
	<path class="st1" d="M541,928.5c-0.5,4.4-1.3,10.3,0.6,14.6"/>
	<path class="st1" d="M1048.5,903.8c-3.3,0.2-33.7,2.9-37,3.2c-2.8,0.3-13.7-1.3-15.5-3.5"/>
	<path class="st1" d="M941.5,1602v8c10.5,0.5,10.5,0.5,10.5-7"/>
	<path class="st1" d="M540,697c1,7.8-0.3,23.2,0,31"/>
	<path class="st1" d="M982.2,488.4c6-1.2,17.8-0.3,23.8,0.2"/>
	<path class="st1" d="M999.5,1287.5c-5.2,0.7-10-1.4-15-2.5"/>
	<path class="st1" d="M440.5,535.5c0.9,3-0.2,7.7,1.6,9.9c1.1,1.3,1.4,4.3,2.1,5.6"/>
	<path class="st1" d="M903.5,1621.5c1.2,4,2.8,9,4,13"/>
	<path class="st1" d="M970,1547.9c0-2.2,0-4.5,0-6.8c-2.8-1-5.7-0.2-8.5-0.5c-1.9-0.2-2.8,5.3-2.5,7.3"/>
	<path class="st1" d="M985,491.5c-1-2.8-4-3-6-3.5c-1.8-0.4-12.1-2.7-13.9-3"/>
	<path class="st1" d="M862.5,1100.2c0.3,5,1.2,11.2,1.5,16.2"/>
	<path class="st1" d="M817.6,310.1c-0.5,4-1.2,27.8-8.1,31.9"/>
	<path class="st1" d="M994,1162.1c0-2.3-0.5-27.3-0.5-29.5c-1.7-0.6-10.3-3.1-12-3.6"/>
	<path class="st1" d="M495.5,541c3.9,2.5,10.9,6.1,15,9"/>
	<path class="st1" d="M769,818.5c-4,0-11,1.2-15,1.2"/>
	<path class="st1" d="M978.5,608c-3.8,1.6-8.8,3.4-12.8,3.5"/>
	<path class="st1" d="M536,1265.5c0,4,0.6,10.5,0.6,14.5"/>
	<path class="st1" d="M544,582.5c-0.1,9.8-0.1,9.8,10,9.5c1.8-0.2,3.5-0.9,5-1.8"/>
	<path class="st1" d="M560.5,952.5v-5.9c-2-0.5-3.5-0.5-7-1.6"/>
	<path class="st1" d="M575.5,422.5c0.1,3.5-2.3,6.9-0.1,10.3c-2.3,2-4.7,0.9-6.9,1.2"/>
	<path class="st1" d="M356.7,432.5h-17.2"/>
	<path class="st1" d="M739.5,1333.5c2.7,3.4,7.8,11.7,12,13.8"/>
	<path class="st1" d="M866.8,1472c-1.4,3.8,0.3,17.7,0.2,21.5"/>
	<path class="st1" d="M873.5,964.5c-5,0.8-26.5-0.5-33,0.5"/>
	<path class="st1" d="M873,1492.5c1,0,3.9,0,4.6-2c0.5-1.5-2.8-2.5-4.6-3"/>
	<path class="st1" d="M718.6,572c-3.5,3.1-3.7,7.7-1.6,12"/>
	<path class="st1" d="M730.5,310.5c-5.7,0.6-33.8-0.1-39.9,0.5"/>
	<path class="st1" d="M1022.5,1470c-6,0.4-10.2,0.4-17.8,0.9"/>
	<path class="st1" d="M453.8,1406.5h-29.3"/>
	<path class="st1" d="M989.5,704.8c-1.1,6.5,0,24.8-0.5,31.3"/>
	<path class="st1" d="M553.5,945c-3.4-2.1-19.1-1.7-22.5-3.5"/>
	<path class="st1" d="M1131.5,1007c-0.7,6.3,0.3,25.6-0.2,32c-0.2,1.9-1.1,4,0.2,6.5h15.1"/>
	<path class="st1" d="M364,1450c-7.7,0.1-15.4-0.3-23,0.5"/>
	<path class="st1" d="M564.5,1405.1c-3.7-0.8-28.1-4-31.7-4.9"/>
	<path class="st1" d="M832.5,1341.5c-3.7,0-12.1-0.1-15.6-3.6"/>
	<path class="st1" d="M686.2,1626.3c1.8,4.2,7.6,27.8,8.6,32.2"/>
	<path class="st1" d="M918.5,1060c-3.7,0.1-15.2-0.8-18.8,0.3"/>
	<path class="st1" d="M362.5,543.5c1,3.7,2.5,8.3,3.5,12"/>
	<path class="st1" d="M559.5,688.5c-3.6,1-8,5.4-12,5.5"/>
	<path class="st1" d="M1046.4,1469.5c-3.7,0-20.3,0.5-24,0.5"/>
	<path class="st1" d="M985.5,1319.5c-3.7,0-8,0.9-12,1.5"/>
	<path class="st1" d="M816.9,1314.6c-4.4,3-9.4,10.9-5.8,16.3c2,2.7,4.1,5.2,6.3,7.6"/>
	<path class="st1" d="M992.1,1540.7c-2.3-3.5-6.3-7.8-12.6-5.2"/>
	<path class="st1" d="M339.5,1630.5c3.4,3.1,7.5,1.6,11,1.5"/>
	<path class="st1" d="M999,1351.5c1,5.6,0.4,11.3,0.5,17c0,0.8-0.2,10.2,0,11"/>
	<path class="st1" d="M714.4,1357.6c-2.7,1.3-14.7,2.6-17.5,2.4"/>
	<path class="st1" d="M733.5,1353.4c1.5,3.6,4.8,9.3,7.5,12.1"/>
	<path class="st1" d="M992,671.5c-4.5-1.9-9.3-1.2-13.3,0.4c-2,0.8-14.2,2.9-15.7,5.1"/>
	<path class="st1" d="M1006.5,1602c-4.2,0.1-8.4-0.7-12.6,1.4c-2.1,1.1-6.1,0.9-8.7,1.7"/>
	<path class="st1" d="M901.5,307.8c-0.8,4.3-1.7,19.4-2.5,23.8"/>
	<path class="st1" d="M1120.5,936.5h-16"/>
	<path class="st1" d="M342.9,1557c-5.2,0.5-5.8,5.1-12.4,6.5"/>
	<path class="st1" d="M307.7,1599.1c4.8,0.7,14.5,2.3,19.3,2.9"/>
	<path class="st1" d="M322.5,411c-2.8,0.5-12.1-3.1-14-0.6c-0.2,4.1,0.6,7.6-0.5,11.1"/>
	<path class="st1" d="M432.2,430.2c-3,2.8-5.4,0.8-8.7,1.3"/>
	<path class="st1" d="M1001,1254c-4.9,0-9.7,1.3-14.5,2"/>
	<path class="st1" d="M933.5,533.5c1.7,3.2,0.5,29.5,3,32.5"/>
	<path class="st1" d="M979.5,1535.5c-5.4,1.7-1.5,8.4-1.5,11.4"/>
	<path class="st1" d="M681.5,982.5v15.6"/>
	<path class="st1" d="M339.5,520c-3.3-0.7-23.7-5.8-27-6.5"/>
	<path class="st1" d="M339.5,1617.6c-0.4-5.4-3.2-14.1-6-14.7c-2.1-0.4-4.3-0.7-6.5-1"/>
	<path class="st1" d="M366,1491v22.7"/>
	<path class="st1" d="M306.5,1516.5v15"/>
	<path class="st1" d="M342,1513c5,0.4,10-0.7,15,0.5"/>
	<path class="st1" d="M563,1222.5c0,3.3,0.5,7.7,0.5,11"/>
	<path class="st1" d="M178,1591.1c0,4.6-0.5,12.5-0.5,16"/>
	<path class="st1" d="M998.5,1440.5c-0.3,3.3,0.6,16.7-0.5,20"/>
	<path class="st1" d="M1050.5,1045.5c-4.4,0.9-38.6-2.2-42.3,3.3c-0.9,1.3-5.1,0.5-7.7,0.7"/>
	<path class="st1" d="M1043,1315.5h-9.5"/>
	<path class="st1" d="M952.5,1550.5h21"/>
	<path class="st1" d="M535.5,1128v29"/>
	<path class="st1" d="M536,511.5c-3.7-3.2-9.1,3.8-12.7,9.6c-0.3,2.1-1.8-5.6-4-9.5"/>
	<path class="st1" d="M559.5,643.5c-3.7-1-8.3-2.5-12-3.5"/>
	<path class="st1" d="M532.8,1280c4.9-0.2,15.1,2,19.7,3"/>
	<path class="st1" d="M900.9,312.1c3,1,31.6-0.8,35-0.6c0,5.6,3.1,10.5,4,16"/>
	<path class="st1" d="M444,550.5c1.3,3,0.6,6.6,2.5,9.5"/>
	<path class="st1" d="M547,529.5c0,3.2-2.4,6-2.5,9.5"/>
	<path class="st1" d="M371.5,1632.5c0.6,3.2,4.5,16.3,6.5,19"/>
	<path class="st1" d="M960.5,1621.5h-12"/>
	<path class="st1" d="M540.5,615.5c0.7,5.7-1.1,15.8,0,21.5"/>
	<path class="st1" d="M996.5,1317c-3.2,1.5-8.1,1.6-11,2.5"/>
	<path class="st1" d="M959,1575.5c-0.2,2.9-2.5,2.3-4,1.9c-3.2-0.8-6.4-0.3-9.5-0.4"/>
	<path class="st1" d="M730.5,1630.5c0,4.4-3.4,24.6-3.5,27.9"/>
	<path class="st1" d="M594.3,319.1c0.3-1.6,0.6-5.6-0.8-5.6c-2.3,0-33.7,0-36,0"/>
	<path class="st1" d="M485,315.5c0.4,6.5-26.9,2.9-29.1,3.7"/>
	<path class="st1" d="M991.5,1350c-2.7-2.1-15.1-2.8-18-4"/>
	<path class="st1" d="M1051.5,1035.5c-1.7,3-0.9,6,0,9"/>
	<path class="st1" d="M563.5,1286.5c-3.2-0.1-9.5-3.5-14.4-4.3"/>
	<path class="st1" d="M415.6,1635.5c-2.4,4-5.6,13.8-6.6,16.8"/>
	<path class="st1" d="M985.2,1285.2c-3.8-0.7-8.9-1.2-11.7-2.2"/>
	<path class="st1" d="M560.5,810.5c-2.8,1.7-15.4,3.6-19,5.5"/>
	<path class="st1" d="M358,1457l-9,0.5"/>
	<path class="st1" d="M913.8,1032.1c-10.2,1.2-18.4,0.2-23.3,1.4"/>
	<path class="st1" d="M1083.5,1012c-3.7-0.7-13.4,1.9-12.8,5"/>
	<path class="st1" d="M1018,1036.5c0.9,2.8,0.5,5.7,0,8.5"/>
	<path class="st1" d="M540,634.5c0.3,3.5-2.3,2.5-4,2.4s-3.2-1.6-5-0.4"/>
	<path class="st1" d="M681.5,998.1c-3.7,0.3-7.3,1-11,1.4"/>
	<path class="st1" d="M1000.6,1573c-4-0.6-20.5-2-24.4-3.8"/>
	<path class="st1" d="M914.7,1504c-2,4.2-5.2,3.9-7.2,0.5"/>
	<path class="st1" d="M1046.5,1474c-7.5,0.6-35,0.4-39.5,0"/>
	<path class="st1" d="M998.5,1091.5c-4,0.8-8.5,2.1-13.4,3.7"/>
	<path class="st1" d="M426.8,1543.5c0,4.8-3.2,82-2.8,86"/>
	<path class="st1" d="M658.5,1198.5c-1.7,2.6-8.6,14.8-11,17"/>
	<path class="st1" d="M1000.5,1223c-2.9-0.1-5.6,0.4-8.6-1.3c-2.5-1.4-10-1.8-14.6-2.7"/>
	<path class="st1" d="M986.5,1256c-7.1,2-13.8,5.3-15.5,8.5"/>
	<path class="st1" d="M228.5,1508.5H220"/>
	<path class="st1" d="M368.5,1409c0.2,5.6,0.5,11.1-1.5,16.5"/>
	<path class="st1" d="M903.1,1548.1c0.2,4.6-0.3,9.1-1.5,13.6"/>
	<path class="st1" d="M841,1336c-2.7,1.4-5,5.3-8.5,5.5"/>
	<path class="st1" d="M985.5,1605l-8,2"/>
	<path class="st1" d="M424.5,1630.5c-3-0.4-8.3,1.1-11,9.4"/>
	<path class="st1" d="M989,455c-4.2,1.8-8.8,0.6-13,2c-1.2,0.4-3.3,1.2-4.5,1.5"/>
	<path class="st1" d="M330.5,1563.5c-2.4,1.8-7.7,2-10,4"/>
	<path class="st1" d="M443.4,385.4c-4.9-0.6-17.5-1.2-22.4,0.6c-1.6-11.4,19.2-5,22.4-6.5"/>
	<path class="st1" d="M534,494c-2.3,0,0.3,13.7,0.5,16"/>
	<path class="st1" d="M996.5,1572.5v29.9"/>
	<path class="st1" d="M992,534.5c1.5,4.4,0.5,10.3,0.5,13"/>
	<path class="st1" d="M313,505.5c-0.8,1.6-1.3,6.2-0.5,8"/>
	<path class="st1" d="M559,535.5c-1.1,2.4-0.2,5.5-2.5,7.5"/>
	<path class="st1" d="M429,386c1,1.8-2.1,5.4,2.5,5.5"/>
	<path class="st1" d="M939.1,1648.5h-27.6"/>
	<path class="st1" d="M694.5,328.5c0-0.5-3-11-3-11.5c0-6.9,0-6.9-7-6.5"/>
	<path class="st1" d="M530.5,848c5.9,0.1,11.2,2.8,17,3.5"/>
	<path class="st1" d="M992,641c-5.2,1.1-9.8-1-14.5-2.5c-0.7-0.1-1.3-0.1-2,0"/>
	<path class="st1" d="M693.5,1277c1.7,2.9,2.5,6.2,4.9,8.7l-2.9,1.3"/>
	<path class="st1" d="M799.5,575.5c1.6,2.6,1.6,5.9,0,8.5"/>
	<path class="st1" d="M219.4,1605.5c0,4.5-1.1,8.8-0.7,13c0.3,2.5,0.8,8.8,0.8,11.5"/>
	<path class="st1" d="M1006,515.5c-6.4,2.1-11.3,1.3-14.5,1.4c-2.9,0.1-2,0.4-5,0.5"/>
	<path class="st1" d="M547.5,694c-4,1.3-8,2.6-12,4c-1.7,0.6-3.3,0.4-5,0.5"/>
	<path class="st1" d="M848.5,1622.5c-2.3,0.8-7.8,1.8-12,3"/>
	<path class="st1" d="M1005.5,1537.5c-3.3-0.2-6.1,1.6-10.3,2"/>
	<path class="st1" d="M992,704c-1.2,0.8-2.6,1-4,0.6c-1.7-0.5-4.6,3.4-5.5,5.4"/>
	<path class="st1" d="M332.5,477.5c-2.3,0.8-21.7,6.3-24,4.5"/>
	<path class="st1" d="M910.5,1639.5c-1,2.5,0,9,1.4,14.3"/>
	<path class="st1" d="M366,555.5c1,4,3.5,9.5,4.5,13.5"/>
	<path class="st1" d="M521.5,1631c-2.6,2.4-5.7,10.3-6,12.5"/>
	<path class="st1" d="M908.7,1491.6c-2.2,1-2.5,3.4-1.6,5.3c1.2,2.6-1.2,5.1,0.4,7.6"/>
	<path class="st1" d="M572.5,1009.5l-8,4"/>
	<path class="st1" d="M535.4,1629.4c-3.1,0.2-11.6,2.9-13.9,1.6"/>
	<path class="st1" d="M918.5,1060.3c0.2,1.8-2.7,5.9-5.1,5.5"/>
	<path class="st1" d="M546.5,1030.5c-4.9,0.8-9.4,3.5-14.5,3"/>
	<path class="st1" d="M869.5,1031c-3.2-0.5-4.3,0.3-6.5,0"/>
	<path class="st1" d="M708.5,1359.1c0.5,3.7,0,20,1,23.4"/>
	<path class="st1" d="M1002.5,1379.5c-4.8-0.1-9.5,0.7-14,2.5"/>
	<path class="st1" d="M948.5,1621.5c-4.7,0.1-7.3,0.6-6.8,7.3"/>
	<path class="st1" d="M545.5,906c-1,0.3-11.1,4-12,4.5c-1.5,0.9-3.1-1.2-3.1-4.5"/>
	<path class="st1" d="M900.1,1114.4c-0.5-1.8,1.1-5.9-1.7-7.1"/>
	<path class="st1" d="M868,1430.5c0,5.2,0.1,8.7,0,13"/>
	<path class="st1" d="M736,314.1c-2.3,1.1-1.3,10.9-4.2,11.7"/>
	<path class="st1" d="M435.9,384.9c-0.5,2.1-1.5,8.4-4.4,6.6"/>
	<path class="st1" d="M877,342.5c1,1.9,0.3,6.9,0.5,8.8"/>
	<path class="st1" d="M939.3,1639.5c0.7,5.2,0,11.7-1.7,12.7"/>
	<path class="st1" d="M322.9,1472c4.5,4.1,11.5,6.6,15,1.9"/>
	<path class="st1" d="M914.5,1492c0.2,3.8,0.9,8.3,0.2,12"/>
	<path class="st1" d="M726.5,585.5c-2,0.8-7.5-0.7-9.5-1.5"/>
	<path class="st1" d="M910.5,1491.5c1.2-0.2,2.3-0.4,3.5-0.5c5.6-0.4,6,0.1,5,5.5c-0.2,1,0.1,9.6,0.7,10.1"/>
	<path class="st1" d="M694.5,1658.5c-2,0.1-4-0.4-7,0.5"/>
	<path class="st1" d="M984,705.7c-1.8-1.4-13.1-3.2-14.8-5"/>
	<path class="st1" d="M310,1496.6c0.2,4.3-0.9,6.7-0.5,8.7"/>
	<path class="st1" d="M762,1320.5c-0.8,2,0,11.8,0,15"/>
	<path class="st1" d="M532.5,1156.5c3.5,1.7,7.3,1.3,11,2"/>
	<path class="st1" d="M421.5,1556.2c-3.5,0.8-7.7,1.8-8,5"/>
	<path class="st1" d="M737.5,1317c-1.8-1-3.7-0.3-5.5-0.5"/>
	<path class="st1" d="M914.5,1497.9l-6.5,0.6"/>
	<path class="st1" d="M941.7,1628.3c0.2,1.8,1.1,4.4-1.7,5.2"/>
	<path class="st1" d="M960.5,392c4.8-0.3,23.6-6.3,28.5-5"/>
	<path class="st1" d="M599.5,534.8c-1.2,1.7-3.3,5.1-4.5,6.8"/>
	<path class="st1" d="M335.1,1467.7c2.3,2.8,3.2,1.2,2.7,6.2"/>
	<path class="st1" d="M298,1506.5c-1.8,0.2-24,0.3-25.8,0.5"/>
	<path class="st1" d="M720.2,1354.8c-2.3,0.8-2.3,0.9-7.6,3.3"/>
	<path class="st1" d="M214,1448c1.2,2.9-0.2,19.5,0.5,22.5"/>
	<path class="st1" d="M183.5,1612c0,3.2-1.1,19.2-0.5,21"/>
	<path class="st1" d="M563.5,1233.5c-1.1,1.6-0.7,4.3-1,6"/>
	<path class="st1" d="M978.5,608c2.6-1.2,6.4-0.9,9-1.5"/>
	<path class="st1" d="M540,608.5c1.1,1.6,0.2,5.3,0.5,7"/>
	<path class="st1" d="M421.5,1543.5c0.3,1.7-0.4,6,0.7,7.6"/>
	<path class="st1" d="M985.5,356c-0.2,1.7,0.7,28.8,0.5,30.5"/>
	<path class="st1" d="M660.5,313c0.4,3.2,0.1,6.5-1,9.5"/>
	<path class="st1" d="M523,536.5c2.1-4.3,14.3,0.5,17.8,3.6"/>
	<path class="st1" d="M530,699.5c-1.1,4.3,0.7,23.4,0.3,27.7"/>
	<path class="st1" d="M547.5,517.5c-2.3-1.5-5.1,0.5-7.5,1"/>
	<path class="st1" d="M367,1425.5c-0.5,3.2,0.4,7.5-1.5,10.5"/>
	<path class="st1" d="M545.5,906c-2.8,0.8-5.3,19.8-4.6,23.2"/>
	<path class="st1" d="M421.5,1556.2c1.2,1.3,1.1,11.8,1.9,15"/>
	<path class="st1" d="M521.5,541.5c0-1.3,1.5-3.4,1.5-5c2.2-0.3,12.4,5,14.5,6.5"/>
	<path class="st1" d="M816.5,1307c-2.7,2.1-8.7,9.4-13,12.5"/>
	<path class="st1" d="M585,445.5c-2.5,0.5-5.2,1.2-7-3"/>
	<path class="st1" d="M910.5,1491.5c-4,0-11,2-11.6-1"/>
	<path class="st1" d="M408.9,1652.7c0.1,1.4-1.2,10.8-2,12"/>
	<path class="st1" d="M832.4,965.2c-1.3-0.8-8,1.4-9.3,0"/>
	<path class="st1" d="M572.5,968.5l3,3.5"/>
	<path class="st1" d="M524.5,527.5c0.3,1.5-1.5,6.7-1.2,8"/>
	<path class="st1" d="M523.3,521.9c0.2,1.4,1,4.1,1.2,5.6"/>
	<path class="st1" d="M540.5,637c1.6,1.9,4.8,2.6,7,3"/>
	<path class="st1" d="M900.5,1493c0.3,1.3-0.3,37.1-0.2,40.5"/>
	<path class="st1" d="M963.5,742.5c-0.3,1.3,0.4,3.8-0.8,5"/>
	<path class="st1" d="M968.5,738.5c-1.8,0.2-4.7,0.5-5,4"/>
	<path class="st1" d="M994.5,1540c-5,2-19.1,7.3-20.5,9.5"/>
	<path class="st1" d="M388.5,1516v8.5"/>
	<path class="st1" d="M907.3,1634c0.8,2.5,1.3,4.9,3.2,5.5"/>
	<path class="st1" d="M977.5,575c2.3,0.3,5.7,1.2,8,1.5"/>
	<path class="st1" d="M919.4,1505.4c0.6,2.1-0.1,4.1,0.6,6.1"/>
	<path class="st1" d="M982.8,709.5c-0.8,1.1,0.5,7.1,0.1,8.8"/>
	<path class="st1" d="M957.5,340.5c0,2.2,3,10.5,5,10.5"/>
	<path class="st1" d="M1004,1574c-1.5-0.5-3.1-0.9-4.7-1.2"/>
	<path class="st1" d="M359.5,1462c1.2,0.3,3.3,0.7,4.5,1"/>
	<path class="st1" d="M585.5,498c3.1,2.2,2.1,2.7-2,5"/>
	<path class="st1" d="M311.5,514c-0.9,1.2-2.9-0.4-3.5,1.5"/>
	<path class="st1" d="M324.5,373.5c-2.3,0.4-13.7,5.7-13,8"/>
	<path class="st1" d="M899.2,1066.5c8.2,0,12.6-0.6,15.1-0.7"/>
	<path class="st1" d="M1046.5,1464.5c-0.2,2.5,0.2,7,0,9.5"/>
	<path class="st1" d="M510.5,1657.5c0.1,1.8-1.5,3.8,0.5,5.5"/>
	<path class="st1" d="M997,1288.5v28.5"/>
	<path class="st1" d="M992,577.5c-1.8-0.1-4.7-1-6.8-1"/>
	<path class="st1" d="M350.5,1632c9.3,0.5,19.4,0.2,21,0.5"/>
	<path class="st1" d="M214.5,1606.5c-0.5,2.7-0.1,25.1-0.5,26.6"/>
	<path class="st1" d="M987.1,606.6c1.6-0.3,3.3-0.5,4.9-0.6"/>
	<path class="st1" d="M554,514.5c-0.7,0.1-3.7,1.2-4.2,2"/>
	<path class="st1" d="M533.3,503.1c-4,1.4-12.5,9.9-14,8.6"/>
	<path class="st1" d="M536,511.5c1,0.8,4.2,5.5,4.5,6"/>
	<path class="st1" d="M602.5,514c-0.5,0.3-2.5,2.4-3,2.8"/>
	<path class="st1" d="M183,1448.8v22.5"/>
	<path class="st1" d="M802,1652.2c0,1,0.9,2.6,0.9,3.6"/>
	<path class="st1" d="M829.7,1650.8c0,1,0.7,3.1,0.7,4.1"/>
	<path class="st1" d="M873,1487.5c0-2.7,0.1-9.3,0.1-12v-2.9"/>
	<path class="st1" d="M866.8,1472c1.5,0,4.8,0.6,6.3,0.6"/>
	<path class="st1" d="M900.3,1533.5c0.7,0,2.5-0.2,3.2-0.2"/>
	<path class="st1" d="M975,1547.9c-2.1,0-6.1,0.2-8.2,0.2h-63.7"/>
	<path class="st1" d="M896.4,1114.4c-0.5-1.8-0.2-4.6-0.2-6.7"/>
	<path class="st1" d="M896.2,1107.6c0.7,0,1.5-0.3,2.3-0.3"/>
	<path class="st1" d="M340.9,1553.9h37.8c2,0,3.8-0.4,5.8-0.4"/>
	<path class="st1" d="M384.5,1543v10.5"/>
	<path class="st1" d="M389.4,1553.1c1.1,0,3.4-0.2,4.5-0.2"/>
	<path class="st1" d="M394.1,1552.8c0,0.8,0.2,2.6,0.2,3.4"/>
	<path class="st1" d="M340,1516h44.5"/>
	<path class="st1" d="M384.5,1516c0,2.2,0.4,6.1,0.4,8.3"/>
	<path class="st1" d="M384.8,1524.3c1.2,0,2.4,0.2,3.7,0.2"/>
	<path class="st1" d="M388.5,1516h5.6"/>
	<path class="st1" d="M394.3,1513.5v2.5"/>
	<path class="st1" d="M362.2,1491.1v22.4"/>
	<path class="st1" d="M362.2,1491.1c1.6,0,2.2-0.1,3.8-0.1"/>
	<path class="st1" d="M397.1,1407.5c0,2.8,2.4,6.6,2.4,9.4"/>
	<path class="st1" d="M419,1440.8v56.8"/>
	<path class="st1" d="M419,1497.6h5"/>
	<path class="st1" d="M413.5,1561.4c-0.1-0.8-1.7-3.8-1-5.4c0.7-1.6,2-2.9,3.5-3.7c2.1-1.3,5.1-1.2,6.2-1.2"/>
	<path class="st1" d="M421.5,1543.5h5.3"/>
	<path class="st1" d="M934.2,1504.2c-2,4.2-5.2,3.9-7.2,0.5"/>
	<path class="st1" d="M926.5,1491.2c1.2,2.6-1,11,0.5,13.4"/>
	<path class="st1" d="M934,1492.2c0.2,3.8,0.9,8.3,0.2,12"/>
	<path class="st1" d="M934,1498.1l-6.5,0.6"/>
	<path class="st1" d="M918.7,1563.9c-2,4.2-5.2,3.9-7.2,0.5"/>
	<path class="st1" d="M910.5,1552.6c1.2,2.6-0.5,9.4,1,11.8"/>
	<path class="st1" d="M918.5,1551.9c0.2,3.8,0.9,8.3,0.2,12"/>
	<path class="st1" d="M918.5,1557.9l-6.5,0.6"/>
	<path class="st1" d="M941.7,1562.6c-2,4.2-5.2,3.9-7.2,0.5"/>
	<path class="st1" d="M933.5,1551.6c1.2,2.6-0.5,9.1,1.1,11.5"/>
	<path class="st1" d="M941.6,1550.6c0.2,3.8,0.9,8.3,0.2,12"/>
	<path class="st1" d="M941.6,1556.5l-6.5,0.6"/>
	<path class="st1" d="M958.9,1562.6c-2,4.2-5.2,3.9-7.2,0.5"/>
	<path class="st1" d="M950.5,1550.6c1.2,2.6-0.3,10.1,1.2,12.5"/>
	<path class="st1" d="M958.7,1550.6c0.2,3.8,0.9,8.3,0.2,12"/>
	<path class="st1" d="M958.7,1556.5l-6.5,0.6"/>
	<path class="st1" d="M945.5,1551v26"/>
	<path class="st1" d="M1045,1435c0,1,0.2,3.5,0.2,4.5"/>
	<path class="st1" d="M863.4,1430v13.8"/>
	<path class="st1" d="M863.4,1443.8c1.2,0,2.8-0.2,4.1-0.2"/>
	<path class="st1" d="M841,1336c0.7,0.7,2,1.7,2.6,2.4"/>
	<path class="st1" d="M712.6,1346.7c2.1,2.1,3.7,6.6,5.8,8.7"/>
	<path class="st1" d="M689.5,1284.8c0.5,0.4,1,0.8,1.5,1.1c1.4,0.7,2.9,1,4.5,1.2"/>
	<path class="st1" d="M933,1078c-4.5,0.5-9,0.7-13.5,0.6c-2.2,0-4.1-0.1-4,3c0,3.5,2.8,2.7,4.6,2.9c2.8,0.3,10.2-0.2,13-0.4"/>
	<path class="st1" d="M936.5,1030c0.3,1.3,0.2,2.7-0.4,3.9c-0.7,1.3-2.7,1.9-3.1,2.1"/>
	<path class="st1" d="M894.1,1033.8v43.2"/>
	<path class="st1" d="M894.1,1077h4.8"/>
	<path class="st1" d="M862.9,1033.4c1.2-0.1,2.5-0.1,3.8,0c1.4,0.2,2.2,0.5,2.9,0s0.4-1.5,0.3-2.3"/>
	<path class="st1" d="M1128.9,901.1v41.5"/>
	<path class="st1" d="M1048.5,904.3V915"/>
	<path class="st1" d="M990.4,889.6c1-0.2,3.7-0.8,4.7-1"/>
	<path class="st1" d="M991.2,860l3.2-1.2"/>
	<path class="st1" d="M532.3,1250c1.1,0,3.7-0.9,4.8-0.9"/>
	<path class="st1" d="M791.9,571.5c-2.4,4.6-4.2,9.9-2.2,14.2"/>
	<path class="st1" d="M799.5,584c-2,0.8-7.7,2.5-9.7,1.7"/>
	<path class="st1" d="M478.8,566.9c-0.1,1.7,1,3.9,0.9,5.6"/>
	<path class="st1" d="M370.5,569c0,0.8,0.2,2.3,0.2,3.2"/>
	<path class="st1" d="M403.5,569c0.1,0.9,0.2,3.2,0.3,4"/>
	<path class="st1" d="M308.8,381.7c0.6-0.4,2.1-0.2,2.6-0.6"/>
	<path class="st1" d="M356.8,403.7v6.1c0,7.1-0.1,15.6-0.1,22.8"/>
	<path class="st1" d="M356.8,403.7h5.1"/>
	<path class="st1" d="M356.8,350v28.5"/>
	<path class="st1" d="M418.5,408.5h3.5"/>
	<path class="st1" d="M568.1,422.2c0,3.5,0.4,8.2,0.4,11.8"/>
	<path class="st1" d="M587.5,450.8h-6.9"/>
	<path class="st1" d="M580.6,450.8c0,1.2-0.1,4-0.1,5.2"/>
	<path class="st1" d="M612.3,451.6v4.3"/>
	<path class="st1" d="M935.8,307.7c0,1,0.2,2.8,0.2,3.9"/>
	<path class="st1" d="M1011,306.7v15.7"/>
	<path class="st1" d="M521.5,541.5c0.8,0.8,4,3.3,4.8,4.1l3.2,3.2"/>
	<path class="st1" d="M514.8,512.4c-3.6,1.1-6.8,3.4-9,6.5"/>
	<path class="st1" d="M504.4,522.8c-0.4,0.9-0.6,1.8-0.8,2.8c-0.3,1.9-0.2,3.9,0.4,5.8"/>
	<path class="st1" d="M504.8,535.4c0.9,3.1,2.1,6,3.8,8.8"/>
	<path class="st1" d="M1033.5,1634.5c0,4.2-0.2,10.3-0.2,14.5"/>
	<polyline class="st0" points="341,454 374,454 383,454 	"/>
</g>
</svg>
